%TF.GenerationSoftware,Altium Limited,Altium Designer,24.10.1 (45)*%
G04 Layer_Physical_Order=1*
G04 Layer_Color=5636351*
%FSLAX45Y45*%
%MOMM*%
%TF.SameCoordinates,A6A100A0-8C7F-4B02-B864-72EC464A77B6*%
%TF.FilePolarity,Positive*%
%TF.FileFunction,Copper,L1,Top,Signal*%
%TF.Part,Single*%
G01*
G75*
%TA.AperFunction,SMDPad,CuDef*%
%ADD10R,0.85000X0.60000*%
%ADD11R,0.60000X0.85000*%
%ADD12R,0.65000X0.80000*%
G04:AMPARAMS|DCode=13|XSize=0.6mm|YSize=1.1mm|CornerRadius=0.051mm|HoleSize=0mm|Usage=FLASHONLY|Rotation=180.000|XOffset=0mm|YOffset=0mm|HoleType=Round|Shape=RoundedRectangle|*
%AMROUNDEDRECTD13*
21,1,0.60000,0.99800,0,0,180.0*
21,1,0.49800,1.10000,0,0,180.0*
1,1,0.10200,-0.24900,0.49900*
1,1,0.10200,0.24900,0.49900*
1,1,0.10200,0.24900,-0.49900*
1,1,0.10200,-0.24900,-0.49900*
%
%ADD13ROUNDEDRECTD13*%
%ADD14R,1.45000X0.60000*%
G04:AMPARAMS|DCode=15|XSize=0.6mm|YSize=1.1mm|CornerRadius=0.051mm|HoleSize=0mm|Usage=FLASHONLY|Rotation=90.000|XOffset=0mm|YOffset=0mm|HoleType=Round|Shape=RoundedRectangle|*
%AMROUNDEDRECTD15*
21,1,0.60000,0.99800,0,0,90.0*
21,1,0.49800,1.10000,0,0,90.0*
1,1,0.10200,0.49900,0.24900*
1,1,0.10200,0.49900,-0.24900*
1,1,0.10200,-0.49900,-0.24900*
1,1,0.10200,-0.49900,0.24900*
%
%ADD15ROUNDEDRECTD15*%
%ADD16R,0.80000X0.65000*%
G04:AMPARAMS|DCode=17|XSize=0.45mm|YSize=1.4mm|CornerRadius=0.1125mm|HoleSize=0mm|Usage=FLASHONLY|Rotation=0.000|XOffset=0mm|YOffset=0mm|HoleType=Round|Shape=RoundedRectangle|*
%AMROUNDEDRECTD17*
21,1,0.45000,1.17500,0,0,0.0*
21,1,0.22500,1.40000,0,0,0.0*
1,1,0.22500,0.11250,-0.58750*
1,1,0.22500,-0.11250,-0.58750*
1,1,0.22500,-0.11250,0.58750*
1,1,0.22500,0.11250,0.58750*
%
%ADD17ROUNDEDRECTD17*%
%ADD18R,1.00000X1.15000*%
%ADD19R,1.15000X1.00000*%
%TA.AperFunction,Conductor*%
%ADD20C,0.30000*%
%ADD21C,0.60000*%
%ADD22C,0.40000*%
%ADD23C,0.50000*%
%TA.AperFunction,ComponentPad*%
%ADD24C,1.30000*%
%ADD25O,1.00000X1.50000*%
%ADD26O,1.70000X2.40000*%
%ADD27R,1.70000X2.40000*%
%ADD28C,2.60000*%
%ADD29C,2.00000*%
%ADD30O,2.40000X1.70000*%
%ADD31R,2.40000X1.70000*%
%TA.AperFunction,ViaPad*%
%ADD32C,0.60000*%
G36*
X-150000Y-1174104D02*
X-2454795D01*
X-2463654Y-1170434D01*
X-2470434Y-1163654D01*
X-2474104Y-1154795D01*
Y-1150000D01*
Y2450000D01*
Y2454795D01*
X-2470434Y2463653D01*
X-2463654Y2470434D01*
X-2454795Y2474104D01*
X-1648086D01*
X-1637500Y2469000D01*
X-1637500Y2461404D01*
Y1269000D01*
X-1495233D01*
X-1408243Y1182010D01*
Y1088049D01*
X-1429900D01*
X-1436845Y1086667D01*
X-1442733Y1082733D01*
X-1446667Y1076845D01*
X-1448049Y1069900D01*
Y1029204D01*
X-1460749Y1023943D01*
X-1475090Y1038284D01*
X-1489214Y1047722D01*
X-1505875Y1051036D01*
X-1507300D01*
Y1062700D01*
X-1515616D01*
X-1519214Y1075400D01*
X-1513801Y1080812D01*
X-1507301Y1096506D01*
Y1113493D01*
X-1513801Y1129187D01*
X-1525813Y1141199D01*
X-1541507Y1147700D01*
X-1558494D01*
X-1574188Y1141199D01*
X-1586200Y1129187D01*
X-1592700Y1113493D01*
Y1096506D01*
X-1586200Y1080812D01*
X-1580787Y1075400D01*
X-1584385Y1062700D01*
X-1592700D01*
Y1011705D01*
X-1593536Y1007500D01*
X-1592700Y1003295D01*
Y960400D01*
X-1605400D01*
Y905201D01*
X-1550000D01*
Y879801D01*
X-1605400D01*
Y824600D01*
X-1605400D01*
X-1601928Y819403D01*
X-1604704Y812700D01*
X-1550000D01*
Y800000D01*
X-1537300D01*
Y745296D01*
X-1528946Y748756D01*
X-1527649Y748538D01*
X-1516569Y740137D01*
Y469845D01*
X-1516569Y469844D01*
X-1514419Y459036D01*
X-1508297Y449873D01*
X-1454132Y395709D01*
Y354328D01*
X-1488895Y319565D01*
X-1499662Y326759D01*
X-1495296Y337300D01*
X-1537300D01*
Y295296D01*
X-1526759Y299662D01*
X-1519565Y288895D01*
X-1595319Y213141D01*
X-1888440D01*
X-1888441Y213142D01*
X-1899249Y210991D01*
X-1908412Y204869D01*
X-1908413Y204869D01*
X-1935487Y177794D01*
X-1946253Y184988D01*
X-1945296Y187300D01*
X-1987300D01*
Y145296D01*
X-1983571Y146841D01*
X-1975151Y136582D01*
X-1978155Y132086D01*
X-1980305Y121278D01*
X-1980305Y121277D01*
Y-16859D01*
X-1980305Y-16861D01*
X-1978155Y-27669D01*
X-1972033Y-36831D01*
X-1931394Y-77469D01*
X-1931394Y-77470D01*
X-1922231Y-83592D01*
X-1911423Y-85743D01*
X-1911422Y-85742D01*
X-1892700D01*
Y-112700D01*
X-1807300D01*
Y-85742D01*
X-1745200D01*
Y-107700D01*
X-1654800D01*
Y-105172D01*
X-1643067Y-100312D01*
X-1636908Y-106471D01*
X-1627746Y-112593D01*
X-1616937Y-114743D01*
X-1607700D01*
Y-129200D01*
X-1437300D01*
Y-43800D01*
X-1607700D01*
Y-43800D01*
X-1616182Y-47313D01*
X-1628467Y-35029D01*
X-1637629Y-28907D01*
X-1648437Y-26757D01*
X-1654800Y-16896D01*
X-1654800Y-2300D01*
X-1654800Y12265D01*
X-1651422Y15144D01*
X-1642100Y18522D01*
X-1635942Y14407D01*
X-1625134Y12257D01*
X-1625133Y12257D01*
X-1607700D01*
Y-2200D01*
X-1437300D01*
Y12257D01*
X-1370475D01*
X-1370473Y12257D01*
X-1359665Y14407D01*
X-1350503Y20529D01*
X-1285029Y86003D01*
X-1285029Y86003D01*
X-1278907Y95166D01*
X-1276757Y105974D01*
Y145820D01*
X-1267776Y154800D01*
X-1252300Y154800D01*
X-1239600Y154800D01*
X-1223243D01*
Y105975D01*
X-1223243Y105974D01*
X-1221093Y95166D01*
X-1214971Y86003D01*
X-1149498Y20530D01*
X-1149497Y20529D01*
X-1140335Y14407D01*
X-1129527Y12257D01*
X-1062700D01*
Y-2200D01*
X-892300D01*
Y12257D01*
X-857640D01*
X-857638Y12257D01*
X-846830Y14407D01*
X-837668Y20529D01*
X-836440Y21757D01*
X-812700D01*
Y7300D01*
X-710400D01*
Y-5400D01*
X-655200D01*
Y50000D01*
Y105400D01*
X-710400D01*
Y92700D01*
X-812700D01*
Y78243D01*
X-848138D01*
X-858946Y76093D01*
X-868109Y69971D01*
X-868110Y69970D01*
X-869337Y68743D01*
X-892300D01*
Y83200D01*
X-1062700D01*
Y68743D01*
X-1117828D01*
X-1166758Y117673D01*
Y154800D01*
X-1142300D01*
Y245200D01*
X-1166758D01*
Y307300D01*
X-1137300D01*
Y392700D01*
X-1164257D01*
Y410356D01*
X-1156301Y418313D01*
X-1149800Y434006D01*
Y450994D01*
X-1156301Y466687D01*
X-1168313Y478699D01*
X-1184007Y485200D01*
X-1200994D01*
X-1216687Y478699D01*
X-1228699Y466687D01*
X-1235200Y450994D01*
Y434006D01*
X-1228699Y418313D01*
X-1223588Y413202D01*
Y398835D01*
X-1229723Y392700D01*
X-1247700Y392700D01*
X-1260400Y392700D01*
X-1362700D01*
Y307300D01*
X-1333242D01*
Y245200D01*
X-1357700D01*
Y154800D01*
X-1333242D01*
Y117672D01*
X-1382172Y68743D01*
X-1437300D01*
Y83200D01*
X-1607700D01*
Y80968D01*
X-1617397Y76107D01*
X-1620400Y75463D01*
X-1628826Y81093D01*
X-1639634Y83243D01*
X-1639635Y83243D01*
X-1654800D01*
Y107700D01*
X-1745200D01*
Y83243D01*
X-1807300D01*
Y112700D01*
X-1892700D01*
Y10401D01*
X-1892700Y2300D01*
X-1892700Y-18320D01*
X-1905400Y-23581D01*
X-1923819Y-5162D01*
Y109579D01*
X-1876743Y156656D01*
X-1583622D01*
X-1583621Y156656D01*
X-1572812Y158806D01*
X-1563650Y164928D01*
X-1518100Y210478D01*
X-1505400Y205217D01*
Y188980D01*
X-1496966Y168618D01*
X-1481381Y153034D01*
X-1462700Y145296D01*
Y200000D01*
X-1450000D01*
Y212700D01*
X-1395296D01*
X-1403034Y231381D01*
X-1418618Y246966D01*
X-1438980Y255400D01*
X-1455217D01*
X-1460478Y268100D01*
X-1405919Y322659D01*
X-1405918Y322659D01*
X-1399796Y331822D01*
X-1397646Y342630D01*
Y407407D01*
X-1399796Y418215D01*
X-1405918Y427378D01*
X-1405919Y427378D01*
X-1460083Y481543D01*
Y734975D01*
X-1383107Y811951D01*
X-1330100D01*
X-1323155Y813333D01*
X-1317267Y817267D01*
X-1313333Y823155D01*
X-1311951Y830100D01*
Y879900D01*
X-1313333Y886845D01*
X-1317267Y892733D01*
X-1321675Y895678D01*
X-1322473Y902500D01*
X-1321675Y909322D01*
X-1317267Y912267D01*
X-1313333Y918155D01*
X-1311951Y925100D01*
Y974900D01*
X-1313333Y981845D01*
X-1317267Y987733D01*
X-1321675Y990678D01*
X-1322473Y997500D01*
X-1321675Y1004322D01*
X-1317267Y1007267D01*
X-1313333Y1013155D01*
X-1311951Y1020100D01*
Y1069900D01*
X-1313333Y1076845D01*
X-1317267Y1082733D01*
X-1323155Y1086667D01*
X-1330100Y1088049D01*
X-1351757D01*
Y1193707D01*
X-1351757Y1193709D01*
X-1353079Y1200354D01*
X-1341375Y1206610D01*
X-1278243Y1143478D01*
Y895850D01*
X-1278243Y895848D01*
X-1276093Y885040D01*
X-1269971Y875878D01*
X-1229123Y835030D01*
X-1229122Y835029D01*
X-1219960Y828907D01*
X-1209152Y826757D01*
X-1187384D01*
X-1186667Y823155D01*
X-1182733Y817267D01*
X-1176845Y813333D01*
X-1169900Y811951D01*
X-1148243D01*
Y745200D01*
X-1239600D01*
X-1247700Y745200D01*
X-1260400Y745200D01*
X-1357700D01*
Y738547D01*
X-1370400Y733287D01*
X-1373312Y736199D01*
X-1389006Y742700D01*
X-1405993D01*
X-1421687Y736199D01*
X-1433699Y724188D01*
X-1440200Y708494D01*
Y691507D01*
X-1433699Y675813D01*
X-1421687Y663801D01*
X-1405993Y657300D01*
X-1389006D01*
X-1373312Y663801D01*
X-1370400Y666714D01*
X-1357700Y661454D01*
Y654800D01*
X-1260400D01*
X-1252300Y654800D01*
X-1239600Y654800D01*
X-1142300D01*
Y661403D01*
X-1136676Y671757D01*
X-1125868Y673907D01*
X-1116705Y680029D01*
X-1100030Y696705D01*
X-1100029Y696705D01*
X-1093907Y705868D01*
X-1091757Y716676D01*
Y811951D01*
X-1070100D01*
X-1063155Y813333D01*
X-1057267Y817267D01*
X-1053333Y823155D01*
X-1051951Y830100D01*
Y879900D01*
X-1053333Y886845D01*
X-1057267Y892733D01*
X-1063155Y896667D01*
X-1070100Y898048D01*
X-1169900D01*
X-1176845Y896667D01*
X-1182733Y892733D01*
X-1186407Y887235D01*
X-1190177Y886515D01*
X-1199817Y885607D01*
X-1221757Y907547D01*
Y1155177D01*
X-1223907Y1165985D01*
X-1230029Y1175148D01*
X-1230030Y1175148D01*
X-1312149Y1257267D01*
X-1307288Y1269000D01*
X-862500D01*
Y2461404D01*
X-862500Y2469000D01*
X-851914Y2474104D01*
X-150000D01*
Y-1174104D01*
D02*
G37*
%LPC*%
G36*
X-2115000Y2265353D02*
X-2137300D01*
Y2166700D01*
X-2005319D01*
X-2007442Y2182820D01*
X-2018566Y2209676D01*
X-2036262Y2232738D01*
X-2059324Y2250434D01*
X-2086180Y2261558D01*
X-2115000Y2265353D01*
D02*
G37*
G36*
X-2162700D02*
X-2185000D01*
X-2213820Y2261558D01*
X-2240676Y2250434D01*
X-2263738Y2232738D01*
X-2281434Y2209676D01*
X-2292559Y2182820D01*
X-2294681Y2166700D01*
X-2162700D01*
Y2265353D01*
D02*
G37*
G36*
X-579800Y2262700D02*
X-720200D01*
Y2137300D01*
X-579800D01*
Y2156464D01*
X-560077D01*
X-526829Y2123215D01*
X-512705Y2113778D01*
X-496044Y2110464D01*
X-472716D01*
X-470341Y2104729D01*
X-454681Y2084320D01*
X-434272Y2068659D01*
X-410505Y2058815D01*
X-385000Y2055457D01*
X-315000D01*
X-289495Y2058815D01*
X-265728Y2068659D01*
X-245320Y2084320D01*
X-229659Y2104729D01*
X-219815Y2128495D01*
X-216457Y2154000D01*
X-219815Y2179505D01*
X-229659Y2203271D01*
X-245320Y2223680D01*
X-265728Y2239341D01*
X-289495Y2249185D01*
X-315000Y2252543D01*
X-385000D01*
X-410505Y2249185D01*
X-434272Y2239341D01*
X-454681Y2223680D01*
X-468617Y2205518D01*
X-477845Y2203404D01*
X-483987Y2203513D01*
X-511259Y2230785D01*
X-525384Y2240223D01*
X-542044Y2243537D01*
X-579800D01*
Y2262700D01*
D02*
G37*
G36*
X-2005319Y2141300D02*
X-2137300D01*
Y2042647D01*
X-2115000D01*
X-2086180Y2046442D01*
X-2059324Y2057566D01*
X-2036262Y2075262D01*
X-2018566Y2098324D01*
X-2007442Y2125180D01*
X-2005319Y2141300D01*
D02*
G37*
G36*
X-2162700D02*
X-2294681D01*
X-2292559Y2125180D01*
X-2281434Y2098324D01*
X-2263738Y2075262D01*
X-2240676Y2057566D01*
X-2213820Y2046442D01*
X-2185000Y2042647D01*
X-2162700D01*
Y2141300D01*
D02*
G37*
G36*
X-567100Y2075400D02*
X-637300D01*
Y2012700D01*
X-567100D01*
Y2075400D01*
D02*
G37*
G36*
X-662700D02*
X-732900D01*
Y2012700D01*
X-662700D01*
Y2075400D01*
D02*
G37*
G36*
X-567100Y1987300D02*
X-637300D01*
Y1924600D01*
X-567100D01*
Y1987300D01*
D02*
G37*
G36*
X-662700D02*
X-732900D01*
Y1924600D01*
X-662700D01*
Y1987300D01*
D02*
G37*
G36*
X-315000Y2011353D02*
X-337300D01*
Y1912700D01*
X-205319D01*
X-207442Y1928820D01*
X-218566Y1955676D01*
X-236262Y1978738D01*
X-259324Y1996434D01*
X-286180Y2007558D01*
X-315000Y2011353D01*
D02*
G37*
G36*
X-2115000D02*
X-2137300D01*
Y1912700D01*
X-2005319D01*
X-2007442Y1928820D01*
X-2018566Y1955676D01*
X-2036262Y1978738D01*
X-2059324Y1996434D01*
X-2086180Y2007558D01*
X-2115000Y2011353D01*
D02*
G37*
G36*
X-362700D02*
X-385000D01*
X-413820Y2007558D01*
X-440677Y1996434D01*
X-463738Y1978738D01*
X-481434Y1955676D01*
X-492559Y1928820D01*
X-494681Y1912700D01*
X-362700D01*
Y2011353D01*
D02*
G37*
G36*
X-2162700D02*
X-2185000D01*
X-2213820Y2007558D01*
X-2240676Y1996434D01*
X-2263738Y1978738D01*
X-2281434Y1955676D01*
X-2292559Y1928820D01*
X-2294681Y1912700D01*
X-2162700D01*
Y2011353D01*
D02*
G37*
G36*
X-567100Y1875400D02*
X-637300D01*
Y1812700D01*
X-567100D01*
Y1875400D01*
D02*
G37*
G36*
X-662700D02*
X-732900D01*
Y1812700D01*
X-662700D01*
Y1875400D01*
D02*
G37*
G36*
X-205319Y1887300D02*
X-337300D01*
Y1788647D01*
X-315000D01*
X-286180Y1792442D01*
X-259324Y1803566D01*
X-236262Y1821262D01*
X-218566Y1844324D01*
X-207442Y1871180D01*
X-205319Y1887300D01*
D02*
G37*
G36*
X-362700D02*
X-494681D01*
X-492559Y1871180D01*
X-481434Y1844324D01*
X-463738Y1821262D01*
X-440677Y1803566D01*
X-413820Y1792442D01*
X-385000Y1788647D01*
X-362700D01*
Y1887300D01*
D02*
G37*
G36*
X-2005319D02*
X-2137300D01*
Y1788647D01*
X-2115000D01*
X-2086180Y1792442D01*
X-2059324Y1803566D01*
X-2036262Y1821262D01*
X-2018566Y1844324D01*
X-2007442Y1871180D01*
X-2005319Y1887300D01*
D02*
G37*
G36*
X-2162700D02*
X-2294681D01*
X-2292559Y1871180D01*
X-2281434Y1844324D01*
X-2263738Y1821262D01*
X-2240676Y1803566D01*
X-2213820Y1792442D01*
X-2185000Y1788647D01*
X-2162700D01*
Y1887300D01*
D02*
G37*
G36*
X-567100Y1787300D02*
X-637300D01*
Y1724600D01*
X-567100D01*
Y1787300D01*
D02*
G37*
G36*
X-662700D02*
X-732900D01*
Y1724600D01*
X-662700D01*
Y1787300D01*
D02*
G37*
G36*
X-217300Y1743700D02*
X-482700D01*
Y1689536D01*
X-493290D01*
X-509950Y1686222D01*
X-524074Y1676785D01*
X-557323Y1643536D01*
X-579800D01*
Y1662700D01*
X-720200D01*
Y1537300D01*
X-579800D01*
Y1556463D01*
X-539290D01*
X-522629Y1559777D01*
X-508505Y1569215D01*
X-494433Y1583287D01*
X-482700Y1578426D01*
Y1548300D01*
X-217300D01*
Y1743700D01*
D02*
G37*
G36*
X-941507Y1147700D02*
X-958494D01*
X-974188Y1141199D01*
X-986199Y1129187D01*
X-992700Y1113493D01*
Y1096506D01*
X-986199Y1080812D01*
X-985747Y1080360D01*
X-987942Y1065663D01*
X-992700Y1062700D01*
X-1004528Y1063510D01*
X-1013198Y1072180D01*
X-1025668Y1080512D01*
X-1040378Y1083439D01*
X-1040379Y1083439D01*
X-1058323D01*
X-1063155Y1086667D01*
X-1070100Y1088049D01*
X-1169900D01*
X-1176845Y1086667D01*
X-1182733Y1082733D01*
X-1186667Y1076845D01*
X-1188049Y1069900D01*
Y1020100D01*
X-1186667Y1013155D01*
X-1182733Y1007267D01*
X-1176845Y1003333D01*
X-1169900Y1001951D01*
X-1070100D01*
X-1063155Y1003333D01*
X-1058323Y1006561D01*
X-1056300D01*
X-1030058Y980319D01*
X-1017588Y971987D01*
X-1011169Y970710D01*
X-1005400Y960400D01*
X-1005400Y957599D01*
Y905201D01*
X-950000D01*
X-894600D01*
Y960400D01*
X-907300D01*
Y1062700D01*
X-915616D01*
X-919214Y1075400D01*
X-913801Y1080812D01*
X-907300Y1096506D01*
Y1113493D01*
X-913801Y1129187D01*
X-925813Y1141199D01*
X-941507Y1147700D01*
D02*
G37*
G36*
X-2017300Y1743700D02*
X-2282700D01*
Y1548300D01*
X-2178243D01*
Y1450001D01*
X-2178243Y1450000D01*
X-2176093Y1439192D01*
X-2169971Y1430029D01*
X-2078243Y1338301D01*
Y1257700D01*
X-2095200D01*
Y1160400D01*
X-2095200Y1152300D01*
X-2095200Y1139599D01*
Y1042300D01*
X-2078243D01*
Y996800D01*
X-2078243Y996799D01*
X-2076093Y985990D01*
X-2069971Y976828D01*
X-2060743Y967600D01*
Y954804D01*
X-2073105Y949151D01*
X-2074036Y949393D01*
X-2076905Y951310D01*
X-2086250Y953169D01*
X-2108750D01*
X-2118095Y951310D01*
X-2126017Y946017D01*
X-2131310Y938094D01*
X-2133169Y928750D01*
Y903340D01*
X-2166160D01*
X-2178919Y900802D01*
X-2189736Y893575D01*
X-2192470Y890841D01*
X-2207300D01*
Y912700D01*
X-2215617D01*
X-2219214Y925400D01*
X-2213802Y930813D01*
X-2207301Y946507D01*
Y963494D01*
X-2213802Y979188D01*
X-2225813Y991199D01*
X-2241507Y997700D01*
X-2258494D01*
X-2274188Y991199D01*
X-2286200Y979188D01*
X-2292701Y963494D01*
Y946507D01*
X-2286200Y930813D01*
X-2280787Y925400D01*
X-2284385Y912700D01*
X-2292700D01*
Y810400D01*
X-2305400D01*
Y755200D01*
X-2250000D01*
X-2194600D01*
Y810400D01*
X-2207300D01*
Y824160D01*
X-2178660D01*
X-2165901Y826698D01*
X-2155085Y833925D01*
X-2152350Y836659D01*
X-2133169D01*
Y811250D01*
X-2131310Y801905D01*
X-2126017Y793983D01*
X-2118095Y788690D01*
X-2108750Y786831D01*
X-2086250D01*
X-2076905Y788690D01*
X-2068983Y793983D01*
X-2055964Y790607D01*
X-2053095Y788690D01*
X-2043750Y786831D01*
X-2021250D01*
X-2011906Y788690D01*
X-2003983Y793983D01*
X-1990965Y790607D01*
X-1988095Y788690D01*
X-1978750Y786831D01*
X-1956250D01*
X-1946905Y788690D01*
X-1938983Y793983D01*
X-1925964Y790607D01*
X-1923095Y788690D01*
X-1913750Y786831D01*
X-1891250D01*
X-1881906Y788690D01*
X-1873983Y793983D01*
X-1868690Y801905D01*
X-1866831Y811250D01*
Y841757D01*
X-1824485D01*
X-1816528Y833801D01*
X-1800835Y827300D01*
X-1783848D01*
X-1768154Y833801D01*
X-1756142Y845813D01*
X-1749641Y861507D01*
Y878494D01*
X-1756142Y894187D01*
X-1768154Y906199D01*
X-1783848Y912700D01*
X-1800835D01*
X-1816528Y906199D01*
X-1824485Y898243D01*
X-1866831D01*
Y928750D01*
X-1868690Y938095D01*
X-1873983Y946017D01*
X-1881906Y951310D01*
X-1891250Y953169D01*
X-1913750D01*
X-1923095Y951310D01*
X-1931017Y946017D01*
X-1944036Y949393D01*
X-1946905Y951310D01*
X-1956250Y953169D01*
X-1978750D01*
X-1988095Y951310D01*
X-1991557Y948996D01*
X-2004257Y954803D01*
Y979299D01*
X-2006407Y990107D01*
X-2012529Y999270D01*
X-2021757Y1008497D01*
Y1042300D01*
X-2004800D01*
Y1139599D01*
X-2004800Y1147700D01*
X-2004800Y1160400D01*
Y1257700D01*
X-2021757D01*
Y1350000D01*
X-2023907Y1360808D01*
X-2030029Y1369971D01*
X-2030030Y1369971D01*
X-2121757Y1461699D01*
Y1548300D01*
X-2017300D01*
Y1743700D01*
D02*
G37*
G36*
X-894600Y879801D02*
X-950000D01*
X-1005400D01*
Y824600D01*
X-1005400D01*
X-1001928Y819403D01*
X-1004704Y812700D01*
X-895296D01*
X-898073Y819403D01*
X-894600Y824600D01*
X-894600D01*
Y879801D01*
D02*
G37*
G36*
X-895296Y787300D02*
X-937300D01*
Y745296D01*
X-918619Y753034D01*
X-903034Y768618D01*
X-895296Y787300D01*
D02*
G37*
G36*
X-962700D02*
X-1004704D01*
X-996966Y768618D01*
X-981382Y753034D01*
X-962700Y745296D01*
Y787300D01*
D02*
G37*
G36*
X-1562700D02*
X-1604704D01*
X-1596966Y768618D01*
X-1581382Y753034D01*
X-1562700Y745296D01*
Y787300D01*
D02*
G37*
G36*
X-1687300Y704704D02*
Y662700D01*
X-1645296D01*
X-1653034Y681382D01*
X-1668618Y696966D01*
X-1687300Y704704D01*
D02*
G37*
G36*
X-1712700D02*
X-1731381Y696966D01*
X-1746966Y681382D01*
X-1754704Y662700D01*
X-1712700D01*
Y704704D01*
D02*
G37*
G36*
X-2194600Y729800D02*
X-2250000D01*
X-2305400D01*
Y674600D01*
X-2305400D01*
X-2301928Y669403D01*
X-2304704Y662700D01*
X-2195296D01*
X-2198073Y669403D01*
X-2194600Y674600D01*
X-2194600D01*
Y729800D01*
D02*
G37*
G36*
X-2195296Y637300D02*
X-2237300D01*
Y595296D01*
X-2218619Y603034D01*
X-2203034Y618618D01*
X-2195296Y637300D01*
D02*
G37*
G36*
X-2262700D02*
X-2304704D01*
X-2296966Y618618D01*
X-2281382Y603034D01*
X-2262700Y595296D01*
Y637300D01*
D02*
G37*
G36*
X-1645296Y637300D02*
X-1754704D01*
X-1751927Y630597D01*
X-1755400Y625400D01*
X-1755400D01*
Y570200D01*
X-1644600D01*
Y625400D01*
X-1644600D01*
X-1648072Y630597D01*
X-1645296Y637300D01*
D02*
G37*
G36*
X-1644600Y544800D02*
X-1755400D01*
Y489600D01*
X-1742700D01*
Y470743D01*
X-1807500D01*
X-1818308Y468593D01*
X-1827471Y462471D01*
X-1827471Y462470D01*
X-1831698Y458243D01*
X-1866831D01*
Y488750D01*
X-1868690Y498095D01*
X-1873983Y506017D01*
X-1881906Y511310D01*
X-1891250Y513169D01*
X-1913750D01*
X-1923095Y511310D01*
X-1925965Y509393D01*
X-1935000Y507050D01*
X-1944035Y509393D01*
X-1946905Y511310D01*
X-1956250Y513169D01*
X-1978750D01*
X-1988095Y511310D01*
X-1990965Y509393D01*
X-2000000Y507050D01*
X-2009036Y509393D01*
X-2011906Y511310D01*
X-2021250Y513169D01*
X-2043750D01*
X-2053095Y511310D01*
X-2055965Y509393D01*
X-2059827Y515173D01*
X-2071950Y523274D01*
X-2084800Y525830D01*
Y430000D01*
Y334171D01*
X-2071950Y336727D01*
X-2059827Y344827D01*
X-2055965Y350607D01*
X-2053095Y348690D01*
X-2043750Y346831D01*
X-2021250D01*
X-2011906Y348690D01*
X-2009036Y350608D01*
X-2000000Y352950D01*
X-1990965Y350608D01*
X-1988095Y348690D01*
X-1978750Y346831D01*
X-1956250D01*
X-1946905Y348690D01*
X-1944035Y350607D01*
X-1935000Y352950D01*
X-1925965Y350607D01*
X-1923095Y348690D01*
X-1913750Y346831D01*
X-1891250D01*
X-1881906Y348690D01*
X-1873983Y353983D01*
X-1868690Y361906D01*
X-1866831Y371250D01*
Y401757D01*
X-1820001D01*
X-1820000Y401757D01*
X-1809192Y403907D01*
X-1800029Y410029D01*
X-1795801Y414257D01*
X-1742700D01*
Y387300D01*
X-1741047D01*
X-1735786Y374600D01*
X-1736199Y374187D01*
X-1742700Y358493D01*
Y341506D01*
X-1736199Y325812D01*
X-1724187Y313801D01*
X-1708493Y307300D01*
X-1691506D01*
X-1675812Y313801D01*
X-1663801Y325812D01*
X-1657300Y341506D01*
Y358493D01*
X-1663801Y374187D01*
X-1664213Y374600D01*
X-1658953Y387300D01*
X-1657300D01*
Y489600D01*
X-1644600D01*
Y544800D01*
D02*
G37*
G36*
X-2110200Y525830D02*
X-2123050Y523274D01*
X-2135173Y515173D01*
X-2143273Y503050D01*
X-2146118Y488750D01*
Y442700D01*
X-2110200D01*
Y525830D01*
D02*
G37*
G36*
X-1537300Y404704D02*
Y362700D01*
X-1495296D01*
X-1503034Y381381D01*
X-1518619Y396966D01*
X-1537300Y404704D01*
D02*
G37*
G36*
X-1562700D02*
X-1581381Y396966D01*
X-1596966Y381381D01*
X-1604704Y362700D01*
X-1562700D01*
Y404704D01*
D02*
G37*
G36*
X-2110200Y417300D02*
X-2146118D01*
Y371250D01*
X-2143273Y356950D01*
X-2135173Y344827D01*
X-2123050Y336727D01*
X-2110200Y334171D01*
Y417300D01*
D02*
G37*
G36*
X-1562700Y337300D02*
X-1604704D01*
X-1596966Y318618D01*
X-1581381Y303034D01*
X-1562700Y295296D01*
Y337300D01*
D02*
G37*
G36*
X-1987300Y254704D02*
Y212700D01*
X-1945296D01*
X-1953034Y231381D01*
X-1968619Y246966D01*
X-1987300Y254704D01*
D02*
G37*
G36*
X-2012700D02*
X-2031382Y246966D01*
X-2046966Y231381D01*
X-2054704Y212700D01*
X-2012700D01*
Y254704D01*
D02*
G37*
G36*
X-1395296Y187300D02*
X-1437300D01*
Y145296D01*
X-1418618Y153034D01*
X-1403034Y168618D01*
X-1395296Y187300D01*
D02*
G37*
G36*
X-2012700D02*
X-2054704D01*
X-2046966Y168618D01*
X-2031382Y153034D01*
X-2012700Y145296D01*
Y187300D01*
D02*
G37*
G36*
X-537300Y104704D02*
Y62700D01*
X-495296D01*
X-503034Y81381D01*
X-518618Y96966D01*
X-537300Y104704D01*
D02*
G37*
G36*
X-574600Y105400D02*
Y105400D01*
X-629800D01*
Y50000D01*
Y-5400D01*
X-574600D01*
Y-5400D01*
X-569403Y-1928D01*
X-562700Y-4704D01*
Y50000D01*
Y104704D01*
X-569403Y101927D01*
X-574600Y105400D01*
D02*
G37*
G36*
X-495296Y37300D02*
X-537300D01*
Y-4704D01*
X-518618Y3034D01*
X-503034Y18618D01*
X-495296Y37300D01*
D02*
G37*
G36*
X-537300Y-45296D02*
Y-87300D01*
X-495296D01*
X-503034Y-68619D01*
X-518618Y-53034D01*
X-537300Y-45296D01*
D02*
G37*
G36*
X-574600Y-44600D02*
Y-44600D01*
X-629800D01*
Y-100000D01*
Y-155400D01*
X-574600D01*
Y-155400D01*
X-569403Y-151928D01*
X-562700Y-154704D01*
Y-100000D01*
Y-45296D01*
X-569403Y-48073D01*
X-574600Y-44600D01*
D02*
G37*
G36*
X-495296Y-112700D02*
X-537300D01*
Y-154704D01*
X-518618Y-146966D01*
X-503034Y-131381D01*
X-495296Y-112700D01*
D02*
G37*
G36*
X-865222Y-42964D02*
X-1186500D01*
X-1203161Y-46278D01*
X-1217285Y-55715D01*
X-1331533Y-169964D01*
X-1522500D01*
X-1525001Y-170461D01*
X-1527500Y-169964D01*
X-1620000D01*
X-1624206Y-170801D01*
X-1628493D01*
X-1632454Y-172441D01*
X-1636660Y-173278D01*
X-1640227Y-175661D01*
X-1644187Y-177301D01*
X-1647218Y-180332D01*
X-1650785Y-182715D01*
Y-182716D01*
X-1653167Y-186281D01*
X-1656199Y-189313D01*
X-1657840Y-193274D01*
X-1660222Y-196840D01*
X-1661059Y-201045D01*
X-1662700Y-205007D01*
Y-209295D01*
X-1663536Y-213500D01*
X-1662700Y-217705D01*
Y-221994D01*
X-1661059Y-225956D01*
X-1660222Y-230161D01*
X-1657840Y-233727D01*
X-1656199Y-237688D01*
X-1653167Y-240720D01*
X-1650785Y-244285D01*
X-1647219Y-246668D01*
X-1644187Y-249700D01*
X-1640226Y-251340D01*
X-1636660Y-253723D01*
X-1632455Y-254559D01*
X-1628493Y-256200D01*
X-1624205D01*
X-1620000Y-257037D01*
X-1619999Y-257037D01*
X-1527500D01*
X-1524999Y-256539D01*
X-1522500Y-257036D01*
X-1313500D01*
X-1296839Y-253722D01*
X-1282715Y-244285D01*
X-1168467Y-130036D01*
X-883256D01*
X-882507Y-130785D01*
X-868383Y-140222D01*
X-851722Y-143536D01*
X-757501D01*
X-753296Y-142700D01*
X-710400D01*
Y-155400D01*
X-655200D01*
Y-100000D01*
Y-44600D01*
X-710400D01*
Y-57300D01*
X-753296D01*
X-757501Y-56463D01*
X-833689D01*
X-834437Y-55715D01*
X-848562Y-46278D01*
X-865222Y-42964D01*
D02*
G37*
G36*
X-537300Y-195296D02*
Y-237300D01*
X-495296D01*
X-503034Y-218619D01*
X-518618Y-203034D01*
X-537300Y-195296D01*
D02*
G37*
G36*
X-574600Y-194600D02*
Y-194600D01*
X-629801D01*
Y-250000D01*
Y-305400D01*
X-574600D01*
Y-305400D01*
X-569403Y-301928D01*
X-562700Y-304704D01*
Y-250000D01*
Y-195296D01*
X-569403Y-198073D01*
X-574600Y-194600D01*
D02*
G37*
G36*
X-495296Y-262700D02*
X-537300D01*
Y-304704D01*
X-518618Y-296966D01*
X-503034Y-281381D01*
X-495296Y-262700D01*
D02*
G37*
G36*
X-869359Y-169964D02*
X-977500D01*
X-981705Y-170800D01*
X-1062700D01*
Y-256200D01*
X-981705D01*
X-977500Y-257036D01*
X-887393D01*
X-863644Y-280785D01*
X-849520Y-290222D01*
X-832859Y-293536D01*
X-757500D01*
X-753295Y-292700D01*
X-710400D01*
Y-305400D01*
X-655201D01*
Y-250000D01*
Y-194600D01*
X-710400D01*
Y-207300D01*
X-753295D01*
X-757500Y-206464D01*
X-814826D01*
X-838575Y-182715D01*
X-852699Y-173278D01*
X-869359Y-169964D01*
D02*
G37*
G36*
X-892300Y-297800D02*
X-1062700D01*
Y-312257D01*
X-1090500D01*
X-1101308Y-314407D01*
X-1102673Y-315319D01*
X-1397327D01*
X-1398692Y-314407D01*
X-1409500Y-312257D01*
X-1409501Y-312257D01*
X-1437300D01*
Y-297800D01*
X-1607700D01*
Y-315319D01*
X-1620000D01*
Y-1110000D01*
X-880000D01*
Y-315319D01*
X-892300D01*
Y-297800D01*
D02*
G37*
%LPD*%
D10*
X-642500Y-250000D02*
D03*
X-757500D02*
D03*
X-642500Y-100000D02*
D03*
X-757501Y-100000D02*
D03*
X-1192500Y350000D02*
D03*
X-1307500D02*
D03*
X-642500Y50000D02*
D03*
X-757500D02*
D03*
X1307500Y550000D02*
D03*
X1192500D02*
D03*
D11*
X-1550000Y1007500D02*
D03*
Y892500D02*
D03*
X1450000Y792500D02*
D03*
Y907500D02*
D03*
X-1850000Y-57500D02*
D03*
Y57500D02*
D03*
X850000Y892500D02*
D03*
Y1007500D02*
D03*
X-950000Y892500D02*
D03*
Y1007500D02*
D03*
X-2250000Y742500D02*
D03*
Y857500D02*
D03*
X-1700000Y557500D02*
D03*
Y442500D02*
D03*
D12*
X-1150000Y-545000D02*
D03*
Y-654999D02*
D03*
X-1350000Y-545000D02*
D03*
Y-654999D02*
D03*
X1600000Y545000D02*
D03*
Y655000D02*
D03*
Y795000D02*
D03*
Y905000D02*
D03*
X-1700000Y-55000D02*
D03*
X-1700000Y55000D02*
D03*
X-2050000Y1095000D02*
D03*
Y1205000D02*
D03*
D13*
X1055000Y720000D02*
D03*
X1150000D02*
D03*
X1245000D02*
D03*
Y980000D02*
D03*
X1055000D02*
D03*
D14*
X-977500Y-340500D02*
D03*
Y-213500D02*
D03*
Y-86500D02*
D03*
Y40500D02*
D03*
X-1522500Y-340500D02*
D03*
Y-213500D02*
D03*
Y-86500D02*
D03*
Y40500D02*
D03*
D15*
X-1380000Y1045000D02*
D03*
Y950000D02*
D03*
Y855000D02*
D03*
X-1120000D02*
D03*
Y1045000D02*
D03*
D16*
X-1195000Y700000D02*
D03*
X-1305000D02*
D03*
X-1305000Y200000D02*
D03*
X-1195000D02*
D03*
D17*
X-2097500Y430000D02*
D03*
X-2032500D02*
D03*
X-1967500D02*
D03*
X-1902500D02*
D03*
X-2097500Y870000D02*
D03*
X-2032500Y870000D02*
D03*
X-1967500Y870000D02*
D03*
X-1902500Y870000D02*
D03*
D18*
X1150000Y350000D02*
D03*
X1350000D02*
D03*
D19*
X650000Y1050000D02*
D03*
Y850000D02*
D03*
X-650000Y2200000D02*
D03*
Y2000000D02*
D03*
Y1600000D02*
D03*
Y1800000D02*
D03*
D20*
X-1700000Y350000D02*
X-1700000Y350000D01*
X-1700000Y350000D02*
Y442500D01*
X1049967Y350000D02*
X1149967D01*
X1350000D02*
X1450000D01*
X1307500Y550000D02*
X1400000D01*
X1245000Y720000D02*
X1265000Y700000D01*
X1350000D01*
X650000Y750000D02*
Y850000D01*
X850000Y800000D02*
Y892500D01*
X1250000Y-300000D02*
Y109934D01*
X1331015Y190949D01*
X1459586D01*
X1600000Y331364D01*
Y545000D01*
X1358883Y795000D02*
X1452500D01*
X1307239Y846644D02*
X1358883Y795000D01*
X1095887Y846644D02*
X1307239D01*
X1055000Y805757D02*
X1095887Y846644D01*
X1055000Y720000D02*
Y805757D01*
X1600000Y655000D02*
Y795000D01*
X1452500D02*
X1600000D01*
X1450000Y792500D02*
X1452500Y795000D01*
X1597500Y907500D02*
X1600000Y905000D01*
X1450000Y907500D02*
X1597500D01*
X1396951D02*
X1450000D01*
X1324451Y980000D02*
X1396951Y907500D01*
X1245000Y980000D02*
X1324451D01*
X1377000Y1977000D02*
Y2083000D01*
X1250000Y1850000D02*
X1377000Y1977000D01*
X1100000Y1850000D02*
X1250000D01*
X1000000Y1750000D02*
X1100000Y1850000D01*
X1000000Y1400000D02*
Y1750000D01*
Y1400000D02*
X1245000Y1155000D01*
Y980000D02*
Y1155000D01*
X-1250000Y-1150000D02*
Y-950000D01*
X-1952062Y-16861D02*
Y121278D01*
X-1911423Y-57500D02*
X-1850000D01*
X-1952062Y-16861D02*
X-1911423Y-57500D01*
X-1952062Y121278D02*
X-1888441Y184899D01*
X-1583621D01*
X-1425889Y342630D01*
Y407407D01*
X-1488326Y469844D02*
X-1425889Y407407D01*
X-1488326Y469844D02*
Y746674D01*
X-1380000Y855000D01*
X-2250001Y955000D02*
X-2250000Y955000D01*
Y862500D02*
Y955000D01*
X-950000Y1105000D02*
X-950000Y1104999D01*
Y1012499D02*
Y1104999D01*
X-1550000Y1105000D02*
X-1550000Y1104999D01*
Y1012499D02*
Y1104999D01*
X-2050000Y1205000D02*
Y1350000D01*
X-2150000Y1450000D02*
Y1646000D01*
Y1450000D02*
X-2050000Y1350000D01*
X-2250000Y650000D02*
Y742500D01*
X-2250000Y650000D02*
X-2250000Y650000D01*
X-1700000Y557500D02*
Y650000D01*
X-1700000Y650000D01*
X-1397500Y700000D02*
X-1305000D01*
X-1397500Y700000D02*
X-1397500Y700000D01*
X-1550000Y800000D02*
Y892500D01*
X-1550000Y800000D02*
X-1550000Y800000D01*
X-950000D02*
Y892500D01*
X-950000Y800000D02*
X-950000Y800000D01*
X-1902500Y870000D02*
X-1792341D01*
X-1192500Y350000D02*
Y442500D01*
X-1967500Y870000D02*
X-1902500D01*
X-1967500Y870000D02*
X-1967500Y870000D01*
X-2050000Y996799D02*
Y1095000D01*
Y996799D02*
X-2032500Y979299D01*
Y870000D02*
Y979299D01*
X-1250000Y895848D02*
Y1155177D01*
X-1491404Y1396581D02*
Y1688319D01*
Y1396581D02*
X-1250000Y1155177D01*
X-1557675Y1371384D02*
X-1380000Y1193709D01*
X-1557675Y1713713D02*
X-1313500Y1957888D01*
X-1557675Y1371384D02*
Y1713713D01*
X-1491404Y1688319D02*
X-1186500Y1993223D01*
X-1313500Y1957888D02*
Y2083000D01*
X-1186500Y1993223D02*
Y2083000D01*
X-1380000Y1045000D02*
Y1193709D01*
X-1250000Y895848D02*
X-1209152Y855000D01*
X-1120000D01*
Y716676D02*
Y855000D01*
X-1136676Y700000D02*
X-1120000Y716676D01*
X-1195000Y700000D02*
X-1136676D01*
X-1377000Y2250000D02*
X-1250000D01*
X-1440500Y2186500D02*
X-1377000Y2250000D01*
X-1440500Y2083000D02*
Y2186500D01*
X-1250000Y2250000D02*
X-1186500Y2186500D01*
Y2083000D02*
Y2186500D01*
Y2083000D02*
X-1059500D01*
X-2032500Y430000D02*
X-1967500D01*
X-1807500Y442500D02*
X-1700000D01*
X-1820000Y430000D02*
X-1807500Y442500D01*
X-1902500Y430000D02*
X-1820000D01*
X-550000Y50000D02*
X-550000Y50000D01*
X-642500Y50000D02*
X-550000D01*
X-642500Y-100000D02*
X-550000D01*
X-642500Y-250000D02*
X-550000D01*
X-1700000Y-55000D02*
X-1648437D01*
X-1616937Y-86500D02*
X-1522500D01*
X-1648437Y-55000D02*
X-1616937Y-86500D01*
X-1702500Y-57500D02*
X-1700000Y-55000D01*
X-1850000Y-57500D02*
X-1702500D01*
X-1850000Y57500D02*
X-1847500Y55000D01*
X-1700000D01*
X-1639634D01*
X-1625134Y40500D01*
X-1522500D01*
X-1370473D01*
X-1304999Y105974D01*
Y347500D01*
X-1307500Y350000D02*
X-1304999Y347500D01*
X-1195000D02*
X-1192500Y350000D01*
X-1195000Y200000D02*
Y347500D01*
Y105974D02*
Y200000D01*
Y105974D02*
X-1129527Y40500D01*
X-977500D01*
X-857638D01*
X-848138Y50000D01*
X-757500D01*
X-1150000Y-544999D02*
Y-400000D01*
X-1090500Y-340500D01*
X-977500D01*
X-1522500Y-340500D02*
X-1409500D01*
X-1350000Y-400000D01*
Y-545000D02*
Y-400000D01*
Y-796000D02*
Y-654999D01*
X-1504000Y-950000D02*
X-1350000Y-796000D01*
X-1150000D02*
Y-654999D01*
Y-796000D02*
X-996000Y-950000D01*
D21*
X650000Y1050000D02*
Y1150000D01*
Y1050000D02*
X750000D01*
X792500Y1007500D01*
X850000D01*
X953045D01*
X980544Y980000D01*
X1055000D01*
X1150000Y633942D02*
Y720000D01*
Y633942D02*
X1192500Y591442D01*
Y550000D02*
Y591442D01*
Y480640D02*
Y550000D01*
X1150000Y438140D02*
X1192500Y480640D01*
X1150000Y350000D02*
Y438140D01*
X-825000Y-250000D02*
X-757500D01*
X-832859D02*
X-825000D01*
X-825000Y-100000D02*
X-757501D01*
X-851722D02*
X-825000D01*
X-1620000Y-213500D02*
X-1620000Y-213500D01*
X-1527500D01*
X-496044Y2154000D02*
X-350000D01*
X-542044Y2200000D02*
X-496044Y2154000D01*
X-650000Y2200000D02*
X-542044D01*
X-650000Y1600000D02*
X-539290D01*
X-493290Y1646000D01*
X-350000D01*
X-1550000Y1007500D02*
X-1505875D01*
X-1448375Y950000D02*
X-1380000D01*
X-1505875Y1007500D02*
X-1448375Y950000D01*
X-1186500Y-86500D02*
X-977500D01*
X-1313500Y-213500D02*
X-1186500Y-86500D01*
X-1522500Y-213500D02*
X-1313500D01*
X-865222Y-86500D02*
X-851722Y-100000D01*
X-977500Y-86500D02*
X-865222D01*
X-869359Y-213500D02*
X-832859Y-250000D01*
X-977500Y-213500D02*
X-869359D01*
D22*
X-2250000Y857500D02*
X-2178660D01*
X-2166160Y870000D01*
X-2097500D01*
D23*
X-1120000Y1045000D02*
X-1040378D01*
X-1002878Y1007500D02*
X-950000D01*
X-1040378Y1045000D02*
X-1002878Y1007500D01*
D24*
X1123000Y2083000D02*
D03*
X1377000D02*
D03*
D25*
X-1186500Y2083000D02*
D03*
X-1059500D02*
D03*
X-1313500D02*
D03*
X-1440500D02*
D03*
D26*
X1504000Y-950000D02*
D03*
X1250000D02*
D03*
X-1504000Y-950000D02*
D03*
X-1250000D02*
D03*
D27*
X996000Y-950000D02*
D03*
X-996000Y-950000D02*
D03*
D28*
X996000Y-554000D02*
D03*
Y-46000D02*
D03*
X1504000Y-554000D02*
D03*
Y-46000D02*
D03*
D29*
X1250000Y-300000D02*
D03*
D30*
X-350000Y2154000D02*
D03*
Y1900000D02*
D03*
X-2150000Y2154000D02*
D03*
Y1900000D02*
D03*
D31*
X-350000Y1646000D02*
D03*
X-2150000D02*
D03*
D32*
X-1700000Y350000D02*
D03*
X1049967Y350000D02*
D03*
X650000Y1150000D02*
D03*
X1450000Y350000D02*
D03*
X1400000Y550000D02*
D03*
X1350000Y700000D02*
D03*
X850000Y800000D02*
D03*
X650000Y750000D02*
D03*
X-1792341Y870000D02*
D03*
X-1192500Y442500D02*
D03*
X-2000000Y200000D02*
D03*
X-1550000Y350000D02*
D03*
X-1450000Y200000D02*
D03*
X-825000Y-250000D02*
D03*
X-825000Y-100000D02*
D03*
X-1620000Y-213500D02*
D03*
X-2250001Y955000D02*
D03*
X-950000Y1105000D02*
D03*
X-1550000D02*
D03*
X-2250000Y650000D02*
D03*
X-1700000Y650000D02*
D03*
X-1397500Y700000D02*
D03*
X-1550000Y800000D02*
D03*
X-950000D02*
D03*
X-550000Y-250000D02*
D03*
Y-100000D02*
D03*
Y50000D02*
D03*
%TF.MD5,e008c81f6631087991a4feeee31b8529*%
M02*
