%TF.GenerationSoftware,Altium Limited,Altium Designer,24.10.1 (45)*%
G04 Layer_Color=65535*
%FSLAX45Y45*%
%MOMM*%
%TF.SameCoordinates,A6A100A0-8C7F-4B02-B864-72EC464A77B6*%
%TF.FilePolarity,Positive*%
%TF.FileFunction,Legend,Top*%
%TF.Part,Single*%
G01*
G75*
%TA.AperFunction,NonConductor*%
%ADD34C,0.25000*%
%ADD35C,0.60000*%
%ADD36C,0.30000*%
%ADD37C,0.20000*%
%ADD38C,0.50000*%
D34*
X982500Y712500D02*
G03*
X982500Y712500I-12500J0D01*
G01*
X-965000Y-425500D02*
G03*
X-965000Y-425500I-12500J0D01*
G01*
X-1375000Y1130000D02*
G03*
X-1375000Y1130000I-12500J0D01*
G01*
X-1812500Y870000D02*
G03*
X-1812500Y870000I-12500J0D01*
G01*
D35*
X-1160000Y-300000D02*
G03*
X-1160000Y-300000I-30000J0D01*
G01*
X-1915000Y665000D02*
G03*
X-1915000Y665000I-30000J0D01*
G01*
D36*
X862500Y1269000D02*
X1637500D01*
X862500D02*
Y2469000D01*
X1637500Y1269000D02*
Y2469000D01*
X-862500Y1269000D02*
Y2469000D01*
X-1637500Y1269000D02*
Y2469000D01*
Y1269000D02*
X-862500D01*
D37*
X860000Y-1110000D02*
X1640000D01*
Y-790000D01*
X860000D02*
X1640000D01*
X860000Y-1110000D02*
Y-790000D01*
X-190000Y1510000D02*
Y2290000D01*
X-510000D02*
X-190000D01*
X-510000Y1510000D02*
Y2290000D01*
Y1510000D02*
X-190000D01*
X-1990000D02*
Y2290000D01*
X-2310000D02*
X-1990000D01*
X-2310000Y1510000D02*
Y2290000D01*
Y1510000D02*
X-1990000D01*
X-1640000Y-790000D02*
X-860000D01*
X-1640000Y-1110000D02*
Y-790000D01*
Y-1110000D02*
X-860000D01*
Y-790000D01*
X995000Y805000D02*
Y895000D01*
X1305000Y805000D02*
Y895000D01*
X995000D02*
X1305000D01*
X995000Y805000D02*
X1305000D01*
X-1090000Y-400000D02*
Y100000D01*
X-1410000Y-400000D02*
Y100000D01*
Y-400000D02*
X-1090000D01*
X-1410000Y100000D02*
X-1090000D01*
X-1295000Y1105000D02*
X-1205000D01*
X-1295000Y795000D02*
X-1205000D01*
Y1105000D01*
X-1295000Y795000D02*
Y1105000D01*
X-2155000Y535000D02*
Y765000D01*
X-1845000Y535000D02*
Y765000D01*
X-2155000Y535000D02*
X-1845000D01*
X-2155000Y765000D02*
X-1845000D01*
X1230000Y300000D02*
X1270000D01*
X1230000Y400000D02*
X1270000D01*
X600000Y930000D02*
Y970000D01*
X700000Y930000D02*
Y970000D01*
X-700000Y2080000D02*
Y2120000D01*
X-600000Y2080000D02*
Y2120000D01*
Y1680000D02*
Y1720000D01*
X-700000Y1680000D02*
Y1720000D01*
D38*
X-1949979Y-800032D02*
Y-1099968D01*
Y-800032D02*
X-1750021Y-1099968D01*
Y-800032D02*
Y-1099968D01*
X-749978Y-957141D02*
X-621435D01*
X-578587Y-942858D01*
X-564304Y-928576D01*
X-550021Y-900010D01*
Y-857163D01*
X-564304Y-828597D01*
X-578587Y-814315D01*
X-621435Y-800032D01*
X-749978D01*
Y-1099968D01*
X7141Y-1011179D02*
Y-882636D01*
X-7142Y-839788D01*
X-21424Y-825505D01*
X-49990Y-811222D01*
X-92838D01*
X-121403Y-825505D01*
X-135686Y-839788D01*
X-149968Y-882636D01*
Y-1011179D01*
X149967D01*
X-149968Y-744094D02*
X149967D01*
X-149968D02*
Y-615550D01*
X-135686Y-572702D01*
X-121403Y-558419D01*
X-92838Y-544137D01*
X-64272D01*
X-35707Y-558419D01*
X-21424Y-572702D01*
X-7142Y-615550D01*
Y-744094D01*
Y-644115D02*
X149967Y-544137D01*
X-149968Y-391312D02*
X-135686Y-419877D01*
X-107120Y-448443D01*
X-78555Y-462726D01*
X-35707Y-477008D01*
X35706D01*
X78554Y-462726D01*
X107119Y-448443D01*
X135685Y-419877D01*
X149967Y-391312D01*
Y-334182D01*
X135685Y-305616D01*
X107119Y-277051D01*
X78554Y-262768D01*
X35706Y-248486D01*
X-35707D01*
X-78555Y-262768D01*
X-107120Y-277051D01*
X-135686Y-305616D01*
X-149968Y-334182D01*
Y-391312D01*
Y-78522D02*
X149967D01*
X-149968Y-178501D02*
Y21456D01*
Y142859D02*
X-135686Y114294D01*
X-107120Y85728D01*
X-78555Y71446D01*
X-35707Y57163D01*
X35706D01*
X78554Y71446D01*
X107119Y85728D01*
X135685Y114294D01*
X149967Y142859D01*
Y199989D01*
X135685Y228555D01*
X107119Y257120D01*
X78554Y271403D01*
X35706Y285685D01*
X-35707D01*
X-78555Y271403D01*
X-107120Y257120D01*
X-135686Y228555D01*
X-149968Y199989D01*
Y142859D01*
Y455649D02*
X149967D01*
X-149968Y355670D02*
Y555628D01*
Y591334D02*
X-7142Y705595D01*
X149967D01*
X-149968Y819856D02*
X-7142Y705595D01*
X7141Y858420D02*
Y986963D01*
X-7142Y1029812D01*
X-21424Y1044094D01*
X-49990Y1058377D01*
X-92838D01*
X-121403Y1044094D01*
X-135686Y1029812D01*
X-149968Y986963D01*
Y858420D01*
X149967D01*
X-149968Y1311180D02*
Y1125505D01*
X149967D01*
Y1311180D01*
X-7142Y1125505D02*
Y1239766D01*
%TF.MD5,45e2118d3a158dd60955cf49646788c2*%
M02*
