%TF.GenerationSoftware,Altium Limited,Altium Designer,24.10.1 (45)*%
G04 Layer_Color=16711935*
%FSLAX45Y45*%
%MOMM*%
%TF.SameCoordinates,A6A100A0-8C7F-4B02-B864-72EC464A77B6*%
%TF.FilePolarity,Negative*%
%TF.FileFunction,Soldermask,Bot*%
%TF.Part,Single*%
G01*
G75*
%TA.AperFunction,ComponentPad*%
%ADD24C,1.30000*%
%ADD25O,1.00000X1.50000*%
%ADD49O,1.80000X2.50000*%
%ADD50R,1.80000X2.50000*%
%ADD51C,2.80320*%
%ADD52C,2.20320*%
%ADD53O,2.50000X1.80000*%
%ADD54R,2.50000X1.80000*%
%TA.AperFunction,ViaPad*%
%ADD55C,0.80320*%
D24*
X1123000Y2083000D02*
D03*
X1377000D02*
D03*
D25*
X-1186500Y2083000D02*
D03*
X-1059500D02*
D03*
X-1313500D02*
D03*
X-1440500D02*
D03*
D49*
X1504000Y-950000D02*
D03*
X1250000D02*
D03*
X-1504000Y-950000D02*
D03*
X-1250000D02*
D03*
D50*
X996000Y-950000D02*
D03*
X-996000Y-950000D02*
D03*
D51*
X996000Y-554000D02*
D03*
Y-46000D02*
D03*
X1504000Y-554000D02*
D03*
Y-46000D02*
D03*
D52*
X1250000Y-300000D02*
D03*
D53*
X-350000Y2154000D02*
D03*
Y1900000D02*
D03*
X-2150000Y2154000D02*
D03*
Y1900000D02*
D03*
D54*
X-350000Y1646000D02*
D03*
X-2150000D02*
D03*
D55*
X-1700000Y350000D02*
D03*
X1049967Y350000D02*
D03*
X650000Y1150000D02*
D03*
X1450000Y350000D02*
D03*
X1400000Y550000D02*
D03*
X1350000Y700000D02*
D03*
X850000Y800000D02*
D03*
X650000Y750000D02*
D03*
X-1792341Y870000D02*
D03*
X-1192500Y442500D02*
D03*
X-2000000Y200000D02*
D03*
X-1550000Y350000D02*
D03*
X-1450000Y200000D02*
D03*
X-825000Y-250000D02*
D03*
X-825000Y-100000D02*
D03*
X-1620000Y-213500D02*
D03*
X-2250001Y955000D02*
D03*
X-950000Y1105000D02*
D03*
X-1550000D02*
D03*
X-2250000Y650000D02*
D03*
X-1700000Y650000D02*
D03*
X-1397500Y700000D02*
D03*
X-1550000Y800000D02*
D03*
X-950000D02*
D03*
X-550000Y-250000D02*
D03*
Y-100000D02*
D03*
Y50000D02*
D03*
%TF.MD5,b1fc0ff9491aaaf08f3f3971a3167604*%
M02*
