%TF.GenerationSoftware,Altium Limited,Altium Designer,24.10.1 (45)*%
G04 Layer_Physical_Order=2*
G04 Layer_Color=16776960*
%FSLAX45Y45*%
%MOMM*%
%TF.SameCoordinates,A6A100A0-8C7F-4B02-B864-72EC464A77B6*%
%TF.FilePolarity,Positive*%
%TF.FileFunction,Copper,L2,Bot,Signal*%
%TF.Part,Single*%
G01*
G75*
%TA.AperFunction,Conductor*%
%ADD20C,0.30000*%
%TA.AperFunction,ComponentPad*%
%ADD24C,1.30000*%
%ADD25O,1.00000X1.50000*%
%ADD26O,1.70000X2.40000*%
%ADD27R,1.70000X2.40000*%
%ADD28C,2.60000*%
%ADD29C,2.00000*%
%ADD30O,2.40000X1.70000*%
%ADD31R,2.40000X1.70000*%
%TA.AperFunction,ViaPad*%
%ADD32C,0.60000*%
%TA.AperFunction,Conductor*%
%ADD33C,1.00000*%
G36*
X-150000Y-1174104D02*
X-2454795D01*
X-2463654Y-1170434D01*
X-2470434Y-1163654D01*
X-2474104Y-1154795D01*
Y-1150000D01*
Y2450000D01*
Y2454795D01*
X-2470434Y2463653D01*
X-2463654Y2470434D01*
X-2454795Y2474104D01*
X-1648086D01*
X-1637500Y2469000D01*
X-1637500Y2461404D01*
Y1269000D01*
X-1493002D01*
X-1488142Y1257267D01*
X-1576480Y1168928D01*
X-2100001D01*
X-2124466Y1164062D01*
X-2145205Y1150204D01*
X-2295205Y1000204D01*
X-2309063Y979464D01*
X-2313929Y955000D01*
X-2309063Y930536D01*
X-2295205Y909796D01*
X-2274465Y895938D01*
X-2250001Y891072D01*
X-2225536Y895938D01*
X-2204796Y909796D01*
X-2073521Y1041071D01*
X-1576480D01*
X-1461428Y926019D01*
Y700000D01*
X-1456562Y675536D01*
X-1442704Y654796D01*
X-1421964Y640938D01*
X-1397500Y636072D01*
X-1176480D01*
X-1113928Y573520D01*
Y-150000D01*
X-1109062Y-174464D01*
X-1095204Y-195204D01*
X-995204Y-295204D01*
X-984107Y-302619D01*
X-987960Y-315319D01*
X-1620000D01*
Y-1110000D01*
X-880000D01*
Y-326629D01*
X-880000Y-315319D01*
X-867876Y-313928D01*
X-825000D01*
X-800536Y-309062D01*
X-779796Y-295204D01*
X-765938Y-274464D01*
X-761072Y-250000D01*
X-765938Y-225536D01*
X-779796Y-204796D01*
X-800536Y-190938D01*
X-825000Y-186072D01*
X-923520D01*
X-986072Y-123520D01*
Y600000D01*
X-990938Y624465D01*
X-1004796Y645204D01*
X-1104796Y745205D01*
X-1125536Y759062D01*
X-1150000Y763929D01*
X-1333572D01*
Y952499D01*
X-1338438Y976964D01*
X-1352296Y997703D01*
X-1459592Y1105000D01*
X-1378520Y1186072D01*
X-1050000D01*
X-1025536Y1190938D01*
X-1004796Y1204796D01*
X-940592Y1269000D01*
X-893002D01*
X-888141Y1257267D01*
X-995205Y1150204D01*
X-1009062Y1129464D01*
X-1013929Y1105000D01*
X-1009062Y1080535D01*
X-995205Y1059795D01*
X-888929Y953520D01*
Y830514D01*
X-901629Y827988D01*
X-903034Y831381D01*
X-918619Y846966D01*
X-937300Y854704D01*
Y800000D01*
Y745296D01*
X-918619Y753034D01*
X-903034Y768618D01*
X-901629Y772012D01*
X-888929Y769486D01*
Y-100000D01*
X-884062Y-124464D01*
X-870205Y-145204D01*
X-849465Y-159062D01*
X-825000Y-163928D01*
X-800536Y-159062D01*
X-779796Y-145204D01*
X-765938Y-124464D01*
X-761072Y-100000D01*
Y980000D01*
X-765938Y1004464D01*
X-779796Y1025204D01*
X-859592Y1105000D01*
X-604796Y1359796D01*
X-590938Y1380535D01*
X-586072Y1405000D01*
Y1527969D01*
X-531969Y1582072D01*
X-482700D01*
Y1548300D01*
X-217300D01*
Y1743700D01*
X-482700D01*
Y1709928D01*
X-558449D01*
X-582913Y1705062D01*
X-603653Y1691204D01*
X-695204Y1599653D01*
X-709062Y1578914D01*
X-713928Y1554449D01*
Y1431480D01*
X-850767Y1294641D01*
X-862500Y1299502D01*
Y1347092D01*
X-754796Y1454796D01*
X-740938Y1475536D01*
X-736071Y1500000D01*
X-736072Y1500001D01*
Y1973520D01*
X-619520Y2090072D01*
X-459094D01*
X-454681Y2084320D01*
X-434272Y2068659D01*
X-410505Y2058815D01*
X-385000Y2055457D01*
X-315000D01*
X-289495Y2058815D01*
X-265728Y2068659D01*
X-245320Y2084320D01*
X-229659Y2104729D01*
X-219815Y2128495D01*
X-216457Y2154000D01*
X-219815Y2179505D01*
X-229659Y2203271D01*
X-245320Y2223680D01*
X-265728Y2239341D01*
X-289495Y2249185D01*
X-315000Y2252543D01*
X-385000D01*
X-410505Y2249185D01*
X-434272Y2239341D01*
X-454681Y2223680D01*
X-459094Y2217928D01*
X-646000D01*
X-670464Y2213062D01*
X-691204Y2199204D01*
X-845204Y2045204D01*
X-849800Y2038326D01*
X-862500Y2042178D01*
Y2461404D01*
X-862500Y2469000D01*
X-851914Y2474104D01*
X-150000D01*
Y-1174104D01*
D02*
G37*
G36*
X2463653Y2470434D02*
X2470434Y2463653D01*
X2474104Y2454794D01*
Y2450000D01*
Y-1150000D01*
Y-1154794D01*
X2470434Y-1163654D01*
X2463653Y-1170434D01*
X2454794Y-1174104D01*
X150000D01*
Y2474104D01*
X2454794D01*
X2463653Y2470434D01*
D02*
G37*
%LPC*%
G36*
X-2115000Y2265353D02*
X-2137300D01*
Y2166700D01*
X-2005319D01*
X-2007442Y2182820D01*
X-2018566Y2209676D01*
X-2036262Y2232738D01*
X-2059324Y2250434D01*
X-2086180Y2261558D01*
X-2115000Y2265353D01*
D02*
G37*
G36*
X-2162700D02*
X-2185000D01*
X-2213820Y2261558D01*
X-2240676Y2250434D01*
X-2263738Y2232738D01*
X-2281434Y2209676D01*
X-2292559Y2182820D01*
X-2294681Y2166700D01*
X-2162700D01*
Y2265353D01*
D02*
G37*
G36*
X-2005319Y2141300D02*
X-2137300D01*
Y2042647D01*
X-2115000D01*
X-2086180Y2046442D01*
X-2059324Y2057566D01*
X-2036262Y2075262D01*
X-2018566Y2098324D01*
X-2007442Y2125180D01*
X-2005319Y2141300D01*
D02*
G37*
G36*
X-2162700D02*
X-2294681D01*
X-2292559Y2125180D01*
X-2281434Y2098324D01*
X-2263738Y2075262D01*
X-2240676Y2057566D01*
X-2213820Y2046442D01*
X-2185000Y2042647D01*
X-2162700D01*
Y2141300D01*
D02*
G37*
G36*
X-315000Y2011353D02*
X-337300D01*
Y1912700D01*
X-205319D01*
X-207442Y1928820D01*
X-218566Y1955676D01*
X-236262Y1978738D01*
X-259324Y1996434D01*
X-286180Y2007558D01*
X-315000Y2011353D01*
D02*
G37*
G36*
X-2115000D02*
X-2137300D01*
Y1912700D01*
X-2005319D01*
X-2007442Y1928820D01*
X-2018566Y1955676D01*
X-2036262Y1978738D01*
X-2059324Y1996434D01*
X-2086180Y2007558D01*
X-2115000Y2011353D01*
D02*
G37*
G36*
X-362700D02*
X-385000D01*
X-413820Y2007558D01*
X-440677Y1996434D01*
X-463738Y1978738D01*
X-481434Y1955676D01*
X-492559Y1928820D01*
X-494681Y1912700D01*
X-362700D01*
Y2011353D01*
D02*
G37*
G36*
X-2162700D02*
X-2185000D01*
X-2213820Y2007558D01*
X-2240676Y1996434D01*
X-2263738Y1978738D01*
X-2281434Y1955676D01*
X-2292559Y1928820D01*
X-2294681Y1912700D01*
X-2162700D01*
Y2011353D01*
D02*
G37*
G36*
X-205319Y1887300D02*
X-337300D01*
Y1788647D01*
X-315000D01*
X-286180Y1792442D01*
X-259324Y1803566D01*
X-236262Y1821262D01*
X-218566Y1844324D01*
X-207442Y1871180D01*
X-205319Y1887300D01*
D02*
G37*
G36*
X-362700D02*
X-494681D01*
X-492559Y1871180D01*
X-481434Y1844324D01*
X-463738Y1821262D01*
X-440677Y1803566D01*
X-413820Y1792442D01*
X-385000Y1788647D01*
X-362700D01*
Y1887300D01*
D02*
G37*
G36*
X-2005319D02*
X-2137300D01*
Y1788647D01*
X-2115000D01*
X-2086180Y1792442D01*
X-2059324Y1803566D01*
X-2036262Y1821262D01*
X-2018566Y1844324D01*
X-2007442Y1871180D01*
X-2005319Y1887300D01*
D02*
G37*
G36*
X-2162700D02*
X-2294681D01*
X-2292559Y1871180D01*
X-2281434Y1844324D01*
X-2263738Y1821262D01*
X-2240676Y1803566D01*
X-2213820Y1792442D01*
X-2185000Y1788647D01*
X-2162700D01*
Y1887300D01*
D02*
G37*
G36*
X-2017300Y1743700D02*
X-2282700D01*
Y1548300D01*
X-2017300D01*
Y1743700D01*
D02*
G37*
G36*
X-962700Y854704D02*
X-981382Y846966D01*
X-996966Y831381D01*
X-1004704Y812700D01*
X-962700D01*
Y854704D01*
D02*
G37*
G36*
X-1537300D02*
Y812700D01*
X-1495296D01*
X-1503034Y831381D01*
X-1518619Y846966D01*
X-1537300Y854704D01*
D02*
G37*
G36*
X-1562700D02*
X-1581382Y846966D01*
X-1596966Y831381D01*
X-1604704Y812700D01*
X-1562700D01*
Y854704D01*
D02*
G37*
G36*
X-962700Y787300D02*
X-1004704D01*
X-996966Y768618D01*
X-981382Y753034D01*
X-962700Y745296D01*
Y787300D01*
D02*
G37*
G36*
X-1495296D02*
X-1537300D01*
Y745296D01*
X-1518619Y753034D01*
X-1503034Y768618D01*
X-1495296Y787300D01*
D02*
G37*
G36*
X-1562700D02*
X-1604704D01*
X-1596966Y768618D01*
X-1581382Y753034D01*
X-1562700Y745296D01*
Y787300D01*
D02*
G37*
G36*
X-1687300Y704704D02*
Y662700D01*
X-1645296D01*
X-1653034Y681382D01*
X-1668618Y696966D01*
X-1687300Y704704D01*
D02*
G37*
G36*
X-2237300Y704704D02*
Y662700D01*
X-2195296D01*
X-2203034Y681381D01*
X-2218619Y696966D01*
X-2237300Y704704D01*
D02*
G37*
G36*
X-2262700D02*
X-2281382Y696966D01*
X-2296966Y681381D01*
X-2304704Y662700D01*
X-2262700D01*
Y704704D01*
D02*
G37*
G36*
X-1645296Y637300D02*
X-1687300D01*
Y595296D01*
X-1668618Y603034D01*
X-1653034Y618619D01*
X-1645296Y637300D01*
D02*
G37*
G36*
X-1783848Y912700D02*
X-1800835D01*
X-1816528Y906199D01*
X-1828540Y894187D01*
X-1835041Y878494D01*
Y861507D01*
X-1828540Y845813D01*
X-1820584Y837856D01*
Y534842D01*
X-1820584Y534841D01*
X-1818434Y524033D01*
X-1812312Y514870D01*
X-1720284Y422842D01*
X-1720270Y421260D01*
X-1723085Y409336D01*
X-1724464Y409062D01*
X-1745204Y395204D01*
X-1759062Y374464D01*
X-1763928Y350000D01*
Y-133501D01*
X-1759062Y-157965D01*
X-1745204Y-178705D01*
X-1665204Y-258705D01*
X-1644464Y-272563D01*
X-1620000Y-277429D01*
X-1595535Y-272563D01*
X-1574796Y-258705D01*
X-1560938Y-237965D01*
X-1556072Y-213500D01*
X-1560938Y-189036D01*
X-1574796Y-168296D01*
X-1636071Y-107021D01*
Y350000D01*
X-1640938Y374464D01*
X-1654796Y395204D01*
X-1664304Y401557D01*
X-1660451Y414257D01*
X-1572823D01*
X-1570297Y401557D01*
X-1581381Y396966D01*
X-1596966Y381381D01*
X-1604704Y362700D01*
X-1495296D01*
X-1503034Y381381D01*
X-1518619Y396966D01*
X-1529703Y401557D01*
X-1527177Y414257D01*
X-1224644D01*
X-1216687Y406301D01*
X-1200994Y399800D01*
X-1184007D01*
X-1168313Y406301D01*
X-1156301Y418313D01*
X-1149800Y434006D01*
Y450994D01*
X-1156301Y466687D01*
X-1168313Y478699D01*
X-1184007Y485200D01*
X-1200994D01*
X-1216687Y478699D01*
X-1224644Y470743D01*
X-1688301D01*
X-1764098Y546540D01*
Y626794D01*
X-1751398Y629320D01*
X-1746966Y618619D01*
X-1731381Y603034D01*
X-1712700Y595296D01*
Y650000D01*
Y704704D01*
X-1731381Y696966D01*
X-1746966Y681382D01*
X-1751398Y670680D01*
X-1764098Y673206D01*
Y837856D01*
X-1756142Y845813D01*
X-1749641Y861507D01*
Y878494D01*
X-1756142Y894187D01*
X-1768154Y906199D01*
X-1783848Y912700D01*
D02*
G37*
G36*
X-2195296Y637300D02*
X-2237300D01*
Y595296D01*
X-2218619Y603034D01*
X-2203034Y618618D01*
X-2195296Y637300D01*
D02*
G37*
G36*
X-2262700D02*
X-2304704D01*
X-2296966Y618618D01*
X-2281382Y603034D01*
X-2262700Y595296D01*
Y637300D01*
D02*
G37*
G36*
X-1495296Y337300D02*
X-1537300D01*
Y295296D01*
X-1518619Y303034D01*
X-1503034Y318618D01*
X-1495296Y337300D01*
D02*
G37*
G36*
X-1562700D02*
X-1604704D01*
X-1596966Y318618D01*
X-1581381Y303034D01*
X-1562700Y295296D01*
Y337300D01*
D02*
G37*
G36*
X-1437300Y254704D02*
Y212700D01*
X-1395296D01*
X-1403034Y231381D01*
X-1418618Y246966D01*
X-1437300Y254704D01*
D02*
G37*
G36*
X-1462700D02*
X-1481381Y246966D01*
X-1496966Y231381D01*
X-1504704Y212700D01*
X-1462700D01*
Y254704D01*
D02*
G37*
G36*
X-1987300D02*
Y212700D01*
X-1945296D01*
X-1953034Y231381D01*
X-1968619Y246966D01*
X-1987300Y254704D01*
D02*
G37*
G36*
X-2012700D02*
X-2031382Y246966D01*
X-2046966Y231381D01*
X-2054704Y212700D01*
X-2012700D01*
Y254704D01*
D02*
G37*
G36*
X-1395296Y187300D02*
X-1437300D01*
Y145296D01*
X-1418618Y153034D01*
X-1403034Y168618D01*
X-1395296Y187300D01*
D02*
G37*
G36*
X-1462700D02*
X-1504704D01*
X-1496966Y168618D01*
X-1481381Y153034D01*
X-1462700Y145296D01*
Y187300D01*
D02*
G37*
G36*
X-1945296D02*
X-1987300D01*
Y145296D01*
X-1968619Y153034D01*
X-1953034Y168618D01*
X-1945296Y187300D01*
D02*
G37*
G36*
X-2012700D02*
X-2054704D01*
X-2046966Y168618D01*
X-2031382Y153034D01*
X-2012700Y145296D01*
Y187300D01*
D02*
G37*
G36*
X-537300Y104704D02*
Y62700D01*
X-495296D01*
X-503034Y81381D01*
X-518618Y96966D01*
X-537300Y104704D01*
D02*
G37*
G36*
X-562700D02*
X-581381Y96966D01*
X-596966Y81381D01*
X-604704Y62700D01*
X-562700D01*
Y104704D01*
D02*
G37*
G36*
X-495296Y37300D02*
X-537300D01*
Y-4704D01*
X-518618Y3034D01*
X-503034Y18618D01*
X-495296Y37300D01*
D02*
G37*
G36*
X-562700D02*
X-604704D01*
X-596966Y18618D01*
X-581381Y3034D01*
X-562700Y-4704D01*
Y37300D01*
D02*
G37*
G36*
X-537300Y-45296D02*
Y-87300D01*
X-495296D01*
X-503034Y-68619D01*
X-518618Y-53034D01*
X-537300Y-45296D01*
D02*
G37*
G36*
X-562700D02*
X-581381Y-53034D01*
X-596966Y-68619D01*
X-604704Y-87300D01*
X-562700D01*
Y-45296D01*
D02*
G37*
G36*
X-495296Y-112700D02*
X-537300D01*
Y-154704D01*
X-518618Y-146966D01*
X-503034Y-131381D01*
X-495296Y-112700D01*
D02*
G37*
G36*
X-562700D02*
X-604704D01*
X-596966Y-131381D01*
X-581381Y-146966D01*
X-562700Y-154704D01*
Y-112700D01*
D02*
G37*
G36*
X-537300Y-195296D02*
Y-237300D01*
X-495296D01*
X-503034Y-218619D01*
X-518618Y-203034D01*
X-537300Y-195296D01*
D02*
G37*
G36*
X-562700D02*
X-581381Y-203034D01*
X-596966Y-218619D01*
X-604704Y-237300D01*
X-562700D01*
Y-195296D01*
D02*
G37*
G36*
X-495296Y-262700D02*
X-537300D01*
Y-304704D01*
X-518618Y-296966D01*
X-503034Y-281381D01*
X-495296Y-262700D01*
D02*
G37*
G36*
X-562700D02*
X-604704D01*
X-596966Y-281381D01*
X-581381Y-296966D01*
X-562700Y-304704D01*
Y-262700D01*
D02*
G37*
G36*
X1517521Y2439700D02*
X1490479D01*
X1464359Y2432701D01*
X1440941Y2419181D01*
X1421820Y2400059D01*
X1408299Y2376641D01*
X1401300Y2350521D01*
Y2323479D01*
X1408299Y2297359D01*
X1421820Y2273941D01*
X1440941Y2254820D01*
X1464359Y2241299D01*
X1490479Y2234300D01*
X1517521D01*
X1543641Y2241299D01*
X1567059Y2254820D01*
X1586180Y2273941D01*
X1599701Y2297359D01*
X1606700Y2323479D01*
Y2350521D01*
X1599701Y2376641D01*
X1586180Y2400059D01*
X1567059Y2419181D01*
X1543641Y2432701D01*
X1517521Y2439700D01*
D02*
G37*
G36*
X1009521D02*
X982479D01*
X956359Y2432701D01*
X932941Y2419181D01*
X913820Y2400059D01*
X900299Y2376641D01*
X893300Y2350521D01*
Y2323479D01*
X900299Y2297359D01*
X913820Y2273941D01*
X932941Y2254820D01*
X956359Y2241299D01*
X982479Y2234300D01*
X1009521D01*
X1035641Y2241299D01*
X1059059Y2254820D01*
X1078180Y2273941D01*
X1091701Y2297359D01*
X1098700Y2323479D01*
Y2350521D01*
X1091701Y2376641D01*
X1078180Y2400059D01*
X1059059Y2419181D01*
X1035641Y2432701D01*
X1009521Y2439700D01*
D02*
G37*
G36*
X1387229Y2160700D02*
X1366771D01*
X1347009Y2155405D01*
X1329291Y2145176D01*
X1314825Y2130709D01*
X1304595Y2112991D01*
X1299300Y2093229D01*
Y2072771D01*
X1304595Y2053009D01*
X1314825Y2035291D01*
X1329291Y2020825D01*
X1347009Y2010595D01*
X1366771Y2005300D01*
X1387229D01*
X1406991Y2010595D01*
X1424709Y2020825D01*
X1439175Y2035291D01*
X1449405Y2053009D01*
X1454700Y2072771D01*
Y2093229D01*
X1449405Y2112991D01*
X1439175Y2130709D01*
X1424709Y2145176D01*
X1406991Y2155405D01*
X1387229Y2160700D01*
D02*
G37*
G36*
X1268979Y1767700D02*
X1231021D01*
X1193792Y1760295D01*
X1158722Y1745769D01*
X1127161Y1724680D01*
X1100320Y1697839D01*
X1079232Y1666278D01*
X1064706Y1631209D01*
X1057300Y1593980D01*
Y1556021D01*
X1064706Y1518792D01*
X1079232Y1483722D01*
X1100320Y1452161D01*
X1127161Y1425320D01*
X1158722Y1404232D01*
X1193792Y1389706D01*
X1231021Y1382300D01*
X1268979D01*
X1306208Y1389706D01*
X1341278Y1404232D01*
X1372839Y1425320D01*
X1399680Y1452161D01*
X1420769Y1483722D01*
X1435295Y1518792D01*
X1442700Y1556021D01*
Y1593980D01*
X1435295Y1631209D01*
X1420769Y1666278D01*
X1399680Y1697839D01*
X1372839Y1724680D01*
X1341278Y1745769D01*
X1306208Y1760295D01*
X1268979Y1767700D01*
D02*
G37*
G36*
X862700Y854704D02*
Y812700D01*
X904704D01*
X896966Y831381D01*
X881382Y846966D01*
X862700Y854704D01*
D02*
G37*
G36*
X837300D02*
X818619Y846966D01*
X803034Y831381D01*
X795296Y812700D01*
X837300D01*
Y854704D01*
D02*
G37*
G36*
X662700Y804704D02*
Y762700D01*
X704704D01*
X696966Y781381D01*
X681381Y796966D01*
X662700Y804704D01*
D02*
G37*
G36*
X637300D02*
X618619Y796966D01*
X603034Y781381D01*
X595296Y762700D01*
X637300D01*
Y804704D01*
D02*
G37*
G36*
X904704Y787300D02*
X862700D01*
Y745296D01*
X881382Y753034D01*
X896966Y768618D01*
X904704Y787300D01*
D02*
G37*
G36*
X837300D02*
X795296D01*
X803034Y768618D01*
X818619Y753034D01*
X837300Y745296D01*
Y787300D01*
D02*
G37*
G36*
X1362700Y754704D02*
Y712700D01*
X1404704D01*
X1396966Y731382D01*
X1381382Y746966D01*
X1362700Y754704D01*
D02*
G37*
G36*
X1337300D02*
X1318619Y746966D01*
X1303034Y731382D01*
X1295296Y712700D01*
X1337300D01*
Y754704D01*
D02*
G37*
G36*
X704704Y737300D02*
X662700D01*
Y695296D01*
X681381Y703034D01*
X696966Y718619D01*
X704704Y737300D01*
D02*
G37*
G36*
X637300D02*
X595296D01*
X603034Y718619D01*
X618619Y703034D01*
X637300Y695296D01*
Y737300D01*
D02*
G37*
G36*
X1404704Y687300D02*
X1362700D01*
Y645296D01*
X1381382Y653034D01*
X1396966Y668619D01*
X1404704Y687300D01*
D02*
G37*
G36*
X1337300D02*
X1295296D01*
X1303034Y668619D01*
X1318619Y653034D01*
X1337300Y645296D01*
Y687300D01*
D02*
G37*
G36*
X1412700Y604704D02*
Y562700D01*
X1454704D01*
X1446966Y581381D01*
X1431381Y596966D01*
X1412700Y604704D01*
D02*
G37*
G36*
X1387300D02*
X1368619Y596966D01*
X1353034Y581381D01*
X1345296Y562700D01*
X1387300D01*
Y604704D01*
D02*
G37*
G36*
X1454704Y537300D02*
X1412700D01*
Y495296D01*
X1431381Y503034D01*
X1446966Y518618D01*
X1454704Y537300D01*
D02*
G37*
G36*
X1387300D02*
X1345296D01*
X1353034Y518618D01*
X1368619Y503034D01*
X1387300Y495296D01*
Y537300D01*
D02*
G37*
G36*
X1462700Y404704D02*
Y362700D01*
X1504704D01*
X1496966Y381382D01*
X1481381Y396966D01*
X1462700Y404704D01*
D02*
G37*
G36*
X1437300D02*
X1418618Y396966D01*
X1403034Y381382D01*
X1395296Y362700D01*
X1437300D01*
Y404704D01*
D02*
G37*
G36*
X1504704Y337300D02*
X1462700D01*
Y295296D01*
X1481381Y303034D01*
X1496966Y318619D01*
X1504704Y337300D01*
D02*
G37*
G36*
X1437300D02*
X1395296D01*
X1403034Y318619D01*
X1418618Y303034D01*
X1437300Y295296D01*
Y337300D01*
D02*
G37*
G36*
X1519306Y109400D02*
X1516700D01*
Y-33300D01*
X1659400D01*
Y-30694D01*
X1653428Y-671D01*
X1641714Y27610D01*
X1624707Y53062D01*
X1603062Y74707D01*
X1577609Y91714D01*
X1549329Y103428D01*
X1519306Y109400D01*
D02*
G37*
G36*
X1491300D02*
X1488695D01*
X1458671Y103428D01*
X1430391Y91714D01*
X1404938Y74707D01*
X1383293Y53062D01*
X1366286Y27610D01*
X1354572Y-671D01*
X1348600Y-30694D01*
Y-33300D01*
X1491300D01*
Y109400D01*
D02*
G37*
G36*
X1011306D02*
X1008700D01*
Y-33300D01*
X1151400D01*
Y-30694D01*
X1145428Y-671D01*
X1133714Y27610D01*
X1116707Y53062D01*
X1095062Y74707D01*
X1069609Y91714D01*
X1041329Y103428D01*
X1011306Y109400D01*
D02*
G37*
G36*
X983300D02*
X980695D01*
X950671Y103428D01*
X922391Y91714D01*
X896938Y74707D01*
X875293Y53062D01*
X858286Y27610D01*
X846572Y-671D01*
X840600Y-30694D01*
Y-33300D01*
X983300D01*
Y109400D01*
D02*
G37*
G36*
X1659400Y-58700D02*
X1516700D01*
Y-201400D01*
X1519306D01*
X1549329Y-195428D01*
X1577609Y-183714D01*
X1603062Y-166707D01*
X1624707Y-145062D01*
X1641714Y-119609D01*
X1653428Y-91328D01*
X1659400Y-61305D01*
Y-58700D01*
D02*
G37*
G36*
X1491300D02*
X1348600D01*
Y-61305D01*
X1354572Y-91328D01*
X1366286Y-119609D01*
X1383293Y-145062D01*
X1404938Y-166707D01*
X1430391Y-183714D01*
X1458671Y-195428D01*
X1488695Y-201400D01*
X1491300D01*
Y-58700D01*
D02*
G37*
G36*
X1151400D02*
X1008700D01*
Y-201400D01*
X1011306D01*
X1041329Y-195428D01*
X1069609Y-183714D01*
X1095062Y-166707D01*
X1116707Y-145062D01*
X1133714Y-119609D01*
X1145428Y-91328D01*
X1151400Y-61305D01*
Y-58700D01*
D02*
G37*
G36*
X983300D02*
X840600D01*
Y-61305D01*
X846572Y-91328D01*
X858286Y-119609D01*
X875293Y-145062D01*
X896938Y-166707D01*
X922391Y-183714D01*
X950671Y-195428D01*
X980695Y-201400D01*
X983300D01*
Y-58700D01*
D02*
G37*
G36*
X1264837Y-187300D02*
X1235163D01*
X1206499Y-194980D01*
X1180801Y-209817D01*
X1159818Y-230800D01*
X1144980Y-256499D01*
X1137300Y-285163D01*
Y-314837D01*
X1144980Y-343500D01*
X1159818Y-369199D01*
X1180801Y-390182D01*
X1206499Y-405020D01*
X1235163Y-412700D01*
X1264837D01*
X1293501Y-405020D01*
X1319200Y-390182D01*
X1340182Y-369199D01*
X1355020Y-343500D01*
X1362700Y-314837D01*
Y-285163D01*
X1355020Y-256499D01*
X1340182Y-230800D01*
X1319200Y-209817D01*
X1293501Y-194980D01*
X1264837Y-187300D01*
D02*
G37*
G36*
X1519306Y-398600D02*
X1516700D01*
Y-541300D01*
X1659400D01*
Y-538694D01*
X1653428Y-508671D01*
X1641714Y-480390D01*
X1624707Y-454938D01*
X1603062Y-433293D01*
X1577609Y-416286D01*
X1549329Y-404572D01*
X1519306Y-398600D01*
D02*
G37*
G36*
X1491300D02*
X1488695D01*
X1458671Y-404572D01*
X1430391Y-416286D01*
X1404938Y-433293D01*
X1383293Y-454938D01*
X1366286Y-480390D01*
X1354572Y-508671D01*
X1348600Y-538694D01*
Y-541300D01*
X1491300D01*
Y-398600D01*
D02*
G37*
G36*
X1011306D02*
X1008700D01*
Y-541300D01*
X1151400D01*
Y-538694D01*
X1145428Y-508671D01*
X1133714Y-480390D01*
X1116707Y-454938D01*
X1095062Y-433293D01*
X1069609Y-416286D01*
X1041329Y-404572D01*
X1011306Y-398600D01*
D02*
G37*
G36*
X983300D02*
X980695D01*
X950671Y-404572D01*
X922391Y-416286D01*
X896938Y-433293D01*
X875293Y-454938D01*
X858286Y-480390D01*
X846572Y-508671D01*
X840600Y-538694D01*
Y-541300D01*
X983300D01*
Y-398600D01*
D02*
G37*
G36*
X1659400Y-566700D02*
X1516700D01*
Y-709400D01*
X1519306D01*
X1549329Y-703428D01*
X1577609Y-691714D01*
X1603062Y-674707D01*
X1624707Y-653062D01*
X1641714Y-627609D01*
X1653428Y-599328D01*
X1659400Y-569305D01*
Y-566700D01*
D02*
G37*
G36*
X1491300D02*
X1348600D01*
Y-569305D01*
X1354572Y-599328D01*
X1366286Y-627609D01*
X1383293Y-653062D01*
X1404938Y-674707D01*
X1430391Y-691714D01*
X1458671Y-703428D01*
X1488695Y-709400D01*
X1491300D01*
Y-566700D01*
D02*
G37*
G36*
X1151400D02*
X1008700D01*
Y-709400D01*
X1011306D01*
X1041329Y-703428D01*
X1069609Y-691714D01*
X1095062Y-674707D01*
X1116707Y-653062D01*
X1133714Y-627609D01*
X1145428Y-599328D01*
X1151400Y-569305D01*
Y-566700D01*
D02*
G37*
G36*
X983300D02*
X840600D01*
Y-569305D01*
X846572Y-599328D01*
X858286Y-627609D01*
X875293Y-653062D01*
X896938Y-674707D01*
X922391Y-691714D01*
X950671Y-703428D01*
X980695Y-709400D01*
X983300D01*
Y-566700D01*
D02*
G37*
G36*
X1133229Y2160700D02*
X1112771D01*
X1093009Y2155405D01*
X1075291Y2145176D01*
X1060825Y2130709D01*
X1050595Y2112991D01*
X1045300Y2093229D01*
Y2072771D01*
X1050595Y2053009D01*
X1059072Y2038327D01*
Y1949480D01*
X922486Y1812895D01*
X908628Y1792155D01*
X903762Y1767691D01*
Y1432310D01*
X908628Y1407845D01*
X922486Y1387105D01*
X1186072Y1123520D01*
Y976480D01*
X1004763Y795172D01*
X990905Y774432D01*
X986039Y749968D01*
Y350000D01*
X990905Y325536D01*
X1004763Y304796D01*
X1025503Y290938D01*
X1049967Y286072D01*
X1074432Y290938D01*
X1095172Y304796D01*
X1109030Y325536D01*
X1113896Y350000D01*
Y723488D01*
X1295204Y904796D01*
X1309062Y925536D01*
X1313928Y950000D01*
Y1086072D01*
X1626643D01*
X1786072Y926643D01*
Y-823520D01*
X1723520Y-886072D01*
X1597767D01*
X1589341Y-865729D01*
X1573680Y-845320D01*
X1553271Y-829659D01*
X1529505Y-819815D01*
X1504000Y-816457D01*
X1478495Y-819815D01*
X1454729Y-829659D01*
X1434320Y-845320D01*
X1418659Y-865729D01*
X1408815Y-889495D01*
X1405457Y-915000D01*
Y-985000D01*
X1408815Y-1010505D01*
X1418659Y-1034272D01*
X1434320Y-1054681D01*
X1454729Y-1070341D01*
X1478495Y-1080185D01*
X1504000Y-1083543D01*
X1529505Y-1080185D01*
X1553271Y-1070341D01*
X1573680Y-1054681D01*
X1589341Y-1034272D01*
X1597767Y-1013928D01*
X1750000D01*
X1774464Y-1009062D01*
X1795204Y-995204D01*
X1895204Y-895204D01*
X1909062Y-874465D01*
X1913928Y-850000D01*
Y953123D01*
X1909062Y977588D01*
X1895204Y998327D01*
X1698328Y1195204D01*
X1677588Y1209062D01*
X1653123Y1213928D01*
X1276480D01*
X1031619Y1458790D01*
Y1741211D01*
X1168204Y1877796D01*
X1182062Y1898536D01*
X1186928Y1923000D01*
Y2038327D01*
X1195405Y2053009D01*
X1200700Y2072771D01*
Y2093229D01*
X1195405Y2112991D01*
X1185175Y2130709D01*
X1170709Y2145176D01*
X1152991Y2155405D01*
X1133229Y2160700D01*
D02*
G37*
G36*
X1262700Y-805319D02*
Y-937300D01*
X1361353D01*
Y-915000D01*
X1357558Y-886180D01*
X1346434Y-859324D01*
X1328738Y-836262D01*
X1305676Y-818566D01*
X1278820Y-807442D01*
X1262700Y-805319D01*
D02*
G37*
G36*
X1237300D02*
X1221180Y-807442D01*
X1194324Y-818566D01*
X1171262Y-836262D01*
X1153566Y-859324D01*
X1142442Y-886180D01*
X1138647Y-915000D01*
Y-937300D01*
X1237300D01*
Y-805319D01*
D02*
G37*
G36*
X650000Y1213928D02*
X625535Y1209062D01*
X604796Y1195204D01*
X404796Y995204D01*
X390938Y974464D01*
X386072Y950000D01*
Y-650000D01*
X390938Y-674464D01*
X404796Y-695204D01*
X704796Y-995204D01*
X725536Y-1009062D01*
X750000Y-1013928D01*
X898300D01*
Y-1082700D01*
X1093700D01*
Y-817300D01*
X898300D01*
Y-886072D01*
X776480D01*
X513928Y-623520D01*
Y923520D01*
X695204Y1104796D01*
X709062Y1125535D01*
X713928Y1150000D01*
X709062Y1174464D01*
X695204Y1195204D01*
X674464Y1209062D01*
X650000Y1213928D01*
D02*
G37*
G36*
X1361353Y-962700D02*
X1262700D01*
Y-1094681D01*
X1278820Y-1092559D01*
X1305676Y-1081434D01*
X1328738Y-1063739D01*
X1346434Y-1040677D01*
X1357558Y-1013820D01*
X1361353Y-985000D01*
Y-962700D01*
D02*
G37*
G36*
X1237300D02*
X1138647D01*
Y-985000D01*
X1142442Y-1013820D01*
X1153566Y-1040677D01*
X1171262Y-1063739D01*
X1194324Y-1081434D01*
X1221180Y-1092559D01*
X1237300Y-1094681D01*
Y-962700D01*
D02*
G37*
%LPD*%
D20*
X-1250000Y-1150000D02*
Y-950000D01*
X-1792341Y534841D02*
Y870000D01*
X-1700000Y442500D02*
X-1192500D01*
X-1792341Y534841D02*
X-1700000Y442500D01*
D24*
X1123000Y2083000D02*
D03*
X1377000D02*
D03*
D25*
X-1186500Y2083000D02*
D03*
X-1059500D02*
D03*
X-1313500D02*
D03*
X-1440500D02*
D03*
D26*
X1504000Y-950000D02*
D03*
X1250000D02*
D03*
X-1504000Y-950000D02*
D03*
X-1250000D02*
D03*
D27*
X996000Y-950000D02*
D03*
X-996000Y-950000D02*
D03*
D28*
X996000Y-554000D02*
D03*
Y-46000D02*
D03*
X1504000Y-554000D02*
D03*
Y-46000D02*
D03*
D29*
X1250000Y-300000D02*
D03*
D30*
X-350000Y2154000D02*
D03*
Y1900000D02*
D03*
X-2150000Y2154000D02*
D03*
Y1900000D02*
D03*
D31*
X-350000Y1646000D02*
D03*
X-2150000D02*
D03*
D32*
X-1700000Y350000D02*
D03*
X1049967Y350000D02*
D03*
X650000Y1150000D02*
D03*
X1450000Y350000D02*
D03*
X1400000Y550000D02*
D03*
X1350000Y700000D02*
D03*
X850000Y800000D02*
D03*
X650000Y750000D02*
D03*
X-1792341Y870000D02*
D03*
X-1192500Y442500D02*
D03*
X-2000000Y200000D02*
D03*
X-1550000Y350000D02*
D03*
X-1450000Y200000D02*
D03*
X-825000Y-250000D02*
D03*
X-825000Y-100000D02*
D03*
X-1620000Y-213500D02*
D03*
X-2250001Y955000D02*
D03*
X-950000Y1105000D02*
D03*
X-1550000D02*
D03*
X-2250000Y650000D02*
D03*
X-1700000Y650000D02*
D03*
X-1397500Y700000D02*
D03*
X-1550000Y800000D02*
D03*
X-950000D02*
D03*
X-550000Y-250000D02*
D03*
Y-100000D02*
D03*
Y50000D02*
D03*
D33*
X-1700000Y-133501D02*
Y350000D01*
Y-133501D02*
X-1620000Y-213500D01*
X1653123Y1150000D02*
X1850000Y953123D01*
X1250000Y1150000D02*
X1653123D01*
X1850000Y-850000D02*
Y953123D01*
X1750000Y-950000D02*
X1850000Y-850000D01*
X1504000Y-950000D02*
X1750000D01*
X967690Y1432310D02*
Y1767691D01*
Y1432310D02*
X1250000Y1150000D01*
X967690Y1767691D02*
X1123000Y1923000D01*
Y2083000D01*
X1250000Y950000D02*
Y1150000D01*
X1049967Y749968D02*
X1250000Y950000D01*
X1049967Y350000D02*
Y749968D01*
X450000Y950000D02*
X650000Y1150000D01*
X450000Y-650000D02*
Y950000D01*
Y-650000D02*
X750000Y-950000D01*
X996000D01*
X-1050000Y-150000D02*
Y600000D01*
X-1397500Y700000D02*
X-1150000D01*
X-1050000Y600000D01*
Y-150000D02*
X-950000Y-250000D01*
X-825000D01*
X-950000Y1105000D02*
X-825000Y980000D01*
Y-100000D02*
Y980000D01*
X-2100001Y1105000D02*
X-1550000D01*
X-2250001Y955000D02*
X-2100001Y1105000D01*
X-650000Y1405000D02*
Y1554449D01*
X-558449Y1646000D02*
X-350000D01*
X-650000Y1554449D02*
X-558449Y1646000D01*
X-950000Y1105000D02*
X-650000Y1405000D01*
X-1050000Y1250000D02*
X-800000Y1500000D01*
X-1405000Y1250000D02*
X-1050000D01*
X-800000Y1500000D02*
Y2000000D01*
X-1550000Y1105000D02*
X-1405000Y1250000D01*
X-800000Y2000000D02*
X-646000Y2154000D01*
X-350000D01*
X-1550000Y1105000D02*
X-1397500Y952499D01*
Y700000D02*
Y952499D01*
%TF.MD5,ac5c8acec940fbfc87cc441af6be302e*%
M02*
