%TF.GenerationSoftware,Altium Limited,Altium Designer,25.2.1 (25)*%
G04 Layer_Physical_Order=3*
G04 Layer_Color=16440176*
%FSLAX45Y45*%
%MOMM*%
%TF.SameCoordinates,2968D444-F816-4350-AB46-43E4CE3DDFF8*%
%TF.FilePolarity,Positive*%
%TF.FileFunction,Copper,L3,Inr,Signal*%
%TF.Part,Single*%
G01*
G75*
%TA.AperFunction,ComponentPad*%
%ADD39O,1.50000X1.00000*%
G04:AMPARAMS|DCode=40|XSize=2mm|YSize=1mm|CornerRadius=0.5mm|HoleSize=0mm|Usage=FLASHONLY|Rotation=180.000|XOffset=0mm|YOffset=0mm|HoleType=Round|Shape=RoundedRectangle|*
%AMROUNDEDRECTD40*
21,1,2.00000,0.00000,0,0,180.0*
21,1,1.00000,1.00000,0,0,180.0*
1,1,1.00000,-0.50000,0.00000*
1,1,1.00000,0.50000,0.00000*
1,1,1.00000,0.50000,0.00000*
1,1,1.00000,-0.50000,0.00000*
%
%ADD40ROUNDEDRECTD40*%
%ADD41C,0.65000*%
%ADD42C,1.90000*%
%TA.AperFunction,ViaPad*%
%ADD43C,7.00000*%
%ADD44C,0.60000*%
G36*
X2209114Y940886D02*
X2212159Y938387D01*
X2215634Y936530D01*
X2219404Y935386D01*
X2223324Y935000D01*
X2694013D01*
X2694912Y934912D01*
X2695000Y934013D01*
Y745987D01*
X2694912Y745088D01*
X2694013Y745000D01*
X2255987D01*
X2255088Y745088D01*
X2255000Y745987D01*
Y837500D01*
X2175000Y917500D01*
X2045000D01*
Y917500D01*
X2035691Y919169D01*
X2032341Y923370D01*
X2028370Y927341D01*
X2026684Y928685D01*
X2024863Y930138D01*
X2024861Y930139D01*
X2023979Y930842D01*
X2023024Y931442D01*
X2023023Y931443D01*
X2019224Y933830D01*
X2014164Y936267D01*
X2008864Y938121D01*
X2003389Y939371D01*
X2002269Y939497D01*
X2002267Y939498D01*
X1998930Y939874D01*
X1998928D01*
X1997808Y940000D01*
X1992192D01*
X1986611Y939371D01*
X1981136Y938121D01*
X1975836Y936267D01*
X1970776Y933830D01*
X1966021Y930842D01*
X1961630Y927341D01*
X1957659Y923370D01*
X1956315Y921683D01*
X1954862Y919863D01*
X1954861Y919860D01*
X1954158Y918979D01*
X1953558Y918024D01*
X1953557Y918023D01*
X1951170Y914224D01*
X1948733Y909164D01*
X1946879Y903864D01*
X1937209Y899751D01*
X1934692Y900443D01*
X1934667Y900453D01*
X1932341Y903370D01*
X1928370Y907341D01*
X1923979Y910842D01*
X1919224Y913830D01*
X1914164Y916267D01*
X1908864Y918121D01*
X1903389Y919371D01*
X1897808Y920000D01*
X1892192D01*
X1886611Y919371D01*
X1881136Y918121D01*
X1875836Y916267D01*
X1870776Y913830D01*
X1866021Y910842D01*
X1861630Y907341D01*
X1857659Y903370D01*
X1854158Y898979D01*
X1851170Y894224D01*
X1848733Y889164D01*
X1846879Y883864D01*
X1845629Y878389D01*
X1845000Y872808D01*
Y867192D01*
X1845629Y861611D01*
X1846879Y856136D01*
X1848733Y850836D01*
X1851170Y845776D01*
X1854158Y841021D01*
X1857659Y836630D01*
X1861630Y832659D01*
X1866021Y829158D01*
X1870776Y826170D01*
X1875836Y823733D01*
X1881136Y821879D01*
X1886611Y820629D01*
X1892192Y820000D01*
X1897808D01*
X1903389Y820629D01*
X1908864Y821879D01*
X1914164Y823733D01*
X1919224Y826170D01*
X1923979Y829158D01*
X1928370Y832659D01*
X1932341Y836630D01*
X1935842Y841021D01*
X1938830Y845776D01*
X1941267Y850836D01*
X1943121Y856136D01*
X1943362Y857191D01*
X1943844Y857649D01*
X1944365Y858054D01*
X1946675Y859492D01*
X1947433Y859815D01*
X1952865Y860833D01*
X1954331Y860698D01*
X1954487Y860515D01*
X1954815Y860196D01*
X1957659Y856630D01*
X1961630Y852659D01*
X1963317Y851315D01*
X1965137Y849862D01*
X1965140Y849861D01*
X1966021Y849158D01*
X1966976Y848558D01*
X1966978Y848557D01*
X1970776Y846170D01*
X1975836Y843733D01*
X1976550Y843483D01*
X1976617Y843452D01*
X1977475Y843152D01*
X1977780Y842298D01*
X1977811Y842231D01*
X1977922Y841921D01*
X1978080Y841289D01*
X1978190Y840983D01*
X1978185Y840655D01*
X1978238Y840006D01*
X1978130Y833442D01*
X1978100Y833184D01*
X1978089Y832471D01*
X1977442Y832160D01*
X1977223Y832027D01*
X1975776Y831330D01*
X1971021Y828342D01*
X1966631Y824841D01*
X1962660Y820870D01*
X1961315Y819183D01*
X1959862Y817363D01*
X1959861Y817360D01*
X1959158Y816479D01*
X1958558Y815524D01*
X1958557Y815522D01*
X1956170Y811724D01*
X1953734Y806664D01*
X1951879Y801363D01*
X1950629Y795888D01*
X1950503Y794769D01*
X1950503Y794766D01*
X1950127Y791430D01*
Y791428D01*
X1950000Y790308D01*
Y784692D01*
X1950629Y779111D01*
X1951879Y773636D01*
X1953734Y768336D01*
X1956170Y763276D01*
X1959158Y758521D01*
X1961286Y755852D01*
X1959571Y749535D01*
X1958333Y746315D01*
X1950522Y745000D01*
X1805000D01*
X1799999Y750000D01*
X1797186D01*
X1795191Y751067D01*
X1791421Y752211D01*
X1787500Y752597D01*
X650097D01*
Y855000D01*
X650000Y855983D01*
Y875000D01*
X630981D01*
X630000Y875097D01*
X450000D01*
X449015Y875000D01*
X440000D01*
X439239Y875000D01*
X430000Y875000D01*
X430000Y875001D01*
X429999Y875000D01*
X429999Y875000D01*
X430000Y865761D01*
X430000Y865000D01*
Y855981D01*
X429903Y855000D01*
Y745097D01*
X-885000D01*
X-885980Y745000D01*
X-1393284D01*
X-1647500Y490784D01*
Y-98229D01*
X-1648979Y-99158D01*
X-1653370Y-102659D01*
X-1657341Y-106630D01*
X-1660842Y-111021D01*
X-1663830Y-115776D01*
X-1666267Y-120836D01*
X-1668121Y-126137D01*
X-1669371Y-131612D01*
X-1670000Y-137192D01*
Y-142808D01*
X-1669371Y-148389D01*
X-1668121Y-153864D01*
X-1666267Y-159165D01*
X-1663830Y-164224D01*
X-1660842Y-168979D01*
X-1657341Y-173370D01*
X-1653370Y-177341D01*
X-1648979Y-180842D01*
X-1647500Y-181772D01*
Y-189597D01*
X-1647469D01*
X-1625410Y-211655D01*
X-1625309Y-211807D01*
X-1624613Y-212502D01*
X-1623987Y-213265D01*
X-1594611Y-242641D01*
X-1593570Y-243496D01*
X-1593569Y-243496D01*
X-1588634Y-248431D01*
X-1581375D01*
X-1580400Y-248527D01*
X-1351624D01*
X-1300107Y-300044D01*
Y-423473D01*
X-1312415Y-435781D01*
X-1315776Y-433670D01*
X-1320836Y-431233D01*
X-1326137Y-429378D01*
X-1331612Y-428129D01*
X-1337192Y-427500D01*
X-1342808D01*
X-1348389Y-428129D01*
X-1353864Y-429378D01*
X-1359164Y-431233D01*
X-1364224Y-433670D01*
X-1368979Y-436657D01*
X-1373370Y-440159D01*
X-1377341Y-444130D01*
X-1378035Y-445000D01*
X-1396675D01*
X-1397655Y-444903D01*
X-2050000D01*
Y-439692D01*
X-2050629Y-434112D01*
X-2051879Y-428637D01*
X-2053734Y-423336D01*
X-2056170Y-418276D01*
X-2059158Y-413521D01*
X-2062659Y-409130D01*
X-2066630Y-405159D01*
X-2071021Y-401658D01*
X-2075776Y-398670D01*
X-2080836Y-396234D01*
X-2086137Y-394379D01*
X-2091612Y-393129D01*
X-2097192Y-392500D01*
X-2102808D01*
X-2108389Y-393129D01*
X-2113864Y-394379D01*
X-2119164Y-396234D01*
X-2124224Y-398670D01*
X-2128979Y-401658D01*
X-2133370Y-405159D01*
X-2137341Y-409130D01*
X-2140842Y-413521D01*
X-2143830Y-418276D01*
X-2146267Y-423336D01*
X-2148121Y-428637D01*
X-2149371Y-434112D01*
X-2150000Y-439692D01*
Y-444903D01*
X-2180253D01*
X-2181084Y-443918D01*
X-2184192Y-434903D01*
X-2182659Y-433370D01*
X-2179158Y-428979D01*
X-2176170Y-424224D01*
X-2173733Y-419165D01*
X-2171879Y-413864D01*
X-2170629Y-408389D01*
X-2170000Y-402808D01*
Y-397192D01*
X-2170629Y-391612D01*
X-2171879Y-386137D01*
X-2173733Y-380836D01*
X-2176170Y-375776D01*
X-2179158Y-371021D01*
X-2182659Y-366630D01*
X-2186630Y-362659D01*
X-2191021Y-359158D01*
X-2195776Y-356170D01*
X-2200836Y-353734D01*
X-2206136Y-351879D01*
X-2211611Y-350629D01*
X-2217192Y-350000D01*
X-2222808D01*
X-2228388Y-350629D01*
X-2233863Y-351879D01*
X-2239164Y-353734D01*
X-2244224Y-356170D01*
X-2248979Y-359158D01*
X-2253370Y-362659D01*
X-2257341Y-366630D01*
X-2260842Y-371021D01*
X-2263830Y-375776D01*
X-2266266Y-380836D01*
X-2268121Y-386137D01*
X-2269371Y-391612D01*
X-2270000Y-397192D01*
Y-402808D01*
X-2269371Y-408389D01*
X-2268121Y-413864D01*
X-2266266Y-419165D01*
X-2263830Y-424224D01*
X-2260842Y-428979D01*
X-2257341Y-433370D01*
X-2255808Y-434903D01*
X-2258916Y-443918D01*
X-2259746Y-444903D01*
X-2441661D01*
X-2464893Y-421671D01*
Y-271760D01*
X-2441564Y-248431D01*
X-2321904D01*
X-2010622Y-248431D01*
X-1902903D01*
X-1844069Y-189597D01*
Y539945D01*
X-1843975Y540893D01*
X-1843371Y541629D01*
X-1450698Y934302D01*
X-1449962Y934907D01*
X-1449013Y935000D01*
X1635000D01*
X1682500Y982500D01*
X2167500D01*
X2209114Y940886D01*
D02*
G37*
G36*
X3133991Y1722259D02*
X3188388Y1707684D01*
X3240419Y1686131D01*
X3289190Y1657974D01*
X3333868Y1623691D01*
X3373691Y1583868D01*
X3407974Y1539190D01*
X3436131Y1490420D01*
X3457683Y1438389D01*
X3472258Y1383993D01*
X3479609Y1328158D01*
Y1300000D01*
Y290097D01*
X3388308D01*
X3387462Y290013D01*
X3386613Y290025D01*
X3385507Y289821D01*
X3384387Y289711D01*
X3383574Y289464D01*
X3382739Y289310D01*
X3374735Y292000D01*
X3373948Y292460D01*
X3372328Y293915D01*
X3371765Y294562D01*
X3371668Y294704D01*
X3368449Y301605D01*
X3363952Y309394D01*
X3358793Y316762D01*
X3353012Y323652D01*
X3346652Y330012D01*
X3339762Y335793D01*
X3332395Y340952D01*
X3324605Y345449D01*
X3316454Y349250D01*
X3308003Y352326D01*
X3299315Y354654D01*
X3290457Y356216D01*
X3281497Y357000D01*
X3272503D01*
X3263543Y356216D01*
X3254686Y354654D01*
X3245998Y352326D01*
X3237546Y349250D01*
X3229395Y345449D01*
X3221606Y340952D01*
X3214238Y335793D01*
X3207348Y330012D01*
X3200989Y323652D01*
X3195207Y316762D01*
X3190048Y309394D01*
X3185551Y301605D01*
X3182333Y294704D01*
X3182236Y294562D01*
X3181676Y293918D01*
X3180051Y292458D01*
X3179264Y291999D01*
X3171262Y289310D01*
X3170427Y289464D01*
X3169613Y289711D01*
X3168493Y289821D01*
X3167388Y290025D01*
X3166538Y290013D01*
X3165693Y290097D01*
X3119208D01*
X3118508Y290028D01*
X3117803Y290048D01*
X3116551Y289835D01*
X3115287Y289711D01*
X3114613Y289506D01*
X3113919Y289388D01*
X3112732Y288935D01*
X3111517Y288567D01*
X3110898Y288236D01*
X3110238Y287984D01*
X3109162Y287308D01*
X3108043Y286710D01*
X3107498Y286263D01*
X3106902Y285889D01*
X3105979Y285016D01*
X3104997Y284211D01*
X3104551Y283667D01*
X3104039Y283183D01*
X3103303Y282146D01*
X3102498Y281165D01*
X3102166Y280544D01*
X3101759Y279970D01*
X3101239Y278809D01*
X3100641Y277691D01*
X3100437Y277018D01*
X3100149Y276374D01*
X3099866Y275135D01*
X3099497Y273921D01*
X3099428Y273220D01*
X3099271Y272534D01*
X3098064Y263034D01*
X3098028Y261768D01*
X3097904Y260510D01*
Y260500D01*
X3049711D01*
X3048000Y260584D01*
X2998000D01*
X2996289Y260500D01*
X2948097D01*
Y260510D01*
X2947972Y261768D01*
X2947936Y263034D01*
X2946729Y272534D01*
X2946572Y273220D01*
X2946503Y273921D01*
X2946135Y275135D01*
X2945852Y276374D01*
X2945564Y277018D01*
X2945360Y277691D01*
X2944762Y278809D01*
X2944242Y279970D01*
X2943834Y280544D01*
X2943503Y281165D01*
X2942697Y282146D01*
X2941962Y283183D01*
X2941450Y283667D01*
X2941003Y284211D01*
X2940071Y284976D01*
X2940021Y285017D01*
X2938534Y287896D01*
X2937479Y292374D01*
X2937322Y294234D01*
X2937390Y295214D01*
X2937868Y297337D01*
X2937987Y297644D01*
X2939293Y299282D01*
X2942460Y304323D01*
X2945043Y309686D01*
X2947009Y315305D01*
X2948333Y321108D01*
X2949000Y327024D01*
Y332976D01*
X2948333Y338892D01*
X2947009Y344696D01*
X2945043Y350314D01*
X2942460Y355677D01*
X2939293Y360718D01*
X2935581Y365372D01*
X2931372Y369581D01*
X2926718Y373293D01*
X2921677Y376460D01*
X2916314Y379043D01*
X2915367Y379374D01*
X2915329Y389982D01*
X2918889Y391256D01*
X2925586Y394423D01*
X2931941Y398232D01*
X2937891Y402645D01*
X2943380Y407620D01*
X2948355Y413109D01*
X2952768Y419060D01*
X2956577Y425414D01*
X2959744Y432111D01*
X2962240Y439086D01*
X2964040Y446273D01*
X2964341Y448301D01*
X2852700D01*
Y385509D01*
X2866066D01*
X2868636Y380045D01*
X2868809Y375509D01*
X2865282Y373293D01*
X2860628Y369581D01*
X2856419Y365372D01*
X2852707Y360718D01*
X2849540Y355677D01*
X2846957Y350314D01*
X2844991Y344696D01*
X2843667Y338892D01*
X2843000Y332976D01*
Y327024D01*
X2843667Y321108D01*
X2844991Y315305D01*
X2846957Y309686D01*
X2849540Y304323D01*
X2852195Y300097D01*
X2851469Y297202D01*
X2847242Y290097D01*
X2798900D01*
X2794980Y289711D01*
X2791210Y288567D01*
X2787735Y286710D01*
X2784690Y284211D01*
X2782191Y281165D01*
X2780334Y277691D01*
X2779190Y273921D01*
X2778804Y270000D01*
Y-386436D01*
X2775272Y-386960D01*
X2768086Y-388760D01*
X2761111Y-391256D01*
X2754414Y-394423D01*
X2748059Y-398232D01*
X2742109Y-402645D01*
X2736620Y-407620D01*
X2731645Y-413109D01*
X2727232Y-419060D01*
X2723423Y-425414D01*
X2720255Y-432111D01*
X2717760Y-439086D01*
X2715960Y-446273D01*
X2715659Y-448300D01*
X2840000D01*
Y-473700D01*
X2715659D01*
X2715960Y-475728D01*
X2717760Y-482914D01*
X2720255Y-489889D01*
X2723423Y-496586D01*
X2727232Y-502941D01*
X2731645Y-508891D01*
X2736620Y-514380D01*
X2742109Y-519355D01*
X2748059Y-523768D01*
X2754414Y-527577D01*
X2761111Y-530744D01*
X2768086Y-533240D01*
X2775272Y-535040D01*
X2778804Y-535564D01*
Y-617775D01*
X2596675Y-799904D01*
X1995097D01*
Y-672500D01*
X1994711Y-668580D01*
X1993567Y-664810D01*
X1991710Y-661335D01*
X1989211Y-658290D01*
X1986165Y-655790D01*
X1982691Y-653933D01*
X1978921Y-652790D01*
X1975000Y-652404D01*
X1492433D01*
X1492052Y-652441D01*
X1491668Y-652418D01*
X1476545Y-652994D01*
X1476165Y-653046D01*
X1475782Y-653038D01*
X1460692Y-654189D01*
X1460314Y-654255D01*
X1459930Y-654262D01*
X1444895Y-655986D01*
X1444520Y-656067D01*
X1444137Y-656088D01*
X1429178Y-658383D01*
X1428806Y-658478D01*
X1428424Y-658514D01*
X1413564Y-661377D01*
X1413197Y-661486D01*
X1412816Y-661536D01*
X1398075Y-664963D01*
X1397711Y-665086D01*
X1397334Y-665150D01*
X1393045Y-666321D01*
X1385097Y-660252D01*
Y300000D01*
X1384711Y303920D01*
X1383567Y307690D01*
X1381710Y311165D01*
X1379211Y314210D01*
X1376165Y316710D01*
X1372691Y318567D01*
X1368921Y319710D01*
X1365000Y320096D01*
X1064595D01*
X1063078Y319947D01*
X1061559Y319866D01*
X1061123Y319755D01*
X1060674Y319710D01*
X1059217Y319268D01*
X1057742Y318892D01*
X1057335Y318697D01*
X1056904Y318567D01*
X1055565Y317851D01*
X1054188Y317192D01*
X1053826Y316922D01*
X1053430Y316710D01*
X1052254Y315744D01*
X1051034Y314831D01*
X1050782Y314601D01*
X1050637Y314439D01*
X1050465Y314305D01*
X1049321Y312975D01*
X1048149Y311670D01*
X1048038Y311484D01*
X1047896Y311319D01*
X1047035Y309793D01*
X1046138Y308283D01*
X1046066Y308077D01*
X1045959Y307888D01*
X1041645Y298118D01*
X1041308Y297095D01*
X1040881Y296103D01*
X1040694Y295227D01*
X1040414Y294376D01*
X1040283Y293305D01*
X1040058Y292251D01*
X1040045Y291354D01*
X1039937Y290465D01*
X1040018Y289390D01*
X1040003Y288311D01*
X1040165Y287431D01*
X1040232Y286537D01*
X1040522Y285495D01*
X1040717Y284437D01*
X1041048Y283605D01*
X1041288Y282741D01*
X1041775Y281778D01*
X1042173Y280776D01*
X1042660Y280025D01*
X1043064Y279224D01*
X1043729Y278375D01*
X1044316Y277470D01*
X1044426Y277331D01*
X1046213Y274488D01*
X1047670Y271461D01*
X1048779Y268292D01*
X1049527Y265016D01*
X1049903Y261680D01*
Y258320D01*
X1049527Y254983D01*
X1048779Y251708D01*
X1047670Y248539D01*
X1046213Y245513D01*
X1044426Y242668D01*
X1042332Y240042D01*
X1039958Y237669D01*
X1037330Y235573D01*
X1034488Y233787D01*
X1034025Y233564D01*
X1032638Y232720D01*
X1031226Y231926D01*
X1030960Y231698D01*
X1030660Y231515D01*
X1029464Y230416D01*
X1028235Y229362D01*
X1028018Y229086D01*
X1027760Y228849D01*
X1026805Y227543D01*
X1025801Y226264D01*
X1025642Y225951D01*
X1025435Y225669D01*
X1021574Y224477D01*
X1020007Y224285D01*
X1018421Y224479D01*
X1014565Y225669D01*
X1014358Y225952D01*
X1014199Y226264D01*
X1013196Y227542D01*
X1012240Y228849D01*
X1011982Y229086D01*
X1011765Y229362D01*
X1010533Y230418D01*
X1009340Y231515D01*
X1009040Y231698D01*
X1008774Y231926D01*
X1007358Y232722D01*
X1005975Y233564D01*
X1005514Y233786D01*
X1002668Y235574D01*
X1000042Y237668D01*
X997669Y240042D01*
X995573Y242670D01*
X993787Y245512D01*
X992330Y248538D01*
X991221Y251708D01*
X990473Y254984D01*
X990097Y258320D01*
Y261680D01*
X990473Y265016D01*
X991221Y268292D01*
X992329Y271461D01*
X993787Y274487D01*
X995574Y277332D01*
X995684Y277470D01*
X996271Y278375D01*
X996936Y279224D01*
X997340Y280025D01*
X997827Y280776D01*
X998225Y281778D01*
X998712Y282741D01*
X998952Y283605D01*
X999283Y284437D01*
X999478Y285495D01*
X999768Y286537D01*
X999835Y287432D01*
X999997Y288311D01*
X999982Y289388D01*
X1000063Y290465D01*
X999955Y291356D01*
X999942Y292251D01*
X999717Y293304D01*
X999586Y294376D01*
X999306Y295227D01*
X999119Y296103D01*
X998692Y297095D01*
X998355Y298118D01*
X994041Y307888D01*
X993934Y308077D01*
X993862Y308283D01*
X992965Y309793D01*
X992104Y311319D01*
X991962Y311484D01*
X991851Y311670D01*
X990676Y312979D01*
X989535Y314305D01*
X989364Y314439D01*
X989218Y314601D01*
X988966Y314831D01*
X987746Y315744D01*
X986570Y316710D01*
X986174Y316922D01*
X985812Y317192D01*
X984436Y317850D01*
X983096Y318567D01*
X982665Y318697D01*
X982258Y318892D01*
X980784Y319268D01*
X979326Y319710D01*
X978877Y319755D01*
X978441Y319866D01*
X976922Y319947D01*
X975405Y320096D01*
X887534D01*
X886691Y320013D01*
X885844Y320025D01*
X884736Y319821D01*
X883613Y319710D01*
X882801Y319464D01*
X881970Y319311D01*
X880923Y318894D01*
X879844Y318567D01*
X879097Y318167D01*
X878309Y317854D01*
X877364Y317241D01*
X876369Y316710D01*
X875714Y316172D01*
X875003Y315711D01*
X874831Y315574D01*
X871988Y313788D01*
X868961Y312330D01*
X865792Y311221D01*
X862516Y310473D01*
X859180Y310097D01*
X855820D01*
X852483Y310473D01*
X849208Y311221D01*
X846039Y312330D01*
X843013Y313787D01*
X840169Y315574D01*
X839997Y315711D01*
X839286Y316172D01*
X838631Y316710D01*
X837638Y317240D01*
X836690Y317854D01*
X835902Y318168D01*
X835156Y318567D01*
X834077Y318894D01*
X833030Y319311D01*
X832198Y319464D01*
X831386Y319710D01*
X830264Y319821D01*
X829156Y320025D01*
X828308Y320013D01*
X827466Y320096D01*
X799103D01*
X796547Y321917D01*
X791525Y330097D01*
X791871Y331612D01*
X792500Y337192D01*
Y342808D01*
X791871Y348389D01*
X790622Y353864D01*
X788767Y359165D01*
X786330Y364224D01*
X783343Y368979D01*
X779841Y373370D01*
X775870Y377341D01*
X771480Y380843D01*
X766724Y383830D01*
X761665Y386267D01*
X756364Y388122D01*
X750889Y389371D01*
X745308Y390000D01*
X739692D01*
X734112Y389371D01*
X728637Y388122D01*
X723336Y386267D01*
X718276Y383830D01*
X713521Y380843D01*
X709131Y377341D01*
X705160Y373370D01*
X701658Y368979D01*
X698670Y364224D01*
X696234Y359165D01*
X694379Y353864D01*
X693129Y348389D01*
X693097Y348101D01*
X683097Y348662D01*
Y465000D01*
X682711Y468921D01*
X681567Y472691D01*
X679710Y476165D01*
X677211Y479211D01*
X674165Y481710D01*
X670691Y483567D01*
X666921Y484711D01*
X663000Y485097D01*
X561794D01*
X561231Y485041D01*
X560667Y485065D01*
X559277Y484849D01*
X557873Y484711D01*
X557332Y484547D01*
X556774Y484460D01*
X555450Y483975D01*
X554103Y483567D01*
X553606Y483301D01*
X553074Y483106D01*
X551461Y482330D01*
X548292Y481221D01*
X545016Y480473D01*
X541680Y480097D01*
X538320D01*
X534983Y480473D01*
X531708Y481221D01*
X528540Y482329D01*
X526926Y483106D01*
X526394Y483301D01*
X525897Y483567D01*
X524550Y483975D01*
X523226Y484460D01*
X522668Y484547D01*
X522127Y484711D01*
X520723Y484849D01*
X519333Y485065D01*
X518769Y485041D01*
X518206Y485097D01*
X463000D01*
X459080Y484711D01*
X455310Y483567D01*
X451835Y481710D01*
X448790Y479211D01*
X446290Y476165D01*
X444433Y472691D01*
X443290Y468921D01*
X442904Y465000D01*
Y320096D01*
X179036D01*
X178204Y320014D01*
X177365Y320027D01*
X176246Y319822D01*
X175115Y319710D01*
X174313Y319467D01*
X173490Y319316D01*
X172433Y318897D01*
X171345Y318567D01*
X170607Y318172D01*
X169828Y317863D01*
X168873Y317245D01*
X167871Y316710D01*
X167224Y316179D01*
X166520Y315724D01*
X157484Y308531D01*
X156667Y307738D01*
X155789Y307018D01*
X155259Y306372D01*
X154657Y305788D01*
X154010Y304851D01*
X153289Y303972D01*
X152894Y303233D01*
X152419Y302545D01*
X151968Y301501D01*
X151432Y300498D01*
X151189Y299698D01*
X150857Y298928D01*
X150619Y297816D01*
X150288Y296728D01*
X150206Y295894D01*
X150031Y295076D01*
X150014Y293940D01*
X149902Y292807D01*
Y288319D01*
X149526Y284983D01*
X148779Y281708D01*
X147670Y278538D01*
X146212Y275512D01*
X144425Y272668D01*
X142331Y270042D01*
X139957Y267668D01*
X137329Y265572D01*
X134488Y263787D01*
X131461Y262329D01*
X128291Y261220D01*
X125015Y260472D01*
X121679Y260096D01*
X118319D01*
X114983Y260472D01*
X111707Y261220D01*
X108538Y262329D01*
X105512Y263786D01*
X102668Y265573D01*
X100041Y267668D01*
X97668Y270041D01*
X95572Y272669D01*
X93787Y275511D01*
X92329Y278538D01*
X91220Y281708D01*
X90472Y284983D01*
X90096Y288319D01*
Y292807D01*
X89985Y293939D01*
X89968Y295076D01*
X89792Y295894D01*
X89710Y296728D01*
X89380Y297817D01*
X89141Y298928D01*
X88809Y299697D01*
X88566Y300498D01*
X88030Y301501D01*
X87579Y302545D01*
X87104Y303233D01*
X86709Y303972D01*
X85988Y304852D01*
X85342Y305787D01*
X84741Y306370D01*
X84210Y307018D01*
X83330Y307740D01*
X82515Y308531D01*
X73478Y315724D01*
X72775Y316179D01*
X72128Y316710D01*
X71126Y317245D01*
X70170Y317863D01*
X69391Y318172D01*
X68653Y318567D01*
X67565Y318897D01*
X66508Y319316D01*
X65686Y319467D01*
X64884Y319710D01*
X63750Y319822D01*
X62633Y320027D01*
X61797Y320014D01*
X60963Y320096D01*
X-616799D01*
X-618372Y319941D01*
X-619942Y319849D01*
X-620325Y319749D01*
X-620720Y319710D01*
X-622229Y319252D01*
X-623754Y318854D01*
X-624111Y318681D01*
X-624489Y318567D01*
X-625880Y317823D01*
X-627299Y317135D01*
X-627615Y316896D01*
X-627964Y316710D01*
X-629184Y315708D01*
X-630440Y314757D01*
X-630703Y314462D01*
X-631009Y314210D01*
X-632010Y312991D01*
X-633057Y311812D01*
X-633258Y311471D01*
X-633509Y311165D01*
X-634251Y309776D01*
X-635050Y308414D01*
X-638027Y301955D01*
X-638630Y300217D01*
X-639140Y298807D01*
X-641611Y299371D01*
X-647192Y300000D01*
X-652808D01*
X-658389Y299371D01*
X-660859Y298807D01*
X-661370Y300217D01*
X-661973Y301955D01*
X-664950Y308414D01*
X-665750Y309778D01*
X-666491Y311165D01*
X-666742Y311470D01*
X-666943Y311813D01*
X-667992Y312993D01*
X-668991Y314210D01*
X-669297Y314462D01*
X-669560Y314757D01*
X-670816Y315708D01*
X-672036Y316710D01*
X-672385Y316896D01*
X-672701Y317135D01*
X-674120Y317823D01*
X-675510Y318567D01*
X-675889Y318681D01*
X-676246Y318854D01*
X-677771Y319252D01*
X-679280Y319710D01*
X-679675Y319749D01*
X-680058Y319849D01*
X-681631Y319942D01*
X-683201Y320096D01*
X-815000D01*
X-818921Y319710D01*
X-822691Y318567D01*
X-826165Y316710D01*
X-829211Y314210D01*
X-831710Y311165D01*
X-833567Y307690D01*
X-834711Y303920D01*
X-835097Y300000D01*
Y226869D01*
X-835002Y225899D01*
X-835003Y224925D01*
X-834809Y223945D01*
X-834711Y222948D01*
X-834428Y222016D01*
X-834239Y221060D01*
X-833858Y220135D01*
X-833567Y219178D01*
X-833108Y218319D01*
X-832736Y217419D01*
X-832182Y216586D01*
X-831710Y215704D01*
X-831092Y214951D01*
X-830552Y214140D01*
X-829845Y213431D01*
X-829211Y212658D01*
X-828459Y212041D01*
X-827770Y211351D01*
X-819032Y204160D01*
X-817922Y203417D01*
X-816864Y202606D01*
X-816290Y202323D01*
X-815759Y201967D01*
X-814528Y201456D01*
X-813329Y200865D01*
X-812710Y200700D01*
X-812121Y200455D01*
X-810812Y200193D01*
X-809523Y199848D01*
X-808261Y199641D01*
X-807471Y199589D01*
X-806689Y199445D01*
X-805506Y199462D01*
X-804330Y199385D01*
X-803543Y199490D01*
X-802749Y199501D01*
X-799180Y199903D01*
X-795820D01*
X-792483Y199527D01*
X-789208Y198779D01*
X-786039Y197670D01*
X-783012Y196213D01*
X-780168Y194426D01*
X-777542Y192332D01*
X-775168Y189958D01*
X-773073Y187330D01*
X-771287Y184488D01*
X-769830Y181461D01*
X-768720Y178292D01*
X-767973Y175016D01*
X-767597Y171680D01*
Y168320D01*
X-767973Y164983D01*
X-768720Y161708D01*
X-769829Y158539D01*
X-771287Y155513D01*
X-773074Y152668D01*
X-775168Y150042D01*
X-777542Y147668D01*
X-780170Y145573D01*
X-783011Y143787D01*
X-786038Y142330D01*
X-789208Y141220D01*
X-792484Y140473D01*
X-795820Y140097D01*
X-799180D01*
X-802749Y140499D01*
X-803543Y140510D01*
X-804330Y140614D01*
X-805506Y140538D01*
X-806689Y140555D01*
X-807471Y140410D01*
X-808261Y140359D01*
X-809523Y140152D01*
X-810812Y139807D01*
X-812121Y139545D01*
X-812710Y139300D01*
X-813329Y139135D01*
X-814528Y138544D01*
X-815759Y138033D01*
X-816290Y137677D01*
X-816864Y137394D01*
X-817922Y136583D01*
X-819032Y135840D01*
X-827770Y128649D01*
X-828459Y127959D01*
X-829211Y127341D01*
X-829845Y126568D01*
X-830552Y125860D01*
X-831092Y125049D01*
X-831710Y124296D01*
X-832182Y123414D01*
X-832736Y122581D01*
X-833108Y121680D01*
X-833567Y120821D01*
X-833858Y119865D01*
X-834239Y118940D01*
X-834428Y117984D01*
X-834711Y117052D01*
X-834809Y116055D01*
X-835003Y115074D01*
X-835002Y114101D01*
X-835097Y113131D01*
Y31959D01*
X-835042Y31396D01*
X-835065Y30832D01*
X-834849Y29442D01*
X-834711Y28039D01*
X-834547Y27497D01*
X-834460Y26938D01*
X-833976Y25615D01*
X-833567Y24269D01*
X-833301Y23771D01*
X-833107Y23239D01*
X-832373Y22034D01*
X-831710Y20794D01*
X-831352Y20358D01*
X-831058Y19874D01*
X-830103Y18836D01*
X-829211Y17749D01*
X-828774Y17390D01*
X-828391Y16974D01*
X-826198Y15014D01*
X-825061Y14183D01*
X-823972Y13290D01*
X-823474Y13023D01*
X-823017Y12690D01*
X-821740Y12096D01*
X-820498Y11433D01*
X-819957Y11268D01*
X-819444Y11030D01*
X-818076Y10698D01*
X-816728Y10289D01*
X-816165Y10234D01*
X-815616Y10100D01*
X-814209Y10041D01*
X-812807Y9903D01*
X-808320D01*
X-804983Y9527D01*
X-801708Y8779D01*
X-798538Y7670D01*
X-795512Y6213D01*
X-792668Y4426D01*
X-790042Y2331D01*
X-787668Y-42D01*
X-785573Y-2670D01*
X-783787Y-5512D01*
X-783564Y-5975D01*
X-782719Y-7362D01*
X-781926Y-8774D01*
X-781698Y-9040D01*
X-781515Y-9340D01*
X-780416Y-10536D01*
X-779362Y-11766D01*
X-779086Y-11982D01*
X-778849Y-12240D01*
X-777543Y-13195D01*
X-776264Y-14200D01*
X-775951Y-14359D01*
X-775668Y-14565D01*
X-774199Y-15247D01*
X-772751Y-15982D01*
X-772089Y-16240D01*
X-770399Y-16714D01*
X-768716Y-17224D01*
X-768502Y-17245D01*
X-768295Y-17303D01*
X-766544Y-17438D01*
X-764795Y-17610D01*
X-755204D01*
X-753455Y-17438D01*
X-751704Y-17303D01*
X-751497Y-17245D01*
X-751283Y-17224D01*
X-749600Y-16714D01*
X-747910Y-16240D01*
X-747248Y-15982D01*
X-745803Y-15249D01*
X-744331Y-14565D01*
X-744048Y-14358D01*
X-743735Y-14200D01*
X-742458Y-13196D01*
X-741150Y-12240D01*
X-740913Y-11982D01*
X-740637Y-11766D01*
X-739581Y-10534D01*
X-738484Y-9340D01*
X-738302Y-9040D01*
X-738074Y-8774D01*
X-737277Y-7358D01*
X-736435Y-5975D01*
X-736213Y-5514D01*
X-734426Y-2669D01*
X-732331Y-42D01*
X-729958Y2331D01*
X-727330Y4427D01*
X-724488Y6212D01*
X-721461Y7670D01*
X-718291Y8779D01*
X-715016Y9527D01*
X-711680Y9903D01*
X-708320D01*
X-704983Y9527D01*
X-701708Y8779D01*
X-698538Y7670D01*
X-695512Y6213D01*
X-692668Y4426D01*
X-690042Y2331D01*
X-687668Y-42D01*
X-685573Y-2670D01*
X-683787Y-5512D01*
X-683564Y-5975D01*
X-682719Y-7362D01*
X-681925Y-8774D01*
X-681698Y-9040D01*
X-681515Y-9340D01*
X-680416Y-10536D01*
X-679362Y-11766D01*
X-679086Y-11982D01*
X-678849Y-12240D01*
X-677543Y-13195D01*
X-676264Y-14200D01*
X-675951Y-14359D01*
X-675668Y-14565D01*
X-674199Y-15247D01*
X-672751Y-15982D01*
X-672089Y-16240D01*
X-670399Y-16714D01*
X-668716Y-17224D01*
X-668502Y-17245D01*
X-668295Y-17303D01*
X-666544Y-17438D01*
X-664795Y-17610D01*
X-655204D01*
X-653455Y-17438D01*
X-651704Y-17303D01*
X-651497Y-17245D01*
X-651283Y-17224D01*
X-649600Y-16714D01*
X-647910Y-16240D01*
X-647248Y-15982D01*
X-645803Y-15249D01*
X-644331Y-14565D01*
X-644048Y-14358D01*
X-643735Y-14200D01*
X-642458Y-13196D01*
X-641150Y-12240D01*
X-640913Y-11982D01*
X-640637Y-11766D01*
X-639581Y-10534D01*
X-638484Y-9340D01*
X-638302Y-9040D01*
X-638074Y-8774D01*
X-637277Y-7358D01*
X-636435Y-5975D01*
X-636213Y-5514D01*
X-634426Y-2669D01*
X-632331Y-42D01*
X-629958Y2331D01*
X-627330Y4427D01*
X-624488Y6212D01*
X-621461Y7670D01*
X-618291Y8779D01*
X-615016Y9527D01*
X-611679Y9903D01*
X-608320D01*
X-604983Y9527D01*
X-601708Y8779D01*
X-598538Y7670D01*
X-595512Y6213D01*
X-592668Y4426D01*
X-590042Y2331D01*
X-587668Y-42D01*
X-585573Y-2670D01*
X-583787Y-5512D01*
X-582329Y-8539D01*
X-581220Y-11708D01*
X-580472Y-14984D01*
X-580096Y-18320D01*
Y-21680D01*
X-580472Y-25017D01*
X-581220Y-28292D01*
X-582329Y-31461D01*
X-583786Y-34488D01*
X-585573Y-37332D01*
X-587668Y-39958D01*
X-590041Y-42332D01*
X-592669Y-44427D01*
X-595512Y-46214D01*
X-595975Y-46437D01*
X-597360Y-47280D01*
X-598772Y-48074D01*
X-599039Y-48302D01*
X-599340Y-48486D01*
X-600533Y-49583D01*
X-601764Y-50637D01*
X-601982Y-50914D01*
X-602240Y-51152D01*
X-603196Y-52460D01*
X-604198Y-53735D01*
X-604357Y-54048D01*
X-604565Y-54333D01*
X-605249Y-55806D01*
X-605981Y-57248D01*
X-606239Y-57909D01*
X-606713Y-59603D01*
X-607223Y-61283D01*
X-607244Y-61496D01*
X-607302Y-61702D01*
X-607437Y-63453D01*
X-607609Y-65204D01*
Y-74796D01*
X-607437Y-76548D01*
X-607302Y-78298D01*
X-607244Y-78503D01*
X-607223Y-78717D01*
X-606713Y-80399D01*
X-606239Y-82091D01*
X-605981Y-82752D01*
X-605246Y-84199D01*
X-604565Y-85668D01*
X-604357Y-85951D01*
X-604198Y-86266D01*
X-603196Y-87541D01*
X-602240Y-88848D01*
X-601981Y-89086D01*
X-601764Y-89363D01*
X-600537Y-90414D01*
X-599340Y-91515D01*
X-599038Y-91699D01*
X-598772Y-91926D01*
X-597363Y-92719D01*
X-595975Y-93564D01*
X-595513Y-93786D01*
X-592668Y-95574D01*
X-590042Y-97668D01*
X-587668Y-100042D01*
X-585573Y-102670D01*
X-583787Y-105512D01*
X-582329Y-108539D01*
X-581220Y-111708D01*
X-580472Y-114984D01*
X-580096Y-118320D01*
Y-121680D01*
X-580472Y-125017D01*
X-581220Y-128292D01*
X-582329Y-131461D01*
X-583786Y-134487D01*
X-585573Y-137332D01*
X-587668Y-139958D01*
X-590041Y-142331D01*
X-592669Y-144427D01*
X-595511Y-146213D01*
X-598538Y-147670D01*
X-601708Y-148779D01*
X-604984Y-149527D01*
X-608320Y-149903D01*
X-611679D01*
X-615016Y-149527D01*
X-618291Y-148779D01*
X-621461Y-147671D01*
X-624487Y-146213D01*
X-627331Y-144426D01*
X-629957Y-142332D01*
X-632331Y-139958D01*
X-634426Y-137330D01*
X-636213Y-134488D01*
X-636435Y-134025D01*
X-637280Y-132638D01*
X-638074Y-131226D01*
X-638301Y-130960D01*
X-638484Y-130660D01*
X-639583Y-129464D01*
X-640637Y-128235D01*
X-640913Y-128018D01*
X-641150Y-127760D01*
X-642456Y-126805D01*
X-643735Y-125801D01*
X-644048Y-125642D01*
X-644331Y-125435D01*
X-645800Y-124753D01*
X-647248Y-124018D01*
X-647910Y-123760D01*
X-649600Y-123287D01*
X-651283Y-122776D01*
X-651497Y-122755D01*
X-651704Y-122697D01*
X-653455Y-122562D01*
X-655204Y-122390D01*
X-664795D01*
X-666544Y-122562D01*
X-668295Y-122697D01*
X-668502Y-122755D01*
X-668716Y-122776D01*
X-670399Y-123287D01*
X-672089Y-123760D01*
X-672751Y-124018D01*
X-674196Y-124751D01*
X-675668Y-125435D01*
X-675951Y-125642D01*
X-676264Y-125801D01*
X-677541Y-126804D01*
X-678849Y-127760D01*
X-679086Y-128018D01*
X-679362Y-128235D01*
X-680418Y-129467D01*
X-681515Y-130660D01*
X-681697Y-130960D01*
X-681925Y-131226D01*
X-682722Y-132642D01*
X-683564Y-134025D01*
X-683786Y-134486D01*
X-685573Y-137332D01*
X-687668Y-139958D01*
X-690042Y-142331D01*
X-692669Y-144427D01*
X-695511Y-146213D01*
X-698538Y-147670D01*
X-701708Y-148779D01*
X-704984Y-149527D01*
X-708320Y-149903D01*
X-711680D01*
X-715016Y-149527D01*
X-718291Y-148779D01*
X-721461Y-147671D01*
X-724487Y-146213D01*
X-727331Y-144426D01*
X-729957Y-142332D01*
X-732331Y-139958D01*
X-734427Y-137330D01*
X-736213Y-134488D01*
X-736435Y-134025D01*
X-737280Y-132638D01*
X-738074Y-131226D01*
X-738301Y-130960D01*
X-738484Y-130660D01*
X-739583Y-129464D01*
X-740637Y-128235D01*
X-740913Y-128018D01*
X-741150Y-127760D01*
X-742456Y-126805D01*
X-743735Y-125801D01*
X-744049Y-125642D01*
X-744331Y-125435D01*
X-745800Y-124753D01*
X-747248Y-124018D01*
X-747910Y-123760D01*
X-749600Y-123287D01*
X-751283Y-122776D01*
X-751497Y-122755D01*
X-751704Y-122697D01*
X-753455Y-122562D01*
X-755204Y-122390D01*
X-764795D01*
X-766544Y-122562D01*
X-768295Y-122697D01*
X-768502Y-122755D01*
X-768716Y-122776D01*
X-770399Y-123287D01*
X-772089Y-123760D01*
X-772751Y-124018D01*
X-774196Y-124751D01*
X-775669Y-125435D01*
X-775951Y-125642D01*
X-776264Y-125801D01*
X-777541Y-126804D01*
X-778849Y-127760D01*
X-779086Y-128018D01*
X-779362Y-128235D01*
X-780418Y-129467D01*
X-781515Y-130660D01*
X-781697Y-130960D01*
X-781926Y-131226D01*
X-782722Y-132642D01*
X-783564Y-134025D01*
X-783786Y-134486D01*
X-785573Y-137332D01*
X-787668Y-139958D01*
X-790042Y-142331D01*
X-792669Y-144427D01*
X-795511Y-146213D01*
X-798538Y-147670D01*
X-801708Y-148779D01*
X-804984Y-149527D01*
X-808320Y-149903D01*
X-812807D01*
X-814209Y-150041D01*
X-815616Y-150100D01*
X-816165Y-150234D01*
X-816728Y-150289D01*
X-818077Y-150698D01*
X-819444Y-151031D01*
X-819957Y-151269D01*
X-820498Y-151433D01*
X-821737Y-152095D01*
X-823017Y-152690D01*
X-823475Y-153024D01*
X-823972Y-153290D01*
X-825060Y-154182D01*
X-826198Y-155014D01*
X-828391Y-156974D01*
X-828774Y-157390D01*
X-829211Y-157749D01*
X-830104Y-158837D01*
X-831057Y-159874D01*
X-831351Y-160357D01*
X-831710Y-160794D01*
X-832375Y-162038D01*
X-833106Y-163239D01*
X-833300Y-163770D01*
X-833567Y-164269D01*
X-833976Y-165617D01*
X-834460Y-166939D01*
X-834547Y-167497D01*
X-834711Y-168039D01*
X-834849Y-169442D01*
X-835065Y-170832D01*
X-835042Y-171396D01*
X-835097Y-171960D01*
Y-421676D01*
X-935457Y-522035D01*
X-942659Y-521631D01*
X-946630Y-517660D01*
X-951021Y-514158D01*
X-955776Y-511170D01*
X-960836Y-508734D01*
X-966136Y-506879D01*
X-971611Y-505629D01*
X-977192Y-505001D01*
X-982808D01*
X-988389Y-505629D01*
X-993864Y-506879D01*
X-999164Y-508734D01*
X-1004224Y-511170D01*
X-1008979Y-514158D01*
X-1013370Y-517660D01*
X-1017341Y-521631D01*
X-1020842Y-526021D01*
X-1023830Y-530776D01*
X-1026267Y-535836D01*
X-1028121Y-541137D01*
X-1029371Y-546612D01*
X-1030000Y-552192D01*
Y-557808D01*
X-1029371Y-563389D01*
X-1028121Y-568864D01*
X-1026267Y-574165D01*
X-1023830Y-579224D01*
X-1020842Y-583980D01*
X-1017341Y-588370D01*
X-1013370Y-592341D01*
X-1012965Y-599544D01*
X-1118325Y-704903D01*
X-1297277D01*
X-1297913Y-704966D01*
X-1298552Y-704944D01*
X-1299869Y-705159D01*
X-1301198Y-705289D01*
X-1301811Y-705475D01*
X-1302440Y-705578D01*
X-1303690Y-706045D01*
X-1304968Y-706433D01*
X-1305531Y-706734D01*
X-1306130Y-706958D01*
X-1307266Y-707661D01*
X-1308442Y-708290D01*
X-1308936Y-708695D01*
X-1309480Y-709032D01*
X-1310125Y-709525D01*
X-1310593Y-709961D01*
X-1311114Y-710332D01*
X-1312029Y-711302D01*
X-1313006Y-712212D01*
X-1313380Y-712732D01*
X-1313818Y-713197D01*
X-1314527Y-714326D01*
X-1315307Y-715410D01*
X-1315572Y-715993D01*
X-1315912Y-716534D01*
X-1320646Y-726041D01*
X-1320794Y-726430D01*
X-1321001Y-726792D01*
X-1321495Y-728270D01*
X-1322049Y-729723D01*
X-1322118Y-730133D01*
X-1322250Y-730528D01*
X-1322446Y-732076D01*
X-1322705Y-733607D01*
X-1322693Y-734022D01*
X-1322746Y-734437D01*
X-1322637Y-735991D01*
X-1322592Y-737545D01*
X-1322499Y-737952D01*
X-1322470Y-738367D01*
X-1322060Y-739868D01*
X-1321712Y-741386D01*
X-1321542Y-741765D01*
X-1321432Y-742167D01*
X-1320738Y-743559D01*
X-1320100Y-744980D01*
X-1319921Y-745233D01*
X-1318329Y-748538D01*
X-1317220Y-751708D01*
X-1316472Y-754984D01*
X-1316096Y-758320D01*
Y-761680D01*
X-1316472Y-765016D01*
X-1317220Y-768292D01*
X-1318329Y-771461D01*
X-1319787Y-774487D01*
X-1321573Y-777331D01*
X-1323668Y-779958D01*
X-1326042Y-782331D01*
X-1328669Y-784427D01*
X-1331511Y-786212D01*
X-1334538Y-787670D01*
X-1337708Y-788779D01*
X-1340984Y-789527D01*
X-1344320Y-789903D01*
X-1347680D01*
X-1351016Y-789527D01*
X-1354291Y-788779D01*
X-1357461Y-787670D01*
X-1360487Y-786213D01*
X-1363331Y-784426D01*
X-1365957Y-782331D01*
X-1368331Y-779958D01*
X-1370427Y-777330D01*
X-1372212Y-774488D01*
X-1373670Y-771461D01*
X-1374779Y-768292D01*
X-1375527Y-765016D01*
X-1375903Y-761680D01*
Y-758320D01*
X-1375527Y-754983D01*
X-1374779Y-751708D01*
X-1373670Y-748539D01*
X-1372078Y-745233D01*
X-1371899Y-744980D01*
X-1371262Y-743560D01*
X-1370567Y-742167D01*
X-1370457Y-741765D01*
X-1370287Y-741386D01*
X-1369939Y-739868D01*
X-1369529Y-738367D01*
X-1369500Y-737952D01*
X-1369407Y-737545D01*
X-1369362Y-735989D01*
X-1369253Y-734437D01*
X-1369306Y-734024D01*
X-1369294Y-733607D01*
X-1369554Y-732069D01*
X-1369749Y-730528D01*
X-1369881Y-730135D01*
X-1369951Y-729723D01*
X-1370505Y-728268D01*
X-1370998Y-726792D01*
X-1371205Y-726430D01*
X-1371353Y-726041D01*
X-1376087Y-716534D01*
X-1376427Y-715993D01*
X-1376692Y-715410D01*
X-1377472Y-714327D01*
X-1378181Y-713197D01*
X-1378620Y-712732D01*
X-1378993Y-712212D01*
X-1379971Y-711301D01*
X-1380885Y-710332D01*
X-1381406Y-709962D01*
X-1381874Y-709525D01*
X-1382519Y-709032D01*
X-1383063Y-708695D01*
X-1383557Y-708290D01*
X-1384733Y-707661D01*
X-1385869Y-706958D01*
X-1386468Y-706734D01*
X-1387031Y-706433D01*
X-1388310Y-706045D01*
X-1389559Y-705578D01*
X-1390188Y-705475D01*
X-1390801Y-705289D01*
X-1392131Y-705159D01*
X-1393447Y-704944D01*
X-1394086Y-704966D01*
X-1394722Y-704903D01*
X-1424278D01*
X-1424913Y-704966D01*
X-1425552Y-704944D01*
X-1426869Y-705159D01*
X-1428198Y-705289D01*
X-1428811Y-705475D01*
X-1429440Y-705578D01*
X-1430690Y-706045D01*
X-1431968Y-706433D01*
X-1432531Y-706734D01*
X-1433130Y-706958D01*
X-1434266Y-707661D01*
X-1435443Y-708290D01*
X-1435936Y-708695D01*
X-1436480Y-709032D01*
X-1437125Y-709525D01*
X-1437593Y-709961D01*
X-1438114Y-710332D01*
X-1439030Y-711302D01*
X-1440006Y-712212D01*
X-1440380Y-712732D01*
X-1440819Y-713196D01*
X-1446024Y-715142D01*
X-1451773Y-714727D01*
X-1453836Y-713733D01*
X-1459136Y-711878D01*
X-1464611Y-710629D01*
X-1470192Y-710000D01*
X-1475808D01*
X-1481388Y-710629D01*
X-1486863Y-711878D01*
X-1492164Y-713733D01*
X-1494227Y-714727D01*
X-1499975Y-715142D01*
X-1505181Y-713196D01*
X-1505620Y-712732D01*
X-1505994Y-712212D01*
X-1506971Y-711301D01*
X-1507885Y-710332D01*
X-1508406Y-709962D01*
X-1508875Y-709525D01*
X-1509520Y-709032D01*
X-1510064Y-708695D01*
X-1510557Y-708290D01*
X-1511734Y-707661D01*
X-1512869Y-706958D01*
X-1513468Y-706734D01*
X-1514032Y-706433D01*
X-1515310Y-706045D01*
X-1516559Y-705578D01*
X-1517189Y-705475D01*
X-1517801Y-705289D01*
X-1519131Y-705159D01*
X-1520448Y-704944D01*
X-1521086Y-704966D01*
X-1521722Y-704903D01*
X-1551277D01*
X-1551913Y-704966D01*
X-1552552Y-704944D01*
X-1553869Y-705159D01*
X-1555198Y-705289D01*
X-1555811Y-705475D01*
X-1556440Y-705578D01*
X-1557690Y-706045D01*
X-1558968Y-706433D01*
X-1559531Y-706734D01*
X-1560130Y-706958D01*
X-1561266Y-707661D01*
X-1562442Y-708290D01*
X-1562936Y-708695D01*
X-1563480Y-709032D01*
X-1564125Y-709525D01*
X-1564593Y-709961D01*
X-1565114Y-710332D01*
X-1566029Y-711302D01*
X-1567006Y-712212D01*
X-1567380Y-712732D01*
X-1567818Y-713196D01*
X-1573024Y-715142D01*
X-1578773Y-714727D01*
X-1580835Y-713733D01*
X-1586136Y-711878D01*
X-1591611Y-710629D01*
X-1597192Y-710000D01*
X-1602808D01*
X-1608388Y-710629D01*
X-1613863Y-711878D01*
X-1619164Y-713733D01*
X-1621227Y-714727D01*
X-1626975Y-715142D01*
X-1632181Y-713196D01*
X-1632620Y-712732D01*
X-1632993Y-712212D01*
X-1633971Y-711301D01*
X-1634885Y-710332D01*
X-1635406Y-709962D01*
X-1635874Y-709525D01*
X-1636519Y-709032D01*
X-1637063Y-708695D01*
X-1637557Y-708290D01*
X-1638733Y-707661D01*
X-1639869Y-706958D01*
X-1640468Y-706734D01*
X-1641031Y-706433D01*
X-1642310Y-706045D01*
X-1643559Y-705578D01*
X-1644188Y-705475D01*
X-1644801Y-705289D01*
X-1646131Y-705159D01*
X-1647447Y-704944D01*
X-1648086Y-704966D01*
X-1648722Y-704903D01*
X-1678277D01*
X-1678913Y-704966D01*
X-1679552Y-704944D01*
X-1680868Y-705159D01*
X-1682198Y-705289D01*
X-1682810Y-705475D01*
X-1683440Y-705578D01*
X-1684689Y-706045D01*
X-1685968Y-706433D01*
X-1686531Y-706734D01*
X-1687130Y-706958D01*
X-1688266Y-707661D01*
X-1689442Y-708290D01*
X-1689936Y-708695D01*
X-1690479Y-709032D01*
X-1691125Y-709525D01*
X-1691593Y-709961D01*
X-1692114Y-710332D01*
X-1693029Y-711302D01*
X-1694006Y-712212D01*
X-1694379Y-712732D01*
X-1694818Y-713196D01*
X-1700024Y-715142D01*
X-1705773Y-714727D01*
X-1707835Y-713733D01*
X-1713136Y-711878D01*
X-1718611Y-710629D01*
X-1724191Y-710000D01*
X-1729807D01*
X-1735388Y-710629D01*
X-1740863Y-711878D01*
X-1746164Y-713733D01*
X-1748226Y-714727D01*
X-1753975Y-715142D01*
X-1759181Y-713196D01*
X-1759619Y-712732D01*
X-1759993Y-712212D01*
X-1760970Y-711301D01*
X-1761885Y-710332D01*
X-1762406Y-709962D01*
X-1762874Y-709525D01*
X-1763519Y-709032D01*
X-1764063Y-708695D01*
X-1764557Y-708290D01*
X-1765733Y-707661D01*
X-1766869Y-706958D01*
X-1767468Y-706734D01*
X-1768031Y-706433D01*
X-1769309Y-706045D01*
X-1770559Y-705578D01*
X-1771188Y-705475D01*
X-1771801Y-705289D01*
X-1773130Y-705159D01*
X-1774447Y-704944D01*
X-1775086Y-704966D01*
X-1775722Y-704903D01*
X-1886500D01*
X-1890420Y-705289D01*
X-1894190Y-706433D01*
X-1897665Y-708290D01*
X-1900710Y-710790D01*
X-1903210Y-713835D01*
X-1905067Y-717309D01*
X-1906210Y-721079D01*
X-1906596Y-725000D01*
Y-1280000D01*
X-1906210Y-1283920D01*
X-1905067Y-1287690D01*
X-1903210Y-1291165D01*
X-1900710Y-1294210D01*
X-1897665Y-1296710D01*
X-1894190Y-1298567D01*
X-1890420Y-1299710D01*
X-1886500Y-1300096D01*
X-1087500D01*
X-1083579Y-1299710D01*
X-1079809Y-1298567D01*
X-1076335Y-1296710D01*
X-1073289Y-1294210D01*
X-1070790Y-1291165D01*
X-1068933Y-1287690D01*
X-1067789Y-1283920D01*
X-1067403Y-1280000D01*
Y-1243324D01*
X-1063676Y-1239597D01*
X-947236D01*
X-946113Y-1239486D01*
X-944983Y-1239470D01*
X-944157Y-1239294D01*
X-943316Y-1239211D01*
X-942235Y-1238883D01*
X-941130Y-1238647D01*
X-940353Y-1238312D01*
X-939546Y-1238067D01*
X-938550Y-1237535D01*
X-937512Y-1237088D01*
X-936817Y-1236608D01*
X-936071Y-1236210D01*
X-935198Y-1235494D01*
X-934268Y-1234853D01*
X-933679Y-1234247D01*
X-933026Y-1233711D01*
X-932309Y-1232837D01*
X-931522Y-1232028D01*
X-928489Y-1228223D01*
X-927682Y-1226977D01*
X-926820Y-1225780D01*
X-926615Y-1225331D01*
X-926347Y-1224916D01*
X-925800Y-1223541D01*
X-925186Y-1222195D01*
X-923069Y-1216000D01*
X-922827Y-1214972D01*
X-922493Y-1213972D01*
X-922377Y-1213061D01*
X-922166Y-1212165D01*
X-922130Y-1211110D01*
X-921997Y-1210064D01*
X-922061Y-1209146D01*
X-922029Y-1208228D01*
X-922199Y-1207187D01*
X-922273Y-1206134D01*
X-922515Y-1205248D01*
X-922663Y-1204339D01*
X-923032Y-1203351D01*
X-923310Y-1202333D01*
X-923721Y-1201510D01*
X-924043Y-1200649D01*
X-924598Y-1199754D01*
X-925069Y-1198808D01*
X-926213Y-1196988D01*
X-927670Y-1193962D01*
X-928779Y-1190792D01*
X-929527Y-1187516D01*
X-929903Y-1184180D01*
Y-1180820D01*
X-929527Y-1177484D01*
X-928779Y-1174208D01*
X-927670Y-1171039D01*
X-926213Y-1168013D01*
X-924426Y-1165169D01*
X-922332Y-1162543D01*
X-919958Y-1160169D01*
X-917330Y-1158073D01*
X-914488Y-1156288D01*
X-911461Y-1154830D01*
X-908292Y-1153721D01*
X-905016Y-1152973D01*
X-901680Y-1152597D01*
X-898320D01*
X-894983Y-1152973D01*
X-891708Y-1153721D01*
X-888539Y-1154830D01*
X-885513Y-1156287D01*
X-882668Y-1158074D01*
X-880042Y-1160169D01*
X-877669Y-1162542D01*
X-875573Y-1165170D01*
X-873787Y-1168012D01*
X-872330Y-1171039D01*
X-871221Y-1174208D01*
X-870473Y-1177484D01*
X-870097Y-1180820D01*
Y-1184180D01*
X-870473Y-1187517D01*
X-871221Y-1190792D01*
X-872329Y-1193962D01*
X-873787Y-1196989D01*
X-874931Y-1198808D01*
X-875402Y-1199752D01*
X-875957Y-1200649D01*
X-876279Y-1201511D01*
X-876690Y-1202334D01*
X-876967Y-1203351D01*
X-877337Y-1204339D01*
X-877485Y-1205248D01*
X-877727Y-1206134D01*
X-877801Y-1207187D01*
X-877971Y-1208228D01*
X-877939Y-1209146D01*
X-878003Y-1210064D01*
X-877870Y-1211110D01*
X-877834Y-1212165D01*
X-877623Y-1213061D01*
X-877507Y-1213972D01*
X-877173Y-1214972D01*
X-876931Y-1216000D01*
X-874814Y-1222195D01*
X-874200Y-1223541D01*
X-873654Y-1224916D01*
X-873385Y-1225332D01*
X-873180Y-1225780D01*
X-872317Y-1226980D01*
X-871511Y-1228223D01*
X-868478Y-1232028D01*
X-867690Y-1232839D01*
X-866974Y-1233711D01*
X-866321Y-1234246D01*
X-865732Y-1234853D01*
X-864802Y-1235494D01*
X-863929Y-1236210D01*
X-863183Y-1236608D01*
X-862488Y-1237088D01*
X-861450Y-1237535D01*
X-860454Y-1238067D01*
X-859645Y-1238312D01*
X-858870Y-1238647D01*
X-857767Y-1238882D01*
X-856684Y-1239211D01*
X-855843Y-1239294D01*
X-855017Y-1239470D01*
X-853888Y-1239486D01*
X-852764Y-1239597D01*
X-617742D01*
X-616864Y-1239510D01*
X-614421Y-1241744D01*
X-613313Y-1243429D01*
X-612007Y-1246675D01*
X-611509Y-1248722D01*
X-613342Y-1251021D01*
X-616330Y-1255776D01*
X-618767Y-1260835D01*
X-620622Y-1266136D01*
X-621871Y-1271611D01*
X-622500Y-1277192D01*
Y-1282808D01*
X-621871Y-1288388D01*
X-620622Y-1293863D01*
X-618767Y-1299164D01*
X-616330Y-1304224D01*
X-613342Y-1308979D01*
X-609841Y-1313369D01*
X-605870Y-1317341D01*
X-601479Y-1320842D01*
X-596724Y-1323830D01*
X-591665Y-1326266D01*
X-586364Y-1328121D01*
X-580889Y-1329371D01*
X-575308Y-1330000D01*
X-569692D01*
X-564112Y-1329371D01*
X-558637Y-1328121D01*
X-553336Y-1326266D01*
X-548276Y-1323830D01*
X-543521Y-1320842D01*
X-539130Y-1317341D01*
X-535159Y-1313369D01*
X-531658Y-1308979D01*
X-528670Y-1304224D01*
X-526234Y-1299164D01*
X-524379Y-1293863D01*
X-523129Y-1288388D01*
X-522500Y-1282808D01*
Y-1277192D01*
X-523129Y-1271611D01*
X-524379Y-1266136D01*
X-526234Y-1260835D01*
X-528670Y-1255776D01*
X-531658Y-1251021D01*
X-533491Y-1248722D01*
X-532990Y-1246659D01*
X-531691Y-1243433D01*
X-530584Y-1241750D01*
X-528137Y-1239510D01*
X-527258Y-1239597D01*
X594904D01*
Y-1480000D01*
X595290Y-1483921D01*
X596434Y-1487691D01*
X598291Y-1491165D01*
X600790Y-1494211D01*
X603835Y-1496710D01*
X607310Y-1498567D01*
X611080Y-1499711D01*
X615001Y-1500097D01*
X1379609D01*
Y-1657841D01*
X1376550Y-1673221D01*
X1370548Y-1687710D01*
X1361837Y-1700748D01*
X1350747Y-1711837D01*
X1337709Y-1720549D01*
X1323221Y-1726550D01*
X1307840Y-1729609D01*
X-3078158D01*
X-3133992Y-1722259D01*
X-3188388Y-1707684D01*
X-3240420Y-1686131D01*
X-3289190Y-1657974D01*
X-3333868Y-1623691D01*
X-3373691Y-1583868D01*
X-3407974Y-1539190D01*
X-3436131Y-1490420D01*
X-3457684Y-1438389D01*
X-3472259Y-1383993D01*
X-3479610Y-1328158D01*
Y-1300000D01*
Y-450000D01*
X-2560597D01*
Y-559500D01*
X-2560211Y-563421D01*
X-2559067Y-567191D01*
X-2557210Y-570665D01*
X-2554710Y-573711D01*
X-2449210Y-679211D01*
X-2446165Y-681710D01*
X-2442691Y-683567D01*
X-2438921Y-684711D01*
X-2435000Y-685097D01*
X-1389556D01*
X-1389310Y-685073D01*
X-1389065Y-685091D01*
X-1387357Y-684881D01*
X-1385635Y-684711D01*
X-1385399Y-684639D01*
X-1385155Y-684609D01*
X-1383517Y-684068D01*
X-1381865Y-683567D01*
X-1381648Y-683451D01*
X-1381414Y-683374D01*
X-1379912Y-682523D01*
X-1378390Y-681710D01*
X-1378200Y-681554D01*
X-1377986Y-681433D01*
X-1376122Y-680120D01*
X-1375777Y-679823D01*
X-1375391Y-679580D01*
X-1374289Y-678539D01*
X-1373139Y-677548D01*
X-1364940Y-680396D01*
X-1363979Y-680842D01*
X-1359224Y-683830D01*
X-1354164Y-686267D01*
X-1348864Y-688121D01*
X-1343389Y-689371D01*
X-1337808Y-690000D01*
X-1332192D01*
X-1326612Y-689371D01*
X-1321137Y-688121D01*
X-1315836Y-686267D01*
X-1310776Y-683830D01*
X-1306021Y-680842D01*
X-1305060Y-680396D01*
X-1296862Y-677548D01*
X-1295712Y-678539D01*
X-1294609Y-679580D01*
X-1294223Y-679823D01*
X-1293878Y-680120D01*
X-1292014Y-681433D01*
X-1291801Y-681554D01*
X-1291610Y-681710D01*
X-1290091Y-682522D01*
X-1288586Y-683374D01*
X-1288351Y-683452D01*
X-1288135Y-683567D01*
X-1286488Y-684067D01*
X-1284845Y-684609D01*
X-1284601Y-684639D01*
X-1284365Y-684711D01*
X-1282649Y-684880D01*
X-1280935Y-685091D01*
X-1280689Y-685073D01*
X-1280445Y-685097D01*
X-1230355D01*
X-1226434Y-684711D01*
X-1222664Y-683567D01*
X-1219190Y-681710D01*
X-1216144Y-679211D01*
X-1160146Y-623212D01*
X-1157341Y-623370D01*
X-1153370Y-627341D01*
X-1148979Y-630842D01*
X-1144224Y-633830D01*
X-1139164Y-636267D01*
X-1133864Y-638121D01*
X-1128389Y-639371D01*
X-1122808Y-640000D01*
X-1117192D01*
X-1111611Y-639371D01*
X-1106136Y-638121D01*
X-1100836Y-636267D01*
X-1095776Y-633830D01*
X-1091021Y-630842D01*
X-1086630Y-627341D01*
X-1082659Y-623370D01*
X-1079158Y-618979D01*
X-1076170Y-614224D01*
X-1073733Y-609164D01*
X-1071879Y-603864D01*
X-1070629Y-598389D01*
X-1070000Y-592808D01*
Y-587192D01*
X-1070629Y-581611D01*
X-1071879Y-576137D01*
X-1073733Y-570836D01*
X-1076170Y-565776D01*
X-1079158Y-561021D01*
X-1082659Y-556630D01*
X-1086630Y-552659D01*
X-1082403Y-544923D01*
X-1081607Y-543434D01*
X-1080769Y-541966D01*
X-1080679Y-541698D01*
X-1080546Y-541448D01*
X-1080055Y-539831D01*
X-1079520Y-538230D01*
X-1079484Y-537950D01*
X-1079402Y-537679D01*
X-1079236Y-535995D01*
X-1079024Y-534322D01*
X-1079044Y-534039D01*
X-1079016Y-533758D01*
X-1079181Y-532075D01*
X-1079300Y-530392D01*
X-1079374Y-530119D01*
X-1079402Y-529837D01*
X-1079892Y-528221D01*
X-1080337Y-526591D01*
X-1080464Y-526337D01*
X-1080546Y-526067D01*
X-1081340Y-524581D01*
X-1082096Y-523066D01*
X-1082788Y-521965D01*
X-1075535Y-514712D01*
X-1074434Y-515404D01*
X-1072919Y-516159D01*
X-1071432Y-516954D01*
X-1071163Y-517036D01*
X-1070909Y-517163D01*
X-1069273Y-517609D01*
X-1067663Y-518098D01*
X-1067382Y-518125D01*
X-1067108Y-518200D01*
X-1065420Y-518318D01*
X-1063742Y-518484D01*
X-1063461Y-518456D01*
X-1063178Y-518476D01*
X-1061500Y-518263D01*
X-1059821Y-518098D01*
X-1059551Y-518015D01*
X-1059270Y-517980D01*
X-1057667Y-517444D01*
X-1056051Y-516954D01*
X-1055801Y-516821D01*
X-1055533Y-516731D01*
X-1054070Y-515895D01*
X-1052577Y-515097D01*
X-1052357Y-514917D01*
X-1052112Y-514777D01*
X-1050839Y-513671D01*
X-1049531Y-512598D01*
X-913289Y-376356D01*
X-910790Y-373310D01*
X-908933Y-369836D01*
X-907789Y-366066D01*
X-907403Y-362145D01*
Y-184471D01*
X-907486Y-183628D01*
X-907474Y-182780D01*
X-907679Y-181672D01*
X-907789Y-180550D01*
X-908035Y-179739D01*
X-908189Y-178906D01*
X-908605Y-177860D01*
X-908933Y-176780D01*
X-909332Y-176033D01*
X-909646Y-175246D01*
X-910259Y-174300D01*
X-910790Y-173306D01*
X-911328Y-172651D01*
X-911788Y-171940D01*
X-912574Y-171132D01*
X-913289Y-170261D01*
X-913945Y-169723D01*
X-914535Y-169115D01*
X-915462Y-168477D01*
X-916335Y-167761D01*
X-917083Y-167361D01*
X-917780Y-166881D01*
X-918815Y-166436D01*
X-919809Y-165904D01*
X-920620Y-165658D01*
X-921398Y-165323D01*
X-922500Y-165088D01*
X-923579Y-164760D01*
X-924310Y-164689D01*
X-928292Y-163779D01*
X-931461Y-162670D01*
X-934487Y-161213D01*
X-937332Y-159426D01*
X-939958Y-157332D01*
X-942331Y-154958D01*
X-944427Y-152330D01*
X-946212Y-149488D01*
X-947670Y-146461D01*
X-948779Y-143292D01*
X-949527Y-140016D01*
X-949903Y-136680D01*
Y-133320D01*
X-949527Y-129983D01*
X-948779Y-126708D01*
X-947670Y-123539D01*
X-946213Y-120513D01*
X-944426Y-117668D01*
X-942332Y-115042D01*
X-939958Y-112669D01*
X-937330Y-110573D01*
X-934488Y-108787D01*
X-931461Y-107330D01*
X-928292Y-106221D01*
X-924309Y-105311D01*
X-923579Y-105240D01*
X-922500Y-104912D01*
X-921398Y-104677D01*
X-920620Y-104342D01*
X-919809Y-104096D01*
X-918815Y-103564D01*
X-917780Y-103119D01*
X-917083Y-102639D01*
X-916335Y-102239D01*
X-915462Y-101523D01*
X-914535Y-100884D01*
X-913945Y-100277D01*
X-913289Y-99739D01*
X-912574Y-98867D01*
X-911788Y-98060D01*
X-911328Y-97349D01*
X-910790Y-96694D01*
X-910259Y-95700D01*
X-909646Y-94754D01*
X-909332Y-93967D01*
X-908933Y-93220D01*
X-908605Y-92140D01*
X-908189Y-91094D01*
X-908035Y-90261D01*
X-907789Y-89450D01*
X-907679Y-88328D01*
X-907474Y-87220D01*
X-907486Y-86372D01*
X-907403Y-85529D01*
Y-54471D01*
X-907486Y-53628D01*
X-907474Y-52780D01*
X-907679Y-51672D01*
X-907789Y-50550D01*
X-908035Y-49739D01*
X-908189Y-48906D01*
X-908605Y-47859D01*
X-908933Y-46780D01*
X-909332Y-46033D01*
X-909646Y-45246D01*
X-910259Y-44300D01*
X-910790Y-43306D01*
X-911328Y-42650D01*
X-911788Y-41940D01*
X-912574Y-41132D01*
X-913289Y-40260D01*
X-913945Y-39722D01*
X-914535Y-39115D01*
X-915462Y-38477D01*
X-916335Y-37761D01*
X-917083Y-37361D01*
X-917780Y-36881D01*
X-918815Y-36435D01*
X-919809Y-35904D01*
X-920620Y-35658D01*
X-921398Y-35323D01*
X-922500Y-35088D01*
X-923579Y-34760D01*
X-924310Y-34688D01*
X-928292Y-33779D01*
X-931461Y-32670D01*
X-934487Y-31213D01*
X-937332Y-29426D01*
X-939958Y-27331D01*
X-942331Y-24958D01*
X-944427Y-22330D01*
X-946212Y-19488D01*
X-947670Y-16461D01*
X-948779Y-13292D01*
X-949527Y-10016D01*
X-949903Y-6680D01*
Y-3320D01*
X-949527Y17D01*
X-948779Y3292D01*
X-947670Y6462D01*
X-946213Y9488D01*
X-944426Y12332D01*
X-942332Y14958D01*
X-939958Y17332D01*
X-937330Y19427D01*
X-934488Y21213D01*
X-931461Y22671D01*
X-928292Y23780D01*
X-924309Y24689D01*
X-923579Y24761D01*
X-922500Y25088D01*
X-921398Y25323D01*
X-920620Y25658D01*
X-919809Y25904D01*
X-918815Y26436D01*
X-917780Y26882D01*
X-917083Y27362D01*
X-916335Y27761D01*
X-915462Y28477D01*
X-914535Y29116D01*
X-913945Y29723D01*
X-913289Y30261D01*
X-912574Y31133D01*
X-911788Y31940D01*
X-911328Y32651D01*
X-910790Y33306D01*
X-910259Y34301D01*
X-909646Y35246D01*
X-909332Y36033D01*
X-908933Y36781D01*
X-908605Y37860D01*
X-908189Y38907D01*
X-908035Y39739D01*
X-907789Y40551D01*
X-907679Y41672D01*
X-907474Y42781D01*
X-907486Y43629D01*
X-907403Y44471D01*
Y389176D01*
X-791676Y504903D01*
X492276D01*
X492839Y504959D01*
X493403Y504935D01*
X494793Y505151D01*
X496197Y505289D01*
X496738Y505454D01*
X497296Y505540D01*
X498619Y506024D01*
X499967Y506433D01*
X500465Y506699D01*
X500996Y506894D01*
X502199Y507626D01*
X503441Y508290D01*
X503878Y508648D01*
X504361Y508943D01*
X505398Y509896D01*
X506487Y510789D01*
X506846Y511227D01*
X507261Y511609D01*
X508091Y512744D01*
X508986Y513835D01*
X509252Y514333D01*
X509586Y514789D01*
X510179Y516067D01*
X510843Y517309D01*
X511007Y517850D01*
X511245Y518363D01*
X512329Y521461D01*
X513787Y524488D01*
X515574Y527332D01*
X517668Y529958D01*
X520042Y532332D01*
X522670Y534427D01*
X525512Y536213D01*
X528538Y537671D01*
X531708Y538780D01*
X534984Y539527D01*
X538320Y539903D01*
X541680D01*
X545016Y539527D01*
X548292Y538780D01*
X551461Y537671D01*
X554487Y536213D01*
X557332Y534426D01*
X559958Y532332D01*
X562331Y529958D01*
X564427Y527330D01*
X566212Y524489D01*
X567671Y521461D01*
X568755Y518363D01*
X568993Y517850D01*
X569157Y517309D01*
X569820Y516069D01*
X570414Y514789D01*
X570748Y514332D01*
X571014Y513835D01*
X571908Y512745D01*
X572739Y511609D01*
X573154Y511227D01*
X573513Y510789D01*
X574602Y509896D01*
X575639Y508943D01*
X576122Y508648D01*
X576559Y508290D01*
X577801Y507626D01*
X579004Y506894D01*
X579535Y506699D01*
X580033Y506433D01*
X581381Y506024D01*
X582704Y505540D01*
X583262Y505454D01*
X583803Y505289D01*
X585207Y505151D01*
X586597Y504935D01*
X587161Y504959D01*
X587724Y504903D01*
X725722D01*
X728005Y494903D01*
X725776Y493830D01*
X721021Y490842D01*
X716630Y487341D01*
X712659Y483370D01*
X709158Y478979D01*
X706170Y474224D01*
X703733Y469164D01*
X701879Y463863D01*
X700629Y458388D01*
X700000Y452808D01*
Y447192D01*
X700629Y441611D01*
X701879Y436136D01*
X703733Y430836D01*
X706170Y425776D01*
X709158Y421021D01*
X712659Y416630D01*
X716630Y412659D01*
X721021Y409158D01*
X725776Y406170D01*
X730836Y403733D01*
X736136Y401879D01*
X741611Y400629D01*
X747192Y400000D01*
X752808D01*
X758389Y400629D01*
X763864Y401879D01*
X769164Y403733D01*
X774224Y406170D01*
X778979Y409158D01*
X783370Y412659D01*
X787341Y416630D01*
X790842Y421021D01*
X793830Y425776D01*
X796267Y430836D01*
X798121Y436136D01*
X799371Y441611D01*
X800000Y447192D01*
Y452808D01*
X799371Y458388D01*
X798121Y463863D01*
X796267Y469164D01*
X793830Y474224D01*
X790842Y478979D01*
X787341Y483370D01*
X783370Y487341D01*
X778979Y490842D01*
X774224Y493830D01*
X771995Y494903D01*
X774278Y504903D01*
X912276D01*
X912839Y504959D01*
X913402Y504935D01*
X914793Y505151D01*
X916197Y505289D01*
X916737Y505453D01*
X917295Y505540D01*
X918621Y506025D01*
X919966Y506433D01*
X920464Y506699D01*
X920995Y506893D01*
X922200Y507627D01*
X923441Y508290D01*
X923877Y508648D01*
X924360Y508942D01*
X925398Y509896D01*
X926486Y510789D01*
X926845Y511227D01*
X927261Y511609D01*
X928091Y512745D01*
X928986Y513835D01*
X929251Y514332D01*
X929585Y514789D01*
X930181Y516070D01*
X930843Y517309D01*
X931006Y517849D01*
X931245Y518362D01*
X932330Y521462D01*
X933787Y524487D01*
X935573Y527332D01*
X937668Y529958D01*
X940042Y532331D01*
X942669Y534427D01*
X945511Y536213D01*
X948538Y537670D01*
X951708Y538779D01*
X954984Y539527D01*
X958320Y539903D01*
X961680D01*
X965016Y539527D01*
X968291Y538779D01*
X971461Y537671D01*
X974487Y536213D01*
X977331Y534426D01*
X979957Y532332D01*
X982331Y529958D01*
X984427Y527330D01*
X986212Y524488D01*
X987670Y521461D01*
X988754Y518362D01*
X988993Y517849D01*
X989157Y517309D01*
X989819Y516069D01*
X990414Y514789D01*
X990747Y514333D01*
X991014Y513835D01*
X991908Y512744D01*
X992739Y511609D01*
X993154Y511227D01*
X993513Y510789D01*
X994602Y509896D01*
X995639Y508942D01*
X996122Y508648D01*
X996558Y508290D01*
X997799Y507627D01*
X999004Y506893D01*
X999535Y506699D01*
X1000033Y506433D01*
X1001381Y506024D01*
X1002704Y505540D01*
X1003261Y505454D01*
X1003803Y505289D01*
X1005208Y505151D01*
X1006597Y504935D01*
X1007160Y504959D01*
X1007723Y504903D01*
X2100000D01*
X2103921Y505289D01*
X2107691Y506433D01*
X2111165Y508290D01*
X2114211Y510789D01*
X2116710Y513835D01*
X2118567Y517309D01*
X2119711Y521079D01*
X2120097Y525000D01*
Y715000D01*
X2119711Y718921D01*
X2118567Y722691D01*
X2116710Y726165D01*
X2114211Y729211D01*
X2111165Y731710D01*
X2109687Y732500D01*
X2111178Y742037D01*
X2111369Y742500D01*
X2175000D01*
Y779136D01*
X2179224Y781170D01*
X2183979Y784158D01*
X2188370Y787659D01*
X2192341Y791630D01*
X2195842Y796021D01*
X2198830Y800776D01*
X2201267Y805836D01*
X2203122Y811136D01*
X2204371Y816611D01*
X2205000Y822192D01*
Y827808D01*
X2204371Y833388D01*
X2203122Y838863D01*
X2201267Y844164D01*
X2198830Y849224D01*
X2195842Y853979D01*
X2195387Y854550D01*
X2202855Y861224D01*
X2234903Y829176D01*
Y745987D01*
X2235000Y745006D01*
Y744019D01*
X2235088Y743121D01*
X2235089Y743118D01*
Y743117D01*
X2235281Y742150D01*
X2235289Y742066D01*
X2235314Y741985D01*
X2235856Y739257D01*
X2237364Y735617D01*
X2237365Y735615D01*
X2237366Y735613D01*
X2238468Y733963D01*
X2239552Y732341D01*
X2239554Y732339D01*
X2239555Y732338D01*
X2240946Y730946D01*
X2242338Y729555D01*
X2242339Y729554D01*
X2242341Y729552D01*
X2243963Y728468D01*
X2245613Y727366D01*
X2245616Y727365D01*
X2245617Y727364D01*
X2249257Y725856D01*
X2251496Y725411D01*
X2251987Y725314D01*
X2252066Y725289D01*
X2252148Y725281D01*
X2253117Y725088D01*
X2253119D01*
X2253121Y725088D01*
X2254019Y725000D01*
X2255006D01*
X2255987Y724903D01*
X2694013D01*
X2694994Y725000D01*
X2695981D01*
X2696879Y725088D01*
X2696882Y725089D01*
X2696883D01*
X2697850Y725281D01*
X2697934Y725289D01*
X2698015Y725314D01*
X2700743Y725856D01*
X2704383Y727364D01*
X2704384Y727365D01*
X2704387Y727366D01*
X2706037Y728468D01*
X2707659Y729552D01*
X2707661Y729554D01*
X2707662Y729555D01*
X2709054Y730946D01*
X2710445Y732338D01*
X2710446Y732339D01*
X2710448Y732341D01*
X2711532Y733963D01*
X2712634Y735613D01*
X2712635Y735615D01*
X2712636Y735617D01*
X2714144Y739257D01*
X2714589Y741496D01*
X2714686Y741987D01*
X2714711Y742066D01*
X2714719Y742148D01*
X2714912Y743117D01*
Y743119D01*
X2714912Y743121D01*
X2715000Y744019D01*
Y745006D01*
X2715097Y745987D01*
Y934013D01*
X2715000Y934994D01*
Y935981D01*
X2714912Y936879D01*
X2714911Y936882D01*
Y936883D01*
X2714719Y937850D01*
X2714711Y937934D01*
X2714686Y938015D01*
X2714144Y940743D01*
X2712636Y944383D01*
X2712635Y944384D01*
X2712634Y944387D01*
X2711532Y946037D01*
X2710448Y947659D01*
X2710446Y947661D01*
X2710445Y947662D01*
X2709054Y949054D01*
X2707662Y950445D01*
X2707661Y950446D01*
X2707659Y950448D01*
X2706037Y951531D01*
X2704387Y952634D01*
X2704384Y952635D01*
X2704383Y952636D01*
X2700743Y954144D01*
X2698504Y954589D01*
X2698013Y954686D01*
X2697934Y954711D01*
X2697852Y954719D01*
X2696883Y954911D01*
X2696881D01*
X2696879Y954912D01*
X2695981Y955000D01*
X2694994D01*
X2694013Y955097D01*
X2224311D01*
X2223363Y955190D01*
X2222627Y955794D01*
X2181711Y996710D01*
X2178665Y999210D01*
X2175191Y1001067D01*
X2175000Y1001125D01*
Y1157500D01*
X2050000D01*
Y1002597D01*
X1682500D01*
X1678579Y1002211D01*
X1674809Y1001067D01*
X1671335Y999210D01*
X1668289Y996710D01*
X1626675Y955097D01*
X-1449013D01*
X-1449995Y955000D01*
X-1450980D01*
X-1451928Y954907D01*
X-1451930Y954906D01*
X-1451935D01*
X-1452903Y954714D01*
X-1452934Y954711D01*
X-1452964Y954701D01*
X-1454156Y954464D01*
X-1455792Y954139D01*
X-1455795Y954138D01*
X-1455799Y954137D01*
X-1457652Y953369D01*
X-1459432Y952632D01*
X-1459435Y952630D01*
X-1459438Y952629D01*
X-1460854Y951682D01*
X-1461835Y951027D01*
X-1461863Y951012D01*
X-1461888Y950992D01*
X-1462708Y950444D01*
X-1462711Y950441D01*
X-1462713Y950440D01*
X-1463450Y949835D01*
X-1464147Y949137D01*
X-1464908Y948513D01*
X-1857582Y555840D01*
X-1858208Y555077D01*
X-1858906Y554378D01*
X-1859511Y553642D01*
X-1860059Y552821D01*
X-1860081Y552794D01*
X-1860097Y552764D01*
X-1861699Y550366D01*
X-1862443Y548569D01*
X-1863206Y546728D01*
X-1863769Y543900D01*
X-1863779Y543865D01*
X-1863783Y543829D01*
X-1863975Y542864D01*
X-1864068Y541916D01*
X-1864069Y540929D01*
X-1864165Y539945D01*
Y-181272D01*
X-1911228Y-228334D01*
X-2010622D01*
X-2321904Y-228334D01*
X-2408401D01*
X-2412228Y-219095D01*
X-2360790Y-167657D01*
X-2358290Y-164611D01*
X-2356433Y-161137D01*
X-2355289Y-157367D01*
X-2354903Y-153446D01*
Y200000D01*
X-2306500D01*
Y345000D01*
X-2284999Y366500D01*
Y805000D01*
X-2370000D01*
Y514610D01*
X-2375000Y505097D01*
X-2540500D01*
X-2544421Y504711D01*
X-2548190Y503567D01*
X-2551665Y501710D01*
X-2554710Y499211D01*
X-2557210Y496165D01*
X-2559067Y492691D01*
X-2560211Y488921D01*
X-2560597Y485000D01*
Y450000D01*
X-3479610D01*
Y1300000D01*
Y1328158D01*
X-3472259Y1383991D01*
X-3457684Y1438388D01*
X-3436131Y1490420D01*
X-3407974Y1539190D01*
X-3373691Y1583868D01*
X-3333868Y1623691D01*
X-3289190Y1657974D01*
X-3240420Y1686131D01*
X-3188389Y1707683D01*
X-3133993Y1722259D01*
X-3078158Y1729609D01*
X3078158D01*
X3133991Y1722259D01*
D02*
G37*
G36*
X630000Y732500D02*
X1787500D01*
X1805000Y715000D01*
X2100000D01*
Y525000D01*
X1007723D01*
X1006266Y529164D01*
X1003830Y534224D01*
X1000842Y538979D01*
X997340Y543370D01*
X993369Y547341D01*
X988979Y550842D01*
X984224Y553830D01*
X979164Y556267D01*
X973863Y558121D01*
X968388Y559371D01*
X962808Y560000D01*
X957192D01*
X951611Y559371D01*
X946136Y558121D01*
X940835Y556267D01*
X935776Y553830D01*
X931020Y550842D01*
X926630Y547341D01*
X922659Y543370D01*
X919157Y538979D01*
X916170Y534224D01*
X913733Y529164D01*
X912276Y525000D01*
X587724D01*
X586267Y529165D01*
X583830Y534224D01*
X580842Y538979D01*
X577341Y543370D01*
X573370Y547341D01*
X568979Y550842D01*
X564224Y553830D01*
X559164Y556267D01*
X553864Y558122D01*
X548389Y559371D01*
X542808Y560000D01*
X537192D01*
X531611Y559371D01*
X526136Y558122D01*
X520836Y556267D01*
X515776Y553830D01*
X511021Y550842D01*
X506630Y547341D01*
X502659Y543370D01*
X499158Y538979D01*
X496170Y534224D01*
X493733Y529165D01*
X492276Y525000D01*
X-800000D01*
X-927500Y397500D01*
Y44471D01*
X-928389Y44371D01*
X-933864Y43122D01*
X-939164Y41267D01*
X-944224Y38830D01*
X-948979Y35842D01*
X-953370Y32341D01*
X-957341Y28370D01*
X-960842Y23979D01*
X-963830Y19224D01*
X-966267Y14165D01*
X-968121Y8864D01*
X-969371Y3389D01*
X-970000Y-2192D01*
Y-7808D01*
X-969371Y-13388D01*
X-968121Y-18863D01*
X-966267Y-24164D01*
X-963830Y-29224D01*
X-960842Y-33979D01*
X-957341Y-38369D01*
X-953370Y-42341D01*
X-948979Y-45842D01*
X-944224Y-48830D01*
X-939164Y-51266D01*
X-933864Y-53121D01*
X-928389Y-54371D01*
X-927500Y-54471D01*
Y-85529D01*
X-928389Y-85629D01*
X-933864Y-86879D01*
X-939164Y-88733D01*
X-944224Y-91170D01*
X-948979Y-94158D01*
X-953370Y-97659D01*
X-957341Y-101630D01*
X-960842Y-106021D01*
X-963830Y-110776D01*
X-966267Y-115836D01*
X-968121Y-121136D01*
X-969371Y-126611D01*
X-970000Y-132192D01*
Y-137808D01*
X-969371Y-143389D01*
X-968121Y-148864D01*
X-966267Y-154164D01*
X-963830Y-159224D01*
X-960842Y-163979D01*
X-957341Y-168370D01*
X-953370Y-172341D01*
X-948979Y-175842D01*
X-944224Y-178830D01*
X-939164Y-181267D01*
X-933864Y-183121D01*
X-928389Y-184371D01*
X-927500Y-184471D01*
Y-362145D01*
X-1063742Y-498387D01*
X-1072427Y-492930D01*
X-1071879Y-491363D01*
X-1070629Y-485888D01*
X-1070000Y-480308D01*
Y-474692D01*
X-1070629Y-469111D01*
X-1071879Y-463636D01*
X-1073733Y-458335D01*
X-1076170Y-453276D01*
X-1079158Y-448521D01*
X-1082659Y-444130D01*
X-1086630Y-440159D01*
X-1091021Y-436657D01*
X-1095776Y-433670D01*
X-1100836Y-431233D01*
X-1106136Y-429378D01*
X-1111611Y-428129D01*
X-1117192Y-427500D01*
X-1122808D01*
X-1128389Y-428129D01*
X-1133864Y-429378D01*
X-1139164Y-431233D01*
X-1144224Y-433670D01*
X-1148979Y-436657D01*
X-1153370Y-440159D01*
X-1157341Y-444130D01*
X-1160842Y-448521D01*
X-1163830Y-453276D01*
X-1166267Y-458335D01*
X-1168121Y-463636D01*
X-1169371Y-469111D01*
X-1170000Y-474692D01*
Y-480308D01*
X-1169371Y-485888D01*
X-1168121Y-491363D01*
X-1166267Y-496664D01*
X-1163830Y-501724D01*
X-1160842Y-506479D01*
X-1157341Y-510869D01*
X-1153370Y-514840D01*
X-1148979Y-518342D01*
X-1144224Y-521330D01*
X-1139164Y-523766D01*
X-1133864Y-525621D01*
X-1128389Y-526871D01*
X-1122808Y-527500D01*
X-1117192D01*
X-1111611Y-526871D01*
X-1106136Y-525621D01*
X-1104570Y-525073D01*
X-1099113Y-533758D01*
X-1107030Y-541675D01*
X-1111611Y-540629D01*
X-1117192Y-540000D01*
X-1122808D01*
X-1128389Y-540629D01*
X-1133864Y-541879D01*
X-1139164Y-543733D01*
X-1144224Y-546170D01*
X-1148979Y-549158D01*
X-1153370Y-552659D01*
X-1157341Y-556630D01*
X-1160842Y-561021D01*
X-1163830Y-565776D01*
X-1166267Y-570836D01*
X-1168121Y-576137D01*
X-1169371Y-581611D01*
X-1170000Y-587192D01*
Y-592808D01*
X-1169371Y-598389D01*
X-1168325Y-602971D01*
X-1230355Y-665000D01*
X-1280445D01*
X-1282309Y-663688D01*
X-1287277Y-655000D01*
X-1286879Y-653864D01*
X-1285629Y-648389D01*
X-1285000Y-642808D01*
Y-637192D01*
X-1285629Y-631611D01*
X-1286879Y-626136D01*
X-1288734Y-620836D01*
X-1291170Y-615776D01*
X-1294158Y-611021D01*
X-1297659Y-606630D01*
X-1301630Y-602659D01*
X-1306021Y-599158D01*
X-1310776Y-596170D01*
X-1315836Y-593733D01*
X-1321137Y-591879D01*
X-1326612Y-590629D01*
X-1332192Y-590000D01*
X-1337808D01*
X-1343389Y-590629D01*
X-1348864Y-591879D01*
X-1354164Y-593733D01*
X-1359224Y-596170D01*
X-1363979Y-599158D01*
X-1368370Y-602659D01*
X-1372341Y-606630D01*
X-1375842Y-611021D01*
X-1378830Y-615776D01*
X-1381267Y-620836D01*
X-1383121Y-626136D01*
X-1384371Y-631611D01*
X-1385000Y-637192D01*
Y-642808D01*
X-1384371Y-648389D01*
X-1383121Y-653864D01*
X-1382724Y-655000D01*
X-1387691Y-663688D01*
X-1389556Y-665000D01*
X-2435000D01*
X-2540500Y-559500D01*
Y-450000D01*
Y450000D01*
Y485000D01*
X-2375000D01*
Y-153446D01*
X-2484989Y-263436D01*
Y-429995D01*
X-2449985Y-465000D01*
X-2144660D01*
X-2143830Y-466724D01*
X-2140842Y-471479D01*
X-2137341Y-475870D01*
X-2133370Y-479841D01*
X-2128979Y-483342D01*
X-2124224Y-486330D01*
X-2119164Y-488767D01*
X-2113864Y-490622D01*
X-2108389Y-491871D01*
X-2102808Y-492500D01*
X-2097192D01*
X-2091612Y-491871D01*
X-2086137Y-490622D01*
X-2080836Y-488767D01*
X-2075776Y-486330D01*
X-2071021Y-483342D01*
X-2066630Y-479841D01*
X-2062659Y-475870D01*
X-2059158Y-471479D01*
X-2056170Y-466724D01*
X-2055340Y-465000D01*
X-1397655D01*
X-1390000Y-474692D01*
Y-480308D01*
X-1389371Y-485888D01*
X-1388121Y-491363D01*
X-1386267Y-496664D01*
X-1383830Y-501724D01*
X-1380842Y-506479D01*
X-1377341Y-510869D01*
X-1373370Y-514840D01*
X-1368979Y-518342D01*
X-1364224Y-521330D01*
X-1359164Y-523766D01*
X-1353864Y-525621D01*
X-1348389Y-526871D01*
X-1342808Y-527500D01*
X-1337192D01*
X-1331612Y-526871D01*
X-1326137Y-525621D01*
X-1320836Y-523766D01*
X-1315776Y-521330D01*
X-1311021Y-518342D01*
X-1306630Y-514840D01*
X-1302659Y-510869D01*
X-1299158Y-506479D01*
X-1296170Y-501724D01*
X-1293734Y-496664D01*
X-1291879Y-491363D01*
X-1290629Y-485888D01*
X-1290000Y-480308D01*
Y-474692D01*
X-1290629Y-469111D01*
X-1291879Y-463636D01*
X-1293734Y-458335D01*
X-1296170Y-453276D01*
X-1298222Y-450009D01*
X-1280011Y-431797D01*
Y-291720D01*
X-1343300Y-228431D01*
X-1580400D01*
X-1609777Y-199054D01*
X-1606487Y-188202D01*
X-1606136Y-188122D01*
X-1600836Y-186267D01*
X-1595776Y-183830D01*
X-1591021Y-180842D01*
X-1586630Y-177341D01*
X-1582659Y-173370D01*
X-1579158Y-168979D01*
X-1576170Y-164224D01*
X-1573733Y-159165D01*
X-1571879Y-153864D01*
X-1570629Y-148389D01*
X-1570000Y-142808D01*
Y-137192D01*
X-1570629Y-131612D01*
X-1571879Y-126137D01*
X-1573733Y-120836D01*
X-1576170Y-115776D01*
X-1579158Y-111021D01*
X-1582659Y-106630D01*
X-1586630Y-102659D01*
X-1591021Y-99158D01*
X-1595776Y-96170D01*
X-1596277Y-95929D01*
X-1598838Y-85522D01*
X-1598461Y-83970D01*
X-1580400Y-65909D01*
X-1505427D01*
X-1503830Y-69224D01*
X-1500842Y-73980D01*
X-1497341Y-78370D01*
X-1493370Y-82341D01*
X-1488979Y-85843D01*
X-1484224Y-88830D01*
X-1479164Y-91267D01*
X-1473863Y-93122D01*
X-1468388Y-94371D01*
X-1462808Y-95000D01*
X-1457192D01*
X-1451611Y-94371D01*
X-1446136Y-93122D01*
X-1440836Y-91267D01*
X-1435776Y-88830D01*
X-1431021Y-85843D01*
X-1426630Y-82341D01*
X-1422659Y-78370D01*
X-1419158Y-73980D01*
X-1416170Y-69224D01*
X-1414573Y-65909D01*
X-1215909D01*
X-1127500Y22500D01*
Y482500D01*
X-885000Y725000D01*
X450000D01*
Y855000D01*
X630000D01*
Y732500D01*
D02*
G37*
G36*
X663000Y-520000D02*
X463000D01*
Y465000D01*
X518206D01*
X520836Y463734D01*
X526136Y461879D01*
X531611Y460629D01*
X537192Y460000D01*
X542808D01*
X548389Y460629D01*
X553864Y461879D01*
X559164Y463734D01*
X561794Y465000D01*
X663000D01*
Y-520000D01*
D02*
G37*
G36*
X3479609Y-380000D02*
X3380000D01*
Y-391706D01*
X3377693Y-394186D01*
X3370000Y-397755D01*
X3366820Y-396251D01*
X3360345Y-393934D01*
X3353673Y-392263D01*
X3346870Y-391253D01*
X3340000Y-390916D01*
X3240000D01*
X3233130Y-391253D01*
X3226327Y-392263D01*
X3219655Y-393934D01*
X3213180Y-396251D01*
X3206962Y-399191D01*
X3201063Y-402727D01*
X3195539Y-406824D01*
X3190443Y-411443D01*
X3185824Y-416539D01*
X3181727Y-422063D01*
X3178191Y-427963D01*
X3175250Y-434180D01*
X3172933Y-440656D01*
X3171262Y-447327D01*
X3170253Y-454131D01*
X3169916Y-461000D01*
X3170253Y-467870D01*
X3171262Y-474673D01*
X3172933Y-481344D01*
X3175250Y-487820D01*
X3178191Y-494038D01*
X3181727Y-499937D01*
X3185824Y-505461D01*
X3190443Y-510557D01*
X3195539Y-515176D01*
X3201063Y-519273D01*
X3206962Y-522809D01*
X3213180Y-525750D01*
X3219655Y-528067D01*
X3226327Y-529738D01*
X3233130Y-530747D01*
X3240000Y-531084D01*
X3340000D01*
X3346870Y-530747D01*
X3353673Y-529738D01*
X3360345Y-528067D01*
X3366820Y-525750D01*
X3370000Y-524246D01*
X3377693Y-527815D01*
X3380000Y-530295D01*
Y-607074D01*
X3379282Y-618419D01*
X3377851Y-629696D01*
X3375711Y-640861D01*
X3372870Y-651868D01*
X3369341Y-662675D01*
X3365137Y-673236D01*
X3360275Y-683512D01*
X3354775Y-693461D01*
X3348657Y-703042D01*
X3341948Y-712219D01*
X3334673Y-720954D01*
X3326861Y-729212D01*
X3318543Y-736961D01*
X3309754Y-744170D01*
X3300527Y-750811D01*
X3290899Y-756855D01*
X3280910Y-762281D01*
X3270597Y-767065D01*
X3260004Y-771189D01*
X3249172Y-774636D01*
X3238143Y-777394D01*
X3226963Y-779450D01*
X3215675Y-780796D01*
X3210000Y-781112D01*
Y-781112D01*
X3199167Y-781797D01*
X3177539Y-783656D01*
X3155976Y-786166D01*
X3134500Y-789325D01*
X3113128Y-793130D01*
X3091881Y-797577D01*
X3070777Y-802663D01*
X3049836Y-808383D01*
X3029077Y-814731D01*
X3008519Y-821703D01*
X2988181Y-829291D01*
X2968080Y-837489D01*
X2948236Y-846289D01*
X2928666Y-855683D01*
X2909388Y-865663D01*
X2890420Y-876219D01*
X2871779Y-887343D01*
X2853481Y-899024D01*
X2835544Y-911250D01*
X2817984Y-924012D01*
X2800816Y-937298D01*
X2784057Y-951095D01*
X2767721Y-965391D01*
X2751824Y-980173D01*
X2736379Y-995427D01*
X2721401Y-1011140D01*
X2706904Y-1027298D01*
X2692901Y-1043885D01*
X2679404Y-1060887D01*
X2666425Y-1078288D01*
X2653978Y-1096072D01*
X2642071Y-1114224D01*
X2630718Y-1132726D01*
X2619927Y-1151562D01*
X2609710Y-1170715D01*
X2600074Y-1190167D01*
X2595477Y-1200000D01*
X2591401Y-1208892D01*
X2582532Y-1226329D01*
X2572960Y-1243391D01*
X2562701Y-1260048D01*
X2551772Y-1276273D01*
X2540191Y-1292040D01*
X2527977Y-1307322D01*
X2515151Y-1322093D01*
X2501733Y-1336330D01*
X2487747Y-1350008D01*
X2473215Y-1363106D01*
X2458161Y-1375600D01*
X2442611Y-1387470D01*
X2426591Y-1398698D01*
X2410126Y-1409263D01*
X2393244Y-1419149D01*
X2375974Y-1428339D01*
X2358344Y-1436817D01*
X2340383Y-1444570D01*
X2322121Y-1451586D01*
X2303588Y-1457851D01*
X2284815Y-1463356D01*
X2265834Y-1468092D01*
X2246676Y-1472050D01*
X2230391Y-1474729D01*
X2220391Y-1468685D01*
Y-1070000D01*
X2220291Y-1069502D01*
X2220366Y-1068999D01*
X2219884Y-1059198D01*
X2219517Y-1057732D01*
Y-1056220D01*
X2215693Y-1036993D01*
X2214924Y-1035138D01*
X2214532Y-1033168D01*
X2207031Y-1015057D01*
X2205915Y-1013388D01*
X2205146Y-1011532D01*
X2194255Y-995232D01*
X2192834Y-993812D01*
X2191719Y-992142D01*
X2177858Y-978281D01*
X2176187Y-977165D01*
X2174768Y-975745D01*
X2158468Y-964854D01*
X2156613Y-964085D01*
X2154943Y-962969D01*
X2136831Y-955467D01*
X2134862Y-955076D01*
X2133006Y-954307D01*
X2113780Y-950483D01*
X2112268D01*
X2110802Y-950115D01*
X2101001Y-949634D01*
X2100498Y-949708D01*
X2100000Y-949609D01*
X1500000D01*
X1499502Y-949708D01*
X1499000Y-949634D01*
X1489198Y-950115D01*
X1487732Y-950483D01*
X1486220D01*
X1466993Y-954307D01*
X1465138Y-955076D01*
X1463168Y-955467D01*
X1445057Y-962969D01*
X1443388Y-964085D01*
X1441532Y-964854D01*
X1425232Y-975745D01*
X1423811Y-977165D01*
X1422142Y-978281D01*
X1408281Y-992142D01*
X1407165Y-993812D01*
X1405745Y-995232D01*
X1394854Y-1011531D01*
X1394085Y-1013387D01*
X1392969Y-1015057D01*
X1385467Y-1033168D01*
X1385076Y-1035138D01*
X1384307Y-1036993D01*
X1380483Y-1056220D01*
Y-1057732D01*
X1380115Y-1059198D01*
X1379634Y-1069000D01*
X1379708Y-1069502D01*
X1379609Y-1070000D01*
Y-1480000D01*
X615001D01*
Y-1185096D01*
X1230001D01*
X1230984Y-1185000D01*
X1250001D01*
Y-1165982D01*
X1250098Y-1165000D01*
Y-1070122D01*
X1250173Y-1063993D01*
X1250781Y-1051615D01*
X1251983Y-1039411D01*
X1253782Y-1027278D01*
X1256176Y-1015247D01*
X1259157Y-1003346D01*
X1262716Y-991613D01*
X1266848Y-980063D01*
X1271542Y-968732D01*
X1276786Y-957645D01*
X1282567Y-946829D01*
X1288876Y-936304D01*
X1295688Y-926109D01*
X1302996Y-916254D01*
X1310776Y-906775D01*
X1319013Y-897687D01*
X1327686Y-889013D01*
X1336775Y-880776D01*
X1346254Y-872996D01*
X1356109Y-865688D01*
X1366303Y-858876D01*
X1376827Y-852568D01*
X1387642Y-846787D01*
X1398730Y-841543D01*
X1410063Y-836848D01*
X1421613Y-832716D01*
X1433348Y-829156D01*
X1445247Y-826176D01*
X1457278Y-823782D01*
X1469411Y-821983D01*
X1481615Y-820781D01*
X1493993Y-820173D01*
X1500123Y-820097D01*
X1975000D01*
X1975983Y-820001D01*
X2604999D01*
X2798900Y-626100D01*
Y-531084D01*
X2890000D01*
X2896869Y-530747D01*
X2903673Y-529738D01*
X2910344Y-528067D01*
X2916820Y-525750D01*
X2923038Y-522809D01*
X2928937Y-519273D01*
X2934461Y-515176D01*
X2939557Y-510557D01*
X2944176Y-505461D01*
X2948273Y-499937D01*
X2951809Y-494038D01*
X2954749Y-487820D01*
X2957066Y-481344D01*
X2958738Y-474673D01*
X2959747Y-467870D01*
X2960084Y-461000D01*
X2959747Y-454131D01*
X2958738Y-447327D01*
X2957066Y-440656D01*
X2954749Y-434180D01*
X2951809Y-427963D01*
X2948273Y-422063D01*
X2944176Y-416539D01*
X2939557Y-411443D01*
X2934461Y-406824D01*
X2928937Y-402727D01*
X2923038Y-399191D01*
X2916820Y-396251D01*
X2910344Y-393934D01*
X2903673Y-392263D01*
X2904890Y-382334D01*
X2904892Y-382333D01*
X2910695Y-381009D01*
X2916314Y-379043D01*
X2921677Y-376460D01*
X2926718Y-373293D01*
X2931372Y-369581D01*
X2935581Y-365372D01*
X2939293Y-360718D01*
X2942460Y-355677D01*
X2945043Y-350314D01*
X2947009Y-344696D01*
X2948333Y-338892D01*
X2949000Y-332976D01*
Y-327024D01*
X2948333Y-321108D01*
X2947009Y-315305D01*
X2945043Y-309686D01*
X2942460Y-304323D01*
X2939293Y-299282D01*
X2935581Y-294628D01*
X2931372Y-290419D01*
X2926718Y-286707D01*
X2921677Y-283540D01*
X2916314Y-280957D01*
X2910695Y-278991D01*
X2904892Y-277667D01*
X2898976Y-277000D01*
X2893024D01*
X2887108Y-277667D01*
X2881305Y-278991D01*
X2875686Y-280957D01*
X2870323Y-283540D01*
X2865282Y-286707D01*
X2860628Y-290419D01*
X2856419Y-294628D01*
X2852707Y-299282D01*
X2849540Y-304323D01*
X2846957Y-309686D01*
X2844991Y-315305D01*
X2843667Y-321108D01*
X2843000Y-327024D01*
Y-332976D01*
X2843667Y-338892D01*
X2844991Y-344696D01*
X2846957Y-350314D01*
X2849540Y-355677D01*
X2852707Y-360718D01*
X2856419Y-365372D01*
X2860628Y-369581D01*
X2865282Y-373293D01*
X2870323Y-376460D01*
X2875686Y-379043D01*
X2881304Y-381009D01*
X2879770Y-390916D01*
X2798900D01*
Y270000D01*
X2926793D01*
X2928000Y260500D01*
X2928000Y260000D01*
Y192211D01*
X2927916Y190500D01*
X2928000Y188789D01*
Y65211D01*
X2927916Y63500D01*
X2928000Y61789D01*
Y-61789D01*
X2927916Y-63500D01*
X2928000Y-65211D01*
Y-188789D01*
X2927916Y-190500D01*
X2928000Y-192211D01*
Y-260500D01*
X2996289D01*
X2998000Y-260584D01*
X3048000D01*
X3049711Y-260500D01*
X3118000D01*
Y-192211D01*
X3118084Y-190500D01*
X3118000Y-188789D01*
Y-65211D01*
X3118084Y-63500D01*
X3118000Y-61789D01*
Y61789D01*
X3118084Y63500D01*
X3118000Y65211D01*
Y188789D01*
X3118084Y190500D01*
X3118000Y192211D01*
Y260000D01*
X3118001Y260500D01*
X3119208Y270000D01*
X3165693D01*
X3174132Y260000D01*
X3174001Y258497D01*
Y249503D01*
X3174785Y240543D01*
X3176346Y231686D01*
X3178674Y222998D01*
X3181750Y214546D01*
X3185551Y206395D01*
X3190048Y198606D01*
X3195207Y191238D01*
X3200989Y184348D01*
X3207348Y177988D01*
X3214238Y172207D01*
X3221606Y167048D01*
X3229395Y162551D01*
X3237546Y158750D01*
X3245998Y155674D01*
X3254686Y153346D01*
X3263543Y151784D01*
X3272503Y151000D01*
X3281497D01*
X3290457Y151784D01*
X3299315Y153346D01*
X3308003Y155674D01*
X3316454Y158750D01*
X3324605Y162551D01*
X3332395Y167048D01*
X3339762Y172207D01*
X3346652Y177988D01*
X3353012Y184348D01*
X3358793Y191238D01*
X3363952Y198606D01*
X3368449Y206395D01*
X3372250Y214546D01*
X3375326Y222998D01*
X3377654Y231686D01*
X3379216Y240543D01*
X3380000Y249503D01*
Y258497D01*
X3379869Y260000D01*
X3388308Y270000D01*
X3479609D01*
Y-380000D01*
D02*
G37*
G36*
X1365000Y-674787D02*
X1352583Y-679216D01*
X1352236Y-679379D01*
X1351867Y-679487D01*
X1337817Y-685110D01*
X1337477Y-685286D01*
X1337113Y-685407D01*
X1323286Y-691561D01*
X1322953Y-691750D01*
X1322593Y-691885D01*
X1309011Y-698560D01*
X1308686Y-698762D01*
X1308331Y-698911D01*
X1295013Y-706098D01*
X1294695Y-706313D01*
X1294347Y-706474D01*
X1281312Y-714163D01*
X1281001Y-714390D01*
X1280661Y-714565D01*
X1267928Y-722744D01*
X1267627Y-722982D01*
X1267292Y-723170D01*
X1254880Y-731828D01*
X1254588Y-732078D01*
X1254262Y-732277D01*
X1242188Y-741402D01*
X1241906Y-741662D01*
X1241586Y-741875D01*
X1229868Y-751452D01*
X1229597Y-751722D01*
X1229285Y-751947D01*
X1217940Y-761963D01*
X1217679Y-762245D01*
X1217377Y-762481D01*
X1206422Y-772922D01*
X1206172Y-773212D01*
X1205878Y-773459D01*
X1195328Y-784310D01*
X1195088Y-784610D01*
X1194805Y-784868D01*
X1184676Y-796112D01*
X1184448Y-796421D01*
X1184174Y-796690D01*
X1174480Y-808312D01*
X1174265Y-808629D01*
X1174002Y-808908D01*
X1169476Y-814773D01*
X1166271Y-818806D01*
X1159449Y-826676D01*
X1152289Y-834039D01*
X1144721Y-840982D01*
X1136766Y-847483D01*
X1128457Y-853518D01*
X1119818Y-859067D01*
X1110870Y-864119D01*
X1101656Y-868647D01*
X1092190Y-872646D01*
X1082519Y-876096D01*
X1072664Y-878989D01*
X1062661Y-881314D01*
X1052540Y-883065D01*
X1042333Y-884235D01*
X1031938Y-884830D01*
X1026802Y-884903D01*
X615001D01*
X614020Y-884999D01*
X595001D01*
Y-904017D01*
X594904Y-905000D01*
Y-920254D01*
X593917Y-921086D01*
X584904Y-924193D01*
X583370Y-922659D01*
X578980Y-919158D01*
X574224Y-916170D01*
X569165Y-913733D01*
X563864Y-911879D01*
X558389Y-910629D01*
X552808Y-910000D01*
X547192D01*
X541612Y-910629D01*
X536137Y-911879D01*
X530836Y-913733D01*
X525776Y-916170D01*
X521021Y-919158D01*
X516631Y-922659D01*
X512660Y-926630D01*
X509158Y-931021D01*
X508299Y-932389D01*
X505944Y-933231D01*
X499057D01*
X496702Y-932389D01*
X495843Y-931021D01*
X492341Y-926630D01*
X488370Y-922659D01*
X483980Y-919158D01*
X479225Y-916170D01*
X474165Y-913733D01*
X468864Y-911879D01*
X463389Y-910629D01*
X457809Y-910000D01*
X452193D01*
X446612Y-910629D01*
X441137Y-911879D01*
X435836Y-913733D01*
X430777Y-916170D01*
X426022Y-919158D01*
X421631Y-922659D01*
X417660Y-926630D01*
X414158Y-931021D01*
X411171Y-935776D01*
X408734Y-940836D01*
X406879Y-946136D01*
X405630Y-951611D01*
X405001Y-957192D01*
Y-962808D01*
X405630Y-968388D01*
X406879Y-973863D01*
X408734Y-979164D01*
X411171Y-984224D01*
X414158Y-988979D01*
X417660Y-993370D01*
X421631Y-997341D01*
X426022Y-1000842D01*
X430777Y-1003830D01*
X435836Y-1006266D01*
X441137Y-1008121D01*
X446612Y-1009371D01*
X452193Y-1010000D01*
X457809D01*
X463389Y-1009371D01*
X468864Y-1008121D01*
X474165Y-1006266D01*
X479225Y-1003830D01*
X483980Y-1000842D01*
X488370Y-997341D01*
X492341Y-993370D01*
X495843Y-988979D01*
X496702Y-987611D01*
X499057Y-986769D01*
X505944D01*
X508299Y-987611D01*
X509158Y-988979D01*
X512660Y-993370D01*
X516631Y-997341D01*
X521021Y-1000842D01*
X525776Y-1003830D01*
X530836Y-1006266D01*
X536137Y-1008121D01*
X541612Y-1009371D01*
X547192Y-1010000D01*
X552808D01*
X558389Y-1009371D01*
X563864Y-1008121D01*
X569165Y-1006266D01*
X574224Y-1003830D01*
X578980Y-1000842D01*
X583370Y-997341D01*
X584904Y-995807D01*
X593917Y-998914D01*
X594904Y-999746D01*
Y-1165000D01*
X595001Y-1165982D01*
Y-1184114D01*
X594904Y-1185096D01*
Y-1219500D01*
X-527258D01*
X-532074Y-1209500D01*
X-531658Y-1208979D01*
X-528670Y-1204224D01*
X-526234Y-1199164D01*
X-524379Y-1193863D01*
X-523129Y-1188388D01*
X-522500Y-1182808D01*
Y-1177192D01*
X-523129Y-1171611D01*
X-524379Y-1166136D01*
X-526234Y-1160835D01*
X-528670Y-1155776D01*
X-531658Y-1151021D01*
X-535159Y-1146630D01*
X-539130Y-1142659D01*
X-543521Y-1139157D01*
X-548276Y-1136170D01*
X-553336Y-1133733D01*
X-558637Y-1131878D01*
X-564112Y-1130629D01*
X-569692Y-1130000D01*
X-575308D01*
X-580889Y-1130629D01*
X-586364Y-1131878D01*
X-591665Y-1133733D01*
X-596724Y-1136170D01*
X-601479Y-1139157D01*
X-605870Y-1142659D01*
X-609841Y-1146630D01*
X-613342Y-1151021D01*
X-616330Y-1155776D01*
X-618767Y-1160835D01*
X-620622Y-1166136D01*
X-621871Y-1171611D01*
X-622500Y-1177192D01*
Y-1182808D01*
X-621871Y-1188388D01*
X-620622Y-1193863D01*
X-618767Y-1199164D01*
X-616330Y-1204224D01*
X-613342Y-1208979D01*
X-612927Y-1209500D01*
X-617742Y-1219500D01*
X-852764D01*
X-855797Y-1215695D01*
X-857914Y-1209500D01*
X-856170Y-1206724D01*
X-853733Y-1201665D01*
X-851879Y-1196364D01*
X-850629Y-1190889D01*
X-850000Y-1185308D01*
Y-1179692D01*
X-850629Y-1174112D01*
X-851879Y-1168637D01*
X-853733Y-1163336D01*
X-856170Y-1158276D01*
X-859158Y-1153521D01*
X-862659Y-1149131D01*
X-866630Y-1145160D01*
X-871021Y-1141658D01*
X-875776Y-1138670D01*
X-880836Y-1136234D01*
X-886136Y-1134379D01*
X-891611Y-1133129D01*
X-897192Y-1132500D01*
X-902808D01*
X-908389Y-1133129D01*
X-913864Y-1134379D01*
X-919164Y-1136234D01*
X-924224Y-1138670D01*
X-928979Y-1141658D01*
X-933370Y-1145160D01*
X-937341Y-1149131D01*
X-940842Y-1153521D01*
X-943830Y-1158276D01*
X-946267Y-1163336D01*
X-948121Y-1168637D01*
X-949371Y-1174112D01*
X-950000Y-1179692D01*
Y-1185308D01*
X-949371Y-1190889D01*
X-948121Y-1196364D01*
X-946267Y-1201665D01*
X-943830Y-1206724D01*
X-942086Y-1209500D01*
X-944203Y-1215695D01*
X-947236Y-1219500D01*
X-1072000D01*
X-1087500Y-1235000D01*
Y-1280000D01*
X-1886500D01*
Y-725000D01*
X-1775722D01*
X-1775076Y-725493D01*
X-1770342Y-735000D01*
X-1770829Y-735776D01*
X-1773266Y-740835D01*
X-1775121Y-746136D01*
X-1776370Y-751611D01*
X-1776999Y-757192D01*
Y-762808D01*
X-1776370Y-768388D01*
X-1775121Y-773863D01*
X-1773266Y-779164D01*
X-1770829Y-784224D01*
X-1767842Y-788979D01*
X-1764340Y-793370D01*
X-1760369Y-797341D01*
X-1755978Y-800842D01*
X-1751223Y-803830D01*
X-1746164Y-806266D01*
X-1740863Y-808121D01*
X-1735388Y-809371D01*
X-1729807Y-810000D01*
X-1724191D01*
X-1718611Y-809371D01*
X-1713136Y-808121D01*
X-1707835Y-806266D01*
X-1702775Y-803830D01*
X-1698020Y-800842D01*
X-1693630Y-797341D01*
X-1689659Y-793370D01*
X-1686157Y-788979D01*
X-1683169Y-784224D01*
X-1680733Y-779164D01*
X-1678878Y-773863D01*
X-1677628Y-768388D01*
X-1676999Y-762808D01*
Y-757192D01*
X-1677628Y-751611D01*
X-1678878Y-746136D01*
X-1680733Y-740835D01*
X-1683169Y-735776D01*
X-1683657Y-735000D01*
X-1678922Y-725493D01*
X-1678277Y-725000D01*
X-1648722D01*
X-1648077Y-725493D01*
X-1643342Y-735000D01*
X-1643830Y-735776D01*
X-1646266Y-740835D01*
X-1648121Y-746136D01*
X-1649371Y-751611D01*
X-1649999Y-757192D01*
Y-762808D01*
X-1649371Y-768388D01*
X-1648121Y-773863D01*
X-1646266Y-779164D01*
X-1643830Y-784224D01*
X-1640842Y-788979D01*
X-1637340Y-793370D01*
X-1633369Y-797341D01*
X-1628979Y-800842D01*
X-1624224Y-803830D01*
X-1619164Y-806266D01*
X-1613863Y-808121D01*
X-1608388Y-809371D01*
X-1602808Y-810000D01*
X-1597192D01*
X-1591611Y-809371D01*
X-1586136Y-808121D01*
X-1580835Y-806266D01*
X-1575776Y-803830D01*
X-1571020Y-800842D01*
X-1566630Y-797341D01*
X-1562659Y-793370D01*
X-1559157Y-788979D01*
X-1556170Y-784224D01*
X-1553733Y-779164D01*
X-1551878Y-773863D01*
X-1550629Y-768388D01*
X-1550000Y-762808D01*
Y-757192D01*
X-1550629Y-751611D01*
X-1551878Y-746136D01*
X-1553733Y-740835D01*
X-1556170Y-735776D01*
X-1556657Y-735000D01*
X-1551922Y-725493D01*
X-1551277Y-725000D01*
X-1521722D01*
X-1521077Y-725493D01*
X-1516342Y-735000D01*
X-1516830Y-735776D01*
X-1519266Y-740835D01*
X-1521121Y-746136D01*
X-1522371Y-751611D01*
X-1523000Y-757192D01*
Y-762808D01*
X-1522371Y-768388D01*
X-1521121Y-773863D01*
X-1519266Y-779164D01*
X-1516830Y-784224D01*
X-1513842Y-788979D01*
X-1510341Y-793370D01*
X-1506370Y-797341D01*
X-1501979Y-800842D01*
X-1497224Y-803830D01*
X-1492164Y-806266D01*
X-1486863Y-808121D01*
X-1481388Y-809371D01*
X-1475808Y-810000D01*
X-1470192D01*
X-1464611Y-809371D01*
X-1459136Y-808121D01*
X-1453836Y-806266D01*
X-1448776Y-803830D01*
X-1444021Y-800842D01*
X-1439630Y-797341D01*
X-1435659Y-793370D01*
X-1432158Y-788979D01*
X-1429170Y-784224D01*
X-1426733Y-779164D01*
X-1424879Y-773863D01*
X-1423629Y-768388D01*
X-1423000Y-762808D01*
Y-757192D01*
X-1423629Y-751611D01*
X-1424879Y-746136D01*
X-1426733Y-740835D01*
X-1429170Y-735776D01*
X-1429657Y-735000D01*
X-1424923Y-725493D01*
X-1424278Y-725000D01*
X-1394722D01*
X-1394077Y-725493D01*
X-1389342Y-735000D01*
X-1389830Y-735776D01*
X-1392266Y-740835D01*
X-1394121Y-746136D01*
X-1395371Y-751611D01*
X-1395999Y-757192D01*
Y-762808D01*
X-1395371Y-768388D01*
X-1394121Y-773863D01*
X-1392266Y-779164D01*
X-1389830Y-784224D01*
X-1386842Y-788979D01*
X-1383340Y-793370D01*
X-1379369Y-797341D01*
X-1374979Y-800842D01*
X-1370224Y-803830D01*
X-1365164Y-806266D01*
X-1359863Y-808121D01*
X-1354388Y-809371D01*
X-1348808Y-810000D01*
X-1343192D01*
X-1337611Y-809371D01*
X-1332136Y-808121D01*
X-1326835Y-806266D01*
X-1321776Y-803830D01*
X-1317020Y-800842D01*
X-1312630Y-797341D01*
X-1308659Y-793370D01*
X-1305157Y-788979D01*
X-1302170Y-784224D01*
X-1299733Y-779164D01*
X-1297878Y-773863D01*
X-1296629Y-768388D01*
X-1296000Y-762808D01*
Y-757192D01*
X-1296629Y-751611D01*
X-1297878Y-746136D01*
X-1299733Y-740835D01*
X-1302170Y-735776D01*
X-1302657Y-735000D01*
X-1297922Y-725493D01*
X-1297277Y-725000D01*
X-1110001D01*
X-989189Y-604189D01*
X-988389Y-604371D01*
X-982808Y-605000D01*
X-977192D01*
X-971611Y-604371D01*
X-966136Y-603122D01*
X-960836Y-601267D01*
X-955776Y-598830D01*
X-951021Y-595843D01*
X-946630Y-592341D01*
X-942659Y-588370D01*
X-939158Y-583980D01*
X-936170Y-579224D01*
X-933733Y-574165D01*
X-931879Y-568864D01*
X-930629Y-563389D01*
X-930000Y-557808D01*
Y-552192D01*
X-930629Y-546612D01*
X-930812Y-545811D01*
X-815000Y-430000D01*
Y-171960D01*
X-812807Y-170000D01*
X-807192D01*
X-801611Y-169371D01*
X-796136Y-168121D01*
X-790835Y-166267D01*
X-785776Y-163830D01*
X-781021Y-160842D01*
X-776630Y-157341D01*
X-772659Y-153370D01*
X-769157Y-148979D01*
X-766170Y-144224D01*
X-765457Y-142744D01*
X-764795Y-142487D01*
X-755204D01*
X-754542Y-142744D01*
X-753830Y-144224D01*
X-750842Y-148979D01*
X-747340Y-153370D01*
X-743369Y-157341D01*
X-738979Y-160842D01*
X-734224Y-163830D01*
X-729164Y-166267D01*
X-723863Y-168121D01*
X-718388Y-169371D01*
X-712808Y-170000D01*
X-707192D01*
X-701611Y-169371D01*
X-696136Y-168121D01*
X-690835Y-166267D01*
X-685776Y-163830D01*
X-681020Y-160842D01*
X-676630Y-157341D01*
X-672659Y-153370D01*
X-669157Y-148979D01*
X-666170Y-144224D01*
X-665457Y-142744D01*
X-664795Y-142487D01*
X-655204D01*
X-654542Y-142744D01*
X-653830Y-144224D01*
X-650842Y-148979D01*
X-647340Y-153370D01*
X-643369Y-157341D01*
X-638979Y-160842D01*
X-634224Y-163830D01*
X-629164Y-166267D01*
X-623863Y-168121D01*
X-618388Y-169371D01*
X-612808Y-170000D01*
X-607192D01*
X-601611Y-169371D01*
X-596136Y-168121D01*
X-590835Y-166267D01*
X-585776Y-163830D01*
X-581020Y-160842D01*
X-576630Y-157341D01*
X-572659Y-153370D01*
X-569157Y-148979D01*
X-566170Y-144224D01*
X-563733Y-139164D01*
X-561878Y-133864D01*
X-560629Y-128389D01*
X-560000Y-122808D01*
Y-117192D01*
X-560629Y-111611D01*
X-561878Y-106136D01*
X-563733Y-100836D01*
X-566170Y-95776D01*
X-569157Y-91021D01*
X-572659Y-86630D01*
X-576630Y-82659D01*
X-581020Y-79158D01*
X-585776Y-76170D01*
X-587255Y-75458D01*
X-587512Y-74796D01*
Y-65204D01*
X-587255Y-64543D01*
X-585776Y-63830D01*
X-581020Y-60842D01*
X-576630Y-57341D01*
X-572659Y-53370D01*
X-569157Y-48979D01*
X-566170Y-44224D01*
X-563733Y-39165D01*
X-561878Y-33864D01*
X-560629Y-28389D01*
X-560000Y-22808D01*
Y-17192D01*
X-560629Y-11612D01*
X-561878Y-6137D01*
X-563733Y-836D01*
X-566170Y4224D01*
X-569157Y8979D01*
X-572659Y13370D01*
X-576630Y17341D01*
X-581020Y20842D01*
X-585776Y23830D01*
X-590835Y26266D01*
X-596136Y28121D01*
X-601611Y29371D01*
X-607192Y30000D01*
X-612808D01*
X-618388Y29371D01*
X-623863Y28121D01*
X-629164Y26266D01*
X-634224Y23830D01*
X-638979Y20842D01*
X-643369Y17341D01*
X-647340Y13370D01*
X-650842Y8979D01*
X-653830Y4224D01*
X-654542Y2744D01*
X-655204Y2486D01*
X-664795D01*
X-665457Y2744D01*
X-666170Y4224D01*
X-669157Y8979D01*
X-672659Y13370D01*
X-676630Y17341D01*
X-681020Y20842D01*
X-685776Y23830D01*
X-690835Y26266D01*
X-696136Y28121D01*
X-701611Y29371D01*
X-707192Y30000D01*
X-712808D01*
X-718388Y29371D01*
X-723863Y28121D01*
X-729164Y26266D01*
X-734224Y23830D01*
X-738979Y20842D01*
X-743369Y17341D01*
X-747340Y13370D01*
X-750842Y8979D01*
X-753830Y4224D01*
X-754542Y2744D01*
X-755204Y2486D01*
X-764795D01*
X-765457Y2744D01*
X-766170Y4224D01*
X-769157Y8979D01*
X-772659Y13370D01*
X-776630Y17341D01*
X-781021Y20842D01*
X-785776Y23830D01*
X-790835Y26266D01*
X-796136Y28121D01*
X-801611Y29371D01*
X-807192Y30000D01*
X-812807D01*
X-815000Y31959D01*
Y113131D01*
X-806262Y120321D01*
X-805000Y120529D01*
X-800308Y120000D01*
X-794692D01*
X-789111Y120629D01*
X-783636Y121879D01*
X-778336Y123733D01*
X-773276Y126170D01*
X-768521Y129158D01*
X-764130Y132659D01*
X-760159Y136630D01*
X-756658Y141021D01*
X-753670Y145776D01*
X-751233Y150836D01*
X-749378Y156136D01*
X-748129Y161611D01*
X-747500Y167192D01*
Y172808D01*
X-748129Y178389D01*
X-749378Y183863D01*
X-751233Y189164D01*
X-753670Y194224D01*
X-756658Y198979D01*
X-760159Y203370D01*
X-764130Y207341D01*
X-768521Y210842D01*
X-773276Y213830D01*
X-778336Y216267D01*
X-783636Y218121D01*
X-789111Y219371D01*
X-794692Y220000D01*
X-800308D01*
X-805000Y219471D01*
X-806262Y219679D01*
X-815000Y226869D01*
Y300000D01*
X-683201D01*
X-680223Y293541D01*
X-680036Y290000D01*
X-683370Y287341D01*
X-687341Y283370D01*
X-690842Y278979D01*
X-693830Y274224D01*
X-696267Y269164D01*
X-698121Y263864D01*
X-699371Y258389D01*
X-700000Y252808D01*
Y247192D01*
X-699371Y241611D01*
X-698121Y236136D01*
X-696267Y230836D01*
X-693830Y225776D01*
X-690842Y221021D01*
X-687341Y216630D01*
X-683370Y212659D01*
X-678979Y209158D01*
X-674224Y206170D01*
X-669164Y203733D01*
X-663864Y201879D01*
X-658389Y200629D01*
X-652808Y200000D01*
X-647192D01*
X-641611Y200629D01*
X-636136Y201879D01*
X-630836Y203733D01*
X-625776Y206170D01*
X-621021Y209158D01*
X-616630Y212659D01*
X-612659Y216630D01*
X-609158Y221021D01*
X-606170Y225776D01*
X-603733Y230836D01*
X-601879Y236136D01*
X-600629Y241611D01*
X-600000Y247192D01*
Y252808D01*
X-600629Y258389D01*
X-601879Y263864D01*
X-603733Y269164D01*
X-606170Y274224D01*
X-609158Y278979D01*
X-612659Y283370D01*
X-616630Y287341D01*
X-619964Y290000D01*
X-619777Y293541D01*
X-616799Y300000D01*
X60963D01*
X69999Y292807D01*
Y287191D01*
X70628Y281611D01*
X71878Y276136D01*
X73733Y270835D01*
X76169Y265775D01*
X79157Y261020D01*
X82658Y256630D01*
X86629Y252659D01*
X91020Y249157D01*
X95775Y246169D01*
X100835Y243733D01*
X106136Y241878D01*
X111611Y240628D01*
X117191Y240000D01*
X122807D01*
X128388Y240628D01*
X133863Y241878D01*
X139164Y243733D01*
X144223Y246169D01*
X148978Y249157D01*
X153369Y252659D01*
X157340Y256630D01*
X160841Y261020D01*
X163829Y265775D01*
X166266Y270835D01*
X168121Y276136D01*
X169370Y281611D01*
X169999Y287191D01*
Y292807D01*
X179036Y300000D01*
X442904D01*
Y-520000D01*
X443000Y-520980D01*
Y-540000D01*
X462018D01*
X463000Y-540097D01*
X663000D01*
X663983Y-540000D01*
X683000D01*
Y-520980D01*
X683097Y-520000D01*
Y300000D01*
X712466D01*
X713521Y299158D01*
X718276Y296170D01*
X723336Y293734D01*
X728637Y291879D01*
X734112Y290629D01*
X739692Y290000D01*
X745308D01*
X750889Y290629D01*
X756364Y291879D01*
X761665Y293734D01*
X766724Y296170D01*
X771480Y299158D01*
X772535Y300000D01*
X827466D01*
X828521Y299158D01*
X833276Y296170D01*
X838336Y293734D01*
X843636Y291879D01*
X849111Y290629D01*
X854692Y290000D01*
X860308D01*
X865889Y290629D01*
X871364Y291879D01*
X876664Y293734D01*
X881724Y296170D01*
X886479Y299158D01*
X887534Y300000D01*
X975405D01*
X975657Y299769D01*
X979972Y290000D01*
X979158Y288979D01*
X976170Y284224D01*
X973733Y279164D01*
X971879Y273864D01*
X970629Y268389D01*
X970000Y262808D01*
Y257192D01*
X970629Y251611D01*
X971879Y246136D01*
X973733Y240836D01*
X976170Y235776D01*
X979158Y231021D01*
X982659Y226630D01*
X986630Y222659D01*
X991021Y219158D01*
X995776Y216170D01*
X997256Y215458D01*
X997513Y214796D01*
Y205204D01*
X997256Y204542D01*
X995776Y203830D01*
X991021Y200842D01*
X986630Y197341D01*
X982659Y193370D01*
X979158Y188979D01*
X976170Y184224D01*
X973733Y179164D01*
X971879Y173864D01*
X970629Y168389D01*
X970000Y162808D01*
Y157192D01*
X970629Y151611D01*
X971879Y146136D01*
X973733Y140836D01*
X976170Y135776D01*
X979158Y131021D01*
X982659Y126630D01*
X986630Y122659D01*
X991021Y119158D01*
X995776Y116170D01*
X1000836Y113733D01*
X1006136Y111879D01*
X1011611Y110629D01*
X1017192Y110000D01*
X1022808D01*
X1028389Y110629D01*
X1033864Y111879D01*
X1039164Y113733D01*
X1044224Y116170D01*
X1048979Y119158D01*
X1053370Y122659D01*
X1057341Y126630D01*
X1060842Y131021D01*
X1063830Y135776D01*
X1066267Y140836D01*
X1068121Y146136D01*
X1069371Y151611D01*
X1070000Y157192D01*
Y162808D01*
X1069371Y168389D01*
X1068121Y173864D01*
X1066267Y179164D01*
X1063830Y184224D01*
X1060842Y188979D01*
X1057341Y193370D01*
X1053370Y197341D01*
X1048979Y200842D01*
X1044224Y203830D01*
X1042744Y204542D01*
X1042487Y205204D01*
Y214796D01*
X1042744Y215458D01*
X1044224Y216170D01*
X1048979Y219158D01*
X1053370Y222659D01*
X1057341Y226630D01*
X1060842Y231021D01*
X1063830Y235776D01*
X1066267Y240836D01*
X1068121Y246136D01*
X1069371Y251611D01*
X1070000Y257192D01*
Y262808D01*
X1069371Y268389D01*
X1068121Y273864D01*
X1066267Y279164D01*
X1063830Y284224D01*
X1060842Y288979D01*
X1060028Y290000D01*
X1064343Y299769D01*
X1064595Y300000D01*
X1365000D01*
Y-674787D01*
D02*
G37*
G36*
X1975000Y-800001D02*
X1500000D01*
X1493374Y-800082D01*
X1480138Y-800732D01*
X1466949Y-802031D01*
X1453840Y-803976D01*
X1440843Y-806561D01*
X1427988Y-809781D01*
X1415306Y-813628D01*
X1402829Y-818093D01*
X1390585Y-823164D01*
X1378605Y-828830D01*
X1366918Y-835077D01*
X1355551Y-841890D01*
X1344532Y-849253D01*
X1333888Y-857147D01*
X1323644Y-865554D01*
X1313824Y-874454D01*
X1304454Y-883824D01*
X1295554Y-893644D01*
X1287147Y-903888D01*
X1279253Y-914532D01*
X1271890Y-925551D01*
X1265077Y-936918D01*
X1258830Y-948605D01*
X1253164Y-960585D01*
X1248092Y-972829D01*
X1243628Y-985306D01*
X1239781Y-997988D01*
X1236561Y-1010843D01*
X1233976Y-1023840D01*
X1232031Y-1036949D01*
X1230732Y-1050138D01*
X1230082Y-1063374D01*
X1230001Y-1070000D01*
Y-1165000D01*
X615001D01*
Y-905000D01*
X1026945D01*
X1032655Y-904918D01*
X1044055Y-904267D01*
X1055399Y-902965D01*
X1066651Y-901019D01*
X1077773Y-898433D01*
X1088730Y-895217D01*
X1099485Y-891381D01*
X1110003Y-886938D01*
X1120251Y-881901D01*
X1130195Y-876288D01*
X1139802Y-870116D01*
X1149042Y-863406D01*
X1157883Y-856180D01*
X1166297Y-848461D01*
X1174258Y-840274D01*
X1181738Y-831646D01*
X1185290Y-827176D01*
X1189913Y-821185D01*
X1199607Y-809564D01*
X1209736Y-798320D01*
X1220286Y-787470D01*
X1231242Y-777029D01*
X1242586Y-767012D01*
X1254304Y-757435D01*
X1266378Y-748311D01*
X1278790Y-739653D01*
X1291523Y-731473D01*
X1304558Y-723784D01*
X1317876Y-716596D01*
X1331458Y-709921D01*
X1345284Y-703768D01*
X1359334Y-698145D01*
X1373589Y-693061D01*
X1388026Y-688523D01*
X1402626Y-684537D01*
X1417366Y-681111D01*
X1432226Y-678248D01*
X1447185Y-675952D01*
X1462220Y-674228D01*
X1477310Y-673076D01*
X1492433Y-672500D01*
X1975000D01*
Y-800001D01*
D02*
G37*
G36*
X3479609Y-1300000D02*
Y-1328158D01*
X3472258Y-1383992D01*
X3457683Y-1438388D01*
X3436131Y-1490420D01*
X3407974Y-1539190D01*
X3373691Y-1583868D01*
X3333868Y-1623691D01*
X3289190Y-1657974D01*
X3240419Y-1686131D01*
X3188389Y-1707684D01*
X3133993Y-1722259D01*
X3078158Y-1729609D01*
X2292160D01*
X2276778Y-1726550D01*
X2262290Y-1720549D01*
X2249252Y-1711837D01*
X2238163Y-1700748D01*
X2229451Y-1687709D01*
X2223450Y-1673221D01*
X2220391Y-1657840D01*
Y-1502797D01*
X2221044Y-1501450D01*
X2221794Y-1500325D01*
X2225832Y-1496938D01*
X2229721Y-1494814D01*
X2230512Y-1494763D01*
X2231304Y-1494804D01*
X2232473Y-1494636D01*
X2233652Y-1494559D01*
X2249938Y-1491880D01*
X2250334Y-1491774D01*
X2250743Y-1491731D01*
X2269901Y-1487772D01*
X2270292Y-1487651D01*
X2270699Y-1487591D01*
X2289680Y-1482855D01*
X2290068Y-1482717D01*
X2290471Y-1482640D01*
X2309243Y-1477135D01*
X2309624Y-1476982D01*
X2310024Y-1476889D01*
X2328557Y-1470624D01*
X2328931Y-1470455D01*
X2329327Y-1470346D01*
X2347589Y-1463331D01*
X2347956Y-1463147D01*
X2348348Y-1463021D01*
X2366309Y-1455268D01*
X2366668Y-1455069D01*
X2367054Y-1454928D01*
X2384684Y-1446450D01*
X2385034Y-1446237D01*
X2385415Y-1446080D01*
X2402685Y-1436890D01*
X2403026Y-1436663D01*
X2403400Y-1436491D01*
X2420281Y-1426605D01*
X2420614Y-1426364D01*
X2420979Y-1426177D01*
X2437444Y-1415612D01*
X2437767Y-1415357D01*
X2438124Y-1415155D01*
X2454145Y-1403928D01*
X2454456Y-1403661D01*
X2454806Y-1403445D01*
X2470355Y-1391574D01*
X2470656Y-1391294D01*
X2470996Y-1391064D01*
X2486050Y-1378570D01*
X2486339Y-1378277D01*
X2486669Y-1378034D01*
X2501201Y-1364937D01*
X2501478Y-1364634D01*
X2501798Y-1364376D01*
X2515785Y-1350698D01*
X2516049Y-1350383D01*
X2516358Y-1350114D01*
X2529776Y-1335877D01*
X2530027Y-1335552D01*
X2530325Y-1335270D01*
X2543151Y-1320498D01*
X2543389Y-1320163D01*
X2543676Y-1319869D01*
X2555889Y-1304587D01*
X2556114Y-1304243D01*
X2556388Y-1303937D01*
X2567969Y-1288170D01*
X2568179Y-1287817D01*
X2568440Y-1287501D01*
X2579369Y-1271275D01*
X2579564Y-1270914D01*
X2579813Y-1270587D01*
X2590072Y-1253930D01*
X2590252Y-1253560D01*
X2590487Y-1253224D01*
X2600059Y-1236162D01*
X2600224Y-1235787D01*
X2600445Y-1235440D01*
X2609314Y-1218003D01*
X2609464Y-1217621D01*
X2609671Y-1217266D01*
X2613716Y-1208440D01*
X2618183Y-1198884D01*
X2627581Y-1179912D01*
X2637515Y-1161291D01*
X2648003Y-1142984D01*
X2659041Y-1124995D01*
X2670621Y-1107341D01*
X2682721Y-1090054D01*
X2695334Y-1073143D01*
X2708451Y-1056620D01*
X2722062Y-1040497D01*
X2736156Y-1024789D01*
X2750713Y-1009517D01*
X2765732Y-994683D01*
X2781186Y-980312D01*
X2797065Y-966417D01*
X2813355Y-953006D01*
X2830044Y-940091D01*
X2847116Y-927684D01*
X2864552Y-915799D01*
X2882334Y-904447D01*
X2900465Y-893628D01*
X2918891Y-883374D01*
X2937641Y-873667D01*
X2956663Y-864536D01*
X2975950Y-855983D01*
X2995485Y-848016D01*
X3015260Y-840638D01*
X3035245Y-833861D01*
X3055424Y-827689D01*
X3075777Y-822130D01*
X3096297Y-817185D01*
X3116952Y-812861D01*
X3137720Y-809164D01*
X3158606Y-806092D01*
X3179563Y-803652D01*
X3200661Y-801839D01*
X3211243Y-801170D01*
X3216791Y-800862D01*
X3217420Y-800764D01*
X3218056Y-800751D01*
X3229343Y-799405D01*
X3229964Y-799268D01*
X3230597Y-799215D01*
X3241778Y-797159D01*
X3242389Y-796983D01*
X3243017Y-796890D01*
X3254046Y-794133D01*
X3254645Y-793919D01*
X3255266Y-793787D01*
X3266099Y-790339D01*
X3266683Y-790088D01*
X3267295Y-789917D01*
X3277888Y-785793D01*
X3278455Y-785505D01*
X3279055Y-785295D01*
X3289368Y-780511D01*
X3289916Y-780188D01*
X3290501Y-779941D01*
X3300490Y-774516D01*
X3301016Y-774159D01*
X3301585Y-773876D01*
X3311213Y-767831D01*
X3311716Y-767441D01*
X3312266Y-767122D01*
X3321493Y-760482D01*
X3321969Y-760062D01*
X3322498Y-759709D01*
X3331288Y-752500D01*
X3331738Y-752051D01*
X3332243Y-751665D01*
X3340560Y-743916D01*
X3340981Y-743439D01*
X3341460Y-743023D01*
X3349272Y-734764D01*
X3349662Y-734262D01*
X3350115Y-733815D01*
X3357390Y-725080D01*
X3357748Y-724553D01*
X3358170Y-724080D01*
X3364880Y-714904D01*
X3365203Y-714356D01*
X3365596Y-713857D01*
X3371713Y-704275D01*
X3372001Y-703709D01*
X3372362Y-703185D01*
X3377862Y-693236D01*
X3378114Y-692653D01*
X3378441Y-692108D01*
X3383303Y-681832D01*
X3383517Y-681234D01*
X3383809Y-680668D01*
X3388013Y-670107D01*
X3388189Y-669495D01*
X3388445Y-668913D01*
X3391974Y-658107D01*
X3392111Y-657486D01*
X3392329Y-656890D01*
X3395170Y-645883D01*
X3395268Y-645254D01*
X3395448Y-644645D01*
X3397588Y-633480D01*
X3397646Y-632847D01*
X3397787Y-632227D01*
X3399219Y-620950D01*
X3399237Y-620314D01*
X3399339Y-619687D01*
X3400056Y-608342D01*
X3400034Y-607707D01*
X3400096Y-607074D01*
Y-530295D01*
X3399939Y-528694D01*
X3399839Y-527090D01*
X3399746Y-526738D01*
X3399710Y-526374D01*
X3399243Y-524835D01*
X3398833Y-523282D01*
X3398672Y-522953D01*
X3398566Y-522604D01*
X3397809Y-521186D01*
X3397103Y-519742D01*
X3396882Y-519452D01*
X3396709Y-519130D01*
X3395690Y-517887D01*
X3394716Y-516608D01*
X3393348Y-515138D01*
X3393380Y-514380D01*
X3398355Y-508891D01*
X3402768Y-502941D01*
X3406577Y-496586D01*
X3409745Y-489889D01*
X3412240Y-482914D01*
X3414040Y-475728D01*
X3414341Y-473700D01*
X3290000D01*
Y-448300D01*
X3414341D01*
X3414040Y-446273D01*
X3412240Y-439086D01*
X3409745Y-432111D01*
X3406577Y-425414D01*
X3402768Y-419060D01*
X3398355Y-413109D01*
X3394082Y-408394D01*
X3397122Y-403348D01*
X3399970Y-400096D01*
X3479609D01*
Y-1300000D01*
D02*
G37*
%LPC*%
G36*
X2435000Y855000D02*
X2325000D01*
Y795000D01*
X2435000D01*
Y855000D01*
D02*
G37*
G36*
X-1937192Y-330000D02*
X-1942808D01*
X-1948389Y-330629D01*
X-1953864Y-331878D01*
X-1959164Y-333733D01*
X-1964224Y-336170D01*
X-1968979Y-339158D01*
X-1973370Y-342659D01*
X-1977341Y-346630D01*
X-1980842Y-351021D01*
X-1983830Y-355776D01*
X-1986267Y-360835D01*
X-1988121Y-366136D01*
X-1989371Y-371611D01*
X-1990000Y-377192D01*
Y-382808D01*
X-1989371Y-388388D01*
X-1988121Y-393863D01*
X-1986267Y-399164D01*
X-1983830Y-404224D01*
X-1980842Y-408979D01*
X-1977341Y-413370D01*
X-1973370Y-417341D01*
X-1968979Y-420842D01*
X-1964224Y-423830D01*
X-1959164Y-426266D01*
X-1953864Y-428121D01*
X-1948389Y-429371D01*
X-1942808Y-430000D01*
X-1937192D01*
X-1931611Y-429371D01*
X-1926136Y-428121D01*
X-1920836Y-426266D01*
X-1915776Y-423830D01*
X-1911021Y-420842D01*
X-1906630Y-417341D01*
X-1902659Y-413370D01*
X-1899158Y-408979D01*
X-1896170Y-404224D01*
X-1893733Y-399164D01*
X-1891879Y-393863D01*
X-1890629Y-388388D01*
X-1890000Y-382808D01*
Y-377192D01*
X-1890629Y-371611D01*
X-1891879Y-366136D01*
X-1893733Y-360835D01*
X-1896170Y-355776D01*
X-1899158Y-351021D01*
X-1902659Y-346630D01*
X-1906630Y-342659D01*
X-1911021Y-339158D01*
X-1915776Y-336170D01*
X-1920836Y-333733D01*
X-1926136Y-331878D01*
X-1931611Y-330629D01*
X-1937192Y-330000D01*
D02*
G37*
G36*
X2890000Y536491D02*
X2852700D01*
Y473701D01*
X2964341D01*
X2964040Y475728D01*
X2962240Y482914D01*
X2959744Y489889D01*
X2956577Y496586D01*
X2952768Y502941D01*
X2948355Y508891D01*
X2943380Y514380D01*
X2937891Y519355D01*
X2931941Y523768D01*
X2925586Y527577D01*
X2918889Y530744D01*
X2911914Y533240D01*
X2904727Y535040D01*
X2897399Y536127D01*
X2890000Y536491D01*
D02*
G37*
G36*
X3340000D02*
X3302700D01*
Y473701D01*
X3414341D01*
X3414040Y475728D01*
X3412240Y482914D01*
X3409745Y489889D01*
X3406577Y496586D01*
X3402768Y502941D01*
X3398355Y508891D01*
X3393380Y514380D01*
X3387891Y519355D01*
X3381941Y523768D01*
X3375586Y527577D01*
X3368889Y530744D01*
X3361914Y533240D01*
X3354728Y535040D01*
X3347399Y536127D01*
X3340000Y536491D01*
D02*
G37*
G36*
X3277300D02*
X3240000D01*
X3232601Y536127D01*
X3225272Y535040D01*
X3218086Y533240D01*
X3211111Y530744D01*
X3204414Y527577D01*
X3198059Y523768D01*
X3192109Y519355D01*
X3186620Y514380D01*
X3181645Y508891D01*
X3177232Y502941D01*
X3173423Y496586D01*
X3170256Y489889D01*
X3167760Y482914D01*
X3165960Y475728D01*
X3165659Y473701D01*
X3277300D01*
Y536491D01*
D02*
G37*
G36*
X2827300D02*
X2790000D01*
X2782600Y536127D01*
X2775272Y535040D01*
X2768086Y533240D01*
X2761111Y530744D01*
X2754414Y527577D01*
X2748059Y523768D01*
X2742109Y519355D01*
X2736620Y514380D01*
X2731645Y508891D01*
X2727232Y502941D01*
X2723423Y496586D01*
X2720255Y489889D01*
X2717760Y482914D01*
X2715960Y475728D01*
X2715659Y473701D01*
X2827300D01*
Y536491D01*
D02*
G37*
G36*
X3414341Y448301D02*
X3302700D01*
Y385509D01*
X3340000D01*
X3347399Y385873D01*
X3354728Y386960D01*
X3361914Y388760D01*
X3368889Y391256D01*
X3375586Y394423D01*
X3381941Y398232D01*
X3387891Y402645D01*
X3393380Y407620D01*
X3398355Y413109D01*
X3402768Y419060D01*
X3406577Y425414D01*
X3409745Y432111D01*
X3412240Y439086D01*
X3414040Y446273D01*
X3414341Y448301D01*
D02*
G37*
G36*
X3277300D02*
X3165659D01*
X3165960Y446273D01*
X3167760Y439086D01*
X3170256Y432111D01*
X3173423Y425414D01*
X3177232Y419060D01*
X3181645Y413109D01*
X3186620Y407620D01*
X3192109Y402645D01*
X3198059Y398232D01*
X3204414Y394423D01*
X3211111Y391256D01*
X3218086Y388760D01*
X3225272Y386960D01*
X3232601Y385873D01*
X3240000Y385509D01*
X3277300D01*
Y448301D01*
D02*
G37*
G36*
X2827300D02*
X2715659D01*
X2715960Y446273D01*
X2717760Y439086D01*
X2720255Y432111D01*
X2723423Y425414D01*
X2727232Y419060D01*
X2731645Y413109D01*
X2736620Y407620D01*
X2742109Y402645D01*
X2748059Y398232D01*
X2754414Y394423D01*
X2761111Y391256D01*
X2768086Y388760D01*
X2775272Y386960D01*
X2782600Y385873D01*
X2790000Y385509D01*
X2827300D01*
Y448301D01*
D02*
G37*
G36*
X2615000Y452500D02*
X2385000D01*
Y347500D01*
X2615000D01*
Y452500D01*
D02*
G37*
G36*
X-2170000Y572500D02*
X-2255000Y572500D01*
Y360500D01*
X-2239500Y345000D01*
Y200000D01*
X-2179500D01*
Y345000D01*
X-2170000Y354500D01*
Y572500D01*
D02*
G37*
G36*
X1937700Y119772D02*
Y12700D01*
X2044773D01*
X2044658Y14162D01*
X2043178Y23507D01*
X2040969Y32706D01*
X2038045Y41704D01*
X2034425Y50445D01*
X2030130Y58875D01*
X2025186Y66942D01*
X2019625Y74596D01*
X2013481Y81790D01*
X2006790Y88480D01*
X1999596Y94625D01*
X1991942Y100186D01*
X1983875Y105129D01*
X1975445Y109424D01*
X1966704Y113045D01*
X1957707Y115969D01*
X1948507Y118177D01*
X1939162Y119657D01*
X1937700Y119772D01*
D02*
G37*
G36*
X1912300D02*
X1910837Y119657D01*
X1901493Y118177D01*
X1892293Y115969D01*
X1883295Y113045D01*
X1874555Y109424D01*
X1866125Y105129D01*
X1858058Y100186D01*
X1850404Y94625D01*
X1843209Y88480D01*
X1836519Y81790D01*
X1830375Y74596D01*
X1824814Y66942D01*
X1819870Y58875D01*
X1815575Y50445D01*
X1811955Y41704D01*
X1809031Y32706D01*
X1806822Y23507D01*
X1805342Y14162D01*
X1805227Y12700D01*
X1912300D01*
Y119772D01*
D02*
G37*
G36*
X-2197192Y107500D02*
X-2202808D01*
X-2208389Y106871D01*
X-2213863Y105621D01*
X-2219164Y103767D01*
X-2224224Y101330D01*
X-2226340Y100000D01*
X-2342500D01*
Y15000D01*
X-2226340D01*
X-2224224Y13670D01*
X-2219164Y11233D01*
X-2213863Y9379D01*
X-2208389Y8129D01*
X-2202808Y7500D01*
X-2197192D01*
X-2191611Y8129D01*
X-2186136Y9379D01*
X-2180836Y11233D01*
X-2175776Y13670D01*
X-2173659Y15000D01*
X-2170000D01*
Y17472D01*
X-2166630Y20159D01*
X-2162659Y24130D01*
X-2159158Y28521D01*
X-2156170Y33276D01*
X-2153733Y38336D01*
X-2151879Y43636D01*
X-2150629Y49111D01*
X-2150000Y54692D01*
Y60308D01*
X-2150629Y65889D01*
X-2151879Y71364D01*
X-2153733Y76664D01*
X-2156170Y81724D01*
X-2159158Y86479D01*
X-2162659Y90870D01*
X-2166630Y94841D01*
X-2170000Y97528D01*
Y100000D01*
X-2173659D01*
X-2175776Y101330D01*
X-2180836Y103767D01*
X-2186136Y105621D01*
X-2191611Y106871D01*
X-2197192Y107500D01*
D02*
G37*
G36*
X1679518Y115000D02*
X1670482D01*
X1661473Y114290D01*
X1652547Y112877D01*
X1643760Y110767D01*
X1635166Y107975D01*
X1626817Y104516D01*
X1618765Y100414D01*
X1611060Y95692D01*
X1603749Y90381D01*
X1596878Y84512D01*
X1590488Y78122D01*
X1584619Y71250D01*
X1579307Y63939D01*
X1574586Y56234D01*
X1570483Y48183D01*
X1567025Y39834D01*
X1564233Y31239D01*
X1562123Y22452D01*
X1560709Y13527D01*
X1560000Y4518D01*
Y-4519D01*
X1560709Y-13528D01*
X1562123Y-22453D01*
X1564233Y-31240D01*
X1567025Y-39834D01*
X1570483Y-48183D01*
X1574586Y-56235D01*
X1579307Y-63940D01*
X1584619Y-71251D01*
X1590488Y-78122D01*
X1596878Y-84512D01*
X1603749Y-90381D01*
X1611060Y-95693D01*
X1618765Y-100414D01*
X1626817Y-104517D01*
X1635166Y-107975D01*
X1643760Y-110768D01*
X1652547Y-112877D01*
X1661473Y-114291D01*
X1670482Y-115000D01*
X1679518D01*
X1688527Y-114291D01*
X1697453Y-112877D01*
X1706240Y-110768D01*
X1714834Y-107975D01*
X1723183Y-104517D01*
X1731235Y-100414D01*
X1738940Y-95693D01*
X1746251Y-90381D01*
X1753122Y-84512D01*
X1759512Y-78122D01*
X1765381Y-71251D01*
X1770692Y-63940D01*
X1775414Y-56235D01*
X1779517Y-48183D01*
X1782975Y-39834D01*
X1785767Y-31240D01*
X1787877Y-22453D01*
X1789291Y-13528D01*
X1790000Y-4519D01*
Y4518D01*
X1789291Y13527D01*
X1787877Y22452D01*
X1785767Y31239D01*
X1782975Y39834D01*
X1779517Y48183D01*
X1775414Y56234D01*
X1770692Y63939D01*
X1765381Y71250D01*
X1759512Y78122D01*
X1753122Y84512D01*
X1746251Y90381D01*
X1738940Y95692D01*
X1731235Y100414D01*
X1723183Y104516D01*
X1714834Y107975D01*
X1706240Y110767D01*
X1697453Y112877D01*
X1688527Y114290D01*
X1679518Y115000D01*
D02*
G37*
G36*
X2044773Y-12700D02*
X1937700D01*
Y-119773D01*
X1939162Y-119658D01*
X1948507Y-118178D01*
X1957707Y-115969D01*
X1966704Y-113045D01*
X1975445Y-109425D01*
X1983875Y-105130D01*
X1991942Y-100186D01*
X1999596Y-94625D01*
X2006790Y-88481D01*
X2013481Y-81791D01*
X2019625Y-74596D01*
X2025186Y-66942D01*
X2030130Y-58876D01*
X2034425Y-50446D01*
X2038045Y-41705D01*
X2040969Y-32707D01*
X2043178Y-23507D01*
X2044658Y-14163D01*
X2044773Y-12700D01*
D02*
G37*
G36*
X1912300D02*
X1805227D01*
X1805342Y-14163D01*
X1806822Y-23507D01*
X1809031Y-32707D01*
X1811955Y-41705D01*
X1815575Y-50446D01*
X1819870Y-58876D01*
X1824814Y-66942D01*
X1830375Y-74596D01*
X1836519Y-81791D01*
X1843209Y-88481D01*
X1850404Y-94625D01*
X1858058Y-100186D01*
X1866125Y-105130D01*
X1874555Y-109425D01*
X1883295Y-113045D01*
X1892293Y-115969D01*
X1901493Y-118178D01*
X1910837Y-119658D01*
X1912300Y-119773D01*
Y-12700D01*
D02*
G37*
G36*
X2520832Y193000D02*
X2509168D01*
X2497526Y192296D01*
X2485948Y190890D01*
X2474475Y188787D01*
X2463150Y185996D01*
X2452014Y182526D01*
X2441109Y178390D01*
X2430473Y173603D01*
X2420145Y168183D01*
X2410163Y162149D01*
X2400564Y155523D01*
X2391383Y148330D01*
X2382653Y140595D01*
X2374405Y132348D01*
X2366671Y123617D01*
X2359477Y114436D01*
X2352852Y104837D01*
X2346818Y94855D01*
X2341397Y84528D01*
X2336610Y73892D01*
X2332474Y62986D01*
X2329004Y51850D01*
X2326213Y40525D01*
X2324110Y29053D01*
X2322705Y17474D01*
X2322000Y5832D01*
Y-5832D01*
X2322705Y-17474D01*
X2324110Y-29053D01*
X2326213Y-40525D01*
X2329004Y-51850D01*
X2332474Y-62986D01*
X2336610Y-73892D01*
X2341397Y-84528D01*
X2346818Y-94855D01*
X2352852Y-104837D01*
X2359477Y-114436D01*
X2366671Y-123617D01*
X2374405Y-132348D01*
X2382653Y-140595D01*
X2391383Y-148330D01*
X2400564Y-155523D01*
X2410163Y-162149D01*
X2420145Y-168183D01*
X2430473Y-173603D01*
X2441109Y-178390D01*
X2452014Y-182526D01*
X2463150Y-185996D01*
X2474475Y-188787D01*
X2485948Y-190890D01*
X2497526Y-192296D01*
X2509168Y-193000D01*
X2520832D01*
X2532474Y-192296D01*
X2544053Y-190890D01*
X2555526Y-188787D01*
X2566851Y-185996D01*
X2577986Y-182526D01*
X2588892Y-178390D01*
X2599528Y-173603D01*
X2609856Y-168183D01*
X2619837Y-162149D01*
X2629436Y-155523D01*
X2638618Y-148330D01*
X2647348Y-140595D01*
X2655596Y-132348D01*
X2663330Y-123617D01*
X2670523Y-114436D01*
X2677149Y-104837D01*
X2683183Y-94855D01*
X2688603Y-84528D01*
X2693390Y-73892D01*
X2697526Y-62986D01*
X2700996Y-51850D01*
X2703788Y-40525D01*
X2705890Y-29053D01*
X2707296Y-17474D01*
X2708000Y-5832D01*
Y5832D01*
X2707296Y17474D01*
X2705890Y29053D01*
X2703788Y40525D01*
X2700996Y51850D01*
X2697526Y62986D01*
X2693390Y73892D01*
X2688603Y84528D01*
X2683183Y94855D01*
X2677149Y104837D01*
X2670523Y114436D01*
X2663330Y123617D01*
X2655596Y132348D01*
X2647348Y140595D01*
X2638618Y148330D01*
X2629436Y155523D01*
X2619837Y162149D01*
X2609856Y168183D01*
X2599528Y173603D01*
X2588892Y178390D01*
X2577986Y182526D01*
X2566851Y185996D01*
X2555526Y188787D01*
X2544053Y190890D01*
X2532474Y192296D01*
X2520832Y193000D01*
D02*
G37*
G36*
X852808Y700000D02*
X847192D01*
X841611Y699371D01*
X836137Y698121D01*
X830836Y696267D01*
X825776Y693830D01*
X821021Y690842D01*
X816630Y687341D01*
X812659Y683370D01*
X809158Y678979D01*
X806170Y674224D01*
X805458Y672744D01*
X804796Y672487D01*
X795204D01*
X794542Y672744D01*
X793830Y674224D01*
X790842Y678979D01*
X787341Y683370D01*
X783370Y687341D01*
X778979Y690842D01*
X774224Y693830D01*
X769164Y696267D01*
X763864Y698121D01*
X758389Y699371D01*
X752808Y700000D01*
X747192D01*
X741611Y699371D01*
X736136Y698121D01*
X730836Y696267D01*
X725776Y693830D01*
X721021Y690842D01*
X716630Y687341D01*
X712659Y683370D01*
X709158Y678979D01*
X706170Y674224D01*
X705458Y672744D01*
X704796Y672487D01*
X695204D01*
X694542Y672744D01*
X693830Y674224D01*
X690842Y678979D01*
X687341Y683370D01*
X683370Y687341D01*
X678979Y690842D01*
X674224Y693830D01*
X669164Y696267D01*
X663864Y698121D01*
X658389Y699371D01*
X652808Y700000D01*
X647192D01*
X641611Y699371D01*
X636136Y698121D01*
X630836Y696267D01*
X625776Y693830D01*
X621021Y690842D01*
X616630Y687341D01*
X612659Y683370D01*
X609158Y678979D01*
X606170Y674224D01*
X603733Y669164D01*
X601879Y663864D01*
X600629Y658389D01*
X600000Y652808D01*
Y647192D01*
X600629Y641611D01*
X601879Y636136D01*
X603733Y630836D01*
X606170Y625776D01*
X609158Y621021D01*
X612659Y616630D01*
X616630Y612659D01*
X621021Y609158D01*
X625776Y606170D01*
X630836Y603733D01*
X636136Y601879D01*
X641611Y600629D01*
X647192Y600000D01*
X652808D01*
X658389Y600629D01*
X663864Y601879D01*
X669164Y603733D01*
X674224Y606170D01*
X678979Y609158D01*
X683370Y612659D01*
X687341Y616630D01*
X690842Y621021D01*
X693830Y625776D01*
X694542Y627256D01*
X695204Y627513D01*
X704796D01*
X705458Y627256D01*
X706170Y625776D01*
X709158Y621021D01*
X712659Y616630D01*
X716630Y612659D01*
X721021Y609158D01*
X725776Y606170D01*
X730836Y603733D01*
X736136Y601879D01*
X741611Y600629D01*
X747192Y600000D01*
X752808D01*
X758389Y600629D01*
X763864Y601879D01*
X769164Y603733D01*
X774224Y606170D01*
X778979Y609158D01*
X783370Y612659D01*
X787341Y616630D01*
X790842Y621021D01*
X793830Y625776D01*
X794542Y627256D01*
X795204Y627513D01*
X804796D01*
X805458Y627256D01*
X806170Y625776D01*
X809158Y621021D01*
X812659Y616630D01*
X816630Y612659D01*
X821021Y609158D01*
X825776Y606170D01*
X830836Y603733D01*
X836137Y601879D01*
X841611Y600629D01*
X847192Y600000D01*
X852808D01*
X858389Y600629D01*
X863864Y601879D01*
X869164Y603733D01*
X874224Y606170D01*
X878979Y609158D01*
X883370Y612659D01*
X887341Y616630D01*
X890842Y621021D01*
X893830Y625776D01*
X896267Y630836D01*
X898121Y636136D01*
X899371Y641611D01*
X900000Y647192D01*
Y652808D01*
X899371Y658389D01*
X898121Y663864D01*
X896267Y669164D01*
X893830Y674224D01*
X890842Y678979D01*
X887341Y683370D01*
X883370Y687341D01*
X878979Y690842D01*
X874224Y693830D01*
X869164Y696267D01*
X863864Y698121D01*
X858389Y699371D01*
X852808Y700000D01*
D02*
G37*
G36*
X1007808Y685001D02*
X1002192D01*
X996611Y684372D01*
X991136Y683122D01*
X985836Y681267D01*
X980776Y678831D01*
X976021Y675843D01*
X971630Y672342D01*
X967659Y668371D01*
X964158Y663980D01*
X961170Y659225D01*
X958733Y654165D01*
X956879Y648864D01*
X955629Y643389D01*
X955000Y637809D01*
Y632193D01*
X955629Y626612D01*
X956879Y621137D01*
X958733Y615836D01*
X961170Y610777D01*
X964158Y606022D01*
X967659Y601631D01*
X971630Y597660D01*
X976021Y594159D01*
X980776Y591171D01*
X985836Y588734D01*
X991136Y586879D01*
X996611Y585630D01*
X1002192Y585001D01*
X1007808D01*
X1013389Y585630D01*
X1018864Y586879D01*
X1024164Y588734D01*
X1029224Y591171D01*
X1033979Y594159D01*
X1038370Y597660D01*
X1042341Y601631D01*
X1045842Y606022D01*
X1048830Y610777D01*
X1051267Y615836D01*
X1053121Y621137D01*
X1054371Y626612D01*
X1055000Y632193D01*
Y637809D01*
X1054371Y643389D01*
X1053121Y648864D01*
X1051267Y654165D01*
X1048830Y659225D01*
X1045842Y663980D01*
X1042341Y668371D01*
X1038370Y672342D01*
X1033979Y675843D01*
X1029224Y678831D01*
X1024164Y681267D01*
X1018864Y683122D01*
X1013389Y684372D01*
X1007808Y685001D01*
D02*
G37*
G36*
X497808D02*
X492192D01*
X486611Y684372D01*
X481136Y683122D01*
X475836Y681267D01*
X470776Y678831D01*
X466021Y675843D01*
X461630Y672342D01*
X457659Y668371D01*
X454158Y663980D01*
X451170Y659225D01*
X448733Y654165D01*
X446879Y648864D01*
X445629Y643389D01*
X445000Y637809D01*
Y632193D01*
X445629Y626612D01*
X446879Y621137D01*
X448733Y615836D01*
X451170Y610777D01*
X454158Y606022D01*
X457659Y601631D01*
X461630Y597660D01*
X466021Y594159D01*
X470776Y591171D01*
X475836Y588734D01*
X481136Y586879D01*
X486611Y585630D01*
X492192Y585001D01*
X497808D01*
X503389Y585630D01*
X508864Y586879D01*
X514164Y588734D01*
X519224Y591171D01*
X523979Y594159D01*
X528370Y597660D01*
X532341Y601631D01*
X535842Y606022D01*
X538830Y610777D01*
X541267Y615836D01*
X543121Y621137D01*
X544371Y626612D01*
X545000Y632193D01*
Y637809D01*
X544371Y643389D01*
X543121Y648864D01*
X541267Y654165D01*
X538830Y659225D01*
X535842Y663980D01*
X532341Y668371D01*
X528370Y672342D01*
X523979Y675843D01*
X519224Y678831D01*
X514164Y681267D01*
X508864Y683122D01*
X503389Y684372D01*
X497808Y685001D01*
D02*
G37*
G36*
X-1089692Y-50000D02*
X-1095308D01*
X-1100888Y-50629D01*
X-1106363Y-51879D01*
X-1111664Y-53733D01*
X-1116724Y-56170D01*
X-1121479Y-59158D01*
X-1125869Y-62659D01*
X-1129841Y-66630D01*
X-1133342Y-71021D01*
X-1136330Y-75776D01*
X-1138766Y-80836D01*
X-1140621Y-86136D01*
X-1141871Y-91611D01*
X-1142500Y-97192D01*
Y-102808D01*
X-1141871Y-108389D01*
X-1140621Y-113864D01*
X-1138766Y-119164D01*
X-1136330Y-124224D01*
X-1133342Y-128979D01*
X-1129841Y-133370D01*
X-1125869Y-137341D01*
X-1121479Y-140842D01*
X-1116724Y-143830D01*
X-1111664Y-146267D01*
X-1106363Y-148121D01*
X-1100888Y-149371D01*
X-1095308Y-150000D01*
X-1089692D01*
X-1084111Y-149371D01*
X-1078636Y-148121D01*
X-1073335Y-146267D01*
X-1068276Y-143830D01*
X-1063521Y-140842D01*
X-1059130Y-137341D01*
X-1055159Y-133370D01*
X-1051658Y-128979D01*
X-1048670Y-124224D01*
X-1046233Y-119164D01*
X-1044378Y-113864D01*
X-1043129Y-108389D01*
X-1042500Y-102808D01*
Y-97192D01*
X-1043129Y-91611D01*
X-1044378Y-86136D01*
X-1046233Y-80836D01*
X-1048670Y-75776D01*
X-1051658Y-71021D01*
X-1055159Y-66630D01*
X-1059130Y-62659D01*
X-1063521Y-59158D01*
X-1068276Y-56170D01*
X-1073335Y-53733D01*
X-1078636Y-51879D01*
X-1084111Y-50629D01*
X-1089692Y-50000D01*
D02*
G37*
G36*
X-1627192Y-480000D02*
X-1632808D01*
X-1638389Y-480629D01*
X-1643864Y-481879D01*
X-1649164Y-483733D01*
X-1654224Y-486170D01*
X-1658979Y-489158D01*
X-1663370Y-492659D01*
X-1667341Y-496630D01*
X-1670842Y-501021D01*
X-1673830Y-505776D01*
X-1676267Y-510836D01*
X-1678121Y-516136D01*
X-1679371Y-521611D01*
X-1680000Y-527192D01*
Y-532808D01*
X-1679371Y-538389D01*
X-1678121Y-543864D01*
X-1676267Y-549164D01*
X-1673830Y-554224D01*
X-1670842Y-558979D01*
X-1667341Y-563370D01*
X-1663370Y-567341D01*
X-1658979Y-570842D01*
X-1654224Y-573830D01*
X-1649164Y-576267D01*
X-1643864Y-578121D01*
X-1638389Y-579371D01*
X-1632808Y-580000D01*
X-1627192D01*
X-1621611Y-579371D01*
X-1616136Y-578121D01*
X-1610836Y-576267D01*
X-1605776Y-573830D01*
X-1601021Y-570842D01*
X-1596630Y-567341D01*
X-1592659Y-563370D01*
X-1589158Y-558979D01*
X-1586170Y-554224D01*
X-1583733Y-549164D01*
X-1581879Y-543864D01*
X-1580629Y-538389D01*
X-1580000Y-532808D01*
Y-527192D01*
X-1580629Y-521611D01*
X-1581879Y-516136D01*
X-1583733Y-510836D01*
X-1586170Y-505776D01*
X-1589158Y-501021D01*
X-1592659Y-496630D01*
X-1596630Y-492659D01*
X-1601021Y-489158D01*
X-1605776Y-486170D01*
X-1610836Y-483733D01*
X-1616136Y-481879D01*
X-1621611Y-480629D01*
X-1627192Y-480000D01*
D02*
G37*
G36*
X-2397192Y-507500D02*
X-2402808D01*
X-2408389Y-508129D01*
X-2413864Y-509378D01*
X-2419164Y-511233D01*
X-2424224Y-513670D01*
X-2428979Y-516658D01*
X-2433370Y-520159D01*
X-2437341Y-524130D01*
X-2440842Y-528521D01*
X-2443830Y-533276D01*
X-2446267Y-538335D01*
X-2448121Y-543636D01*
X-2449371Y-549111D01*
X-2450000Y-554692D01*
Y-560308D01*
X-2449371Y-565888D01*
X-2448121Y-571363D01*
X-2446267Y-576664D01*
X-2443830Y-581724D01*
X-2440842Y-586479D01*
X-2437341Y-590870D01*
X-2433370Y-594841D01*
X-2428979Y-598342D01*
X-2424224Y-601330D01*
X-2419164Y-603766D01*
X-2413864Y-605621D01*
X-2408389Y-606871D01*
X-2402808Y-607500D01*
X-2397192D01*
X-2391611Y-606871D01*
X-2386136Y-605621D01*
X-2380836Y-603766D01*
X-2375776Y-601330D01*
X-2371021Y-598342D01*
X-2366630Y-594841D01*
X-2362659Y-590870D01*
X-2359158Y-586479D01*
X-2356170Y-581724D01*
X-2353733Y-576664D01*
X-2351879Y-571363D01*
X-2350629Y-565888D01*
X-2350000Y-560308D01*
Y-554692D01*
X-2350629Y-549111D01*
X-2351879Y-543636D01*
X-2353733Y-538335D01*
X-2356170Y-533276D01*
X-2359158Y-528521D01*
X-2362659Y-524130D01*
X-2366630Y-520159D01*
X-2371021Y-516658D01*
X-2375776Y-513670D01*
X-2380836Y-511233D01*
X-2386136Y-509378D01*
X-2391611Y-508129D01*
X-2397192Y-507500D01*
D02*
G37*
G36*
X-2217192Y-507500D02*
X-2222808D01*
X-2228388Y-508129D01*
X-2233863Y-509379D01*
X-2239164Y-511233D01*
X-2244224Y-513670D01*
X-2248979Y-516658D01*
X-2253370Y-520159D01*
X-2257341Y-524130D01*
X-2260842Y-528521D01*
X-2263830Y-533276D01*
X-2266266Y-538336D01*
X-2268121Y-543636D01*
X-2269371Y-549111D01*
X-2270000Y-554692D01*
Y-560308D01*
X-2269371Y-565889D01*
X-2268121Y-571364D01*
X-2266266Y-576664D01*
X-2263830Y-581724D01*
X-2260842Y-586479D01*
X-2257341Y-590870D01*
X-2253370Y-594841D01*
X-2248979Y-598342D01*
X-2244224Y-601330D01*
X-2239164Y-603767D01*
X-2233863Y-605621D01*
X-2228388Y-606871D01*
X-2222808Y-607500D01*
X-2217192D01*
X-2211611Y-606871D01*
X-2206136Y-605621D01*
X-2200836Y-603767D01*
X-2195776Y-601330D01*
X-2191021Y-598342D01*
X-2186630Y-594841D01*
X-2182659Y-590870D01*
X-2179158Y-586479D01*
X-2176170Y-581724D01*
X-2173733Y-576664D01*
X-2171879Y-571364D01*
X-2170629Y-565889D01*
X-2170000Y-560308D01*
Y-554692D01*
X-2170629Y-549111D01*
X-2171879Y-543636D01*
X-2173733Y-538336D01*
X-2176170Y-533276D01*
X-2179158Y-528521D01*
X-2182659Y-524130D01*
X-2186630Y-520159D01*
X-2191021Y-516658D01*
X-2195776Y-513670D01*
X-2200836Y-511233D01*
X-2206136Y-509379D01*
X-2211611Y-508129D01*
X-2217192Y-507500D01*
D02*
G37*
G36*
X3281497Y-151000D02*
X3272503D01*
X3263543Y-151784D01*
X3254686Y-153346D01*
X3245998Y-155674D01*
X3237546Y-158750D01*
X3229395Y-162551D01*
X3221606Y-167048D01*
X3214238Y-172207D01*
X3207348Y-177988D01*
X3200989Y-184348D01*
X3195207Y-191238D01*
X3190048Y-198606D01*
X3185551Y-206395D01*
X3181750Y-214546D01*
X3178674Y-222998D01*
X3176346Y-231686D01*
X3174785Y-240543D01*
X3174001Y-249503D01*
Y-258497D01*
X3174785Y-267457D01*
X3176346Y-276314D01*
X3178674Y-285002D01*
X3181750Y-293454D01*
X3185551Y-301605D01*
X3190048Y-309394D01*
X3195207Y-316762D01*
X3200989Y-323652D01*
X3207348Y-330012D01*
X3214238Y-335793D01*
X3221606Y-340952D01*
X3229395Y-345449D01*
X3237546Y-349250D01*
X3245998Y-352326D01*
X3254686Y-354654D01*
X3263543Y-356216D01*
X3272503Y-357000D01*
X3281497D01*
X3290457Y-356216D01*
X3299315Y-354654D01*
X3308003Y-352326D01*
X3316454Y-349250D01*
X3324605Y-345449D01*
X3332395Y-340952D01*
X3339762Y-335793D01*
X3346652Y-330012D01*
X3353012Y-323652D01*
X3358793Y-316762D01*
X3363952Y-309394D01*
X3368449Y-301605D01*
X3372250Y-293454D01*
X3375326Y-285002D01*
X3377654Y-276314D01*
X3379216Y-267457D01*
X3380000Y-258497D01*
Y-249503D01*
X3379216Y-240543D01*
X3377654Y-231686D01*
X3375326Y-222998D01*
X3372250Y-214546D01*
X3368449Y-206395D01*
X3363952Y-198606D01*
X3358793Y-191238D01*
X3353012Y-184348D01*
X3346652Y-177988D01*
X3339762Y-172207D01*
X3332395Y-167048D01*
X3324605Y-162551D01*
X3316454Y-158750D01*
X3308003Y-155674D01*
X3299315Y-153346D01*
X3290457Y-151784D01*
X3281497Y-151000D01*
D02*
G37*
G36*
X1202809Y-1237500D02*
X1197193D01*
X1191612Y-1238129D01*
X1186137Y-1239378D01*
X1180837Y-1241233D01*
X1175777Y-1243670D01*
X1171022Y-1246657D01*
X1166631Y-1250159D01*
X1162660Y-1254130D01*
X1159159Y-1258520D01*
X1156171Y-1263276D01*
X1153734Y-1268335D01*
X1151880Y-1273636D01*
X1150630Y-1279111D01*
X1150001Y-1284692D01*
Y-1290308D01*
X1150630Y-1295888D01*
X1151880Y-1301363D01*
X1153734Y-1306664D01*
X1156171Y-1311724D01*
X1159159Y-1316479D01*
X1162660Y-1320869D01*
X1166631Y-1324840D01*
X1171022Y-1328342D01*
X1175777Y-1331330D01*
X1180837Y-1333766D01*
X1186137Y-1335621D01*
X1191612Y-1336871D01*
X1197193Y-1337499D01*
X1202809D01*
X1208390Y-1336871D01*
X1213864Y-1335621D01*
X1219165Y-1333766D01*
X1224225Y-1331330D01*
X1228980Y-1328342D01*
X1233371Y-1324840D01*
X1237342Y-1320869D01*
X1240843Y-1316479D01*
X1243831Y-1311724D01*
X1246268Y-1306664D01*
X1248122Y-1301363D01*
X1249372Y-1295888D01*
X1250001Y-1290308D01*
Y-1284692D01*
X1249372Y-1279111D01*
X1248122Y-1273636D01*
X1246268Y-1268335D01*
X1243831Y-1263276D01*
X1240843Y-1258520D01*
X1237342Y-1254130D01*
X1233371Y-1250159D01*
X1228980Y-1246657D01*
X1224225Y-1243670D01*
X1219165Y-1241233D01*
X1213864Y-1239378D01*
X1208390Y-1238129D01*
X1202809Y-1237500D01*
D02*
G37*
G36*
X950308Y-1275000D02*
X944693D01*
X939112Y-1275629D01*
X933637Y-1276878D01*
X928336Y-1278733D01*
X923277Y-1281170D01*
X918521Y-1284157D01*
X914131Y-1287659D01*
X910160Y-1291630D01*
X906658Y-1296021D01*
X903671Y-1300776D01*
X901234Y-1305835D01*
X899379Y-1311136D01*
X898130Y-1316611D01*
X897501Y-1322192D01*
Y-1327808D01*
X898130Y-1333388D01*
X899379Y-1338863D01*
X901234Y-1344164D01*
X903671Y-1349224D01*
X906658Y-1353979D01*
X910160Y-1358369D01*
X914131Y-1362340D01*
X918521Y-1365842D01*
X923277Y-1368830D01*
X928336Y-1371266D01*
X933637Y-1373121D01*
X939112Y-1374371D01*
X944693Y-1375000D01*
X950308D01*
X955889Y-1374371D01*
X961364Y-1373121D01*
X966665Y-1371266D01*
X971724Y-1368830D01*
X976480Y-1365842D01*
X980870Y-1362340D01*
X984841Y-1358369D01*
X988343Y-1353979D01*
X991331Y-1349224D01*
X993767Y-1344164D01*
X995622Y-1338863D01*
X996872Y-1333388D01*
X997500Y-1327808D01*
Y-1322192D01*
X996872Y-1316611D01*
X995622Y-1311136D01*
X993767Y-1305835D01*
X991331Y-1300776D01*
X988343Y-1296021D01*
X984841Y-1291630D01*
X980870Y-1287659D01*
X976480Y-1284157D01*
X971724Y-1281170D01*
X966665Y-1278733D01*
X961364Y-1276878D01*
X955889Y-1275629D01*
X950308Y-1275000D01*
D02*
G37*
G36*
X122807Y220000D02*
X117192D01*
X111611Y219371D01*
X106136Y218121D01*
X100835Y216267D01*
X95776Y213830D01*
X91020Y210842D01*
X86630Y207341D01*
X82659Y203370D01*
X79157Y198979D01*
X76170Y194224D01*
X73733Y189164D01*
X71878Y183863D01*
X70629Y178389D01*
X70000Y172808D01*
Y167192D01*
X70629Y161611D01*
X71878Y156136D01*
X73733Y150836D01*
X76170Y145776D01*
X79157Y141021D01*
X82659Y136630D01*
X86630Y132659D01*
X91020Y129158D01*
X95776Y126170D01*
X100835Y123733D01*
X106136Y121879D01*
X111611Y120629D01*
X117192Y120000D01*
X122807D01*
X128388Y120629D01*
X133863Y121879D01*
X139164Y123733D01*
X144223Y126170D01*
X148979Y129158D01*
X153369Y132659D01*
X157340Y136630D01*
X160842Y141021D01*
X163829Y145776D01*
X166266Y150836D01*
X168121Y156136D01*
X169371Y161611D01*
X169999Y167192D01*
Y172808D01*
X169371Y178389D01*
X168121Y183863D01*
X166266Y189164D01*
X163829Y194224D01*
X160842Y198979D01*
X157340Y203370D01*
X153369Y207341D01*
X148979Y210842D01*
X144223Y213830D01*
X139164Y216267D01*
X133863Y218121D01*
X128388Y219371D01*
X122807Y220000D01*
D02*
G37*
G36*
X861308Y170000D02*
X855692D01*
X850111Y169371D01*
X844636Y168121D01*
X839336Y166267D01*
X834276Y163830D01*
X829521Y160842D01*
X825130Y157341D01*
X821159Y153370D01*
X817658Y148979D01*
X814670Y144224D01*
X812233Y139164D01*
X810379Y133864D01*
X809129Y128389D01*
X808500Y122808D01*
Y117192D01*
X809129Y111611D01*
X810379Y106136D01*
X812233Y100836D01*
X814670Y95776D01*
X817658Y91021D01*
X821159Y86630D01*
X825130Y82659D01*
X829521Y79158D01*
X834276Y76170D01*
X839336Y73733D01*
X844636Y71879D01*
X850111Y70629D01*
X855692Y70000D01*
X861308D01*
X866889Y70629D01*
X872364Y71879D01*
X877664Y73733D01*
X882724Y76170D01*
X887479Y79158D01*
X891870Y82659D01*
X895841Y86630D01*
X899342Y91021D01*
X902330Y95776D01*
X904767Y100836D01*
X906621Y106136D01*
X907871Y111611D01*
X908500Y117192D01*
Y122808D01*
X907871Y128389D01*
X906621Y133864D01*
X904767Y139164D01*
X902330Y144224D01*
X899342Y148979D01*
X895841Y153370D01*
X891870Y157341D01*
X887479Y160842D01*
X882724Y163830D01*
X877664Y166267D01*
X872364Y168121D01*
X866889Y169371D01*
X861308Y170000D01*
D02*
G37*
G36*
X122808Y100000D02*
X117192D01*
X111611Y99371D01*
X106136Y98121D01*
X100836Y96267D01*
X95776Y93830D01*
X91021Y90842D01*
X86630Y87341D01*
X82659Y83370D01*
X79158Y78979D01*
X76170Y74224D01*
X73733Y69164D01*
X71879Y63863D01*
X70629Y58389D01*
X70000Y52808D01*
Y47192D01*
X70629Y41611D01*
X71879Y36136D01*
X73733Y30836D01*
X76170Y25776D01*
X79158Y21021D01*
X82659Y16630D01*
X86630Y12659D01*
X91021Y9158D01*
X95776Y6170D01*
X100836Y3733D01*
X106136Y1879D01*
X111611Y629D01*
X117192Y0D01*
X122808D01*
X128389Y629D01*
X133864Y1879D01*
X139164Y3733D01*
X144224Y6170D01*
X148979Y9158D01*
X153370Y12659D01*
X157341Y16630D01*
X160842Y21021D01*
X163830Y25776D01*
X166267Y30836D01*
X168121Y36136D01*
X169371Y41611D01*
X170000Y47192D01*
Y52808D01*
X169371Y58389D01*
X168121Y63863D01*
X166267Y69164D01*
X163830Y74224D01*
X160842Y78979D01*
X157341Y83370D01*
X153370Y87341D01*
X148979Y90842D01*
X144224Y93830D01*
X139164Y96267D01*
X133864Y98121D01*
X128389Y99371D01*
X122808Y100000D01*
D02*
G37*
G36*
X-137192D02*
X-142808D01*
X-148388Y99371D01*
X-153863Y98121D01*
X-159164Y96267D01*
X-164224Y93830D01*
X-168979Y90842D01*
X-173369Y87341D01*
X-177341Y83370D01*
X-180842Y78979D01*
X-183830Y74224D01*
X-186266Y69164D01*
X-188121Y63863D01*
X-189371Y58389D01*
X-190000Y52808D01*
Y47192D01*
X-189371Y41611D01*
X-188121Y36136D01*
X-186266Y30836D01*
X-183830Y25776D01*
X-180842Y21021D01*
X-177341Y16630D01*
X-173369Y12659D01*
X-168979Y9158D01*
X-164224Y6170D01*
X-159164Y3733D01*
X-153863Y1879D01*
X-148388Y629D01*
X-142808Y0D01*
X-137192D01*
X-131611Y629D01*
X-126136Y1879D01*
X-120835Y3733D01*
X-115776Y6170D01*
X-111021Y9158D01*
X-106630Y12659D01*
X-102659Y16630D01*
X-99158Y21021D01*
X-96170Y25776D01*
X-93733Y30836D01*
X-91878Y36136D01*
X-90629Y41611D01*
X-90000Y47192D01*
Y52808D01*
X-90629Y58389D01*
X-91878Y63863D01*
X-93733Y69164D01*
X-96170Y74224D01*
X-99158Y78979D01*
X-102659Y83370D01*
X-106630Y87341D01*
X-111021Y90842D01*
X-115776Y93830D01*
X-120835Y96267D01*
X-126136Y98121D01*
X-131611Y99371D01*
X-137192Y100000D01*
D02*
G37*
G36*
X122808Y-20000D02*
X117193D01*
X111612Y-20629D01*
X106137Y-21879D01*
X100836Y-23734D01*
X95777Y-26170D01*
X91021Y-29158D01*
X86631Y-32659D01*
X82660Y-36630D01*
X79158Y-41021D01*
X76171Y-45776D01*
X73734Y-50836D01*
X71879Y-56137D01*
X70630Y-61612D01*
X70001Y-67192D01*
Y-72808D01*
X70630Y-78389D01*
X71879Y-83864D01*
X73734Y-89164D01*
X76171Y-94224D01*
X79158Y-98979D01*
X82660Y-103370D01*
X86631Y-107341D01*
X91021Y-110842D01*
X95777Y-113830D01*
X100836Y-116267D01*
X106137Y-118121D01*
X111612Y-119371D01*
X117193Y-120000D01*
X122808D01*
X128389Y-119371D01*
X133864Y-118121D01*
X139165Y-116267D01*
X144225Y-113830D01*
X148980Y-110842D01*
X153370Y-107341D01*
X157341Y-103370D01*
X160843Y-98979D01*
X163831Y-94224D01*
X166267Y-89164D01*
X168122Y-83864D01*
X169372Y-78389D01*
X170000Y-72808D01*
Y-67192D01*
X169372Y-61612D01*
X168122Y-56137D01*
X166267Y-50836D01*
X163831Y-45776D01*
X160843Y-41021D01*
X157341Y-36630D01*
X153370Y-32659D01*
X148980Y-29158D01*
X144225Y-26170D01*
X139165Y-23734D01*
X133864Y-21879D01*
X128389Y-20629D01*
X122808Y-20000D01*
D02*
G37*
G36*
X-137192D02*
X-142808D01*
X-148389Y-20629D01*
X-153864Y-21879D01*
X-159165Y-23734D01*
X-164224Y-26170D01*
X-168979Y-29158D01*
X-173370Y-32659D01*
X-177341Y-36630D01*
X-180842Y-41021D01*
X-183830Y-45776D01*
X-186267Y-50836D01*
X-188122Y-56137D01*
X-189371Y-61612D01*
X-190000Y-67192D01*
Y-72808D01*
X-189371Y-78389D01*
X-188122Y-83864D01*
X-186267Y-89164D01*
X-183830Y-94224D01*
X-180842Y-98979D01*
X-177341Y-103370D01*
X-173370Y-107341D01*
X-168979Y-110842D01*
X-164224Y-113830D01*
X-159165Y-116267D01*
X-153864Y-118121D01*
X-148389Y-119371D01*
X-142808Y-120000D01*
X-137192D01*
X-131612Y-119371D01*
X-126137Y-118121D01*
X-120836Y-116267D01*
X-115776Y-113830D01*
X-111021Y-110842D01*
X-106630Y-107341D01*
X-102659Y-103370D01*
X-99158Y-98979D01*
X-96170Y-94224D01*
X-93734Y-89164D01*
X-91879Y-83864D01*
X-90629Y-78389D01*
X-90000Y-72808D01*
Y-67192D01*
X-90629Y-61612D01*
X-91879Y-56137D01*
X-93734Y-50836D01*
X-96170Y-45776D01*
X-99158Y-41021D01*
X-102659Y-36630D01*
X-106630Y-32659D01*
X-111021Y-29158D01*
X-115776Y-26170D01*
X-120836Y-23734D01*
X-126137Y-21879D01*
X-131612Y-20629D01*
X-137192Y-20000D01*
D02*
G37*
G36*
X-137193Y-140000D02*
X-142808D01*
X-148389Y-140629D01*
X-153864Y-141878D01*
X-159165Y-143733D01*
X-164224Y-146170D01*
X-168980Y-149157D01*
X-173370Y-152659D01*
X-177341Y-156630D01*
X-180843Y-161021D01*
X-183830Y-165776D01*
X-186267Y-170835D01*
X-188122Y-176136D01*
X-189371Y-181611D01*
X-190000Y-187192D01*
Y-192808D01*
X-189371Y-198388D01*
X-188122Y-203863D01*
X-186267Y-209164D01*
X-183830Y-214224D01*
X-180843Y-218979D01*
X-177341Y-223369D01*
X-173370Y-227340D01*
X-168980Y-230842D01*
X-164224Y-233830D01*
X-159165Y-236266D01*
X-153864Y-238121D01*
X-148389Y-239371D01*
X-142808Y-240000D01*
X-137193D01*
X-131612Y-239371D01*
X-126137Y-238121D01*
X-120836Y-236266D01*
X-115777Y-233830D01*
X-111021Y-230842D01*
X-106631Y-227340D01*
X-102660Y-223369D01*
X-99158Y-218979D01*
X-96170Y-214224D01*
X-93734Y-209164D01*
X-91879Y-203863D01*
X-90629Y-198388D01*
X-90001Y-192808D01*
Y-187192D01*
X-90629Y-181611D01*
X-91879Y-176136D01*
X-93734Y-170835D01*
X-96170Y-165776D01*
X-99158Y-161021D01*
X-102660Y-156630D01*
X-106631Y-152659D01*
X-111021Y-149157D01*
X-115777Y-146170D01*
X-120836Y-143733D01*
X-126137Y-141878D01*
X-131612Y-140629D01*
X-137193Y-140000D01*
D02*
G37*
G36*
X122808Y-140000D02*
X117192D01*
X111611Y-140629D01*
X106136Y-141879D01*
X100836Y-143733D01*
X95776Y-146170D01*
X91021Y-149158D01*
X86630Y-152659D01*
X82659Y-156630D01*
X79158Y-161021D01*
X76170Y-165776D01*
X73733Y-170836D01*
X71879Y-176136D01*
X70629Y-181611D01*
X70000Y-187192D01*
Y-192808D01*
X70629Y-198388D01*
X71879Y-203863D01*
X73733Y-209164D01*
X76170Y-214224D01*
X79158Y-218979D01*
X82659Y-223370D01*
X86630Y-227341D01*
X91021Y-230842D01*
X95776Y-233830D01*
X100836Y-236266D01*
X106136Y-238121D01*
X111611Y-239371D01*
X117192Y-240000D01*
X122808D01*
X128389Y-239371D01*
X133864Y-238121D01*
X139164Y-236266D01*
X144224Y-233830D01*
X148979Y-230842D01*
X153370Y-227341D01*
X157341Y-223370D01*
X160842Y-218979D01*
X163830Y-214224D01*
X166267Y-209164D01*
X168121Y-203863D01*
X169371Y-198388D01*
X170000Y-192808D01*
Y-187192D01*
X169371Y-181611D01*
X168121Y-176136D01*
X166267Y-170836D01*
X163830Y-165776D01*
X160842Y-161021D01*
X157341Y-156630D01*
X153370Y-152659D01*
X148979Y-149158D01*
X144224Y-146170D01*
X139164Y-143733D01*
X133864Y-141879D01*
X128389Y-140629D01*
X122808Y-140000D01*
D02*
G37*
G36*
X1107808Y-210000D02*
X1102192D01*
X1096611Y-210629D01*
X1091136Y-211879D01*
X1085836Y-213733D01*
X1080776Y-216170D01*
X1076021Y-219158D01*
X1071630Y-222659D01*
X1067659Y-226630D01*
X1064158Y-231021D01*
X1061170Y-235776D01*
X1058733Y-240836D01*
X1056879Y-246136D01*
X1055629Y-251611D01*
X1055000Y-257192D01*
Y-262808D01*
X1055629Y-268389D01*
X1056879Y-273864D01*
X1058733Y-279164D01*
X1061170Y-284224D01*
X1064158Y-288979D01*
X1067659Y-293370D01*
X1071630Y-297341D01*
X1076021Y-300842D01*
X1080776Y-303830D01*
X1085836Y-306267D01*
X1091136Y-308121D01*
X1096611Y-309371D01*
X1102192Y-310000D01*
X1107808D01*
X1113388Y-309371D01*
X1118863Y-308121D01*
X1124164Y-306267D01*
X1129224Y-303830D01*
X1133979Y-300842D01*
X1138370Y-297341D01*
X1142341Y-293370D01*
X1145842Y-288979D01*
X1148830Y-284224D01*
X1151266Y-279164D01*
X1153121Y-273864D01*
X1154371Y-268389D01*
X1155000Y-262808D01*
Y-257192D01*
X1154371Y-251611D01*
X1153121Y-246136D01*
X1151266Y-240836D01*
X1148830Y-235776D01*
X1145842Y-231021D01*
X1142341Y-226630D01*
X1138370Y-222659D01*
X1133979Y-219158D01*
X1129224Y-216170D01*
X1124164Y-213733D01*
X1118863Y-211879D01*
X1113388Y-210629D01*
X1107808Y-210000D01*
D02*
G37*
G36*
X861308D02*
X855692D01*
X850111Y-210629D01*
X844636Y-211879D01*
X839336Y-213733D01*
X834276Y-216170D01*
X829521Y-219158D01*
X825130Y-222659D01*
X821159Y-226630D01*
X817658Y-231021D01*
X814670Y-235776D01*
X812233Y-240836D01*
X810379Y-246136D01*
X809129Y-251611D01*
X808500Y-257192D01*
Y-262808D01*
X809129Y-268389D01*
X810379Y-273864D01*
X812233Y-279164D01*
X814670Y-284224D01*
X817658Y-288979D01*
X821159Y-293370D01*
X825130Y-297341D01*
X829521Y-300842D01*
X834276Y-303830D01*
X839336Y-306267D01*
X844636Y-308121D01*
X850111Y-309371D01*
X855692Y-310000D01*
X861308D01*
X866889Y-309371D01*
X872364Y-308121D01*
X877664Y-306267D01*
X882724Y-303830D01*
X887479Y-300842D01*
X891870Y-297341D01*
X895841Y-293370D01*
X899342Y-288979D01*
X902330Y-284224D01*
X904767Y-279164D01*
X906621Y-273864D01*
X907871Y-268389D01*
X908500Y-262808D01*
Y-257192D01*
X907871Y-251611D01*
X906621Y-246136D01*
X904767Y-240836D01*
X902330Y-235776D01*
X899342Y-231021D01*
X895841Y-226630D01*
X891870Y-222659D01*
X887479Y-219158D01*
X882724Y-216170D01*
X877664Y-213733D01*
X872364Y-211879D01*
X866889Y-210629D01*
X861308Y-210000D01*
D02*
G37*
G36*
X1302808Y-328500D02*
X1297192D01*
X1291611Y-329129D01*
X1286136Y-330379D01*
X1280836Y-332233D01*
X1275776Y-334670D01*
X1271021Y-337658D01*
X1266630Y-341159D01*
X1262659Y-345130D01*
X1259158Y-349521D01*
X1256170Y-354276D01*
X1255457Y-355755D01*
X1254796Y-356013D01*
X1245204D01*
X1244542Y-355755D01*
X1243830Y-354276D01*
X1240842Y-349521D01*
X1237341Y-345130D01*
X1233370Y-341159D01*
X1228979Y-337658D01*
X1224224Y-334670D01*
X1219164Y-332233D01*
X1213863Y-330379D01*
X1208388Y-329129D01*
X1202808Y-328500D01*
X1197192D01*
X1191611Y-329129D01*
X1186136Y-330379D01*
X1180836Y-332233D01*
X1175776Y-334670D01*
X1171021Y-337658D01*
X1166630Y-341159D01*
X1162659Y-345130D01*
X1159158Y-349521D01*
X1156170Y-354276D01*
X1153733Y-359336D01*
X1151879Y-364636D01*
X1150629Y-370111D01*
X1150000Y-375692D01*
Y-381308D01*
X1150629Y-386888D01*
X1151879Y-392363D01*
X1153733Y-397664D01*
X1156170Y-402724D01*
X1159158Y-407479D01*
X1162659Y-411870D01*
X1166630Y-415841D01*
X1171021Y-419342D01*
X1175776Y-422330D01*
X1180836Y-424766D01*
X1186136Y-426621D01*
X1191611Y-427871D01*
X1197192Y-428500D01*
X1202808D01*
X1208388Y-427871D01*
X1213863Y-426621D01*
X1219164Y-424766D01*
X1224224Y-422330D01*
X1228979Y-419342D01*
X1233370Y-415841D01*
X1237341Y-411870D01*
X1240842Y-407479D01*
X1243830Y-402724D01*
X1244542Y-401244D01*
X1245204Y-400986D01*
X1254796D01*
X1255457Y-401244D01*
X1256170Y-402724D01*
X1259158Y-407479D01*
X1262659Y-411870D01*
X1266630Y-415841D01*
X1271021Y-419342D01*
X1275776Y-422330D01*
X1280836Y-424766D01*
X1286136Y-426621D01*
X1291611Y-427871D01*
X1297192Y-428500D01*
X1302808D01*
X1308389Y-427871D01*
X1313864Y-426621D01*
X1319164Y-424766D01*
X1324224Y-422330D01*
X1328979Y-419342D01*
X1333370Y-415841D01*
X1337341Y-411870D01*
X1340842Y-407479D01*
X1343830Y-402724D01*
X1346267Y-397664D01*
X1348121Y-392363D01*
X1349371Y-386888D01*
X1350000Y-381308D01*
Y-375692D01*
X1349371Y-370111D01*
X1348121Y-364636D01*
X1346267Y-359336D01*
X1343830Y-354276D01*
X1340842Y-349521D01*
X1337341Y-345130D01*
X1333370Y-341159D01*
X1328979Y-337658D01*
X1324224Y-334670D01*
X1319164Y-332233D01*
X1313864Y-330379D01*
X1308389Y-329129D01*
X1302808Y-328500D01*
D02*
G37*
G36*
X122807Y-260000D02*
X117192D01*
X111611Y-260629D01*
X106136Y-261879D01*
X100835Y-263733D01*
X95776Y-266170D01*
X91020Y-269158D01*
X86630Y-272659D01*
X82659Y-276630D01*
X79157Y-281021D01*
X76170Y-285776D01*
X73733Y-290836D01*
X71878Y-296136D01*
X70629Y-301611D01*
X70000Y-307192D01*
Y-312808D01*
X70629Y-318388D01*
X71878Y-323863D01*
X73733Y-329164D01*
X76170Y-334224D01*
X79157Y-338979D01*
X82659Y-343370D01*
X86630Y-347341D01*
X91020Y-350842D01*
X95776Y-353830D01*
X100835Y-356266D01*
X106136Y-358121D01*
X111611Y-359371D01*
X117192Y-360000D01*
X122807D01*
X128388Y-359371D01*
X133863Y-358121D01*
X139164Y-356266D01*
X144223Y-353830D01*
X148979Y-350842D01*
X153369Y-347341D01*
X157340Y-343370D01*
X160842Y-338979D01*
X163829Y-334224D01*
X166266Y-329164D01*
X168121Y-323863D01*
X169371Y-318388D01*
X169999Y-312808D01*
Y-307192D01*
X169371Y-301611D01*
X168121Y-296136D01*
X166266Y-290836D01*
X163829Y-285776D01*
X160842Y-281021D01*
X157340Y-276630D01*
X153369Y-272659D01*
X148979Y-269158D01*
X144223Y-266170D01*
X139164Y-263733D01*
X133863Y-261879D01*
X128388Y-260629D01*
X122807Y-260000D01*
D02*
G37*
G36*
X-679692D02*
X-685308D01*
X-690889Y-260629D01*
X-696364Y-261879D01*
X-701665Y-263733D01*
X-706724Y-266170D01*
X-711479Y-269158D01*
X-715870Y-272659D01*
X-719841Y-276630D01*
X-723342Y-281021D01*
X-726330Y-285776D01*
X-728767Y-290836D01*
X-730622Y-296136D01*
X-731871Y-301611D01*
X-732500Y-307192D01*
Y-312808D01*
X-731871Y-318388D01*
X-730622Y-323863D01*
X-728767Y-329164D01*
X-726330Y-334224D01*
X-723342Y-338979D01*
X-719841Y-343370D01*
X-715870Y-347341D01*
X-711479Y-350842D01*
X-706724Y-353830D01*
X-701665Y-356266D01*
X-696364Y-358121D01*
X-690889Y-359371D01*
X-685308Y-360000D01*
X-679692D01*
X-674112Y-359371D01*
X-668637Y-358121D01*
X-663336Y-356266D01*
X-658276Y-353830D01*
X-653521Y-350842D01*
X-649131Y-347341D01*
X-645159Y-343370D01*
X-641658Y-338979D01*
X-638670Y-334224D01*
X-636234Y-329164D01*
X-634379Y-323863D01*
X-633129Y-318388D01*
X-632500Y-312808D01*
Y-307192D01*
X-633129Y-301611D01*
X-634379Y-296136D01*
X-636234Y-290836D01*
X-638670Y-285776D01*
X-641658Y-281021D01*
X-645159Y-276630D01*
X-649131Y-272659D01*
X-653521Y-269158D01*
X-658276Y-266170D01*
X-663336Y-263733D01*
X-668637Y-261879D01*
X-674112Y-260629D01*
X-679692Y-260000D01*
D02*
G37*
G36*
X122807Y-379999D02*
X117191D01*
X111611Y-380628D01*
X106136Y-381878D01*
X100835Y-383733D01*
X95775Y-386169D01*
X91020Y-389157D01*
X86629Y-392659D01*
X82658Y-396630D01*
X79157Y-401020D01*
X76169Y-405775D01*
X73733Y-410835D01*
X71878Y-416136D01*
X70628Y-421611D01*
X69999Y-427191D01*
Y-432807D01*
X70628Y-438388D01*
X71878Y-443863D01*
X73733Y-449164D01*
X76169Y-454223D01*
X79157Y-458979D01*
X82658Y-463369D01*
X86629Y-467340D01*
X91020Y-470842D01*
X95775Y-473829D01*
X100835Y-476266D01*
X106136Y-478121D01*
X111611Y-479370D01*
X117191Y-479999D01*
X122807D01*
X128388Y-479370D01*
X133863Y-478121D01*
X139164Y-476266D01*
X144223Y-473829D01*
X148978Y-470842D01*
X153369Y-467340D01*
X157340Y-463369D01*
X160841Y-458979D01*
X163829Y-454223D01*
X166266Y-449164D01*
X168121Y-443863D01*
X169370Y-438388D01*
X169999Y-432807D01*
Y-427191D01*
X169370Y-421611D01*
X168121Y-416136D01*
X166266Y-410835D01*
X163829Y-405775D01*
X160841Y-401020D01*
X157340Y-396630D01*
X153369Y-392659D01*
X148978Y-389157D01*
X144223Y-386169D01*
X139164Y-383733D01*
X133863Y-381878D01*
X128388Y-380628D01*
X122807Y-379999D01*
D02*
G37*
G36*
X-467192Y-502500D02*
X-472808D01*
X-478389Y-503129D01*
X-483864Y-504378D01*
X-489165Y-506233D01*
X-494224Y-508670D01*
X-498979Y-511658D01*
X-503370Y-515159D01*
X-507341Y-519130D01*
X-510843Y-523521D01*
X-513830Y-528276D01*
X-516267Y-533335D01*
X-518122Y-538636D01*
X-519371Y-544111D01*
X-520000Y-549692D01*
Y-555308D01*
X-519371Y-560888D01*
X-518122Y-566363D01*
X-516267Y-571664D01*
X-513830Y-576724D01*
X-510843Y-581479D01*
X-507341Y-585870D01*
X-503370Y-589841D01*
X-498979Y-593342D01*
X-494224Y-596330D01*
X-489165Y-598766D01*
X-483864Y-600621D01*
X-478389Y-601871D01*
X-472808Y-602500D01*
X-467192D01*
X-461612Y-601871D01*
X-456137Y-600621D01*
X-450836Y-598766D01*
X-445776Y-596330D01*
X-441021Y-593342D01*
X-436631Y-589841D01*
X-432660Y-585870D01*
X-429158Y-581479D01*
X-426170Y-576724D01*
X-423734Y-571664D01*
X-421879Y-566363D01*
X-420629Y-560888D01*
X-420000Y-555308D01*
Y-549692D01*
X-420629Y-544111D01*
X-421879Y-538636D01*
X-423734Y-533335D01*
X-426170Y-528276D01*
X-429158Y-523521D01*
X-432660Y-519130D01*
X-436631Y-515159D01*
X-441021Y-511658D01*
X-445776Y-508670D01*
X-450836Y-506233D01*
X-456137Y-504378D01*
X-461612Y-503129D01*
X-467192Y-502500D01*
D02*
G37*
G36*
X-587192Y-505000D02*
X-592808D01*
X-598389Y-505629D01*
X-603864Y-506878D01*
X-609165Y-508733D01*
X-614224Y-511170D01*
X-618979Y-514157D01*
X-623370Y-517659D01*
X-627341Y-521630D01*
X-630843Y-526021D01*
X-633830Y-530776D01*
X-636267Y-535835D01*
X-638122Y-541136D01*
X-639371Y-546611D01*
X-640000Y-552192D01*
Y-557808D01*
X-639371Y-563388D01*
X-638122Y-568863D01*
X-636267Y-574164D01*
X-633830Y-579224D01*
X-630843Y-583979D01*
X-627341Y-588369D01*
X-623370Y-592340D01*
X-618979Y-595842D01*
X-614224Y-598830D01*
X-609165Y-601266D01*
X-603864Y-603121D01*
X-598389Y-604371D01*
X-592808Y-605000D01*
X-587192D01*
X-581612Y-604371D01*
X-576137Y-603121D01*
X-570836Y-601266D01*
X-565776Y-598830D01*
X-561021Y-595842D01*
X-556631Y-592340D01*
X-552660Y-588369D01*
X-549158Y-583979D01*
X-546170Y-579224D01*
X-543734Y-574164D01*
X-541879Y-568863D01*
X-540629Y-563388D01*
X-540000Y-557808D01*
Y-552192D01*
X-540629Y-546611D01*
X-541879Y-541136D01*
X-543734Y-535835D01*
X-546170Y-530776D01*
X-549158Y-526021D01*
X-552660Y-521630D01*
X-556631Y-517659D01*
X-561021Y-514157D01*
X-565776Y-511170D01*
X-570836Y-508733D01*
X-576137Y-506878D01*
X-581612Y-505629D01*
X-587192Y-505000D01*
D02*
G37*
G36*
X897808Y-550000D02*
X892192D01*
X886611Y-550629D01*
X881136Y-551879D01*
X875836Y-553733D01*
X870776Y-556170D01*
X866021Y-559158D01*
X861630Y-562659D01*
X857659Y-566630D01*
X854158Y-571021D01*
X851170Y-575776D01*
X848733Y-580836D01*
X846879Y-586136D01*
X845629Y-591611D01*
X845000Y-597192D01*
Y-602808D01*
X845629Y-608389D01*
X846879Y-613864D01*
X848733Y-619164D01*
X851170Y-624224D01*
X854158Y-628979D01*
X857659Y-633370D01*
X861630Y-637341D01*
X866021Y-640842D01*
X870776Y-643830D01*
X875836Y-646267D01*
X881136Y-648121D01*
X886611Y-649371D01*
X892192Y-650000D01*
X897808D01*
X903389Y-649371D01*
X908864Y-648121D01*
X914164Y-646267D01*
X919224Y-643830D01*
X923979Y-640842D01*
X928370Y-637341D01*
X932341Y-633370D01*
X935842Y-628979D01*
X938830Y-624224D01*
X941267Y-619164D01*
X943121Y-613864D01*
X944371Y-608389D01*
X945000Y-602808D01*
Y-597192D01*
X944371Y-591611D01*
X943121Y-586136D01*
X941267Y-580836D01*
X938830Y-575776D01*
X935842Y-571021D01*
X932341Y-566630D01*
X928370Y-562659D01*
X923979Y-559158D01*
X919224Y-556170D01*
X914164Y-553733D01*
X908864Y-551879D01*
X903389Y-550629D01*
X897808Y-550000D01*
D02*
G37*
G36*
X-757192Y-615000D02*
X-762808D01*
X-768389Y-615628D01*
X-773864Y-616878D01*
X-779164Y-618733D01*
X-784224Y-621169D01*
X-788979Y-624157D01*
X-793370Y-627659D01*
X-797341Y-631630D01*
X-800842Y-636020D01*
X-803830Y-640775D01*
X-806267Y-645835D01*
X-808121Y-651136D01*
X-809371Y-656611D01*
X-810000Y-662191D01*
Y-667807D01*
X-809371Y-673388D01*
X-808121Y-678863D01*
X-806267Y-684164D01*
X-803830Y-689223D01*
X-800842Y-693979D01*
X-797341Y-698369D01*
X-793370Y-702340D01*
X-788979Y-705842D01*
X-784224Y-708829D01*
X-779164Y-711266D01*
X-773864Y-713121D01*
X-768389Y-714370D01*
X-762808Y-714999D01*
X-757192D01*
X-751611Y-714370D01*
X-746136Y-713121D01*
X-740836Y-711266D01*
X-735776Y-708829D01*
X-731021Y-705842D01*
X-726630Y-702340D01*
X-722659Y-698369D01*
X-719158Y-693979D01*
X-716170Y-689223D01*
X-713733Y-684164D01*
X-711879Y-678863D01*
X-710629Y-673388D01*
X-710000Y-667807D01*
Y-662191D01*
X-710629Y-656611D01*
X-711879Y-651136D01*
X-713733Y-645835D01*
X-716170Y-640775D01*
X-719158Y-636020D01*
X-722659Y-631630D01*
X-726630Y-627659D01*
X-731021Y-624157D01*
X-735776Y-621169D01*
X-740836Y-618733D01*
X-746136Y-616878D01*
X-751611Y-615628D01*
X-757192Y-615000D01*
D02*
G37*
G36*
X-867192D02*
X-872808D01*
X-878389Y-615628D01*
X-883864Y-616878D01*
X-889164Y-618733D01*
X-894224Y-621169D01*
X-898979Y-624157D01*
X-903370Y-627659D01*
X-907341Y-631630D01*
X-910842Y-636020D01*
X-913830Y-640775D01*
X-916267Y-645835D01*
X-918121Y-651136D01*
X-919371Y-656611D01*
X-920000Y-662191D01*
Y-667807D01*
X-919371Y-673388D01*
X-918121Y-678863D01*
X-916267Y-684164D01*
X-913830Y-689223D01*
X-910842Y-693979D01*
X-907341Y-698369D01*
X-903370Y-702340D01*
X-898979Y-705842D01*
X-894224Y-708829D01*
X-889164Y-711266D01*
X-883864Y-713121D01*
X-878389Y-714370D01*
X-872808Y-714999D01*
X-867192D01*
X-861611Y-714370D01*
X-856136Y-713121D01*
X-850836Y-711266D01*
X-845776Y-708829D01*
X-841021Y-705842D01*
X-836630Y-702340D01*
X-832659Y-698369D01*
X-829158Y-693979D01*
X-826170Y-689223D01*
X-823733Y-684164D01*
X-821879Y-678863D01*
X-820629Y-673388D01*
X-820000Y-667807D01*
Y-662191D01*
X-820629Y-656611D01*
X-821879Y-651136D01*
X-823733Y-645835D01*
X-826170Y-640775D01*
X-829158Y-636020D01*
X-832659Y-631630D01*
X-836630Y-627659D01*
X-841021Y-624157D01*
X-845776Y-621169D01*
X-850836Y-618733D01*
X-856136Y-616878D01*
X-861611Y-615628D01*
X-867192Y-615000D01*
D02*
G37*
G36*
X-962192Y-745000D02*
X-967808D01*
X-973389Y-745629D01*
X-978864Y-746879D01*
X-984164Y-748733D01*
X-989224Y-751170D01*
X-993979Y-754158D01*
X-998370Y-757659D01*
X-1002341Y-761630D01*
X-1005842Y-766021D01*
X-1008830Y-770776D01*
X-1011267Y-775836D01*
X-1013121Y-781136D01*
X-1014371Y-786611D01*
X-1015000Y-792192D01*
Y-797808D01*
X-1014371Y-803389D01*
X-1013121Y-808864D01*
X-1011267Y-814164D01*
X-1008830Y-819224D01*
X-1005842Y-823979D01*
X-1002341Y-828370D01*
X-998370Y-832341D01*
X-993979Y-835842D01*
X-989224Y-838830D01*
X-984164Y-841267D01*
X-978864Y-843121D01*
X-973389Y-844371D01*
X-967808Y-845000D01*
X-962192D01*
X-956611Y-844371D01*
X-951137Y-843121D01*
X-945836Y-841267D01*
X-940776Y-838830D01*
X-936021Y-835842D01*
X-931630Y-832341D01*
X-927659Y-828370D01*
X-924158Y-823979D01*
X-921170Y-819224D01*
X-918733Y-814164D01*
X-916879Y-808864D01*
X-915629Y-803389D01*
X-915000Y-797808D01*
Y-792192D01*
X-915629Y-786611D01*
X-916879Y-781136D01*
X-918733Y-775836D01*
X-921170Y-770776D01*
X-924158Y-766021D01*
X-927659Y-761630D01*
X-931630Y-757659D01*
X-936021Y-754158D01*
X-940776Y-751170D01*
X-945836Y-748733D01*
X-951137Y-746879D01*
X-956611Y-745629D01*
X-962192Y-745000D01*
D02*
G37*
G36*
X-19692Y-795000D02*
X-25308D01*
X-30888Y-795629D01*
X-36363Y-796879D01*
X-41664Y-798733D01*
X-46724Y-801170D01*
X-51479Y-804158D01*
X-55869Y-807659D01*
X-59840Y-811630D01*
X-63342Y-816021D01*
X-66330Y-820776D01*
X-68766Y-825836D01*
X-70621Y-831137D01*
X-71871Y-836611D01*
X-72499Y-842192D01*
Y-847808D01*
X-71871Y-853389D01*
X-70621Y-858864D01*
X-68766Y-864164D01*
X-66330Y-869224D01*
X-63342Y-873979D01*
X-59840Y-878370D01*
X-55869Y-882341D01*
X-51479Y-885842D01*
X-46724Y-888830D01*
X-41664Y-891267D01*
X-36363Y-893121D01*
X-30888Y-894371D01*
X-25308Y-895000D01*
X-19692D01*
X-14111Y-894371D01*
X-8636Y-893121D01*
X-3335Y-891267D01*
X1724Y-888830D01*
X6480Y-885842D01*
X10870Y-882341D01*
X14841Y-878370D01*
X18343Y-873979D01*
X21330Y-869224D01*
X23767Y-864164D01*
X25622Y-858864D01*
X26871Y-853389D01*
X27500Y-847808D01*
Y-842192D01*
X26871Y-836611D01*
X25622Y-831137D01*
X23767Y-825836D01*
X21330Y-820776D01*
X18343Y-816021D01*
X14841Y-811630D01*
X10870Y-807659D01*
X6480Y-804158D01*
X1724Y-801170D01*
X-3335Y-798733D01*
X-8636Y-796879D01*
X-14111Y-795629D01*
X-19692Y-795000D01*
D02*
G37*
G36*
X155308Y-825000D02*
X149692D01*
X144112Y-825629D01*
X138637Y-826879D01*
X133336Y-828733D01*
X128276Y-831170D01*
X123521Y-834158D01*
X119131Y-837659D01*
X115160Y-841630D01*
X111658Y-846021D01*
X108670Y-850776D01*
X106234Y-855836D01*
X104379Y-861136D01*
X103129Y-866611D01*
X102500Y-872192D01*
Y-877808D01*
X103129Y-883389D01*
X104379Y-888864D01*
X106234Y-894164D01*
X108670Y-899224D01*
X111658Y-903979D01*
X115160Y-908370D01*
X119131Y-912341D01*
X123521Y-915842D01*
X128276Y-918830D01*
X133336Y-921267D01*
X138637Y-923121D01*
X144112Y-924371D01*
X149692Y-925000D01*
X155308D01*
X160889Y-924371D01*
X166364Y-923121D01*
X171665Y-921267D01*
X176724Y-918830D01*
X181479Y-915842D01*
X185870Y-912341D01*
X189841Y-908370D01*
X193343Y-903979D01*
X196330Y-899224D01*
X198767Y-894164D01*
X200622Y-888864D01*
X201871Y-883389D01*
X202500Y-877808D01*
Y-872192D01*
X201871Y-866611D01*
X200622Y-861136D01*
X198767Y-855836D01*
X196330Y-850776D01*
X193343Y-846021D01*
X189841Y-841630D01*
X185870Y-837659D01*
X181479Y-834158D01*
X176724Y-831170D01*
X171665Y-828733D01*
X166364Y-826879D01*
X160889Y-825629D01*
X155308Y-825000D01*
D02*
G37*
G36*
X332808Y-995001D02*
X327192D01*
X321611Y-995629D01*
X316137Y-996879D01*
X310836Y-998734D01*
X305776Y-1001170D01*
X301021Y-1004158D01*
X296630Y-1007660D01*
X292659Y-1011631D01*
X289158Y-1016021D01*
X286170Y-1020776D01*
X283733Y-1025836D01*
X281879Y-1031137D01*
X280629Y-1036612D01*
X280000Y-1042192D01*
Y-1047808D01*
X280629Y-1053389D01*
X281879Y-1058864D01*
X283733Y-1064165D01*
X286170Y-1069224D01*
X289158Y-1073980D01*
X292659Y-1078370D01*
X296630Y-1082341D01*
X301021Y-1085843D01*
X305776Y-1088830D01*
X310836Y-1091267D01*
X316137Y-1093122D01*
X321611Y-1094371D01*
X327192Y-1095000D01*
X332808D01*
X338389Y-1094371D01*
X343864Y-1093122D01*
X349164Y-1091267D01*
X354224Y-1088830D01*
X358979Y-1085843D01*
X363370Y-1082341D01*
X367341Y-1078370D01*
X370842Y-1073980D01*
X373830Y-1069224D01*
X376267Y-1064165D01*
X378121Y-1058864D01*
X379371Y-1053389D01*
X380000Y-1047808D01*
Y-1042192D01*
X379371Y-1036612D01*
X378121Y-1031137D01*
X376267Y-1025836D01*
X373830Y-1020776D01*
X370842Y-1016021D01*
X367341Y-1011631D01*
X363370Y-1007660D01*
X358979Y-1004158D01*
X354224Y-1001170D01*
X349164Y-998734D01*
X343864Y-996879D01*
X338389Y-995629D01*
X332808Y-995001D01*
D02*
G37*
G36*
X-29692Y-1050000D02*
X-35308D01*
X-40889Y-1050629D01*
X-46364Y-1051879D01*
X-51665Y-1053733D01*
X-56724Y-1056170D01*
X-61479Y-1059158D01*
X-65870Y-1062659D01*
X-69841Y-1066630D01*
X-73342Y-1071021D01*
X-76330Y-1075776D01*
X-78767Y-1080836D01*
X-80622Y-1086136D01*
X-81871Y-1091611D01*
X-82500Y-1097192D01*
Y-1102808D01*
X-81871Y-1108388D01*
X-80622Y-1113863D01*
X-78767Y-1119164D01*
X-76330Y-1124224D01*
X-73342Y-1128979D01*
X-69841Y-1133370D01*
X-65870Y-1137341D01*
X-61479Y-1140842D01*
X-56724Y-1143830D01*
X-51665Y-1146266D01*
X-46364Y-1148121D01*
X-40889Y-1149371D01*
X-35308Y-1150000D01*
X-29692D01*
X-24112Y-1149371D01*
X-18637Y-1148121D01*
X-13336Y-1146266D01*
X-8276Y-1143830D01*
X-3521Y-1140842D01*
X869Y-1137341D01*
X4840Y-1133370D01*
X8342Y-1128979D01*
X11330Y-1124224D01*
X13766Y-1119164D01*
X15621Y-1113863D01*
X16871Y-1108388D01*
X17500Y-1102808D01*
Y-1097192D01*
X16871Y-1091611D01*
X15621Y-1086136D01*
X13766Y-1080836D01*
X11330Y-1075776D01*
X8342Y-1071021D01*
X4840Y-1066630D01*
X869Y-1062659D01*
X-3521Y-1059158D01*
X-8276Y-1056170D01*
X-13336Y-1053733D01*
X-18637Y-1051879D01*
X-24112Y-1050629D01*
X-29692Y-1050000D01*
D02*
G37*
G36*
X-1227192Y-1072500D02*
X-1232808D01*
X-1238389Y-1073129D01*
X-1243864Y-1074379D01*
X-1249164Y-1076234D01*
X-1254224Y-1078670D01*
X-1258979Y-1081658D01*
X-1263370Y-1085159D01*
X-1267341Y-1089130D01*
X-1270842Y-1093521D01*
X-1273830Y-1098276D01*
X-1276267Y-1103336D01*
X-1278121Y-1108637D01*
X-1279371Y-1114112D01*
X-1280000Y-1119692D01*
Y-1125308D01*
X-1279371Y-1130889D01*
X-1278121Y-1136364D01*
X-1276267Y-1141664D01*
X-1273830Y-1146724D01*
X-1270842Y-1151479D01*
X-1267341Y-1155870D01*
X-1263370Y-1159841D01*
X-1258979Y-1163342D01*
X-1254224Y-1166330D01*
X-1249164Y-1168767D01*
X-1243864Y-1170621D01*
X-1238389Y-1171871D01*
X-1232808Y-1172500D01*
X-1227192D01*
X-1221611Y-1171871D01*
X-1216137Y-1170621D01*
X-1210836Y-1168767D01*
X-1205776Y-1166330D01*
X-1201021Y-1163342D01*
X-1196630Y-1159841D01*
X-1192659Y-1155870D01*
X-1189158Y-1151479D01*
X-1186170Y-1146724D01*
X-1183733Y-1141664D01*
X-1181879Y-1136364D01*
X-1180629Y-1130889D01*
X-1180000Y-1125308D01*
Y-1119692D01*
X-1180629Y-1114112D01*
X-1181879Y-1108637D01*
X-1183733Y-1103336D01*
X-1186170Y-1098276D01*
X-1189158Y-1093521D01*
X-1192659Y-1089130D01*
X-1196630Y-1085159D01*
X-1201021Y-1081658D01*
X-1205776Y-1078670D01*
X-1210836Y-1076234D01*
X-1216137Y-1074379D01*
X-1221611Y-1073129D01*
X-1227192Y-1072500D01*
D02*
G37*
G36*
X1202809Y-862500D02*
X1197193D01*
X1191612Y-863129D01*
X1186137Y-864379D01*
X1180837Y-866233D01*
X1175777Y-868670D01*
X1171022Y-871658D01*
X1166631Y-875159D01*
X1162660Y-879130D01*
X1159159Y-883521D01*
X1156171Y-888276D01*
X1153734Y-893336D01*
X1151880Y-898637D01*
X1150630Y-904111D01*
X1150001Y-909692D01*
Y-915308D01*
X1150630Y-920889D01*
X1151880Y-926364D01*
X1153734Y-931664D01*
X1156171Y-936724D01*
X1159159Y-941479D01*
X1162660Y-945870D01*
X1166631Y-949841D01*
X1171022Y-953342D01*
X1175777Y-956330D01*
X1180837Y-958767D01*
X1186137Y-960621D01*
X1191612Y-961871D01*
X1197193Y-962500D01*
X1202809D01*
X1208390Y-961871D01*
X1213864Y-960621D01*
X1219165Y-958767D01*
X1224225Y-956330D01*
X1228980Y-953342D01*
X1233371Y-949841D01*
X1237342Y-945870D01*
X1240843Y-941479D01*
X1243831Y-936724D01*
X1246268Y-931664D01*
X1248122Y-926364D01*
X1249372Y-920889D01*
X1250001Y-915308D01*
Y-909692D01*
X1249372Y-904111D01*
X1248122Y-898637D01*
X1246268Y-893336D01*
X1243831Y-888276D01*
X1240843Y-883521D01*
X1237342Y-879130D01*
X1233371Y-875159D01*
X1228980Y-871658D01*
X1224225Y-868670D01*
X1219165Y-866233D01*
X1213864Y-864379D01*
X1208390Y-863129D01*
X1202809Y-862500D01*
D02*
G37*
G36*
X947809Y-1050000D02*
X942193D01*
X936612Y-1050629D01*
X931137Y-1051879D01*
X925836Y-1053733D01*
X920777Y-1056170D01*
X916022Y-1059158D01*
X911631Y-1062659D01*
X907660Y-1066630D01*
X904158Y-1071021D01*
X901171Y-1075776D01*
X898734Y-1080836D01*
X896879Y-1086136D01*
X895630Y-1091611D01*
X895001Y-1097192D01*
Y-1102808D01*
X895630Y-1108388D01*
X896879Y-1113863D01*
X898734Y-1119164D01*
X901171Y-1124224D01*
X904158Y-1128979D01*
X907660Y-1133370D01*
X911631Y-1137341D01*
X916022Y-1140842D01*
X920777Y-1143830D01*
X925836Y-1146266D01*
X931137Y-1148121D01*
X936612Y-1149371D01*
X942193Y-1150000D01*
X947809D01*
X953389Y-1149371D01*
X958864Y-1148121D01*
X964165Y-1146266D01*
X969225Y-1143830D01*
X973980Y-1140842D01*
X978370Y-1137341D01*
X982341Y-1133370D01*
X985843Y-1128979D01*
X988831Y-1124224D01*
X991267Y-1119164D01*
X993122Y-1113863D01*
X994372Y-1108388D01*
X995001Y-1102808D01*
Y-1097192D01*
X994372Y-1091611D01*
X993122Y-1086136D01*
X991267Y-1080836D01*
X988831Y-1075776D01*
X985843Y-1071021D01*
X982341Y-1066630D01*
X978370Y-1062659D01*
X973980Y-1059158D01*
X969225Y-1056170D01*
X964165Y-1053733D01*
X958864Y-1051879D01*
X953389Y-1050629D01*
X947809Y-1050000D01*
D02*
G37*
%LPD*%
D39*
X3023000Y190500D02*
D03*
Y63500D02*
D03*
Y-190500D02*
D03*
Y-63500D02*
D03*
D40*
X3290000Y461000D02*
D03*
X2840000D02*
D03*
Y-461000D02*
D03*
X3290000D02*
D03*
D41*
X2896000Y330000D02*
D03*
Y-330000D02*
D03*
D42*
X1925000Y-0D02*
D03*
X1675000D02*
D03*
D43*
X3050000Y1300000D02*
D03*
Y-1300000D02*
D03*
X-3050000D02*
D03*
Y1300000D02*
D03*
D44*
X2000000Y672500D02*
D03*
X2605000Y590000D02*
D03*
Y870000D02*
D03*
X-590000Y-555000D02*
D03*
X-470000Y-552500D02*
D03*
X-772500Y-430000D02*
D03*
X-572500Y-1180000D02*
D03*
Y-1280000D02*
D03*
X-3175000Y277000D02*
D03*
X-3375000D02*
D03*
Y-277000D02*
D03*
X-3175000D02*
D03*
X-3430000Y-1200000D02*
D03*
X-3430000Y1200000D02*
D03*
X3430000D02*
D03*
Y900000D02*
D03*
X3430000Y-1200000D02*
D03*
Y-900000D02*
D03*
Y-600000D02*
D03*
Y600000D02*
D03*
X-3350000Y650000D02*
D03*
X-3400000Y850000D02*
D03*
X-3100000Y550000D02*
D03*
X-2800000D02*
D03*
X-2650000Y650000D02*
D03*
Y-650000D02*
D03*
X-2800000Y-550000D02*
D03*
X-3100000D02*
D03*
X-3400000Y-850000D02*
D03*
X-3350000Y-650000D02*
D03*
X-0Y-1600000D02*
D03*
X800000D02*
D03*
X400000D02*
D03*
X-400000D02*
D03*
X-800000D02*
D03*
X-1200000D02*
D03*
X-1600000D02*
D03*
X-2000000D02*
D03*
X-2400000D02*
D03*
X1200000D02*
D03*
X2400000D02*
D03*
X2600000Y-1650000D02*
D03*
X-2200000D02*
D03*
X-1800000D02*
D03*
X-1400001D02*
D03*
X-1000000D02*
D03*
X-600000D02*
D03*
X-200000D02*
D03*
X600000D02*
D03*
X1000000D02*
D03*
X200000D02*
D03*
X-2600000D02*
D03*
X-2600000Y1650000D02*
D03*
X200000D02*
D03*
X1000000D02*
D03*
X600000D02*
D03*
X-200000D02*
D03*
X-600000D02*
D03*
X-1000000D02*
D03*
X-1400000D02*
D03*
X-1800000D02*
D03*
X-2200000D02*
D03*
X1400000D02*
D03*
X1800000D02*
D03*
X2200000D02*
D03*
X2600000D02*
D03*
X2400000Y1600000D02*
D03*
X2000000D02*
D03*
X1600000D02*
D03*
X1200000D02*
D03*
X-2400000D02*
D03*
X-2000000D02*
D03*
X-1600000D02*
D03*
X-1200000D02*
D03*
X-800000D02*
D03*
X-400000D02*
D03*
X400000D02*
D03*
X800000D02*
D03*
X0D02*
D03*
X613000Y-470000D02*
D03*
X513000D02*
D03*
X-650000Y250000D02*
D03*
X-710000Y-20000D02*
D03*
X-810000D02*
D03*
X-610000D02*
D03*
Y-120000D02*
D03*
X-810000D02*
D03*
X-710000D02*
D03*
X-1620000Y-140000D02*
D03*
X-1120000Y-590000D02*
D03*
X-1630000Y-530000D02*
D03*
X-1992499Y-1047500D02*
D03*
X-1992499Y-1152500D02*
D03*
X-1460000Y-45000D02*
D03*
X620000Y430000D02*
D03*
X-1120000Y-1235000D02*
D03*
X-1230000Y-1237500D02*
D03*
X-22500Y-845000D02*
D03*
X-195000Y-1317500D02*
D03*
X152500Y-875000D02*
D03*
X1450000Y-170000D02*
D03*
Y-270000D02*
D03*
X857500Y340000D02*
D03*
X742500D02*
D03*
X905000Y792500D02*
D03*
X495000D02*
D03*
X2155000Y825000D02*
D03*
X1895000Y590000D02*
D03*
X1995000Y570000D02*
D03*
X1895000Y870000D02*
D03*
X1995000Y890000D02*
D03*
X2000000Y787500D02*
D03*
X2500000D02*
D03*
X2505000Y890000D02*
D03*
Y570000D02*
D03*
X2500000Y672500D02*
D03*
X645000Y-960000D02*
D03*
X745001D02*
D03*
X2711600Y320000D02*
D03*
X2856400Y240000D02*
D03*
Y-240000D02*
D03*
X2711600Y-320000D02*
D03*
X745001Y-1240000D02*
D03*
X645000D02*
D03*
X2530000Y-625000D02*
D03*
X2640000Y-625000D02*
D03*
X2555000Y400000D02*
D03*
X540000Y510000D02*
D03*
X960000Y510000D02*
D03*
X650000Y650000D02*
D03*
X850000D02*
D03*
X750000D02*
D03*
X1005000Y635001D02*
D03*
Y792500D02*
D03*
X750000Y450000D02*
D03*
X495000Y635001D02*
D03*
X595000Y792500D02*
D03*
X610000Y1025000D02*
D03*
X858500Y120000D02*
D03*
Y-260000D02*
D03*
X120001Y-70000D02*
D03*
X120000Y170000D02*
D03*
X120000Y50000D02*
D03*
X119999Y289999D02*
D03*
Y-429999D02*
D03*
X120000Y-190000D02*
D03*
X120000Y-310000D02*
D03*
X-140000Y-190000D02*
D03*
X-140000Y50000D02*
D03*
X-140000Y-70000D02*
D03*
X330000Y-1045000D02*
D03*
X1300000Y260000D02*
D03*
Y160000D02*
D03*
X1020000D02*
D03*
Y260000D02*
D03*
X1300000Y-378500D02*
D03*
X1200000D02*
D03*
X1105000Y-260000D02*
D03*
X1700000Y-761500D02*
D03*
X1900000D02*
D03*
X1800000D02*
D03*
X895000Y-600000D02*
D03*
X455001Y-960000D02*
D03*
X550000D02*
D03*
X-1335000Y-640000D02*
D03*
X-920000Y-5000D02*
D03*
Y-135000D02*
D03*
X-797500Y170000D02*
D03*
X-682500D02*
D03*
Y-310000D02*
D03*
X-420000Y-70000D02*
D03*
X-419999Y50000D02*
D03*
X-420000Y-190000D02*
D03*
X-2460000Y442500D02*
D03*
X1200001Y-912500D02*
D03*
X945001Y-1100000D02*
D03*
X1200001Y-1287500D02*
D03*
X-32500Y-1100000D02*
D03*
X-1230000Y-1122500D02*
D03*
X947501Y-1325000D02*
D03*
X152500D02*
D03*
X-900000Y-1182500D02*
D03*
X-2000000Y-140000D02*
D03*
Y500000D02*
D03*
X-1340000Y-362500D02*
D03*
X-1854000Y-760000D02*
D03*
X-1726999D02*
D03*
X-1600000D02*
D03*
X-1473000D02*
D03*
X-1346000D02*
D03*
X-1726999Y-1440000D02*
D03*
X-1854000D02*
D03*
X-2460000Y557500D02*
D03*
X-2200000Y57500D02*
D03*
X-772500Y-530000D02*
D03*
X-760000Y-664999D02*
D03*
X-870000D02*
D03*
X-965000Y-795000D02*
D03*
X-980000Y-555000D02*
D03*
X-1460000Y-155000D02*
D03*
X-1092500Y-100000D02*
D03*
X-887500Y-430000D02*
D03*
X-1120000Y-477500D02*
D03*
X-1340000D02*
D03*
X-1940000Y-380000D02*
D03*
X-2070000Y-557500D02*
D03*
X-2400000Y-400000D02*
D03*
X-2100000Y-442500D02*
D03*
X-2400000Y-557500D02*
D03*
X-2220000Y-557500D02*
D03*
Y-400000D02*
D03*
%TF.MD5,1edf915afe0177a88c668dd0c6f1fb9d*%
M02*
