%TF.GenerationSoftware,Altium Limited,Altium Designer,25.2.1 (25)*%
G04 Layer_Color=65535*
%FSLAX45Y45*%
%MOMM*%
%TF.SameCoordinates,2968D444-F816-4350-AB46-43E4CE3DDFF8*%
%TF.FilePolarity,Positive*%
%TF.FileFunction,Legend,Top*%
%TF.Part,Single*%
G01*
G75*
%TA.AperFunction,NonConductor*%
%ADD56C,0.25000*%
%ADD57C,0.60000*%
%ADD58C,0.20000*%
%ADD59C,0.30000*%
%ADD60C,0.40000*%
%ADD61R,1.40000X0.45000*%
G36*
X250000Y623058D02*
X207094D01*
Y629723D01*
X206469D01*
X205845Y629515D01*
X204803Y629307D01*
X203554D01*
X202096Y629099D01*
X198555Y628474D01*
X194389Y627849D01*
X189807Y627224D01*
X184600Y626599D01*
X179393Y625974D01*
X173978Y625141D01*
X168771Y624516D01*
X163772Y623892D01*
X158982Y623267D01*
X154816Y622642D01*
X151275Y622434D01*
X149817Y622225D01*
X148568Y622017D01*
X145860D01*
X145027Y622225D01*
X143152Y622434D01*
X140653Y623267D01*
X137737Y624308D01*
X135029Y625974D01*
X132114Y628265D01*
X130864Y629723D01*
X129614Y631390D01*
Y631598D01*
X129406Y631806D01*
X128989Y632431D01*
X128781Y633056D01*
X128156Y634097D01*
X127740Y635347D01*
X126698Y638263D01*
X125449Y642012D01*
X124615Y646386D01*
X123782Y651593D01*
X123574Y657425D01*
Y790724D01*
Y790932D01*
Y791349D01*
X123782Y791974D01*
Y793015D01*
X124407Y795514D01*
X125657Y798430D01*
X126490Y799888D01*
X127531Y801554D01*
X128989Y803221D01*
X130447Y804887D01*
X132322Y806345D01*
X134613Y807803D01*
X137112Y809052D01*
X140028Y810094D01*
X140236D01*
X140653Y810302D01*
X141278Y810510D01*
X142319Y810719D01*
X143569Y811135D01*
X145235Y811344D01*
X146901Y811760D01*
X149192Y812177D01*
X151484Y812593D01*
X154191Y813010D01*
X157315Y813218D01*
X160440Y813635D01*
X163980Y813843D01*
X167938Y814051D01*
X172103Y814259D01*
X182726D01*
X185433Y814051D01*
X188557D01*
X192306Y813843D01*
X193973D01*
X195847Y813635D01*
X198138D01*
X202929Y813426D01*
X207094D01*
Y917983D01*
X250000D01*
Y623058D01*
D02*
G37*
G36*
X-961356Y814051D02*
X-959690Y813843D01*
X-958024Y813426D01*
X-955941Y813010D01*
X-953858Y812177D01*
X-951776Y811344D01*
X-949485Y810094D01*
X-947402Y808428D01*
X-945527Y806553D01*
X-943653Y804262D01*
X-942195Y801554D01*
X-940945Y798430D01*
X-940112Y794889D01*
X-939904Y790724D01*
Y733863D01*
X-982601D01*
Y777602D01*
X-1016759Y776561D01*
Y623058D01*
X-1059873D01*
Y813426D01*
X-1016759D01*
Y806345D01*
X-1016551D01*
X-1016134Y806553D01*
X-1015509D01*
X-1014468Y806761D01*
X-1013218Y806970D01*
X-1011760Y807178D01*
X-1008428Y808011D01*
X-1004470Y808636D01*
X-999888Y809469D01*
X-995306Y810510D01*
X-990307Y811344D01*
X-990099D01*
X-989683Y811552D01*
X-988641D01*
X-987600Y811760D01*
X-986142Y811968D01*
X-984684Y812177D01*
X-980935Y812802D01*
X-976561Y813426D01*
X-972187Y813843D01*
X-967605Y814051D01*
X-963439Y814259D01*
X-962398D01*
X-961356Y814051D01*
D02*
G37*
G36*
X-216339Y623058D02*
X-260911D01*
Y755525D01*
X-320687D01*
Y623058D01*
X-364843D01*
Y917983D01*
X-320687D01*
Y796556D01*
X-260911D01*
Y917983D01*
X-216339D01*
Y623058D01*
D02*
G37*
G36*
X71712Y813218D02*
X73379Y813010D01*
X75045Y812593D01*
X77128Y812177D01*
X79210Y811344D01*
X81293Y810510D01*
X83584Y809261D01*
X85667Y807595D01*
X87542Y805720D01*
X89416Y803429D01*
X90874Y800721D01*
X92124Y797597D01*
X92957Y794056D01*
X93165Y789891D01*
Y623058D01*
X51926D01*
Y629515D01*
X51301D01*
X50468Y629307D01*
X49218Y629099D01*
X47760Y628890D01*
X46094Y628682D01*
X44219Y628474D01*
X42137Y628057D01*
X37554Y627432D01*
X32347Y626599D01*
X26724Y625766D01*
X20892Y624933D01*
X20684D01*
X20059Y624725D01*
X19017D01*
X17560Y624516D01*
X15893Y624308D01*
X14019Y624100D01*
X11728Y623892D01*
X9437Y623683D01*
X4438Y623058D01*
X-561Y622642D01*
X-5560Y622434D01*
X-7851Y622225D01*
X-10767D01*
X-11808Y622434D01*
X-13058Y622642D01*
X-14516Y623058D01*
X-16390Y623475D01*
X-18056Y624308D01*
X-19931Y625141D01*
X-22014Y626391D01*
X-23680Y628057D01*
X-25346Y629932D01*
X-27012Y632223D01*
X-28262Y634722D01*
X-29303Y637846D01*
X-29928Y641387D01*
X-30137Y645553D01*
Y714077D01*
Y714285D01*
Y715118D01*
X-29928Y716160D01*
X-29720Y717826D01*
X-29512Y719492D01*
X-29095Y721575D01*
X-28470Y723658D01*
X-27429Y725740D01*
X-26388Y728032D01*
X-24930Y730114D01*
X-23263Y731989D01*
X-21181Y733863D01*
X-18889Y735321D01*
X-15974Y736571D01*
X-12849Y737404D01*
X-9100Y737612D01*
X52342D01*
Y781351D01*
X11103D01*
Y754275D01*
X-27846D01*
Y789891D01*
Y790099D01*
Y790932D01*
X-27637Y791974D01*
X-27429Y793640D01*
X-27221Y795306D01*
X-26804Y797389D01*
X-26179Y799472D01*
X-25138Y801554D01*
X-24096Y803845D01*
X-22639Y805928D01*
X-20972Y807803D01*
X-18889Y809677D01*
X-16598Y811135D01*
X-13682Y812385D01*
X-10558Y813218D01*
X-6809Y813426D01*
X70671D01*
X71712Y813218D01*
D02*
G37*
G36*
X-82207D02*
X-80540Y813010D01*
X-78874Y812593D01*
X-76791Y812177D01*
X-74709Y811344D01*
X-72626Y810510D01*
X-70335Y809261D01*
X-68252Y807595D01*
X-66377Y805720D01*
X-64503Y803429D01*
X-63045Y800721D01*
X-61795Y797597D01*
X-60962Y794056D01*
X-60754Y789891D01*
Y719909D01*
X-72834Y708037D01*
X-142608D01*
Y654717D01*
X-101993D01*
Y686376D01*
X-60754D01*
Y646386D01*
Y646178D01*
Y645344D01*
X-60962Y644303D01*
X-61170Y642845D01*
X-61587Y640971D01*
X-62003Y639096D01*
X-62837Y636805D01*
X-63670Y634722D01*
X-64919Y632639D01*
X-66586Y630348D01*
X-68460Y628474D01*
X-70751Y626807D01*
X-73459Y625141D01*
X-76583Y624100D01*
X-80124Y623267D01*
X-84289Y623058D01*
X-161561D01*
X-162603Y623267D01*
X-164061Y623475D01*
X-165935Y623683D01*
X-167810Y624308D01*
X-170101Y624933D01*
X-172184Y625974D01*
X-174266Y627224D01*
X-176557Y628682D01*
X-178432Y630557D01*
X-180098Y632848D01*
X-181764Y635555D01*
X-182806Y638679D01*
X-183639Y642220D01*
X-183847Y646386D01*
Y789891D01*
Y790099D01*
Y790932D01*
X-183639Y791974D01*
X-183431Y793640D01*
X-183222Y795306D01*
X-182598Y797389D01*
X-181973Y799472D01*
X-180931Y801554D01*
X-179682Y803845D01*
X-178224Y805928D01*
X-176349Y807803D01*
X-174058Y809677D01*
X-171350Y811135D01*
X-168226Y812385D01*
X-164685Y813218D01*
X-160520Y813426D01*
X-83248D01*
X-82207Y813218D01*
D02*
G37*
G36*
X-499391D02*
X-497725Y813010D01*
X-496059Y812593D01*
X-493976Y812177D01*
X-491893Y811344D01*
X-489811Y810510D01*
X-487519Y809261D01*
X-485437Y807595D01*
X-483562Y805720D01*
X-481688Y803429D01*
X-480230Y800721D01*
X-478980Y797597D01*
X-478147Y794056D01*
X-477939Y789891D01*
Y719909D01*
X-490019Y708037D01*
X-559793D01*
Y654717D01*
X-519178D01*
Y686376D01*
X-477939D01*
Y646386D01*
Y646178D01*
Y645344D01*
X-478147Y644303D01*
X-478355Y642845D01*
X-478772Y640971D01*
X-479188Y639096D01*
X-480021Y636805D01*
X-480855Y634722D01*
X-482104Y632639D01*
X-483770Y630348D01*
X-485645Y628474D01*
X-487936Y626807D01*
X-490644Y625141D01*
X-493768Y624100D01*
X-497309Y623267D01*
X-501474Y623058D01*
X-578746D01*
X-579788Y623267D01*
X-581245Y623475D01*
X-583120Y623683D01*
X-584995Y624308D01*
X-587286Y624933D01*
X-589368Y625974D01*
X-591451Y627224D01*
X-593742Y628682D01*
X-595617Y630557D01*
X-597283Y632848D01*
X-598949Y635555D01*
X-599991Y638679D01*
X-600824Y642220D01*
X-601032Y646386D01*
Y789891D01*
Y790099D01*
Y790932D01*
X-600824Y791974D01*
X-600616Y793640D01*
X-600407Y795306D01*
X-599782Y797389D01*
X-599158Y799472D01*
X-598116Y801554D01*
X-596866Y803845D01*
X-595409Y805928D01*
X-593534Y807803D01*
X-591243Y809677D01*
X-588535Y811135D01*
X-585411Y812385D01*
X-581870Y813218D01*
X-577705Y813426D01*
X-500433D01*
X-499391Y813218D01*
D02*
G37*
G36*
X-715794Y806345D02*
X-715170D01*
X-714336Y806553D01*
X-713295Y806761D01*
X-711837Y806970D01*
X-710171Y807178D01*
X-708505Y807386D01*
X-706422Y807803D01*
X-701840Y808428D01*
X-696633Y809261D01*
X-691217Y810094D01*
X-685594Y810927D01*
X-685385D01*
X-684761Y811135D01*
X-683719D01*
X-682470Y811344D01*
X-680803Y811760D01*
X-678929Y811968D01*
X-676846Y812177D01*
X-674555Y812593D01*
X-669764Y813010D01*
X-664766Y813635D01*
X-659767Y813843D01*
X-655393Y814051D01*
X-654352D01*
X-653310Y813843D01*
X-651644Y813635D01*
X-649978Y813218D01*
X-647895Y812802D01*
X-645812Y811968D01*
X-643729Y811135D01*
X-641438Y809886D01*
X-639356Y808219D01*
X-637481Y806345D01*
X-635607Y804054D01*
X-634149Y801346D01*
X-632899Y798222D01*
X-632066Y794681D01*
X-631858Y790516D01*
Y646386D01*
Y646178D01*
Y645969D01*
Y645344D01*
X-632066Y644511D01*
X-632482Y642637D01*
X-633107Y640137D01*
X-634565Y637430D01*
X-636440Y634722D01*
X-637689Y633264D01*
X-639147Y631806D01*
X-640814Y630557D01*
X-642688Y629307D01*
X-642896D01*
X-643105Y629099D01*
X-643729Y628682D01*
X-644563Y628265D01*
X-645604Y627849D01*
X-647062Y627432D01*
X-648520Y626807D01*
X-650186Y626183D01*
X-652269Y625558D01*
X-654352Y625141D01*
X-659142Y624100D01*
X-664766Y623267D01*
X-671222Y623058D01*
X-758908D01*
Y917983D01*
X-715794D01*
Y806345D01*
D02*
G37*
G36*
X-811395Y813010D02*
X-809729Y812802D01*
X-808062Y812593D01*
X-805980Y811968D01*
X-803897Y811344D01*
X-801814Y810302D01*
X-799523Y809052D01*
X-797440Y807595D01*
X-795566Y805720D01*
X-793691Y803429D01*
X-792233Y800721D01*
X-790983Y797597D01*
X-790150Y794056D01*
X-789942Y789891D01*
Y646386D01*
Y646178D01*
Y645344D01*
X-790150Y644303D01*
X-790359Y642845D01*
X-790775Y640971D01*
X-791192Y639096D01*
X-792025Y636805D01*
X-792858Y634722D01*
X-794108Y632639D01*
X-795774Y630348D01*
X-797648Y628474D01*
X-799939Y626807D01*
X-802647Y625141D01*
X-805771Y624100D01*
X-809312Y623267D01*
X-813478Y623058D01*
X-893249D01*
X-894290Y623267D01*
X-895748Y623475D01*
X-897623Y623683D01*
X-899497Y624308D01*
X-901788Y624933D01*
X-903871Y625974D01*
X-905954Y627224D01*
X-908245Y628682D01*
X-910120Y630557D01*
X-911786Y632848D01*
X-913452Y635555D01*
X-914493Y638679D01*
X-915327Y642220D01*
X-915535Y646386D01*
Y789891D01*
Y790099D01*
Y790932D01*
X-915327Y791974D01*
X-915118Y793640D01*
X-914910Y795306D01*
X-914285Y797181D01*
X-913660Y799472D01*
X-912619Y801554D01*
X-911369Y803637D01*
X-909911Y805928D01*
X-908037Y807803D01*
X-905746Y809677D01*
X-903038Y811135D01*
X-899914Y812177D01*
X-896373Y813010D01*
X-892208Y813218D01*
X-812436D01*
X-811395Y813010D01*
D02*
G37*
G36*
X-1110068Y917775D02*
X-1108402Y917566D01*
X-1106736Y917150D01*
X-1104653Y916733D01*
X-1102570Y915900D01*
X-1100488Y915067D01*
X-1098196Y913817D01*
X-1096114Y912151D01*
X-1094239Y910277D01*
X-1092365Y907985D01*
X-1090907Y905278D01*
X-1089657Y902154D01*
X-1088824Y898613D01*
X-1088616Y894447D01*
Y753233D01*
Y753025D01*
Y752192D01*
X-1088824Y751151D01*
X-1089032Y749693D01*
X-1089449Y747818D01*
X-1089865Y745944D01*
X-1090698Y743653D01*
X-1091531Y741570D01*
X-1092781Y739487D01*
X-1094447Y737196D01*
X-1096322Y735321D01*
X-1098613Y733655D01*
X-1101321Y731989D01*
X-1104445Y730947D01*
X-1107986Y730114D01*
X-1112151Y729906D01*
X-1187132D01*
Y623058D01*
X-1231287D01*
Y917983D01*
X-1111110D01*
X-1110068Y917775D01*
D02*
G37*
G36*
X-1472892Y1174973D02*
X-1516006D01*
Y1219545D01*
X-1472892D01*
Y1174973D01*
D02*
G37*
G36*
X250000Y957320D02*
X207094D01*
Y963985D01*
X206469D01*
X205845Y963777D01*
X204803Y963569D01*
X203554D01*
X202096Y963361D01*
X198555Y962736D01*
X194389Y962111D01*
X189807Y961486D01*
X184600Y960861D01*
X179393Y960236D01*
X173978Y959403D01*
X168771Y958778D01*
X163772Y958154D01*
X158982Y957529D01*
X154816Y956904D01*
X151275Y956696D01*
X149817Y956487D01*
X148568Y956279D01*
X145860D01*
X145027Y956487D01*
X143152Y956696D01*
X140653Y957529D01*
X137737Y958570D01*
X135029Y960236D01*
X132114Y962527D01*
X130864Y963985D01*
X129614Y965652D01*
Y965860D01*
X129406Y966068D01*
X128989Y966693D01*
X128781Y967318D01*
X128156Y968359D01*
X127740Y969609D01*
X126698Y972525D01*
X125449Y976274D01*
X124615Y980648D01*
X123782Y985855D01*
X123574Y991687D01*
Y1124986D01*
Y1125194D01*
Y1125611D01*
X123782Y1126235D01*
Y1127277D01*
X124407Y1129776D01*
X125657Y1132692D01*
X126490Y1134150D01*
X127531Y1135816D01*
X128989Y1137483D01*
X130447Y1139149D01*
X132322Y1140607D01*
X134613Y1142065D01*
X137112Y1143314D01*
X140028Y1144356D01*
X140236D01*
X140653Y1144564D01*
X141278Y1144772D01*
X142319Y1144981D01*
X143569Y1145397D01*
X145235Y1145606D01*
X146901Y1146022D01*
X149192Y1146439D01*
X151484Y1146855D01*
X154191Y1147272D01*
X157315Y1147480D01*
X160440Y1147897D01*
X163980Y1148105D01*
X167938Y1148313D01*
X172103Y1148521D01*
X182726D01*
X185433Y1148313D01*
X188557D01*
X192306Y1148105D01*
X193973D01*
X195847Y1147897D01*
X198138D01*
X202929Y1147688D01*
X207094D01*
Y1252245D01*
X250000D01*
Y957320D01*
D02*
G37*
G36*
X-1674715Y1148313D02*
X-1673049Y1148105D01*
X-1671383Y1147688D01*
X-1669300Y1147272D01*
X-1667217Y1146439D01*
X-1665135Y1145606D01*
X-1662844Y1144356D01*
X-1660761Y1142690D01*
X-1658886Y1140815D01*
X-1657012Y1138524D01*
X-1655554Y1135816D01*
X-1654304Y1132692D01*
X-1653471Y1129151D01*
X-1653263Y1124986D01*
Y995436D01*
Y995227D01*
Y994394D01*
X-1653471Y993145D01*
Y991687D01*
X-1653887Y989812D01*
X-1654096Y987521D01*
X-1654721Y985230D01*
X-1655345Y982731D01*
X-1656387Y980023D01*
X-1657428Y977315D01*
X-1658678Y974608D01*
X-1660344Y971900D01*
X-1662219Y969401D01*
X-1664510Y966901D01*
X-1667009Y964818D01*
X-1669925Y962944D01*
X-1670133D01*
X-1670550Y962736D01*
X-1671175Y962319D01*
X-1672216Y961903D01*
X-1673466Y961486D01*
X-1675132Y960861D01*
X-1676798Y960236D01*
X-1679089Y959820D01*
X-1681380Y959195D01*
X-1684088Y958570D01*
X-1687212Y957945D01*
X-1690545Y957529D01*
X-1694086Y957112D01*
X-1698043Y956696D01*
X-1702208Y956487D01*
X-1710748D01*
X-1713039Y956696D01*
X-1718871D01*
X-1722620Y956904D01*
X-1724286D01*
X-1726161Y957112D01*
X-1728243D01*
X-1733034Y957320D01*
X-1737199D01*
Y887755D01*
X-1780313D01*
Y1147688D01*
X-1737199D01*
Y1140815D01*
X-1736575D01*
X-1735742Y1141023D01*
X-1734700Y1141232D01*
X-1733242Y1141440D01*
X-1731576Y1141648D01*
X-1729910Y1141856D01*
X-1727827Y1142273D01*
X-1723245Y1142898D01*
X-1718038Y1143731D01*
X-1712622Y1144564D01*
X-1706999Y1145397D01*
X-1706791D01*
X-1706166Y1145606D01*
X-1705124D01*
X-1703875Y1145814D01*
X-1702208Y1146230D01*
X-1700334Y1146439D01*
X-1698251Y1146647D01*
X-1695960Y1147063D01*
X-1691170Y1147480D01*
X-1686171Y1148105D01*
X-1681172Y1148313D01*
X-1676798Y1148521D01*
X-1675757D01*
X-1674715Y1148313D01*
D02*
G37*
G36*
X-573747Y1147480D02*
X-572289Y1147272D01*
X-570415Y1146855D01*
X-568540Y1146439D01*
X-566458Y1145606D01*
X-564167Y1144772D01*
X-562084Y1143523D01*
X-560001Y1141856D01*
X-557918Y1139982D01*
X-556252Y1137691D01*
X-554794Y1134983D01*
X-553544Y1131859D01*
X-552711Y1128318D01*
X-552503Y1124153D01*
Y1085829D01*
X-593326D01*
Y1115197D01*
X-631233D01*
Y1087704D01*
X-565416Y1048964D01*
X-565208D01*
X-564791Y1048547D01*
X-564167Y1048130D01*
X-563333Y1047506D01*
X-561251Y1045839D01*
X-558751Y1043548D01*
X-556252Y1040632D01*
X-554169Y1036883D01*
X-553336Y1034801D01*
X-552711Y1032718D01*
X-552295Y1030427D01*
X-552086Y1027927D01*
Y980648D01*
Y980439D01*
Y979606D01*
X-552295Y978565D01*
X-552503Y977107D01*
X-552919Y975232D01*
X-553336Y973358D01*
X-554169Y971067D01*
X-555002Y968984D01*
X-556252Y966901D01*
X-557918Y964610D01*
X-559793Y962736D01*
X-562084Y961069D01*
X-564791Y959403D01*
X-567916Y958362D01*
X-571456Y957529D01*
X-575622Y957320D01*
X-650186D01*
X-651228Y957529D01*
X-652686Y957737D01*
X-654560Y957945D01*
X-656435Y958570D01*
X-658726Y959195D01*
X-660808Y960236D01*
X-662891Y961486D01*
X-665182Y962944D01*
X-667057Y964818D01*
X-668723Y967110D01*
X-670389Y969817D01*
X-671431Y972941D01*
X-672264Y976482D01*
X-672472Y980648D01*
Y1021679D01*
X-631233D01*
Y989812D01*
X-593326D01*
Y1019804D01*
X-659559Y1058753D01*
X-659767D01*
X-660184Y1059169D01*
X-660808Y1059586D01*
X-661642Y1060211D01*
X-663724Y1061877D01*
X-666015Y1064376D01*
X-668307Y1067292D01*
X-670389Y1070833D01*
X-671222Y1072916D01*
X-671847Y1074999D01*
X-672264Y1077290D01*
X-672472Y1079581D01*
Y1124153D01*
Y1124361D01*
Y1125194D01*
X-672264Y1126235D01*
X-672056Y1127902D01*
X-671639Y1129568D01*
X-671222Y1131651D01*
X-670389Y1133734D01*
X-669556Y1135816D01*
X-668307Y1138107D01*
X-666640Y1140190D01*
X-664766Y1142065D01*
X-662475Y1143939D01*
X-659767Y1145397D01*
X-656643Y1146647D01*
X-652894Y1147480D01*
X-648728Y1147688D01*
X-574789D01*
X-573747Y1147480D01*
D02*
G37*
G36*
X-1339593D02*
X-1337927Y1147272D01*
X-1336260Y1146855D01*
X-1334178Y1146439D01*
X-1332095Y1145606D01*
X-1330012Y1144772D01*
X-1327721Y1143523D01*
X-1325638Y1141856D01*
X-1323764Y1139982D01*
X-1321889Y1137691D01*
X-1320431Y1134983D01*
X-1319182Y1131859D01*
X-1318348Y1128318D01*
X-1318140Y1124153D01*
Y1078956D01*
X-1360213D01*
Y1111656D01*
X-1398744D01*
Y993145D01*
X-1360213D01*
Y1029385D01*
X-1318140D01*
Y980648D01*
Y980439D01*
Y979606D01*
X-1318348Y978565D01*
X-1318557Y977107D01*
X-1318973Y975232D01*
X-1319390Y973358D01*
X-1320223Y971067D01*
X-1321056Y968984D01*
X-1322306Y966901D01*
X-1323972Y964610D01*
X-1325846Y962736D01*
X-1328138Y961069D01*
X-1330845Y959403D01*
X-1333969Y958362D01*
X-1337510Y957529D01*
X-1341676Y957320D01*
X-1418948D01*
X-1419989Y957529D01*
X-1421447Y957737D01*
X-1423322Y957945D01*
X-1425196Y958570D01*
X-1427487Y959195D01*
X-1429570Y960236D01*
X-1431653Y961486D01*
X-1433944Y962944D01*
X-1435818Y964818D01*
X-1437485Y967110D01*
X-1439151Y969817D01*
X-1440192Y972941D01*
X-1441025Y976482D01*
X-1441234Y980648D01*
Y1124153D01*
Y1124361D01*
Y1125194D01*
X-1441025Y1126235D01*
X-1440817Y1127902D01*
X-1440609Y1129568D01*
X-1439984Y1131651D01*
X-1439359Y1133734D01*
X-1438318Y1135816D01*
X-1437068Y1138107D01*
X-1435610Y1140190D01*
X-1433736Y1142065D01*
X-1431444Y1143939D01*
X-1428737Y1145397D01*
X-1425613Y1146647D01*
X-1422072Y1147480D01*
X-1417906Y1147688D01*
X-1340634D01*
X-1339593Y1147480D01*
D02*
G37*
G36*
X-901372Y959611D02*
X-919700Y887755D01*
X-963856D01*
X-943861Y958778D01*
X-992182Y1147688D01*
X-947818D01*
X-922825Y1022304D01*
X-897831Y1147688D01*
X-853676D01*
X-901372Y959611D01*
D02*
G37*
G36*
X71296Y1147480D02*
X72962Y1147272D01*
X74628Y1146855D01*
X76711Y1146439D01*
X78794Y1145606D01*
X80877Y1144772D01*
X83168Y1143523D01*
X85251Y1141856D01*
X87125Y1139982D01*
X89000Y1137691D01*
X90458Y1134983D01*
X91707Y1131859D01*
X92540Y1128318D01*
X92749Y1124153D01*
Y1054171D01*
X80668Y1042299D01*
X10895D01*
Y988979D01*
X51509D01*
Y1020638D01*
X92749D01*
Y980648D01*
Y980439D01*
Y979606D01*
X92540Y978565D01*
X92332Y977107D01*
X91915Y975232D01*
X91499Y973358D01*
X90666Y971067D01*
X89833Y968984D01*
X88583Y966901D01*
X86917Y964610D01*
X85042Y962736D01*
X82751Y961069D01*
X80044Y959403D01*
X76919Y958362D01*
X73379Y957529D01*
X69213Y957320D01*
X-8059D01*
X-9100Y957529D01*
X-10558Y957737D01*
X-12433Y957945D01*
X-14307Y958570D01*
X-16598Y959195D01*
X-18681Y960236D01*
X-20764Y961486D01*
X-23055Y962944D01*
X-24930Y964818D01*
X-26596Y967110D01*
X-28262Y969817D01*
X-29303Y972941D01*
X-30137Y976482D01*
X-30345Y980648D01*
Y1124153D01*
Y1124361D01*
Y1125194D01*
X-30137Y1126235D01*
X-29928Y1127902D01*
X-29720Y1129568D01*
X-29095Y1131651D01*
X-28470Y1133734D01*
X-27429Y1135816D01*
X-26179Y1138107D01*
X-24721Y1140190D01*
X-22847Y1142065D01*
X-20556Y1143939D01*
X-17848Y1145397D01*
X-14724Y1146647D01*
X-11183Y1147480D01*
X-7018Y1147688D01*
X70254D01*
X71296Y1147480D01*
D02*
G37*
G36*
X-83040Y1147688D02*
X-55338D01*
Y1111031D01*
X-83040D01*
Y993978D01*
X-54297D01*
Y957320D01*
X-103659D01*
X-104701Y957529D01*
X-106159Y957737D01*
X-108033Y957945D01*
X-109908Y958570D01*
X-112199Y959195D01*
X-114282Y960236D01*
X-116365Y961486D01*
X-118656Y962944D01*
X-120530Y964818D01*
X-122196Y967110D01*
X-123863Y969817D01*
X-124904Y972941D01*
X-125737Y976482D01*
X-125945Y980648D01*
Y1111031D01*
X-146357D01*
Y1147688D01*
X-125945D01*
Y1199342D01*
X-83040D01*
Y1147688D01*
D02*
G37*
G36*
X-188638Y1147480D02*
X-186971Y1147272D01*
X-185305Y1146855D01*
X-183222Y1146439D01*
X-181140Y1145606D01*
X-179057Y1144772D01*
X-176766Y1143523D01*
X-174683Y1141856D01*
X-172808Y1139982D01*
X-170934Y1137691D01*
X-169476Y1134983D01*
X-168226Y1131859D01*
X-167393Y1128318D01*
X-167185Y1124153D01*
Y957320D01*
X-208424D01*
Y963777D01*
X-209049D01*
X-209882Y963569D01*
X-211132Y963361D01*
X-212590Y963152D01*
X-214256Y962944D01*
X-216131Y962736D01*
X-218213Y962319D01*
X-222796Y961694D01*
X-228003Y960861D01*
X-233626Y960028D01*
X-239458Y959195D01*
X-239666D01*
X-240291Y958987D01*
X-241333D01*
X-242790Y958778D01*
X-244457Y958570D01*
X-246331Y958362D01*
X-248622Y958154D01*
X-250913Y957945D01*
X-255912Y957320D01*
X-260911Y956904D01*
X-265910Y956696D01*
X-268201Y956487D01*
X-271117D01*
X-272158Y956696D01*
X-273408Y956904D01*
X-274866Y957320D01*
X-276740Y957737D01*
X-278406Y958570D01*
X-280281Y959403D01*
X-282364Y960653D01*
X-284030Y962319D01*
X-285696Y964194D01*
X-287362Y966485D01*
X-288612Y968984D01*
X-289653Y972108D01*
X-290278Y975649D01*
X-290487Y979815D01*
Y1048339D01*
Y1048547D01*
Y1049380D01*
X-290278Y1050422D01*
X-290070Y1052088D01*
X-289862Y1053754D01*
X-289445Y1055837D01*
X-288820Y1057920D01*
X-287779Y1060002D01*
X-286738Y1062294D01*
X-285280Y1064376D01*
X-283613Y1066251D01*
X-281531Y1068125D01*
X-279239Y1069583D01*
X-276324Y1070833D01*
X-273199Y1071666D01*
X-269450Y1071874D01*
X-208008D01*
Y1115613D01*
X-249247D01*
Y1088537D01*
X-288196D01*
Y1124153D01*
Y1124361D01*
Y1125194D01*
X-287987Y1126235D01*
X-287779Y1127902D01*
X-287571Y1129568D01*
X-287154Y1131651D01*
X-286529Y1133734D01*
X-285488Y1135816D01*
X-284446Y1138107D01*
X-282989Y1140190D01*
X-281322Y1142065D01*
X-279239Y1143939D01*
X-276948Y1145397D01*
X-274032Y1146647D01*
X-270908Y1147480D01*
X-267159Y1147688D01*
X-189679D01*
X-188638Y1147480D01*
D02*
G37*
G36*
X-321729Y957320D02*
X-364218D01*
Y1252245D01*
X-321729D01*
Y957320D01*
D02*
G37*
G36*
X-417954Y1147272D02*
X-416288Y1147063D01*
X-414621Y1146855D01*
X-412539Y1146230D01*
X-410456Y1145606D01*
X-408373Y1144564D01*
X-406082Y1143314D01*
X-403999Y1141856D01*
X-402125Y1139982D01*
X-400250Y1137691D01*
X-398792Y1134983D01*
X-397543Y1131859D01*
X-396709Y1128318D01*
X-396501Y1124153D01*
Y980648D01*
Y980439D01*
Y979606D01*
X-396709Y978565D01*
X-396918Y977107D01*
X-397334Y975232D01*
X-397751Y973358D01*
X-398584Y971067D01*
X-399417Y968984D01*
X-400667Y966901D01*
X-402333Y964610D01*
X-404207Y962736D01*
X-406499Y961069D01*
X-409206Y959403D01*
X-412330Y958362D01*
X-415871Y957529D01*
X-420037Y957320D01*
X-499808D01*
X-500849Y957529D01*
X-502307Y957737D01*
X-504182Y957945D01*
X-506056Y958570D01*
X-508347Y959195D01*
X-510430Y960236D01*
X-512513Y961486D01*
X-514804Y962944D01*
X-516679Y964818D01*
X-518345Y967110D01*
X-520011Y969817D01*
X-521053Y972941D01*
X-521886Y976482D01*
X-522094Y980648D01*
Y1124153D01*
Y1124361D01*
Y1125194D01*
X-521886Y1126235D01*
X-521677Y1127902D01*
X-521469Y1129568D01*
X-520844Y1131442D01*
X-520219Y1133734D01*
X-519178Y1135816D01*
X-517928Y1137899D01*
X-516470Y1140190D01*
X-514596Y1142065D01*
X-512305Y1143939D01*
X-509597Y1145397D01*
X-506473Y1146439D01*
X-502932Y1147272D01*
X-498767Y1147480D01*
X-418995D01*
X-417954Y1147272D01*
D02*
G37*
G36*
X-705589Y957320D02*
X-749744D01*
Y1252245D01*
X-705589D01*
Y957320D01*
D02*
G37*
G36*
X-1014468D02*
X-1056957D01*
Y1252245D01*
X-1014468D01*
Y957320D01*
D02*
G37*
G36*
X-1090074D02*
X-1132563D01*
Y1252245D01*
X-1090074D01*
Y957320D01*
D02*
G37*
G36*
X-1186091Y1147480D02*
X-1184424Y1147272D01*
X-1182758Y1146855D01*
X-1180675Y1146439D01*
X-1178593Y1145606D01*
X-1176510Y1144772D01*
X-1174219Y1143523D01*
X-1172136Y1141856D01*
X-1170261Y1139982D01*
X-1168387Y1137691D01*
X-1166929Y1134983D01*
X-1165679Y1131859D01*
X-1164846Y1128318D01*
X-1164638Y1124153D01*
Y957320D01*
X-1205877D01*
Y963777D01*
X-1206502D01*
X-1207335Y963569D01*
X-1208585Y963361D01*
X-1210043Y963152D01*
X-1211709Y962944D01*
X-1213584Y962736D01*
X-1215666Y962319D01*
X-1220249Y961694D01*
X-1225456Y960861D01*
X-1231079Y960028D01*
X-1236911Y959195D01*
X-1237119D01*
X-1237744Y958987D01*
X-1238785D01*
X-1240243Y958778D01*
X-1241910Y958570D01*
X-1243784Y958362D01*
X-1246075Y958154D01*
X-1248366Y957945D01*
X-1253365Y957320D01*
X-1258364Y956904D01*
X-1263362Y956696D01*
X-1265654Y956487D01*
X-1268569D01*
X-1269611Y956696D01*
X-1270861Y956904D01*
X-1272319Y957320D01*
X-1274193Y957737D01*
X-1275859Y958570D01*
X-1277734Y959403D01*
X-1279817Y960653D01*
X-1281483Y962319D01*
X-1283149Y964194D01*
X-1284815Y966485D01*
X-1286065Y968984D01*
X-1287106Y972108D01*
X-1287731Y975649D01*
X-1287940Y979815D01*
Y1048339D01*
Y1048547D01*
Y1049380D01*
X-1287731Y1050422D01*
X-1287523Y1052088D01*
X-1287315Y1053754D01*
X-1286898Y1055837D01*
X-1286273Y1057920D01*
X-1285232Y1060002D01*
X-1284190Y1062294D01*
X-1282733Y1064376D01*
X-1281066Y1066251D01*
X-1278983Y1068125D01*
X-1276692Y1069583D01*
X-1273776Y1070833D01*
X-1270652Y1071666D01*
X-1266903Y1071874D01*
X-1205461D01*
Y1115613D01*
X-1246700D01*
Y1088537D01*
X-1285648D01*
Y1124153D01*
Y1124361D01*
Y1125194D01*
X-1285440Y1126235D01*
X-1285232Y1127902D01*
X-1285024Y1129568D01*
X-1284607Y1131651D01*
X-1283982Y1133734D01*
X-1282941Y1135816D01*
X-1281899Y1138107D01*
X-1280441Y1140190D01*
X-1278775Y1142065D01*
X-1276692Y1143939D01*
X-1274401Y1145397D01*
X-1271485Y1146647D01*
X-1268361Y1147480D01*
X-1264612Y1147688D01*
X-1187132D01*
X-1186091Y1147480D01*
D02*
G37*
G36*
X-1473100Y957320D02*
X-1515590D01*
Y1147688D01*
X-1473100D01*
Y957320D01*
D02*
G37*
G36*
X-1569534Y1147688D02*
X-1541833D01*
Y1111031D01*
X-1569534D01*
Y993978D01*
X-1540791D01*
Y957320D01*
X-1590154D01*
X-1591195Y957529D01*
X-1592653Y957737D01*
X-1594528Y957945D01*
X-1596402Y958570D01*
X-1598693Y959195D01*
X-1600776Y960236D01*
X-1602859Y961486D01*
X-1605150Y962944D01*
X-1607024Y964818D01*
X-1608691Y967110D01*
X-1610357Y969817D01*
X-1611398Y972941D01*
X-1612231Y976482D01*
X-1612440Y980648D01*
Y1111031D01*
X-1632851D01*
Y1147688D01*
X-1612440D01*
Y1199342D01*
X-1569534D01*
Y1147688D01*
D02*
G37*
G36*
X-1834883Y1252037D02*
X-1833217Y1251828D01*
X-1831550Y1251412D01*
X-1829468Y1250995D01*
X-1827385Y1250162D01*
X-1825302Y1249329D01*
X-1823011Y1248079D01*
X-1820928Y1246413D01*
X-1819054Y1244539D01*
X-1817179Y1242247D01*
X-1815721Y1239540D01*
X-1814471Y1236416D01*
X-1813638Y1232875D01*
X-1813430Y1228709D01*
Y980648D01*
Y980439D01*
Y979606D01*
X-1813638Y978565D01*
X-1813847Y977107D01*
X-1814263Y975232D01*
X-1814680Y973358D01*
X-1815513Y971067D01*
X-1816346Y968984D01*
X-1817596Y966901D01*
X-1819262Y964610D01*
X-1821136Y962736D01*
X-1823427Y961069D01*
X-1826135Y959403D01*
X-1829259Y958362D01*
X-1832800Y957529D01*
X-1836966Y957320D01*
X-1939856D01*
X-1940897Y957529D01*
X-1942355Y957737D01*
X-1944230Y957945D01*
X-1946104Y958570D01*
X-1948395Y959195D01*
X-1950478Y960236D01*
X-1952561Y961486D01*
X-1954852Y962944D01*
X-1956727Y964818D01*
X-1958393Y967110D01*
X-1960059Y969817D01*
X-1961100Y972941D01*
X-1961934Y976482D01*
X-1962142Y980648D01*
Y1228709D01*
Y1228918D01*
Y1229751D01*
X-1961934Y1230792D01*
X-1961725Y1232458D01*
X-1961517Y1234125D01*
X-1960892Y1236207D01*
X-1960267Y1238290D01*
X-1959226Y1240373D01*
X-1957976Y1242664D01*
X-1956518Y1244747D01*
X-1954644Y1246621D01*
X-1952353Y1248496D01*
X-1949645Y1249954D01*
X-1946521Y1251203D01*
X-1942980Y1252037D01*
X-1938815Y1252245D01*
X-1835924D01*
X-1834883Y1252037D01*
D02*
G37*
%LPC*%
G36*
X207094Y777394D02*
X179185D01*
X178143Y777186D01*
X176061Y776561D01*
X173353Y775519D01*
X172103Y774895D01*
X170854Y773853D01*
X169604Y772812D01*
X168563Y771354D01*
X167521Y769688D01*
X166896Y767813D01*
X166480Y765522D01*
X166271Y763023D01*
Y672004D01*
Y671796D01*
Y671379D01*
Y670755D01*
X166480Y669921D01*
X166896Y667630D01*
X167938Y665131D01*
X169604Y662632D01*
X170645Y661382D01*
X171895Y660341D01*
X173561Y659507D01*
X175436Y658883D01*
X177519Y658466D01*
X179810Y658258D01*
X181268D01*
X182101Y658466D01*
X184392D01*
X186058Y658674D01*
X187933D01*
X190015Y658883D01*
X192723Y659091D01*
X195639Y659299D01*
X198971Y659716D01*
X202720Y659924D01*
X207094Y660341D01*
Y777394D01*
D02*
G37*
G36*
X52342Y708453D02*
X11103D01*
Y655758D01*
X52342Y657216D01*
Y708453D01*
D02*
G37*
G36*
X-101993Y781768D02*
X-142608D01*
Y735946D01*
X-101993D01*
Y781768D01*
D02*
G37*
G36*
X-519178D02*
X-559793D01*
Y735946D01*
X-519178D01*
Y781768D01*
D02*
G37*
G36*
X-675180Y777394D02*
X-715794Y776561D01*
Y658883D01*
X-687885D01*
X-686843Y659091D01*
X-684761Y659716D01*
X-682053Y660757D01*
X-679554Y662423D01*
X-678512Y663465D01*
X-677263Y664923D01*
X-676429Y666589D01*
X-675805Y668463D01*
X-675388Y670546D01*
X-675180Y673046D01*
Y777394D01*
D02*
G37*
G36*
X-832223Y777186D02*
X-873046D01*
Y658674D01*
X-832223D01*
Y777186D01*
D02*
G37*
G36*
X-1133187Y880076D02*
X-1187132D01*
Y767813D01*
X-1133187D01*
Y880076D01*
D02*
G37*
G36*
X207094Y1111656D02*
X179185D01*
X178143Y1111448D01*
X176061Y1110823D01*
X173353Y1109781D01*
X172103Y1109157D01*
X170854Y1108115D01*
X169604Y1107074D01*
X168563Y1105616D01*
X167521Y1103950D01*
X166896Y1102075D01*
X166480Y1099784D01*
X166271Y1097285D01*
Y1006266D01*
Y1006058D01*
Y1005641D01*
Y1005017D01*
X166480Y1004183D01*
X166896Y1001892D01*
X167938Y999393D01*
X169604Y996894D01*
X170645Y995644D01*
X171895Y994603D01*
X173561Y993769D01*
X175436Y993145D01*
X177519Y992728D01*
X179810Y992520D01*
X181268D01*
X182101Y992728D01*
X184392D01*
X186058Y992936D01*
X187933D01*
X190015Y993145D01*
X192723Y993353D01*
X195639Y993561D01*
X198971Y993978D01*
X202720Y994186D01*
X207094Y994603D01*
Y1111656D01*
D02*
G37*
G36*
X-1696585Y1111864D02*
X-1737199Y1111031D01*
Y993145D01*
X-1709290D01*
X-1708249Y993353D01*
X-1706166Y993978D01*
X-1703458Y995019D01*
X-1700959Y996685D01*
X-1699917Y997727D01*
X-1698668Y999185D01*
X-1697835Y1000851D01*
X-1697210Y1002725D01*
X-1696793Y1004808D01*
X-1696585Y1007308D01*
Y1111864D01*
D02*
G37*
G36*
X51509Y1116030D02*
X10895D01*
Y1070208D01*
X51509D01*
Y1116030D01*
D02*
G37*
G36*
X-208008Y1042715D02*
X-249247D01*
Y990020D01*
X-208008Y991478D01*
Y1042715D01*
D02*
G37*
G36*
X-438782Y1111448D02*
X-479605D01*
Y992936D01*
X-438782D01*
Y1111448D01*
D02*
G37*
G36*
X-1205461Y1042715D02*
X-1246700D01*
Y990020D01*
X-1205461Y991478D01*
Y1042715D01*
D02*
G37*
G36*
X-1857585Y1214338D02*
X-1917987D01*
Y995227D01*
X-1857585D01*
Y1214338D01*
D02*
G37*
%LPD*%
D56*
X2400000Y550000D02*
G03*
X2400000Y550000I-12500J0D01*
G01*
X-2663000Y-272500D02*
G03*
X-2663000Y-272500I-12500J0D01*
G01*
X-1487500Y-675000D02*
G03*
X-1487500Y-675000I-12500J0D01*
G01*
X-1295000Y82500D02*
G03*
X-1295000Y82500I-12500J0D01*
G01*
X1032500Y-267500D02*
G03*
X1032500Y-267500I-12500J0D01*
G01*
D57*
X-2520000Y-60000D02*
G03*
X-2520000Y-60000I-30000J0D01*
G01*
X-1675000Y-555000D02*
G03*
X-1675000Y-555000I-30000J0D01*
G01*
D58*
X660000Y440000D02*
G03*
X660000Y440000I-10000J0D01*
G01*
X-580000Y150000D02*
G03*
X-580000Y150000I-10000J0D01*
G01*
X-120000Y170000D02*
G03*
X-120000Y170000I-50000J0D01*
G01*
X680000Y0D02*
G03*
X680000Y0I-10000J0D01*
G01*
Y140000D02*
G03*
X680000Y140000I-10000J0D01*
G01*
X940000Y-140000D02*
G03*
X940000Y-140000I-10000J0D01*
G01*
Y-280000D02*
G03*
X940000Y-280000I-10000J0D01*
G01*
X830000Y-480000D02*
G03*
X830000Y-480000I-10000J0D01*
G01*
X2295000Y575000D02*
Y885000D01*
X2205000Y575000D02*
Y885000D01*
X2295000D01*
X2205000Y575000D02*
X2295000D01*
X-2650000Y-160000D02*
X-2150000D01*
X-2650000Y160000D02*
X-2150000D01*
X-2650000Y-160000D02*
Y160000D01*
X-2150000Y-160000D02*
Y160000D01*
X-1835000Y-345000D02*
X-1605000D01*
X-1835000Y-655000D02*
X-1605000D01*
X-1835000D02*
Y-345000D01*
X-1605000Y-655000D02*
Y-345000D01*
X-1205000Y55000D02*
X-1125000D01*
Y-27500D02*
Y55000D01*
X-1205000Y-255000D02*
X-1125000D01*
Y-172500D01*
X900000Y720000D02*
Y800000D01*
Y500000D02*
Y580000D01*
X600000Y500000D02*
Y580000D01*
Y720000D02*
Y800000D01*
X-840000Y-170000D02*
Y30000D01*
X-540000Y-170000D02*
Y30000D01*
X1045000Y-175000D02*
Y-85000D01*
X1355000Y-175000D02*
Y-85000D01*
X1045000D02*
X1355000D01*
X1045000Y-175000D02*
X1355000D01*
X447000Y-406500D02*
Y266500D01*
X-267000D02*
X447000D01*
X-267000Y-406500D02*
Y266500D01*
Y-406500D02*
X447000D01*
X-2035000Y380000D02*
X-1585000D01*
X-2035000Y-20000D02*
Y380000D01*
Y-20000D02*
X-1585000D01*
Y380000D01*
X-160000Y-1390000D02*
Y-810000D01*
X-740000D02*
X-160000D01*
X-740000Y-1390000D02*
Y-810000D01*
Y-1390000D02*
X-160000D01*
X840000D02*
Y-810000D01*
X260000D02*
X840000D01*
X260000Y-1390000D02*
Y-810000D01*
Y-1390000D02*
X840000D01*
X1266500Y-417500D02*
X1280000D01*
Y-460000D02*
Y-417500D01*
X1120000D02*
X1133500D01*
X1120000Y-460000D02*
Y-417500D01*
X1130001Y-1170000D02*
X1270001D01*
X1130001D02*
Y-1030000D01*
X1270001Y-1170000D02*
Y-1030000D01*
X1100001Y-1408600D02*
X1300001D01*
X780000Y42500D02*
X820000D01*
X780000Y-42500D02*
X820000D01*
X780000Y182500D02*
X820000D01*
X780000Y97500D02*
X820000D01*
X780000Y-182500D02*
X820000D01*
X780000Y-97500D02*
X820000D01*
X780000Y-322500D02*
X820000D01*
X780000Y-237500D02*
X820000D01*
X930000Y-437500D02*
X970000D01*
X930000Y-522500D02*
X970000D01*
X1125000Y130000D02*
X1195000D01*
X1125000Y290000D02*
X1195000D01*
X-197051Y419990D02*
Y320011D01*
Y419990D02*
X-154203D01*
X-139920Y415229D01*
X-135160Y410468D01*
X-130399Y400946D01*
Y391424D01*
X-135160Y381902D01*
X-139920Y377141D01*
X-154203Y372381D01*
X-197051D01*
X-163725D02*
X-130399Y320011D01*
X-108023Y358098D02*
X-50892D01*
Y367620D01*
X-55653Y377141D01*
X-60414Y381902D01*
X-69936Y386663D01*
X-84218D01*
X-93740Y381902D01*
X-103262Y372381D01*
X-108023Y358098D01*
Y348576D01*
X-103262Y334293D01*
X-93740Y324772D01*
X-84218Y320011D01*
X-69936D01*
X-60414Y324772D01*
X-50892Y334293D01*
X-29468Y386663D02*
X-903Y320011D01*
X27663Y386663D02*
X-903Y320011D01*
X48611Y329532D02*
X43850Y324772D01*
X48611Y320011D01*
X53371Y324772D01*
X48611Y329532D01*
X230000Y320011D02*
X191913Y419990D01*
X153826Y320011D01*
X168109Y353337D02*
X215717D01*
X-1349661Y569989D02*
Y493815D01*
X-1354422Y479532D01*
X-1359183Y474772D01*
X-1368705Y470011D01*
X-1378226D01*
X-1387748Y474772D01*
X-1392509Y479532D01*
X-1397270Y493815D01*
Y503337D01*
X-1323952Y536663D02*
Y489054D01*
X-1319191Y474772D01*
X-1309670Y470011D01*
X-1295387D01*
X-1285865Y474772D01*
X-1271583Y489054D01*
Y536663D02*
Y470011D01*
X-1188267Y569989D02*
Y470011D01*
Y522380D02*
X-1197789Y531902D01*
X-1207311Y536663D01*
X-1221593D01*
X-1231115Y531902D01*
X-1240637Y522380D01*
X-1245398Y508098D01*
Y498576D01*
X-1240637Y484293D01*
X-1231115Y474772D01*
X-1221593Y470011D01*
X-1207311D01*
X-1197789Y474772D01*
X-1188267Y484293D01*
X-1104476Y569989D02*
Y470011D01*
Y522380D02*
X-1113997Y531902D01*
X-1123519Y536663D01*
X-1137802D01*
X-1147324Y531902D01*
X-1156845Y522380D01*
X-1161606Y508098D01*
Y498576D01*
X-1156845Y484293D01*
X-1147324Y474772D01*
X-1137802Y470011D01*
X-1123519D01*
X-1113997Y474772D01*
X-1104476Y484293D01*
X-999260Y569989D02*
Y470011D01*
Y569989D02*
X-937369D01*
X-999260Y522380D02*
X-961173D01*
X-902138Y536663D02*
X-911660Y531902D01*
X-921182Y522380D01*
X-925943Y508098D01*
Y498576D01*
X-921182Y484293D01*
X-911660Y474772D01*
X-902138Y470011D01*
X-887855D01*
X-878334Y474772D01*
X-868812Y484293D01*
X-864051Y498576D01*
Y508098D01*
X-868812Y522380D01*
X-878334Y531902D01*
X-887855Y536663D01*
X-902138D01*
X-789781Y522380D02*
X-794542Y531902D01*
X-808825Y536663D01*
X-823107D01*
X-837390Y531902D01*
X-842151Y522380D01*
X-837390Y512859D01*
X-827868Y508098D01*
X-804064Y503337D01*
X-794542Y498576D01*
X-789781Y489054D01*
Y484293D01*
X-794542Y474772D01*
X-808825Y470011D01*
X-823107D01*
X-837390Y474772D01*
X-842151Y484293D01*
X-754551Y569989D02*
Y489054D01*
X-749790Y474772D01*
X-740268Y470011D01*
X-730746D01*
X-768833Y536663D02*
X-735507D01*
X-716464Y508098D02*
X-659333D01*
Y517620D01*
X-664094Y527141D01*
X-668855Y531902D01*
X-678377Y536663D01*
X-692659D01*
X-702181Y531902D01*
X-711703Y522380D01*
X-716464Y508098D01*
Y498576D01*
X-711703Y484293D01*
X-702181Y474772D01*
X-692659Y470011D01*
X-678377D01*
X-668855Y474772D01*
X-659333Y484293D01*
X-637909Y536663D02*
Y470011D01*
Y508098D02*
X-633148Y522380D01*
X-623626Y531902D01*
X-614105Y536663D01*
X-599822D01*
X-512222Y569989D02*
Y470011D01*
X-412719Y569989D02*
Y470011D01*
Y569989D02*
X-350828D01*
X-412719Y522380D02*
X-374632D01*
X-339402Y508098D02*
X-282271D01*
Y517620D01*
X-287032Y527141D01*
X-291793Y531902D01*
X-301315Y536663D01*
X-315597D01*
X-325119Y531902D01*
X-334641Y522380D01*
X-339402Y508098D01*
Y498576D01*
X-334641Y484293D01*
X-325119Y474772D01*
X-315597Y470011D01*
X-301315D01*
X-291793Y474772D01*
X-282271Y484293D01*
X-260847Y569989D02*
Y470011D01*
Y522380D02*
X-251325Y531902D01*
X-241803Y536663D01*
X-227521D01*
X-217999Y531902D01*
X-208477Y522380D01*
X-203716Y508098D01*
Y498576D01*
X-208477Y484293D01*
X-217999Y474772D01*
X-227521Y470011D01*
X-241803D01*
X-251325Y474772D01*
X-260847Y484293D01*
X-98977Y546185D02*
Y550946D01*
X-94216Y560468D01*
X-89455Y565228D01*
X-79934Y569989D01*
X-60890D01*
X-51368Y565228D01*
X-46607Y560468D01*
X-41846Y550946D01*
Y541424D01*
X-46607Y531902D01*
X-56129Y517620D01*
X-103738Y470011D01*
X-37086D01*
X13856Y569989D02*
X-427Y565228D01*
X-9948Y550946D01*
X-14709Y527141D01*
Y512859D01*
X-9948Y489054D01*
X-427Y474772D01*
X13856Y470011D01*
X23378D01*
X37660Y474772D01*
X47182Y489054D01*
X51943Y512859D01*
Y527141D01*
X47182Y550946D01*
X37660Y565228D01*
X23378Y569989D01*
X13856D01*
X79080Y546185D02*
Y550946D01*
X83841Y560468D01*
X88602Y565228D01*
X98124Y569989D01*
X117167D01*
X126689Y565228D01*
X131450Y560468D01*
X136211Y550946D01*
Y541424D01*
X131450Y531902D01*
X121928Y517620D01*
X74319Y470011D01*
X140972D01*
X220478Y569989D02*
X172869D01*
X168109Y527141D01*
X172869Y531902D01*
X187152Y536663D01*
X201435D01*
X215717Y531902D01*
X225239Y522380D01*
X230000Y508098D01*
Y498576D01*
X225239Y484293D01*
X215717Y474772D01*
X201435Y470011D01*
X187152D01*
X172869Y474772D01*
X168109Y479532D01*
X163348Y489054D01*
D59*
X-463000Y184000D02*
G03*
X-463000Y184000I-10000J0D01*
G01*
X2209000Y-387500D02*
Y387500D01*
X2700000D01*
X2209000Y-387500D02*
X2690000D01*
X-980000Y-1335000D02*
Y-865000D01*
X-1269999Y-1335000D02*
X-980000D01*
X-1269999Y-865000D02*
X-980000D01*
X-2219999Y-1335000D02*
Y-865000D01*
Y-1335000D02*
X-1930000D01*
X-2219999Y-865000D02*
X-1930000D01*
X1430000Y235000D02*
X2170000D01*
X1430000Y-920000D02*
Y235000D01*
X2170000Y-920000D02*
Y235000D01*
X1430000Y-920000D02*
X2170000D01*
D60*
X-1951035Y-1430000D02*
G03*
X-1951035Y-1430000I-20000J0D01*
G01*
D61*
X1200001Y-1147507D02*
D03*
%TF.MD5,6d9fdd6f3243a503db278d0c900074e8*%
M02*
