%TF.GenerationSoftware,Altium Limited,Altium Designer,25.2.1 (25)*%
G04 Layer_Color=8421504*
%FSLAX45Y45*%
%MOMM*%
%TF.SameCoordinates,2968D444-F816-4350-AB46-43E4CE3DDFF8*%
%TF.FilePolarity,Positive*%
%TF.FileFunction,Paste,Top*%
%TF.Part,Single*%
G01*
G75*
%TA.AperFunction,SMDPad,CuDef*%
G04:AMPARAMS|DCode=12|XSize=0.6mm|YSize=1.1mm|CornerRadius=0.051mm|HoleSize=0mm|Usage=FLASHONLY|Rotation=270.000|XOffset=0mm|YOffset=0mm|HoleType=Round|Shape=RoundedRectangle|*
%AMROUNDEDRECTD12*
21,1,0.60000,0.99800,0,0,270.0*
21,1,0.49800,1.10000,0,0,270.0*
1,1,0.10200,-0.49900,-0.24900*
1,1,0.10200,-0.49900,0.24900*
1,1,0.10200,0.49900,0.24900*
1,1,0.10200,0.49900,-0.24900*
%
%ADD12ROUNDEDRECTD12*%
%ADD13R,0.60000X0.85000*%
%ADD14R,0.65000X0.80000*%
%ADD15R,0.57000X0.64000*%
%ADD16R,0.80000X0.65000*%
%ADD17R,0.60000X1.45000*%
G04:AMPARAMS|DCode=18|XSize=0.45mm|YSize=1.4mm|CornerRadius=0.1125mm|HoleSize=0mm|Usage=FLASHONLY|Rotation=270.000|XOffset=0mm|YOffset=0mm|HoleType=Round|Shape=RoundedRectangle|*
%AMROUNDEDRECTD18*
21,1,0.45000,1.17500,0,0,270.0*
21,1,0.22500,1.40000,0,0,270.0*
1,1,0.22500,-0.58750,-0.11250*
1,1,0.22500,-0.58750,0.11250*
1,1,0.22500,0.58750,0.11250*
1,1,0.22500,0.58750,-0.11250*
%
%ADD18ROUNDEDRECTD18*%
%ADD19R,1.35000X0.65000*%
G04:AMPARAMS|DCode=20|XSize=0.6mm|YSize=0.25mm|CornerRadius=0.05mm|HoleSize=0mm|Usage=FLASHONLY|Rotation=0.000|XOffset=0mm|YOffset=0mm|HoleType=Round|Shape=RoundedRectangle|*
%AMROUNDEDRECTD20*
21,1,0.60000,0.15000,0,0,0.0*
21,1,0.50000,0.25000,0,0,0.0*
1,1,0.10000,0.25000,-0.07500*
1,1,0.10000,-0.25000,-0.07500*
1,1,0.10000,-0.25000,0.07500*
1,1,0.10000,0.25000,0.07500*
%
%ADD20ROUNDEDRECTD20*%
G04:AMPARAMS|DCode=21|XSize=1.65mm|YSize=2.4mm|CornerRadius=0.05mm|HoleSize=0mm|Usage=FLASHONLY|Rotation=90.000|XOffset=0mm|YOffset=0mm|HoleType=Round|Shape=RoundedRectangle|*
%AMROUNDEDRECTD21*
21,1,1.65000,2.30000,0,0,90.0*
21,1,1.55000,2.40000,0,0,90.0*
1,1,0.10000,1.15000,0.77500*
1,1,0.10000,1.15000,-0.77500*
1,1,0.10000,-1.15000,-0.77500*
1,1,0.10000,-1.15000,0.77500*
%
%ADD21ROUNDEDRECTD21*%
G04:AMPARAMS|DCode=22|XSize=0.6mm|YSize=0.25mm|CornerRadius=0.05mm|HoleSize=0mm|Usage=FLASHONLY|Rotation=90.000|XOffset=0mm|YOffset=0mm|HoleType=Round|Shape=RoundedRectangle|*
%AMROUNDEDRECTD22*
21,1,0.60000,0.15000,0,0,90.0*
21,1,0.50000,0.25000,0,0,90.0*
1,1,0.10000,0.07500,0.25000*
1,1,0.10000,0.07500,-0.25000*
1,1,0.10000,-0.07500,-0.25000*
1,1,0.10000,-0.07500,0.25000*
%
%ADD22ROUNDEDRECTD22*%
%ADD23R,2.38000X1.65000*%
%ADD24R,0.25000X0.70000*%
G04:AMPARAMS|DCode=25|XSize=0.6mm|YSize=1.1mm|CornerRadius=0.051mm|HoleSize=0mm|Usage=FLASHONLY|Rotation=180.000|XOffset=0mm|YOffset=0mm|HoleType=Round|Shape=RoundedRectangle|*
%AMROUNDEDRECTD25*
21,1,0.60000,0.99800,0,0,180.0*
21,1,0.49800,1.10000,0,0,180.0*
1,1,0.10200,-0.24900,0.49900*
1,1,0.10200,0.24900,0.49900*
1,1,0.10200,0.24900,-0.49900*
1,1,0.10200,-0.24900,-0.49900*
%
%ADD25ROUNDEDRECTD25*%
%ADD26R,1.12000X0.96000*%
%ADD27R,1.00000X1.60000*%
%ADD28R,1.55000X1.30000*%
%ADD29R,0.53000X0.53000*%
%TA.AperFunction,ConnectorPad*%
%ADD30R,4.00000X1.00000*%
%ADD31R,4.00000X1.50000*%
%TA.AperFunction,SMDPad,CuDef*%
%ADD32R,0.65000X2.76000*%
%ADD33R,1.50000X1.75000*%
%ADD34R,0.50000X0.60000*%
%ADD35R,0.85000X0.60000*%
%ADD36R,1.30000X1.80000*%
D12*
X2120000Y635000D02*
D03*
Y825000D02*
D03*
X2380000D02*
D03*
Y730000D02*
D03*
Y635000D02*
D03*
D13*
X1980000Y787500D02*
D03*
Y672500D02*
D03*
X2520000Y787500D02*
D03*
Y672500D02*
D03*
X-470000Y-667500D02*
D03*
Y-552500D02*
D03*
X-2220000Y-442500D02*
D03*
Y-557500D02*
D03*
X-2400000D02*
D03*
Y-442500D02*
D03*
X-2460000Y442500D02*
D03*
Y557500D02*
D03*
X-1340000Y-477500D02*
D03*
Y-362500D02*
D03*
X-2100000Y-557500D02*
D03*
Y-442500D02*
D03*
X1005000Y677501D02*
D03*
Y792501D02*
D03*
X-1120000Y-362500D02*
D03*
Y-477500D02*
D03*
X495000Y792501D02*
D03*
Y677501D02*
D03*
D14*
X-590000Y-555000D02*
D03*
Y-665000D02*
D03*
X-2330000Y875000D02*
D03*
Y765000D02*
D03*
X-980000Y-665000D02*
D03*
Y-555000D02*
D03*
X-1230000Y-475000D02*
D03*
Y-365000D02*
D03*
X-870000Y-555000D02*
D03*
Y-665000D02*
D03*
X-760000Y-555000D02*
D03*
Y-665000D02*
D03*
X1115000Y905000D02*
D03*
Y795000D02*
D03*
X720000Y915000D02*
D03*
Y1025000D02*
D03*
X610000Y915000D02*
D03*
Y1025000D02*
D03*
X-1460000Y-155000D02*
D03*
Y-45000D02*
D03*
X385000Y795000D02*
D03*
Y905000D02*
D03*
X-920000Y-245000D02*
D03*
Y-135000D02*
D03*
Y105000D02*
D03*
Y-5000D02*
D03*
D15*
X-2319000Y650000D02*
D03*
X-2221000Y650000D02*
D03*
D16*
X-1985000Y730000D02*
D03*
X-1875000Y730000D02*
D03*
X-1745000Y730000D02*
D03*
X-1635000Y730000D02*
D03*
X-2325000Y540000D02*
D03*
X-2215000D02*
D03*
X-2825000Y100000D02*
D03*
X-2935000D02*
D03*
X-2825000Y0D02*
D03*
X-2935000D02*
D03*
X-1335000Y-640000D02*
D03*
X-1225000D02*
D03*
X895000Y-710000D02*
D03*
X1005000D02*
D03*
X1005000Y-600000D02*
D03*
X895000D02*
D03*
X1255000Y-630000D02*
D03*
X1145000D02*
D03*
D17*
X-2590500Y-272500D02*
D03*
X-2463500D02*
D03*
X-2336500D02*
D03*
X-2209500D02*
D03*
X-2590500Y272500D02*
D03*
X-2463500D02*
D03*
X-2336500D02*
D03*
X-2209500D02*
D03*
D18*
X-1940000Y-402500D02*
D03*
Y-467500D02*
D03*
Y-532500D02*
D03*
Y-597500D02*
D03*
X-1500000Y-402500D02*
D03*
Y-467500D02*
D03*
Y-532500D02*
D03*
Y-597500D02*
D03*
D19*
X-1307500Y-5000D02*
D03*
Y-195000D02*
D03*
X-1092500Y-100000D02*
D03*
D20*
X890000Y625000D02*
D03*
X610000D02*
D03*
X890000Y675000D02*
D03*
X610000D02*
D03*
D21*
X750000Y650000D02*
D03*
D22*
X650000Y790000D02*
D03*
X700000D02*
D03*
X750000D02*
D03*
X800000D02*
D03*
X850000D02*
D03*
Y510000D02*
D03*
X800000D02*
D03*
X750000D02*
D03*
X700000D02*
D03*
X650000D02*
D03*
D23*
X-690000Y-70000D02*
D03*
D24*
X-590000Y-212500D02*
D03*
X-640000D02*
D03*
X-690000D02*
D03*
X-740000D02*
D03*
X-790000D02*
D03*
Y72500D02*
D03*
X-740000D02*
D03*
X-690000D02*
D03*
X-640000D02*
D03*
X-590000D02*
D03*
D25*
X1105000Y-260000D02*
D03*
X1200000D02*
D03*
X1295000D02*
D03*
Y0D02*
D03*
X1105000D02*
D03*
D26*
X547000Y184000D02*
D03*
Y-70000D02*
D03*
Y-324000D02*
D03*
X-367000D02*
D03*
Y-70000D02*
D03*
Y184000D02*
D03*
D27*
X-2000000Y500000D02*
D03*
X-1620000D02*
D03*
Y-140000D02*
D03*
X-2000000D02*
D03*
D28*
X-52500Y-875000D02*
D03*
Y-1325000D02*
D03*
X-847500D02*
D03*
Y-875000D02*
D03*
X947501D02*
D03*
Y-1325000D02*
D03*
X152500D02*
D03*
Y-875000D02*
D03*
D29*
X1200000Y-405000D02*
D03*
X1250000Y-515000D02*
D03*
X1150000D02*
D03*
D30*
X-3275000Y0D02*
D03*
D31*
Y277000D02*
D03*
Y-277000D02*
D03*
D32*
X-1346000Y-898000D02*
D03*
Y-1302000D02*
D03*
X-1473000Y-898000D02*
D03*
Y-1302000D02*
D03*
X-1600000Y-898000D02*
D03*
Y-1302000D02*
D03*
X-1727000Y-898000D02*
D03*
Y-1302000D02*
D03*
X-1854000Y-898000D02*
D03*
Y-1302000D02*
D03*
D33*
X1200001Y-912500D02*
D03*
Y-1287500D02*
D03*
D34*
X870000Y0D02*
D03*
X730000D02*
D03*
X870000Y140000D02*
D03*
X730000D02*
D03*
X730000Y-140000D02*
D03*
X870000D02*
D03*
X730000Y-280000D02*
D03*
X870000D02*
D03*
X1020000Y-480000D02*
D03*
X880000D02*
D03*
D35*
X-2327500Y430000D02*
D03*
X-2212500D02*
D03*
X-772500Y-430000D02*
D03*
X-887500D02*
D03*
X857500Y340000D02*
D03*
X742500D02*
D03*
X597500D02*
D03*
X482500D02*
D03*
X1257500Y-740000D02*
D03*
X1142500D02*
D03*
D36*
X1300000Y210000D02*
D03*
X1020000D02*
D03*
%TF.MD5,01b282948817fd319fbe6f5f400f8080*%
M02*
