%TF.GenerationSoftware,Altium Limited,Altium Designer,25.2.1 (25)*%
G04 Layer_Color=128*
%FSLAX45Y45*%
%MOMM*%
%TF.SameCoordinates,2968D444-F816-4350-AB46-43E4CE3DDFF8*%
%TF.FilePolarity,Positive*%
%TF.FileFunction,Paste,Bot*%
%TF.Part,Single*%
G01*
G75*
%TA.AperFunction,SMDPad,CuDef*%
%ADD13R,0.60000X0.85000*%
%ADD14R,0.65000X0.80000*%
%ADD16R,0.80000X0.65000*%
%TA.AperFunction,ConnectorPad*%
%ADD31R,4.00000X1.50000*%
%TA.AperFunction,SMDPad,CuDef*%
%ADD35R,0.85000X0.60000*%
%ADD36R,1.30000X1.80000*%
%ADD45R,1.80000X1.30000*%
%ADD46R,1.25000X1.75000*%
%ADD47R,1.30000X0.60000*%
%ADD48R,1.30000X0.30000*%
%ADD49R,0.60000X1.10000*%
%ADD50R,1.45000X0.45000*%
%ADD51R,1.45000X0.45000*%
%ADD52R,0.64000X0.57000*%
%ADD53R,1.13000X2.02000*%
%ADD54R,3.50000X1.78000*%
%ADD55R,0.60000X0.40000*%
D13*
X-2200000Y57500D02*
D03*
Y-57500D02*
D03*
X-1230000Y-1237500D02*
D03*
Y-1122500D02*
D03*
X-900000Y-1297500D02*
D03*
Y-1182500D02*
D03*
X750000Y607500D02*
D03*
Y492500D02*
D03*
D14*
X-2310000Y55000D02*
D03*
Y-55000D02*
D03*
X-1120000Y-1235000D02*
D03*
Y-1125000D02*
D03*
X2530000Y-515000D02*
D03*
Y-625000D02*
D03*
X2640000Y-515000D02*
D03*
Y-625000D02*
D03*
X330000Y-1155000D02*
D03*
Y-1045000D02*
D03*
D16*
X2555000Y400000D02*
D03*
X2445000D02*
D03*
X-1225000Y-640000D02*
D03*
X-1335000D02*
D03*
X945001Y-1050000D02*
D03*
X1055001D02*
D03*
X945001Y-1150000D02*
D03*
X1055001D02*
D03*
X-685000Y60000D02*
D03*
X-795000D02*
D03*
X-685000Y-200000D02*
D03*
X-795000D02*
D03*
D31*
X-3275000Y277000D02*
D03*
Y-277000D02*
D03*
D35*
X-682500Y-310000D02*
D03*
X-797500D02*
D03*
X-682500Y170000D02*
D03*
X-797500D02*
D03*
D36*
X-1340000Y-100000D02*
D03*
X-1060000D02*
D03*
X120000Y50000D02*
D03*
X400000D02*
D03*
X120000Y290000D02*
D03*
X400000D02*
D03*
X-420000Y-190000D02*
D03*
X-140000D02*
D03*
X-420000Y50000D02*
D03*
X-140000D02*
D03*
X400000Y-430000D02*
D03*
X120000D02*
D03*
X400000Y-190000D02*
D03*
X120000D02*
D03*
X1300000Y210000D02*
D03*
X1020000D02*
D03*
D45*
X2605000Y870000D02*
D03*
Y590000D02*
D03*
X1895000D02*
D03*
Y870000D02*
D03*
X-1520000Y-640000D02*
D03*
Y-360000D02*
D03*
X-1920000Y-640000D02*
D03*
Y-360000D02*
D03*
X-2220000Y-260000D02*
D03*
Y-540000D02*
D03*
X960000Y540000D02*
D03*
Y820000D02*
D03*
X540000D02*
D03*
Y540000D02*
D03*
D46*
X2387500Y830000D02*
D03*
X2112500D02*
D03*
X2387500Y1070000D02*
D03*
X2112500D02*
D03*
D47*
X2784000Y320000D02*
D03*
Y240000D02*
D03*
Y-240000D02*
D03*
Y-320000D02*
D03*
D48*
Y175000D02*
D03*
Y-175000D02*
D03*
Y125000D02*
D03*
Y-125000D02*
D03*
Y75000D02*
D03*
Y-75000D02*
D03*
Y25000D02*
D03*
Y-25000D02*
D03*
D49*
X-965000Y-740000D02*
D03*
X-870000D02*
D03*
X-775000D02*
D03*
Y-480000D02*
D03*
X-870000D02*
D03*
X-965000D02*
D03*
X455000Y-960000D02*
D03*
X550000D02*
D03*
X645000D02*
D03*
Y-1240000D02*
D03*
X455000D02*
D03*
D50*
X-1380000Y-1197500D02*
D03*
Y-1132500D02*
D03*
Y-1067500D02*
D03*
Y-1002500D02*
D03*
X-1819999D02*
D03*
Y-1067500D02*
D03*
Y-1132500D02*
D03*
Y-1197500D02*
D03*
D51*
X-745000Y-1295000D02*
D03*
Y-1100000D02*
D03*
Y-1165000D02*
D03*
Y-1230000D02*
D03*
Y-905000D02*
D03*
X-155000D02*
D03*
Y-970000D02*
D03*
Y-1035000D02*
D03*
Y-1100000D02*
D03*
Y-1165000D02*
D03*
Y-1230000D02*
D03*
Y-1295000D02*
D03*
X-745000Y-970000D02*
D03*
Y-1035000D02*
D03*
D52*
X-1010000Y-1289000D02*
D03*
Y-1191000D02*
D03*
D53*
X833500Y120000D02*
D03*
X606500D02*
D03*
X833500Y-260000D02*
D03*
X606500D02*
D03*
X1313500Y-130000D02*
D03*
X1086500D02*
D03*
D54*
X1800000Y-761500D02*
D03*
Y-238500D02*
D03*
D55*
X1200001Y-1135000D02*
D03*
Y-1065000D02*
D03*
%TF.MD5,0cae9f882adf065bf41229874cb4868c*%
M02*
