%TF.GenerationSoftware,Altium Limited,Altium Designer,25.2.1 (25)*%
G04 Layer_Physical_Order=1*
G04 Layer_Color=5636351*
%FSLAX45Y45*%
%MOMM*%
%TF.SameCoordinates,2968D444-F816-4350-AB46-43E4CE3DDFF8*%
%TF.FilePolarity,Positive*%
%TF.FileFunction,Copper,L1,Top,Signal*%
%TF.Part,Single*%
G01*
G75*
%TA.AperFunction,Conductor*%
%ADD10C,0.20000*%
%ADD11C,0.34930*%
%TA.AperFunction,SMDPad,CuDef*%
G04:AMPARAMS|DCode=12|XSize=0.6mm|YSize=1.1mm|CornerRadius=0.051mm|HoleSize=0mm|Usage=FLASHONLY|Rotation=270.000|XOffset=0mm|YOffset=0mm|HoleType=Round|Shape=RoundedRectangle|*
%AMROUNDEDRECTD12*
21,1,0.60000,0.99800,0,0,270.0*
21,1,0.49800,1.10000,0,0,270.0*
1,1,0.10200,-0.49900,-0.24900*
1,1,0.10200,-0.49900,0.24900*
1,1,0.10200,0.49900,0.24900*
1,1,0.10200,0.49900,-0.24900*
%
%ADD12ROUNDEDRECTD12*%
%ADD13R,0.60000X0.85000*%
%ADD14R,0.65000X0.80000*%
%ADD15R,0.57000X0.64000*%
%ADD16R,0.80000X0.65000*%
%ADD17R,0.60000X1.45000*%
G04:AMPARAMS|DCode=18|XSize=0.45mm|YSize=1.4mm|CornerRadius=0.1125mm|HoleSize=0mm|Usage=FLASHONLY|Rotation=270.000|XOffset=0mm|YOffset=0mm|HoleType=Round|Shape=RoundedRectangle|*
%AMROUNDEDRECTD18*
21,1,0.45000,1.17500,0,0,270.0*
21,1,0.22500,1.40000,0,0,270.0*
1,1,0.22500,-0.58750,-0.11250*
1,1,0.22500,-0.58750,0.11250*
1,1,0.22500,0.58750,0.11250*
1,1,0.22500,0.58750,-0.11250*
%
%ADD18ROUNDEDRECTD18*%
%ADD19R,1.35000X0.65000*%
G04:AMPARAMS|DCode=20|XSize=0.6mm|YSize=0.25mm|CornerRadius=0.05mm|HoleSize=0mm|Usage=FLASHONLY|Rotation=0.000|XOffset=0mm|YOffset=0mm|HoleType=Round|Shape=RoundedRectangle|*
%AMROUNDEDRECTD20*
21,1,0.60000,0.15000,0,0,0.0*
21,1,0.50000,0.25000,0,0,0.0*
1,1,0.10000,0.25000,-0.07500*
1,1,0.10000,-0.25000,-0.07500*
1,1,0.10000,-0.25000,0.07500*
1,1,0.10000,0.25000,0.07500*
%
%ADD20ROUNDEDRECTD20*%
G04:AMPARAMS|DCode=21|XSize=1.65mm|YSize=2.4mm|CornerRadius=0.05mm|HoleSize=0mm|Usage=FLASHONLY|Rotation=90.000|XOffset=0mm|YOffset=0mm|HoleType=Round|Shape=RoundedRectangle|*
%AMROUNDEDRECTD21*
21,1,1.65000,2.30000,0,0,90.0*
21,1,1.55000,2.40000,0,0,90.0*
1,1,0.10000,1.15000,0.77500*
1,1,0.10000,1.15000,-0.77500*
1,1,0.10000,-1.15000,-0.77500*
1,1,0.10000,-1.15000,0.77500*
%
%ADD21ROUNDEDRECTD21*%
G04:AMPARAMS|DCode=22|XSize=0.6mm|YSize=0.25mm|CornerRadius=0.05mm|HoleSize=0mm|Usage=FLASHONLY|Rotation=90.000|XOffset=0mm|YOffset=0mm|HoleType=Round|Shape=RoundedRectangle|*
%AMROUNDEDRECTD22*
21,1,0.60000,0.15000,0,0,90.0*
21,1,0.50000,0.25000,0,0,90.0*
1,1,0.10000,0.07500,0.25000*
1,1,0.10000,0.07500,-0.25000*
1,1,0.10000,-0.07500,-0.25000*
1,1,0.10000,-0.07500,0.25000*
%
%ADD22ROUNDEDRECTD22*%
%ADD23R,2.38000X1.65000*%
%ADD24R,0.25000X0.70000*%
G04:AMPARAMS|DCode=25|XSize=0.6mm|YSize=1.1mm|CornerRadius=0.051mm|HoleSize=0mm|Usage=FLASHONLY|Rotation=180.000|XOffset=0mm|YOffset=0mm|HoleType=Round|Shape=RoundedRectangle|*
%AMROUNDEDRECTD25*
21,1,0.60000,0.99800,0,0,180.0*
21,1,0.49800,1.10000,0,0,180.0*
1,1,0.10200,-0.24900,0.49900*
1,1,0.10200,0.24900,0.49900*
1,1,0.10200,0.24900,-0.49900*
1,1,0.10200,-0.24900,-0.49900*
%
%ADD25ROUNDEDRECTD25*%
%ADD26R,1.12000X0.96000*%
%ADD27R,1.00000X1.60000*%
%ADD28R,1.55000X1.30000*%
%ADD29R,0.53000X0.53000*%
%TA.AperFunction,ConnectorPad*%
%ADD30R,4.00000X1.00000*%
%ADD31R,4.00000X1.50000*%
%TA.AperFunction,SMDPad,CuDef*%
%ADD32R,0.65000X2.76000*%
%ADD33R,1.50000X1.75000*%
%ADD34R,0.50000X0.60000*%
%ADD35R,0.85000X0.60000*%
%ADD36R,1.30000X1.80000*%
%TA.AperFunction,Conductor*%
%ADD37C,0.50000*%
%ADD38R,1.40000X1.00000*%
%TA.AperFunction,ComponentPad*%
%ADD39O,1.50000X1.00000*%
G04:AMPARAMS|DCode=40|XSize=2mm|YSize=1mm|CornerRadius=0.5mm|HoleSize=0mm|Usage=FLASHONLY|Rotation=180.000|XOffset=0mm|YOffset=0mm|HoleType=Round|Shape=RoundedRectangle|*
%AMROUNDEDRECTD40*
21,1,2.00000,0.00000,0,0,180.0*
21,1,1.00000,1.00000,0,0,180.0*
1,1,1.00000,-0.50000,0.00000*
1,1,1.00000,0.50000,0.00000*
1,1,1.00000,0.50000,0.00000*
1,1,1.00000,-0.50000,0.00000*
%
%ADD40ROUNDEDRECTD40*%
%ADD41C,0.65000*%
%ADD42C,1.90000*%
%TA.AperFunction,ViaPad*%
%ADD43C,7.00000*%
%ADD44C,0.60000*%
G36*
X812500Y1022500D02*
Y790000D01*
X787500D01*
Y950000D01*
X752500Y985000D01*
X687500D01*
Y1065000D01*
X770000D01*
X812500Y1022500D01*
D02*
G37*
G36*
X762500Y945000D02*
Y790000D01*
X737500D01*
Y841342D01*
X703842Y875000D01*
X687500D01*
Y955000D01*
X752500D01*
X762500Y945000D01*
D02*
G37*
G36*
X1147500Y750000D02*
X837500D01*
Y819999D01*
X884999D01*
X900000Y835000D01*
X1147500D01*
Y750000D01*
D02*
G37*
G36*
X615001Y819999D02*
X662500D01*
Y750000D01*
X352500D01*
Y835000D01*
X600000D01*
X615001Y819999D01*
D02*
G37*
G36*
X2040000Y745000D02*
X1805000D01*
Y935000D01*
X2040000D01*
Y745000D01*
D02*
G37*
G36*
X2695000Y745000D02*
X2460000Y745000D01*
Y935000D01*
X2695000D01*
Y745000D01*
D02*
G37*
G36*
Y525000D02*
X2460000D01*
Y685000D01*
X2490000Y715000D01*
X2695000D01*
Y525000D01*
D02*
G37*
G36*
X2040000D02*
X1805000D01*
Y715000D01*
X2040000D01*
Y525000D01*
D02*
G37*
G36*
X3133991Y1722259D02*
X3188388Y1707684D01*
X3240419Y1686131D01*
X3289190Y1657974D01*
X3333868Y1623691D01*
X3373691Y1583868D01*
X3407974Y1539190D01*
X3436131Y1490420D01*
X3457683Y1438389D01*
X3472258Y1383993D01*
X3479609Y1328158D01*
Y1300000D01*
Y400000D01*
X3400000D01*
Y415327D01*
X3402768Y419060D01*
X3406577Y425414D01*
X3409745Y432111D01*
X3412240Y439086D01*
X3414040Y446273D01*
X3415128Y453601D01*
X3415491Y461000D01*
X3415128Y468399D01*
X3414040Y475728D01*
X3412240Y482914D01*
X3409745Y489889D01*
X3406577Y496586D01*
X3402768Y502941D01*
X3400000Y506674D01*
Y601390D01*
X3399900Y607702D01*
X3399103Y620302D01*
X3397514Y632826D01*
X3395137Y645225D01*
X3391982Y657449D01*
X3388063Y669450D01*
X3383394Y681179D01*
X3377995Y692591D01*
X3371886Y703640D01*
X3365093Y714281D01*
X3357641Y724472D01*
X3349562Y734172D01*
X3340886Y743344D01*
X3331649Y751950D01*
X3321888Y759956D01*
X3311641Y767330D01*
X3300949Y774043D01*
X3289855Y780068D01*
X3278403Y785381D01*
X3266638Y789962D01*
X3254608Y793790D01*
X3242360Y796852D01*
X3229944Y799135D01*
X3217408Y800631D01*
X3211111Y801081D01*
Y801081D01*
X3200574Y801667D01*
X3179544Y803475D01*
X3158578Y805915D01*
X3137696Y808987D01*
X3116915Y812686D01*
X3096255Y817011D01*
X3075736Y821956D01*
X3055374Y827518D01*
X3035190Y833691D01*
X3015200Y840469D01*
X2995425Y847847D01*
X2975880Y855818D01*
X2956585Y864375D01*
X2937556Y873509D01*
X2918812Y883213D01*
X2900369Y893478D01*
X2882243Y904293D01*
X2864452Y915651D01*
X2847011Y927539D01*
X2829936Y939948D01*
X2813244Y952866D01*
X2796948Y966281D01*
X2781065Y980182D01*
X2765607Y994555D01*
X2750590Y1009387D01*
X2736027Y1024666D01*
X2721930Y1040376D01*
X2708314Y1056504D01*
X2695191Y1073036D01*
X2682571Y1089955D01*
X2670468Y1107248D01*
X2658891Y1124897D01*
X2647852Y1142887D01*
X2637360Y1161202D01*
X2627425Y1179825D01*
X2618056Y1198739D01*
X2613658Y1208333D01*
X2609872Y1216403D01*
X2601871Y1232334D01*
X2593307Y1247970D01*
X2584191Y1263291D01*
X2574534Y1278276D01*
X2564350Y1292909D01*
X2553650Y1307168D01*
X2542449Y1321037D01*
X2530761Y1334498D01*
X2518600Y1347534D01*
X2505982Y1360128D01*
X2492923Y1372264D01*
X2479440Y1383927D01*
X2465550Y1395102D01*
X2451270Y1405775D01*
X2436618Y1415932D01*
X2421614Y1425560D01*
X2406277Y1434646D01*
X2390625Y1443181D01*
X2374679Y1451152D01*
X2358458Y1458549D01*
X2341984Y1465364D01*
X2325278Y1471587D01*
X2308361Y1477210D01*
X2291254Y1482227D01*
X2273979Y1486630D01*
X2256558Y1490415D01*
X2239013Y1493577D01*
X2221366Y1496111D01*
X2203641Y1498014D01*
X2185858Y1499285D01*
X2169081Y1499883D01*
X2168042Y1499921D01*
X2159129Y1500000D01*
X2159129Y1500000D01*
X2159129Y1500000D01*
X-2050000Y1500000D01*
X-2059817Y1499903D01*
X-2079436Y1499132D01*
X-2099009Y1497592D01*
X-2118506Y1495284D01*
X-2137898Y1492213D01*
X-2157155Y1488383D01*
X-2176246Y1483799D01*
X-2195142Y1478470D01*
X-2213815Y1472403D01*
X-2232235Y1465607D01*
X-2250374Y1458094D01*
X-2268205Y1449874D01*
X-2285698Y1440960D01*
X-2302829Y1431367D01*
X-2319569Y1421108D01*
X-2335894Y1410200D01*
X-2351778Y1398660D01*
X-2367197Y1386505D01*
X-2382126Y1373754D01*
X-2396544Y1360427D01*
X-2410427Y1346543D01*
X-2423754Y1332126D01*
X-2436505Y1317197D01*
X-2448660Y1301778D01*
X-2460201Y1285894D01*
X-2471109Y1269569D01*
X-2481367Y1252829D01*
X-2490960Y1235698D01*
X-2499874Y1218204D01*
X-2508094Y1200374D01*
X-2515607Y1182235D01*
X-2522403Y1163815D01*
X-2528470Y1145142D01*
X-2533799Y1126246D01*
X-2538383Y1107155D01*
X-2542213Y1087898D01*
X-2545284Y1068506D01*
X-2547592Y1049009D01*
X-2549133Y1029435D01*
X-2549903Y1009817D01*
X-2550000Y1000000D01*
X-2550000D01*
Y450000D01*
X-3479610D01*
Y1300000D01*
Y1328158D01*
X-3472259Y1383991D01*
X-3457684Y1438388D01*
X-3436131Y1490420D01*
X-3407974Y1539190D01*
X-3373691Y1583868D01*
X-3333868Y1623691D01*
X-3289190Y1657974D01*
X-3240420Y1686131D01*
X-3188389Y1707683D01*
X-3133993Y1722259D01*
X-3078158Y1729609D01*
X3078158D01*
X3133991Y1722259D01*
D02*
G37*
G36*
X862500Y390000D02*
X815000D01*
X813040Y389904D01*
X809194Y389139D01*
X805572Y387639D01*
X802312Y385460D01*
X799540Y382688D01*
X797361Y379428D01*
X795861Y375806D01*
X795096Y371960D01*
X795000Y370000D01*
Y310000D01*
X700000D01*
Y406907D01*
X750000D01*
X752818Y407000D01*
X758407Y407735D01*
X763851Y409194D01*
X769059Y411351D01*
X773941Y414170D01*
X778413Y417601D01*
X782398Y421587D01*
X785830Y426059D01*
X788648Y430940D01*
X790805Y436148D01*
X792264Y441593D01*
X793000Y447181D01*
X793092Y450000D01*
Y460000D01*
X837500D01*
Y510000D01*
X862500D01*
Y390000D01*
D02*
G37*
G36*
X712500Y471230D02*
X711212Y468773D01*
X709122Y463636D01*
X707709Y458273D01*
X706997Y452773D01*
X706908Y450000D01*
Y426907D01*
X700000D01*
X698040Y426811D01*
X694194Y426046D01*
X690572Y424546D01*
X687312Y422367D01*
X684540Y419595D01*
X682362Y416335D01*
X680861Y412713D01*
X680097Y408868D01*
X680000Y406907D01*
Y310000D01*
X555000D01*
Y462303D01*
X557494Y463160D01*
X562329Y465263D01*
X566916Y467864D01*
X571204Y470933D01*
X575145Y474436D01*
X578695Y478335D01*
X581814Y482586D01*
X584469Y487142D01*
X586629Y491953D01*
X588270Y496963D01*
X589375Y502119D01*
X589930Y507363D01*
X590000Y509999D01*
X590000Y510000D01*
Y547500D01*
X712500D01*
Y471230D01*
D02*
G37*
G36*
X-2170000Y354500D02*
X-2179500Y345000D01*
Y200000D01*
X-2239500D01*
Y345000D01*
X-2255000Y360500D01*
Y572500D01*
X-2170000Y572500D01*
Y354500D01*
D02*
G37*
G36*
X-2284999Y366500D02*
X-2306500Y345000D01*
Y200000D01*
X-2366500D01*
Y345000D01*
X-2370000Y348500D01*
Y805000D01*
X-2284999D01*
Y366500D01*
D02*
G37*
G36*
X-2430000Y200000D02*
X-2493500D01*
Y485000D01*
X-2430000D01*
Y200000D01*
D02*
G37*
G36*
X755000Y110000D02*
X491000D01*
Y232000D01*
X755000D01*
Y110000D01*
D02*
G37*
G36*
X-2960000Y290000D02*
Y157501D01*
X-2934999Y132500D01*
X-2894999D01*
Y67500D01*
X-2975000D01*
X-3010000Y102500D01*
Y170000D01*
X-3042000Y202000D01*
X-3475000D01*
Y352000D01*
X-3022000D01*
X-2960000Y290000D01*
D02*
G37*
G36*
X-311000Y105000D02*
X-485000D01*
X-486635Y104946D01*
X-489877Y104519D01*
X-493036Y103673D01*
X-496057Y102421D01*
X-498889Y100786D01*
X-501484Y98795D01*
X-503796Y96483D01*
X-505787Y93889D01*
X-507422Y91057D01*
X-508673Y88035D01*
X-509519Y84877D01*
X-509946Y81635D01*
X-510000Y80000D01*
Y37500D01*
X-602500D01*
Y107500D01*
X-590000Y120000D01*
Y232000D01*
X-311000D01*
Y105000D01*
D02*
G37*
G36*
X895000Y-30000D02*
X825000D01*
Y170000D01*
X895000D01*
Y-30000D01*
D02*
G37*
G36*
X-2975000Y32500D02*
X-2894999D01*
Y-32500D01*
X-2975000D01*
X-3075000Y-50000D01*
X-3475000D01*
Y50000D01*
X-3075000D01*
X-2975000Y32500D01*
D02*
G37*
G36*
X1365000Y-55000D02*
X1235000D01*
Y300000D01*
X1365000D01*
Y-55000D01*
D02*
G37*
G36*
X1135000D02*
X955000D01*
Y255001D01*
X900000Y310000D01*
X815000D01*
Y370000D01*
X862500D01*
Y370001D01*
X864460Y370097D01*
X868306Y370862D01*
X871928Y372362D01*
X875188Y374540D01*
X877960Y377312D01*
X880138Y380572D01*
X881639Y384195D01*
X882403Y388040D01*
X882500Y390000D01*
X882500Y567500D01*
X570000D01*
Y510000D01*
X569999Y510000D01*
X570000Y507823D01*
X569371Y503516D01*
X568128Y499344D01*
X566295Y495395D01*
X563911Y491753D01*
X561027Y488492D01*
X557702Y485682D01*
X554006Y483382D01*
X550017Y481639D01*
X545819Y480490D01*
X541498Y479959D01*
X537145Y480057D01*
X534999Y480420D01*
X535000Y310000D01*
X420000D01*
Y732500D01*
X1135000D01*
Y-55000D01*
D02*
G37*
G36*
X-311000Y-220000D02*
X-485000D01*
Y80000D01*
X-311000D01*
Y-220000D01*
D02*
G37*
G36*
X895000Y-310000D02*
X825000D01*
Y-110000D01*
X895000D01*
Y-310000D01*
D02*
G37*
G36*
X1485000Y-315000D02*
X1170000D01*
Y-135000D01*
X1485000D01*
Y-315000D01*
D02*
G37*
G36*
X-510000Y-220000D02*
X-509947Y-221635D01*
X-509520Y-224877D01*
X-508674Y-228036D01*
X-507422Y-231057D01*
X-505787Y-233890D01*
X-503796Y-236484D01*
X-501484Y-238796D01*
X-498890Y-240787D01*
X-496058Y-242422D01*
X-493036Y-243673D01*
X-489878Y-244520D01*
X-486636Y-244947D01*
X-485000Y-245000D01*
X-311000D01*
Y-372001D01*
X-602500D01*
Y-177500D01*
X-510000D01*
Y-220000D01*
D02*
G37*
G36*
X-1240000Y-227500D02*
X-1207500Y-260000D01*
X-1090000D01*
Y-405000D01*
X-1262500D01*
X-1262500Y-307500D01*
X-1290000Y-280000D01*
X-1375000D01*
Y-85001D01*
X-1492500D01*
Y27500D01*
X-1240000D01*
Y-227500D01*
D02*
G37*
G36*
X-1310000Y-405000D02*
X-1370000D01*
X-1390000Y-425000D01*
X-1500000D01*
Y-380000D01*
X-1430000D01*
X-1370000Y-320000D01*
X-1310000D01*
Y-405000D01*
D02*
G37*
G36*
X1335000Y-431500D02*
X1170000D01*
Y-345000D01*
X1335000D01*
Y-431500D01*
D02*
G37*
G36*
X-2179500Y-485000D02*
X-2250000D01*
Y-200000D01*
X-2179500D01*
Y-485000D01*
D02*
G37*
G36*
X-2430000Y-485000D02*
X-2493500D01*
Y-200000D01*
X-2430000D01*
Y-485000D01*
D02*
G37*
G36*
X-1310000Y-520000D02*
X-1385000D01*
X-1415000Y-490000D01*
X-1500000D01*
Y-445000D01*
X-1380000D01*
X-1370000Y-435000D01*
X-1310000D01*
Y-520000D01*
D02*
G37*
G36*
X400000Y50000D02*
X603000D01*
Y-190000D01*
X399999D01*
Y-520000D01*
X55000D01*
Y380000D01*
X400000D01*
Y50000D01*
D02*
G37*
G36*
X-727500Y-595000D02*
X-902500D01*
Y-514999D01*
X-815000D01*
Y-400000D01*
X-727500D01*
Y-595000D01*
D02*
G37*
G36*
X-2069132Y-515868D02*
X-2010000Y-575000D01*
X-1940000D01*
Y-620000D01*
X-2050000D01*
X-2070000Y-600000D01*
X-2130000D01*
Y-515000D01*
X-2070000D01*
X-2069132Y-515868D01*
D02*
G37*
G36*
X-1397500Y-607500D02*
X-1295000D01*
Y-672500D01*
X-1447500D01*
X-1500000Y-620000D01*
Y-575000D01*
X-1430000D01*
X-1397500Y-607500D01*
D02*
G37*
G36*
X1123500Y-488500D02*
X1185000D01*
Y-770000D01*
X1100000D01*
X1072500Y-742500D01*
X964999D01*
Y-450000D01*
X1085000D01*
X1123500Y-488500D01*
D02*
G37*
G36*
X1300000Y-632500D02*
X1340000Y-672500D01*
X1975000D01*
Y-850500D01*
X1315000D01*
Y-785000D01*
X1300000Y-770000D01*
X1215000D01*
Y-488500D01*
X1300000D01*
Y-632500D01*
D02*
G37*
G36*
X935000Y-770000D02*
X1025000D01*
Y-940000D01*
X855000D01*
Y-677500D01*
X935000D01*
Y-770000D01*
D02*
G37*
G36*
X-770000Y-940000D02*
X-995000D01*
Y-760000D01*
X-770000D01*
Y-940000D01*
D02*
G37*
G36*
X3479609Y-1300000D02*
Y-1328158D01*
X3472258Y-1383992D01*
X3457683Y-1438388D01*
X3436131Y-1490420D01*
X3407974Y-1539190D01*
X3373691Y-1583868D01*
X3333868Y-1623691D01*
X3289190Y-1657974D01*
X3240419Y-1686131D01*
X3188389Y-1707684D01*
X3133993Y-1722259D01*
X3078158Y-1729609D01*
X2292160D01*
X2276778Y-1726550D01*
X2262290Y-1720549D01*
X2249252Y-1711837D01*
X2238163Y-1700748D01*
X2229451Y-1687709D01*
X2223450Y-1673221D01*
X2220391Y-1657840D01*
Y-1650000D01*
Y-1496145D01*
X2228195Y-1495207D01*
X2246874Y-1492241D01*
X2265427Y-1488570D01*
X2283828Y-1484200D01*
X2302051Y-1479138D01*
X2320070Y-1473390D01*
X2337858Y-1466965D01*
X2355390Y-1459871D01*
X2372641Y-1452120D01*
X2389588Y-1443722D01*
X2406204Y-1434689D01*
X2422467Y-1425033D01*
X2438353Y-1414770D01*
X2453839Y-1403913D01*
X2468904Y-1392479D01*
X2483525Y-1380483D01*
X2497683Y-1367942D01*
X2511356Y-1354875D01*
X2524525Y-1341300D01*
X2537171Y-1327237D01*
X2549276Y-1312706D01*
X2560823Y-1297727D01*
X2571796Y-1282322D01*
X2582178Y-1266514D01*
X2591954Y-1250324D01*
X2601112Y-1233775D01*
X2609637Y-1216893D01*
X2613658Y-1208333D01*
X2618056Y-1198740D01*
X2627425Y-1179826D01*
X2637360Y-1161203D01*
X2647852Y-1142888D01*
X2658891Y-1124897D01*
X2670468Y-1107248D01*
X2682571Y-1089956D01*
X2695191Y-1073036D01*
X2708314Y-1056505D01*
X2721930Y-1040376D01*
X2736026Y-1024666D01*
X2750590Y-1009387D01*
X2765607Y-994555D01*
X2781064Y-980182D01*
X2796948Y-966282D01*
X2813244Y-952866D01*
X2829936Y-939948D01*
X2847011Y-927539D01*
X2864452Y-915651D01*
X2882243Y-904294D01*
X2900369Y-893478D01*
X2918812Y-883213D01*
X2937556Y-873509D01*
X2956585Y-864375D01*
X2975880Y-855818D01*
X2995425Y-847848D01*
X3015200Y-840469D01*
X3035190Y-833691D01*
X3055374Y-827518D01*
X3075736Y-821956D01*
X3096255Y-817011D01*
X3116915Y-812687D01*
X3137696Y-808987D01*
X3158578Y-805915D01*
X3179544Y-803475D01*
X3200574Y-801667D01*
X3211111Y-801081D01*
X3217408Y-800631D01*
X3229944Y-799136D01*
X3242360Y-796852D01*
X3254608Y-793790D01*
X3266638Y-789962D01*
X3278403Y-785382D01*
X3289855Y-780069D01*
X3300949Y-774043D01*
X3311641Y-767330D01*
X3321888Y-759956D01*
X3331650Y-751950D01*
X3340886Y-743344D01*
X3349562Y-734173D01*
X3357641Y-724472D01*
X3365093Y-714281D01*
X3371886Y-703640D01*
X3377995Y-692591D01*
X3383395Y-681179D01*
X3388063Y-669450D01*
X3391983Y-657449D01*
X3395137Y-645225D01*
X3397514Y-632826D01*
X3399104Y-620302D01*
X3399900Y-607702D01*
X3400000Y-601390D01*
Y-506673D01*
X3402768Y-502941D01*
X3406577Y-496586D01*
X3409745Y-489889D01*
X3412240Y-482914D01*
X3414040Y-475728D01*
X3415128Y-468399D01*
X3415491Y-461000D01*
X3415128Y-453601D01*
X3414040Y-446273D01*
X3412240Y-439086D01*
X3409745Y-432111D01*
X3406577Y-425414D01*
X3402768Y-419060D01*
X3400000Y-415327D01*
Y-400000D01*
X3479609D01*
Y-1300000D01*
D02*
G37*
G36*
X-2550000Y-1000000D02*
X-2549904Y-1009817D01*
X-2549133Y-1029436D01*
X-2547593Y-1049009D01*
X-2545285Y-1068506D01*
X-2542213Y-1087898D01*
X-2538383Y-1107155D01*
X-2533800Y-1126246D01*
X-2528470Y-1145142D01*
X-2522403Y-1163815D01*
X-2515608Y-1182235D01*
X-2508094Y-1200375D01*
X-2499874Y-1218205D01*
X-2490961Y-1235699D01*
X-2481367Y-1252829D01*
X-2471109Y-1269569D01*
X-2460201Y-1285894D01*
X-2448660Y-1301778D01*
X-2436505Y-1317197D01*
X-2423754Y-1332126D01*
X-2410427Y-1346544D01*
X-2396544Y-1360427D01*
X-2382126Y-1373754D01*
X-2367197Y-1386505D01*
X-2351778Y-1398660D01*
X-2335894Y-1410201D01*
X-2319569Y-1421109D01*
X-2302829Y-1431367D01*
X-2285699Y-1440961D01*
X-2268205Y-1449874D01*
X-2250374Y-1458094D01*
X-2232235Y-1465608D01*
X-2213815Y-1472403D01*
X-2195142Y-1478470D01*
X-2176246Y-1483800D01*
X-2157155Y-1488383D01*
X-2137898Y-1492213D01*
X-2118506Y-1495285D01*
X-2099009Y-1497593D01*
X-2079436Y-1499133D01*
X-2059817Y-1499904D01*
X-2050000Y-1500000D01*
X1379609D01*
Y-1650000D01*
Y-1657841D01*
X1376550Y-1673221D01*
X1370548Y-1687710D01*
X1361837Y-1700748D01*
X1350747Y-1711837D01*
X1337709Y-1720549D01*
X1323221Y-1726550D01*
X1307840Y-1729609D01*
X-3078158D01*
X-3133992Y-1722259D01*
X-3188388Y-1707684D01*
X-3240420Y-1686131D01*
X-3289190Y-1657974D01*
X-3333868Y-1623691D01*
X-3373691Y-1583868D01*
X-3407974Y-1539190D01*
X-3436131Y-1490420D01*
X-3457684Y-1438389D01*
X-3472259Y-1383993D01*
X-3479610Y-1328158D01*
Y-1300000D01*
Y-450000D01*
X-2550000D01*
Y-1000000D01*
D02*
G37*
D10*
X2296421Y635000D02*
G03*
X2225711Y605711I0J-100000D01*
G01*
X2224289Y604290D02*
G03*
X2195000Y533579I70711J-70711D01*
G01*
Y500000D02*
G03*
X2295000Y400000I100000J0D01*
G01*
X2466612Y363388D02*
G03*
X2378224Y400000I-88388J-88388D01*
G01*
X3140000Y140500D02*
G03*
X3090000Y190500I-50000J0D01*
G01*
Y-63500D02*
G03*
X3140000Y-13500I0J50000D01*
G01*
X2756421Y179645D02*
G03*
X2791777Y165000I35355J35355D01*
G01*
X2703389Y126612D02*
G03*
X2791777Y90000I88388J88388D01*
G01*
X2296421Y635000D02*
X2380000D01*
X2224289Y604290D02*
X2225711Y605711D01*
X2195000Y500000D02*
Y533579D01*
X2295000Y400000D02*
X2378224D01*
X-1549999Y730000D02*
X-1500000Y680000D01*
X-1635000Y730000D02*
X-1549999D01*
X-1500000Y380000D02*
Y680000D01*
X-1440000Y320000D02*
X-330000D01*
X-1500000Y380000D02*
X-1440000Y320000D01*
X-330000D02*
X-260000Y250000D01*
X-307500Y-667500D02*
X-260000Y-620000D01*
Y250000D01*
X-590000Y-665000D02*
X-587500Y-667500D01*
X-470000D01*
X-572500Y-942500D02*
X-470000Y-840000D01*
X-572500Y-1180000D02*
Y-942500D01*
X-470000Y-840000D02*
Y-667500D01*
X-307500D01*
X-1745000Y730000D02*
X-1745000Y730000D01*
X-1875000Y730000D02*
X-1745000D01*
X-2150000Y650000D02*
X-2070000Y730000D01*
X-1985000D01*
X-2221000Y650000D02*
X-2150000D01*
X2466612Y363388D02*
X2703389Y126612D01*
X3140000Y-13500D02*
Y140500D01*
X3023000Y190500D02*
X3090000D01*
X3023000Y-63500D02*
X3090000D01*
X2555000Y381066D02*
X2756421Y179645D01*
X2791777Y165000D02*
X2997500D01*
X2555000Y381066D02*
Y400000D01*
X2791777Y90000D02*
X2996500D01*
X-650000Y250000D02*
X-625000Y225000D01*
Y135000D02*
Y225000D01*
X-640000Y120000D02*
X-625000Y135000D01*
X-640000Y72500D02*
Y120000D01*
X-1085000Y-705000D02*
X-1045000Y-665000D01*
X-1120000Y-590000D02*
X-1045000Y-665000D01*
X-980000D01*
X-1635000Y-705000D02*
X-1085000D01*
X-970000Y105000D02*
X-920000D01*
X-990000Y-330000D02*
Y85000D01*
X-970000Y105000D01*
X-990000Y-330000D02*
X-950000Y-370000D01*
X-705000D01*
X-675000Y-400000D01*
Y-1240000D02*
Y-400000D01*
Y-1240000D02*
X-635000Y-1280000D01*
X-572500D01*
X-920000Y195000D02*
X-890000Y225000D01*
X-920000Y105000D02*
Y195000D01*
X-890000Y225000D02*
X-770000D01*
X-740000Y195000D01*
Y72500D02*
Y195000D01*
X730000Y140000D02*
X775000D01*
X795000Y120000D01*
X795000Y-260000D02*
Y120000D01*
X775000Y-280000D02*
X795000Y-260000D01*
X730000Y-280000D02*
X775000D01*
X-107500Y-1380000D02*
X-52500Y-1325000D01*
X-847500D02*
X-792499Y-1380000D01*
X-107500D01*
X-1726999Y-1302000D02*
X-1600000D01*
X-1473000D01*
X-1346000D01*
X947501Y-982499D02*
Y-875000D01*
X905000Y-1025000D02*
X947501Y-982499D01*
X825000Y-1025000D02*
X905000D01*
X725000Y-1125000D02*
X825000Y-1025000D01*
X200000Y-1125000D02*
X725000D01*
X152500Y-1077500D02*
X200000Y-1125000D01*
X152500Y-1077500D02*
Y-875000D01*
X3023000Y-190500D02*
Y-63500D01*
X3056500Y90000D02*
X3083000Y63500D01*
X2997500Y165000D02*
X3023000Y190500D01*
X800000Y509999D02*
Y650000D01*
X750000D02*
X800000D01*
X800000Y790000D02*
Y905000D01*
X1115000D01*
X750000Y450000D02*
Y509999D01*
X487499Y905000D02*
X497500Y915000D01*
X610000D01*
X385000Y905000D02*
X487499D01*
X700000Y790000D02*
Y835550D01*
X683550Y852000D02*
X700000Y835550D01*
X625358Y852000D02*
X683550D01*
X609999Y867359D02*
X610000Y915000D01*
X609999Y867359D02*
X625358Y852000D01*
X730000Y-140000D02*
Y-0D01*
X650000Y-300000D02*
Y-163000D01*
X547000Y-324000D02*
X626000D01*
X650000Y-300000D01*
Y-163000D02*
X673000Y-140000D01*
X730000D01*
X760000Y-900000D02*
X800000Y-860000D01*
Y-510000D01*
X480000Y-900000D02*
X760000D01*
X830000Y-480000D02*
X880000D01*
X800000Y-510000D02*
X830000Y-480000D01*
X455001Y-924999D02*
X480000Y-900000D01*
X455001Y-960000D02*
Y-924999D01*
X-920000Y-245000D02*
X-850000D01*
X-815000Y-280000D02*
X-760000D01*
X-850000Y-245000D02*
X-815000Y-280000D01*
X-760000D02*
X-740000Y-260000D01*
Y-212500D01*
X-797500Y170000D02*
X-790000Y162500D01*
Y72500D02*
Y162500D01*
X-690000Y162501D02*
X-682500Y170000D01*
X-690000Y72500D02*
Y162501D01*
X-640000Y-267499D02*
Y-212500D01*
X-682500Y-310000D02*
X-640000Y-267499D01*
X-1620000Y-140000D02*
Y500000D01*
X-52500Y-1325000D02*
Y-1212499D01*
X-32500Y-1192500D02*
Y-1100000D01*
X-52500Y-1212499D02*
X-32500Y-1192500D01*
X-2220000Y-355000D02*
X-2065000D01*
X-2220000Y-400000D02*
Y-355000D01*
X-2065000D02*
X-2040000Y-380000D01*
Y-495000D02*
Y-380000D01*
Y-495000D02*
X-2002500Y-532500D01*
X-1940000D01*
X-1690000Y-650000D02*
X-1635000Y-705000D01*
X-1752500Y-467500D02*
X-1690000Y-530000D01*
Y-650000D02*
Y-530000D01*
X-1940000Y-467500D02*
X-1752500D01*
X-2463500Y63500D02*
Y272500D01*
Y63500D02*
X-2336500Y-63500D01*
Y-272500D02*
Y-63500D01*
X-2200000Y57500D02*
Y125000D01*
X-2209500Y134500D02*
X-2200000Y125000D01*
X-2209500Y134500D02*
Y272500D01*
X-1230000Y-550329D02*
Y-475000D01*
X-1244836Y-565164D02*
X-1230000Y-550329D01*
X-1225000Y-640000D02*
Y-585000D01*
X-1244836Y-565164D02*
X-1225000Y-585000D01*
X-1385036Y-565164D02*
X-1244836D01*
X-1417700Y-532500D02*
X-1385036Y-565164D01*
X-1500000Y-532500D02*
X-1417700D01*
X-2825000Y0D02*
X-2630000D01*
X-2590500Y-39500D01*
Y-272500D02*
Y-39500D01*
Y139500D02*
Y272500D01*
X-2630000Y100000D02*
X-2590500Y139500D01*
X-2825000Y100000D02*
X-2630000D01*
D11*
X2380000Y1000000D02*
G03*
X2100000Y1280000I-280000J0D01*
G01*
X-2050000D02*
G03*
X-2330000Y1000000I0J-280000D01*
G01*
X2380000Y825000D02*
Y1000000D01*
X-2050000Y1280000D02*
X2100000D01*
X-2330000Y875000D02*
Y1000000D01*
D12*
X2120000Y635000D02*
D03*
Y825000D02*
D03*
X2380000D02*
D03*
Y730000D02*
D03*
Y635000D02*
D03*
D13*
X1980000Y787500D02*
D03*
Y672500D02*
D03*
X2520000Y787500D02*
D03*
Y672500D02*
D03*
X-470000Y-667500D02*
D03*
Y-552500D02*
D03*
X-2220000Y-442500D02*
D03*
Y-557500D02*
D03*
X-2400000D02*
D03*
Y-442500D02*
D03*
X-2460000Y442500D02*
D03*
Y557500D02*
D03*
X-1340000Y-477500D02*
D03*
Y-362500D02*
D03*
X-2100000Y-557500D02*
D03*
Y-442500D02*
D03*
X1005000Y677501D02*
D03*
Y792501D02*
D03*
X-1120000Y-362500D02*
D03*
Y-477500D02*
D03*
X495000Y792501D02*
D03*
Y677501D02*
D03*
D14*
X-590000Y-555000D02*
D03*
Y-665000D02*
D03*
X-2330000Y875000D02*
D03*
Y765000D02*
D03*
X-980000Y-665000D02*
D03*
Y-555000D02*
D03*
X-1230000Y-475000D02*
D03*
Y-365000D02*
D03*
X-870000Y-555000D02*
D03*
Y-665000D02*
D03*
X-760000Y-555000D02*
D03*
Y-665000D02*
D03*
X1115000Y905000D02*
D03*
Y795000D02*
D03*
X720000Y915000D02*
D03*
Y1025000D02*
D03*
X610000Y915000D02*
D03*
Y1025000D02*
D03*
X-1460000Y-155000D02*
D03*
Y-45000D02*
D03*
X385000Y795000D02*
D03*
Y905000D02*
D03*
X-920000Y-245000D02*
D03*
Y-135000D02*
D03*
Y105000D02*
D03*
Y-5000D02*
D03*
D15*
X-2319000Y650000D02*
D03*
X-2221000Y650000D02*
D03*
D16*
X-1985000Y730000D02*
D03*
X-1875000Y730000D02*
D03*
X-1745000Y730000D02*
D03*
X-1635000Y730000D02*
D03*
X-2325000Y540000D02*
D03*
X-2215000D02*
D03*
X-2825000Y100000D02*
D03*
X-2935000D02*
D03*
X-2825000Y0D02*
D03*
X-2935000D02*
D03*
X-1335000Y-640000D02*
D03*
X-1225000D02*
D03*
X895000Y-710000D02*
D03*
X1005000D02*
D03*
X1005000Y-600000D02*
D03*
X895000D02*
D03*
X1255000Y-630000D02*
D03*
X1145000D02*
D03*
D17*
X-2590500Y-272500D02*
D03*
X-2463500D02*
D03*
X-2336500D02*
D03*
X-2209500D02*
D03*
X-2590500Y272500D02*
D03*
X-2463500D02*
D03*
X-2336500D02*
D03*
X-2209500D02*
D03*
D18*
X-1940000Y-402500D02*
D03*
Y-467500D02*
D03*
Y-532500D02*
D03*
Y-597500D02*
D03*
X-1500000Y-402500D02*
D03*
Y-467500D02*
D03*
Y-532500D02*
D03*
Y-597500D02*
D03*
D19*
X-1307500Y-5000D02*
D03*
Y-195000D02*
D03*
X-1092500Y-100000D02*
D03*
D20*
X890000Y625000D02*
D03*
X610000D02*
D03*
X890000Y675000D02*
D03*
X610000D02*
D03*
D21*
X750000Y650000D02*
D03*
D22*
X650000Y790000D02*
D03*
X700000D02*
D03*
X750000D02*
D03*
X800000D02*
D03*
X850000D02*
D03*
Y510000D02*
D03*
X800000D02*
D03*
X750000D02*
D03*
X700000D02*
D03*
X650000D02*
D03*
D23*
X-690000Y-70000D02*
D03*
D24*
X-590000Y-212500D02*
D03*
X-640000D02*
D03*
X-690000D02*
D03*
X-740000D02*
D03*
X-790000D02*
D03*
Y72500D02*
D03*
X-740000D02*
D03*
X-690000D02*
D03*
X-640000D02*
D03*
X-590000D02*
D03*
D25*
X1105000Y-260000D02*
D03*
X1200000D02*
D03*
X1295000D02*
D03*
Y0D02*
D03*
X1105000D02*
D03*
D26*
X547000Y184000D02*
D03*
Y-70000D02*
D03*
Y-324000D02*
D03*
X-367000D02*
D03*
Y-70000D02*
D03*
Y184000D02*
D03*
D27*
X-2000000Y500000D02*
D03*
X-1620000D02*
D03*
Y-140000D02*
D03*
X-2000000D02*
D03*
D28*
X-52500Y-875000D02*
D03*
Y-1325000D02*
D03*
X-847500D02*
D03*
Y-875000D02*
D03*
X947501D02*
D03*
Y-1325000D02*
D03*
X152500D02*
D03*
Y-875000D02*
D03*
D29*
X1200000Y-405000D02*
D03*
X1250000Y-515000D02*
D03*
X1150000D02*
D03*
D30*
X-3275000Y0D02*
D03*
D31*
Y277000D02*
D03*
Y-277000D02*
D03*
D32*
X-1346000Y-898000D02*
D03*
Y-1302000D02*
D03*
X-1473000Y-898000D02*
D03*
Y-1302000D02*
D03*
X-1600000Y-898000D02*
D03*
Y-1302000D02*
D03*
X-1727000Y-898000D02*
D03*
Y-1302000D02*
D03*
X-1854000Y-898000D02*
D03*
Y-1302000D02*
D03*
D33*
X1200001Y-912500D02*
D03*
Y-1287500D02*
D03*
D34*
X870000Y0D02*
D03*
X730000D02*
D03*
X870000Y140000D02*
D03*
X730000D02*
D03*
X730000Y-140000D02*
D03*
X870000D02*
D03*
X730000Y-280000D02*
D03*
X870000D02*
D03*
X1020000Y-480000D02*
D03*
X880000D02*
D03*
D35*
X-2327500Y430000D02*
D03*
X-2212500D02*
D03*
X-772500Y-430000D02*
D03*
X-887500D02*
D03*
X857500Y340000D02*
D03*
X742500D02*
D03*
X597500D02*
D03*
X482500D02*
D03*
X1257500Y-740000D02*
D03*
X1142500D02*
D03*
D36*
X1300000Y210000D02*
D03*
X1020000D02*
D03*
D37*
X2380000Y730000D02*
X2442500D01*
X2500000Y787500D01*
X1940000Y635000D02*
X2120000D01*
X1895000Y590000D02*
X1940000Y635000D01*
D38*
X3360000Y461000D02*
D03*
Y-461000D02*
D03*
D39*
X3023000Y190500D02*
D03*
Y63500D02*
D03*
Y-190500D02*
D03*
Y-63500D02*
D03*
D40*
X3290000Y461000D02*
D03*
X2840000D02*
D03*
Y-461000D02*
D03*
X3290000D02*
D03*
D41*
X2896000Y330000D02*
D03*
Y-330000D02*
D03*
D42*
X1925000Y-0D02*
D03*
X1675000D02*
D03*
D43*
X3050000Y1300000D02*
D03*
Y-1300000D02*
D03*
X-3050000D02*
D03*
Y1300000D02*
D03*
D44*
X2000000Y672500D02*
D03*
X2605000Y590000D02*
D03*
Y870000D02*
D03*
X-590000Y-555000D02*
D03*
X-470000Y-552500D02*
D03*
X-772500Y-430000D02*
D03*
X-572500Y-1180000D02*
D03*
Y-1280000D02*
D03*
X-3175000Y277000D02*
D03*
X-3375000D02*
D03*
Y-277000D02*
D03*
X-3175000D02*
D03*
X-3430000Y-1200000D02*
D03*
X-3430000Y1200000D02*
D03*
X3430000D02*
D03*
Y900000D02*
D03*
X3430000Y-1200000D02*
D03*
Y-900000D02*
D03*
Y-600000D02*
D03*
Y600000D02*
D03*
X-3350000Y650000D02*
D03*
X-3400000Y850000D02*
D03*
X-3100000Y550000D02*
D03*
X-2800000D02*
D03*
X-2650000Y650000D02*
D03*
Y-650000D02*
D03*
X-2800000Y-550000D02*
D03*
X-3100000D02*
D03*
X-3400000Y-850000D02*
D03*
X-3350000Y-650000D02*
D03*
X-0Y-1600000D02*
D03*
X800000D02*
D03*
X400000D02*
D03*
X-400000D02*
D03*
X-800000D02*
D03*
X-1200000D02*
D03*
X-1600000D02*
D03*
X-2000000D02*
D03*
X-2400000D02*
D03*
X1200000D02*
D03*
X2400000D02*
D03*
X2600000Y-1650000D02*
D03*
X-2200000D02*
D03*
X-1800000D02*
D03*
X-1400001D02*
D03*
X-1000000D02*
D03*
X-600000D02*
D03*
X-200000D02*
D03*
X600000D02*
D03*
X1000000D02*
D03*
X200000D02*
D03*
X-2600000D02*
D03*
X-2600000Y1650000D02*
D03*
X200000D02*
D03*
X1000000D02*
D03*
X600000D02*
D03*
X-200000D02*
D03*
X-600000D02*
D03*
X-1000000D02*
D03*
X-1400000D02*
D03*
X-1800000D02*
D03*
X-2200000D02*
D03*
X1400000D02*
D03*
X1800000D02*
D03*
X2200000D02*
D03*
X2600000D02*
D03*
X2400000Y1600000D02*
D03*
X2000000D02*
D03*
X1600000D02*
D03*
X1200000D02*
D03*
X-2400000D02*
D03*
X-2000000D02*
D03*
X-1600000D02*
D03*
X-1200000D02*
D03*
X-800000D02*
D03*
X-400000D02*
D03*
X400000D02*
D03*
X800000D02*
D03*
X0D02*
D03*
X613000Y-470000D02*
D03*
X513000D02*
D03*
X-650000Y250000D02*
D03*
X-710000Y-20000D02*
D03*
X-810000D02*
D03*
X-610000D02*
D03*
Y-120000D02*
D03*
X-810000D02*
D03*
X-710000D02*
D03*
X-1620000Y-140000D02*
D03*
X-1120000Y-590000D02*
D03*
X-1630000Y-530000D02*
D03*
X-1992499Y-1047500D02*
D03*
X-1992499Y-1152500D02*
D03*
X-1460000Y-45000D02*
D03*
X620000Y430000D02*
D03*
X-1120000Y-1235000D02*
D03*
X-1230000Y-1237500D02*
D03*
X-22500Y-845000D02*
D03*
X-195000Y-1317500D02*
D03*
X152500Y-875000D02*
D03*
X1450000Y-170000D02*
D03*
Y-270000D02*
D03*
X857500Y340000D02*
D03*
X742500D02*
D03*
X905000Y792500D02*
D03*
X495000D02*
D03*
X2155000Y825000D02*
D03*
X1895000Y590000D02*
D03*
X1995000Y570000D02*
D03*
X1895000Y870000D02*
D03*
X1995000Y890000D02*
D03*
X2000000Y787500D02*
D03*
X2500000D02*
D03*
X2505000Y890000D02*
D03*
Y570000D02*
D03*
X2500000Y672500D02*
D03*
X645000Y-960000D02*
D03*
X745001D02*
D03*
X2711600Y320000D02*
D03*
X2856400Y240000D02*
D03*
Y-240000D02*
D03*
X2711600Y-320000D02*
D03*
X745001Y-1240000D02*
D03*
X645000D02*
D03*
X2530000Y-625000D02*
D03*
X2640000Y-625000D02*
D03*
X2555000Y400000D02*
D03*
X540000Y510000D02*
D03*
X960000Y510000D02*
D03*
X650000Y650000D02*
D03*
X850000D02*
D03*
X750000D02*
D03*
X1005000Y635001D02*
D03*
Y792500D02*
D03*
X750000Y450000D02*
D03*
X495000Y635001D02*
D03*
X595000Y792500D02*
D03*
X610000Y1025000D02*
D03*
X858500Y120000D02*
D03*
Y-260000D02*
D03*
X120001Y-70000D02*
D03*
X120000Y170000D02*
D03*
X120000Y50000D02*
D03*
X119999Y289999D02*
D03*
Y-429999D02*
D03*
X120000Y-190000D02*
D03*
X120000Y-310000D02*
D03*
X-140000Y-190000D02*
D03*
X-140000Y50000D02*
D03*
X-140000Y-70000D02*
D03*
X330000Y-1045000D02*
D03*
X1300000Y260000D02*
D03*
Y160000D02*
D03*
X1020000D02*
D03*
Y260000D02*
D03*
X1300000Y-378500D02*
D03*
X1200000D02*
D03*
X1105000Y-260000D02*
D03*
X1700000Y-761500D02*
D03*
X1900000D02*
D03*
X1800000D02*
D03*
X895000Y-600000D02*
D03*
X455001Y-960000D02*
D03*
X550000D02*
D03*
X-1335000Y-640000D02*
D03*
X-920000Y-5000D02*
D03*
Y-135000D02*
D03*
X-797500Y170000D02*
D03*
X-682500D02*
D03*
Y-310000D02*
D03*
X-420000Y-70000D02*
D03*
X-419999Y50000D02*
D03*
X-420000Y-190000D02*
D03*
X-2460000Y442500D02*
D03*
X1200001Y-912500D02*
D03*
X945001Y-1100000D02*
D03*
X1200001Y-1287500D02*
D03*
X-32500Y-1100000D02*
D03*
X-1230000Y-1122500D02*
D03*
X947501Y-1325000D02*
D03*
X152500D02*
D03*
X-900000Y-1182500D02*
D03*
X-2000000Y-140000D02*
D03*
Y500000D02*
D03*
X-1340000Y-362500D02*
D03*
X-1854000Y-760000D02*
D03*
X-1726999D02*
D03*
X-1600000D02*
D03*
X-1473000D02*
D03*
X-1346000D02*
D03*
X-1726999Y-1440000D02*
D03*
X-1854000D02*
D03*
X-2460000Y557500D02*
D03*
X-2200000Y57500D02*
D03*
X-772500Y-530000D02*
D03*
X-760000Y-664999D02*
D03*
X-870000D02*
D03*
X-965000Y-795000D02*
D03*
X-980000Y-555000D02*
D03*
X-1460000Y-155000D02*
D03*
X-1092500Y-100000D02*
D03*
X-887500Y-430000D02*
D03*
X-1120000Y-477500D02*
D03*
X-1340000D02*
D03*
X-1940000Y-380000D02*
D03*
X-2070000Y-557500D02*
D03*
X-2400000Y-400000D02*
D03*
X-2100000Y-442500D02*
D03*
X-2400000Y-557500D02*
D03*
X-2220000Y-557500D02*
D03*
Y-400000D02*
D03*
%TF.MD5,74c279c754d51399f34a0d0020b9645e*%
M02*
